<svg xmlns="http://www.w3.org/2000/svg" viewBox="0 0 99.12 101.05"><g id="Capa_2" data-name="Capa 2"><g id="Capa_10" data-name="Capa 10"><path d="M49.93,0c65.88.28,65.68,101.83-1.19,101C-16.72,100.38-16.16-.52,49.93,0ZM49.7,3.51c-61.14,1.57-62,91.43-.72,94C110.59,96.64,111.61,5.57,49.7,3.51Z"/><path d="M75.07,22.6c34.58,20.73,1.66,82.1-34.27,64.63C78.67,91.52,100.11,50.72,75.07,22.6Z"/><path d="M23.51,22.23c-15.52,21-14,40.59,3.77,59.48C4.49,70.89,3.13,36.38,23.51,22.23Z"/><path d="M70.76,23.69a36.22,36.22,0,0,1-3.68,16.47,35.42,35.42,0,0,1-5.69,8.27A38.47,38.47,0,0,1,42.5,58.63c-.22-2.45-.45-4.9-.67-7.35L27.45,65.15l16.3,12.21-.42-6.94A39.18,39.18,0,0,0,66.16,52.7a40.73,40.73,0,0,0,4.51-11.46A41.1,41.1,0,0,0,70.76,23.69Z"/></g></g></svg>