<svg xmlns="http://www.w3.org/2000/svg" viewBox="0 0 83.15 34.71"><defs><style>.cls-1{fill:#1d1d1b;}</style></defs><g id="Capa_2" data-name="Capa 2"><g id="Capa_9" data-name="Capa 9"><path class="cls-1" d="M0,22.62a5.21,5.21,0,0,1,0-.78A4.9,4.9,0,0,1,.27,21V2.34l.3,0,.29,0c.13,0,.34,0,.64,0s.61.06.94.1l.93.09c.3,0,.52,0,.65,0V31.71H1.44c0,.26-.08.39-.25.41l-.49,0H.27c0-.34,0-.93,0-1.76S.18,28.66.14,27.71.06,25.86,0,25s0-1.44,0-1.78ZM2.3,1.52c.13,0,.2.09.2.27s-.07.28-.2.28S2.07,2,2.07,1.79,2.15,1.52,2.3,1.52ZM4.56,13.26q.24,0,.24.27c0,.19-.08.28-.24.28s-.19-.09-.19-.28S4.43,13.26,4.56,13.26Zm0,.55c.16,0,.24.1.24.31s-.08.27-.24.27-.19-.09-.19-.27S4.43,13.81,4.56,13.81Zm0,6.86c.16,0,.24.1.24.31s-.08.28-.24.28-.19-.1-.19-.28S4.43,20.67,4.56,20.67ZM5.89,12a.57.57,0,0,1-.51.59,3.74,3.74,0,0,1-.86.11A.54.54,0,0,1,5,12.09,5.67,5.67,0,0,1,5.89,12Zm-1,19.54a1.11,1.11,0,0,1-.34-.92c0-.4,0-.7,0-.91s0-.52,0-.94a1.12,1.12,0,0,1,.34-.93,4.66,4.66,0,0,0,3.5-.92A4,4,0,0,0,9.75,23.6a9.36,9.36,0,0,0-.14-1.43,7.43,7.43,0,0,0-.46-1.64,4.27,4.27,0,0,0-.88-1.34,1.89,1.89,0,0,0-1.41-.55.47.47,0,0,0-.43.2A.44.44,0,0,1,6,19V18.1l-.75.25a3.48,3.48,0,0,0-.7.33V14.86a4.25,4.25,0,0,0,3.49-1.39A5.42,5.42,0,0,0,9.2,9.87,4.12,4.12,0,0,0,9,8.68,3.9,3.9,0,0,0,8.5,7.55a2.94,2.94,0,0,0-.86-.86,2.06,2.06,0,0,0-1.17-.33,2.75,2.75,0,0,0-1,.17,2.56,2.56,0,0,1-1,.18V2.65c.13,0,.35,0,.65,0l1-.07.94-.08c.28,0,.49,0,.62-.08L8,2.22c.15-.07.24-.13.3-.15h.15A.76.76,0,0,1,9,2.32a1.56,1.56,0,0,0,.47.33,10.79,10.79,0,0,1,1.75.88,3.44,3.44,0,0,1,1,1,6,6,0,0,1,.62,1.35c.17.52.38,1.17.64,2a1.5,1.5,0,0,0,.14.18c.07.06.11.09.14.09v.35a3.7,3.7,0,0,0,0,.45c0,.17,0,.33,0,.49v.31A11.63,11.63,0,0,1,13.51,12a10.84,10.84,0,0,1-.64,2.17,1.19,1.19,0,0,1-.41.54l-.58.47a2.55,2.55,0,0,0-.51.53,1.19,1.19,0,0,0-.22.72.61.61,0,0,0,.37.62,3.53,3.53,0,0,0,.8.24l-.31.31a7,7,0,0,1,.66.78,11.27,11.27,0,0,1,.67,1,5.43,5.43,0,0,1,.5,1,2.74,2.74,0,0,1,.2.92.75.75,0,0,1-.16.5.81.81,0,0,0-.15.51.47.47,0,0,0,.29.45.51.51,0,0,1,.29.52v.32c-.21,1.17-.39,2.18-.54,3A7.16,7.16,0,0,1,13,28.82a4.6,4.6,0,0,1-1.54,1.6,9.7,9.7,0,0,1-2.89,1.13,2,2,0,0,0-.72.33,1.3,1.3,0,0,1-.72.26,1.6,1.6,0,0,1-.53-.08l-.45-.18-.52-.19A3.34,3.34,0,0,0,4.88,31.55Zm.54-6c0,.1-.17.15-.43.15a.52.52,0,0,1-.43-.15s0-.06.12-.08a1.1,1.1,0,0,1,.31,0,1.06,1.06,0,0,1,.33,0C5.41,25.49,5.45,25.52,5.42,25.55ZM5.3,7.49l.2,0,.23,0L4.56,7.8a.35.35,0,0,1,.32-.29ZM4.88,23.24h.85v.32H4.88Zm1.4-6.86v.31h.31Zm.58,2.3c.13,0,.2.11.2.31s-.07.28-.2.28-.19-.09-.19-.28S6.73,18.68,6.86,18.68Zm2-1.44c-.15,0-.23.1-.23.31s.08.27.23.27.2-.09.2-.27S9,17.24,8.89,17.24Zm4.56-9.17c-.13,0-.19.11-.19.32s.06.27.19.27.2-.09.2-.27S13.58,8.07,13.45,8.07Zm0,2.62c-.13,0-.19.09-.19.27s.06.27.19.27.2-.09.2-.27S13.58,10.69,13.45,10.69ZM14,23c-.16,0-.23.11-.23.31s.07.28.23.28.19-.09.19-.28S14.17,23,14,23Zm.27-1.44c.13,0,.2.1.2.31s-.07.27-.2.27-.19-.09-.19-.27S14.18,21.53,14.31,21.53ZM14.9,8.07c.13,0,.19.11.19.32s-.06.27-.19.27-.24-.09-.24-.27S14.74,8.07,14.9,8.07Z"/><path class="cls-1" d="M24.26,27.26l.27-.58H21.29v-.43c0-.29,0-.78,0-1.48s.06-1.45.1-2.23.07-1.51.1-2.2,0-1.18.08-1.46c0-.06,0-.11.11-.18a1.4,1.4,0,0,0,.16-.14s.05,0,.08,0a.1.1,0,0,0,.07.06.71.71,0,0,1,.1-.17c.07-.09.09-.17.06-.22a1.09,1.09,0,0,0-.43-.17,1.94,1.94,0,0,0-.47-.1V15a.27.27,0,0,1,.12-.26.43.43,0,0,1,.25,0l.28.06.17,0A1.26,1.26,0,0,0,22,14.2a3.82,3.82,0,0,0-.35-.51c-.13-.16-.26-.31-.38-.47a1.58,1.58,0,0,1-.25-.54,3.68,3.68,0,0,1,0-.45,2.22,2.22,0,0,0,0-.63.7.7,0,0,0-.23-.45c-.13-.1-.35-.09-.67,0V9.75l-.15,0-.16,0-.45.18a1.81,1.81,0,0,1-.45.13,1.75,1.75,0,0,1-.42-.13,3.61,3.61,0,0,1-.43-.18l-.16,0-.16,0v.62l-.29,0a1.1,1.1,0,0,1-.29,0,.77.77,0,0,1-.29-.14.79.79,0,0,0-.3-.14,2,2,0,0,0-1,.32,2.16,2.16,0,0,1-1.07.31c0-.21,0-.44,0-.69a3.2,3.2,0,0,1,.11-.7,1.22,1.22,0,0,1,.32-.54.83.83,0,0,1,.64-.22,2,2,0,0,1,.68.1,2,2,0,0,1,.65.53,1,1,0,0,1,.6-.49,2.78,2.78,0,0,1,.76-.1,5.49,5.49,0,0,1,.8.06,1.6,1.6,0,0,0,.76-.06s.09,0,.18-.14a3.84,3.84,0,0,0,.27-.29l.27-.29.18-.18A1,1,0,0,1,21,7.47a.8.8,0,0,1,.29-.1.55.55,0,0,1-.17-.15L21,7.06V6.75l.18-.14c.09-.06.13-.11.13-.14s0-.07,0-.15a.38.38,0,0,1-.05-.16h-.28s0-.07,0-.13,0-.11,0-.14l.25-.49q.18-.33.36-.72c.11-.26.23-.5.35-.72s.2-.37.25-.45l-.58-.27A1,1,0,0,0,22,2.89a1.7,1.7,0,0,0,.24-.51,3.39,3.39,0,0,0,.1-.57c0-.19,0-.35,0-.48l.78,0a6.67,6.67,0,0,1,1.09,0,2.67,2.67,0,0,1,1,.27.73.73,0,0,1,.43.72h.43s0,.07,0,.14a.2.2,0,0,1-.06.13,3.4,3.4,0,0,0-.35.69q-.15.41-.33.81a6.56,6.56,0,0,1-.37.75,1,1,0,0,1-.43.44.81.81,0,0,0-.14-.81.86.86,0,0,0-.72-.39.29.29,0,0,0-.19.11.34.34,0,0,0-.12.2,5.75,5.75,0,0,1,.29.56c.15.3.24.5.3.61v.31a2.72,2.72,0,0,0-.14.29c-.07.14-.11.24-.14.29h.7v.9a1.53,1.53,0,0,1,1.06-.9.94.94,0,0,0,0,.22c0,.09,0,.16,0,.21a.58.58,0,0,1-.16.45,2.91,2.91,0,0,1-.33.26l-.33.21a.28.28,0,0,0-.16.25.5.5,0,0,0,0,.16,1.37,1.37,0,0,0,.29.16,1.87,1.87,0,0,1,.3.15l.46.27V12.6a2.75,2.75,0,0,0,.88-.14,2.8,2.8,0,0,1,.88-.14,1,1,0,0,1-.39.8l-.86.73a6.91,6.91,0,0,0-.86.85,1.85,1.85,0,0,0-.39,1.21,3.71,3.71,0,0,0,.39,1.45,5.1,5.1,0,0,1,.47,1.52,1.16,1.16,0,0,1,0,.41c0,.19,0,.41-.06.64s-.05.45-.08.64,0,.33,0,.41a1.21,1.21,0,0,0,.45-.06q.14-.06.33.3l-.62.31v1.75h.62c.06.24.1.43.14.59s.07.32.1.49a3.73,3.73,0,0,1,0,.41v1.75a.48.48,0,0,0,.33.43,2.5,2.5,0,0,0,.64.16,3.79,3.79,0,0,0,.67,0h.42l.82.11,1.25.18,1.25.19.82.14c.13,0,.3.11.52.33a1.25,1.25,0,0,1,.38.53s-.07.22-.2.58-.29.77-.47,1.21l-.5,1.21c-.16.36-.26.55-.32.55H28.39L28.08,32l-.31-.16h-.16a.65.65,0,0,0-.49.16,1,1,0,0,1-.68.16,1.87,1.87,0,0,1-1.13-.32,1.87,1.87,0,0,0-1.09-.31,2.71,2.71,0,0,0-.66.08c-.21.05-.38.23-.51.55,0-.26,0-.43-.14-.51a.77.77,0,0,0-.45-.12c-.18,0-.3,0-.35.14l-.15.27a2.34,2.34,0,0,1-.2.27c-.08.1-.23.14-.47.14V27.26ZM14.9,10c0,.19.06.28.19.28s.24-.09.24-.28-.08-.31-.24-.31S14.9,9.82,14.9,10Zm1.91.9q0,.27-.24.27c-.15,0-.23-.09-.23-.27s.08-.31.23-.31S16.81,10.71,16.81,10.92Zm2.49-5,.24,0a1.45,1.45,0,0,1-.26.47c-.09.1-.17.21-.25.31a.76.76,0,0,0-.15.37,1.6,1.6,0,0,0,0,.6,1.25,1.25,0,0,0-.41-.25,1.33,1.33,0,0,0-.44-.06.68.68,0,0,0-.59.22q-.15.21-.66.21a1.6,1.6,0,0,1,.76-1.38,2.66,2.66,0,0,1,1.5-.53Zm-1.48.6c0,.19.08.28.24.28s.19-.09.19-.28-.06-.31-.19-.31S17.82,6.27,17.82,6.47ZM19.66,7.8a.16.16,0,0,1-.12.16c-.11,0-.16,0-.16-.16s.05-.18.16-.16A.16.16,0,0,1,19.66,7.8Zm1.05,1.6a.85.85,0,0,0,.45-.16.47.47,0,0,0,.25-.43h-.7Zm.9-8.23V2.34h-.32V1.17ZM22,19.31q-.2,0-.15.15a.15.15,0,0,0,.15.12.16.16,0,0,0,.16-.12C22.22,19.36,22.16,19.31,22,19.31ZM22,11.78c0,.21.07.31.23.31s.2-.1.2-.31-.07-.31-.2-.31S22,11.57,22,11.78Zm.31-2.93c0,.19.06.28.19.28s.24-.09.24-.28-.08-.31-.24-.31S22.27,8.65,22.27,8.85Zm.27.28q0,.27.24.27c.13,0,.19-.09.19-.27s-.06-.32-.19-.32S22.54,8.92,22.54,9.13Zm.82-.37a1.8,1.8,0,0,0,.66.13.67.67,0,0,0-.33-.62A3.4,3.4,0,0,0,23.05,8s0,.07,0,.13,0,.11,0,.14A.52.52,0,0,0,23.36,8.76Zm-.23,7.15c0,.18.07.28.23.28s.23-.1.23-.28-.07-.31-.23-.31S23.13,15.7,23.13,15.91Zm.31-12.36c0,.18.08.27.23.27s.2-.09.2-.27-.07-.31-.2-.31S23.44,3.34,23.44,3.55Zm.74,1.17c0,.18-.08.27-.23.27s-.2-.09-.2-.27.06-.31.2-.31S24.18,4.51,24.18,4.72Zm.16-2.38c0,.18.06.27.19.27s.23-.09.23-.27S24.69,2,24.53,2,24.34,2.13,24.34,2.34Zm0,12.71c0,.19.06.28.19.28s.23-.09.23-.28-.07-.31-.23-.31S24.34,14.85,24.34,15.05Zm.58-12.12c0,.2.06.31.2.31s.23-.11.23-.31-.08-.32-.23-.32S24.92,2.72,24.92,2.93Zm0,23.9c0,.18.06.28.2.28s.23-.1.23-.28-.08-.31-.23-.31S24.92,26.62,24.92,26.83Zm.84-22.34a2.67,2.67,0,0,1,.06.5h-.39V4.1A.45.45,0,0,1,25.76,4.49ZM25.93,8c0,.18-.07.27-.23.27s-.19-.09-.19-.27.06-.32.19-.32S25.93,7.75,25.93,8Zm-.35,17.82c0,.13,0,.18.12.16s.16-.07.16-.12-.06-.13-.16-.16S25.58,25.65,25.58,25.78Zm2.3-19.21a.75.75,0,0,1,.2.49,1.87,1.87,0,0,1-.37.72c-.22.3-.4.45-.53.45h-.31V8.11c0-.08,0-.13,0-.15s.06-.2.12-.37l.15-.53a4.72,4.72,0,0,1,.18-.53c.06-.17.11-.29.13-.37A1.18,1.18,0,0,1,27.88,6.57Zm-.07,2V8.7a.16.16,0,0,1,0,.11,1.82,1.82,0,0,1-.12.47,3.25,3.25,0,0,1-.16.43V8.54ZM34,30.07H33.7v-.31Zm.58-3.63v.74a.57.57,0,0,1-.58-.35A.62.62,0,0,1,34.55,26.44Z"/><path class="cls-1" d="M35.45,23.32c0,.18-.08.28-.23.28s-.24-.1-.24-.28.08-.31.24-.31S35.45,23.11,35.45,23.32Zm2-12.91a.34.34,0,0,1,.12.2,1.35,1.35,0,0,1-1.29.74,1.14,1.14,0,0,1,.27-.7.84.84,0,0,1,.7-.35A.34.34,0,0,1,37.48,10.41Zm.62.51c0,.18-.08.27-.23.27s-.2-.09-.2-.27.07-.31.2-.31S38.1,10.71,38.1,10.92Zm3.32,16.81a4.37,4.37,0,0,0-.06-.51q-.06-.39-.12-.84c0-.3-.07-.57-.1-.83s0-.43,0-.51c0-.37,0-.92-.06-1.68s0-1.6,0-2.55,0-1.95-.06-3-.05-2-.06-3,0-1.8,0-2.55,0-1.32,0-1.68h-.74a1.08,1.08,0,0,1,.1-.51,3.69,3.69,0,0,1,.19-.35c.07-.1.13-.21.2-.33a1.09,1.09,0,0,0,.1-.49.09.09,0,0,1-.08-.06s-.05,0-.08,0l-.37.24-.53.33-.52.35a3.22,3.22,0,0,0-.33.25V9.48a1.62,1.62,0,0,0,1.15-.39,2.83,2.83,0,0,0,.64-1,6.06,6.06,0,0,0,.35-1.27c.08-.45.18-.87.29-1.26a2.76,2.76,0,0,1,.51-1,1.19,1.19,0,0,1,1-.39A2.38,2.38,0,0,1,43,2.69a1.32,1.32,0,0,1,.82-.41c.32,0,.66-.06,1-.08a1.41,1.41,0,0,0,1-.44,1.72,1.72,0,0,0,.36-.47A1.5,1.5,0,0,1,46.33,1,.4.4,0,0,1,46.6.82a3.85,3.85,0,0,1,.71,0V5a6.26,6.26,0,0,0-.76.7,1.4,1.4,0,0,0-.45.94.12.12,0,0,0,0,.08.19.19,0,0,1,0,.08,1.18,1.18,0,0,0,.29.13,1,1,0,0,1,.29.14V8.23a.91.91,0,0,0,.55.58,8.52,8.52,0,0,0,1,.43,8.58,8.58,0,0,1,1,.43.72.72,0,0,1,.44.63.53.53,0,0,1-.44.54,3.17,3.17,0,0,1-.8.12v-.35H46.53c0-.24,0-.53,0-.9a1.38,1.38,0,0,0-.35-.86,4.12,4.12,0,0,0-.63,1.78,21.51,21.51,0,0,0-.25,2.47c0,.86,0,1.69,0,2.5s0,1.42,0,1.83v2.34a8.33,8.33,0,0,0,.31,2.34.65.65,0,0,0,.1.22c.06.11.13.24.19.37l.2.37a1.39,1.39,0,0,1,.1.21v.32a1,1,0,0,1-.28.72,1,1,0,0,0-.27.72h.55a.57.57,0,0,0-.18.15,1.4,1.4,0,0,1-.14.16v.31l.14.14a1,1,0,0,0,.18.14,1.59,1.59,0,0,0,.29.19l.45.27a3.68,3.68,0,0,0,.45.28l.29.15a.36.36,0,0,0,0,.35.78.78,0,0,0,.29.28,3.49,3.49,0,0,0,.39.19.94.94,0,0,0,.31.08,1.14,1.14,0,0,0,.82-.35,3.23,3.23,0,0,0,.59-.82,5.49,5.49,0,0,0,.37-1,3.24,3.24,0,0,0,.13-.81c0-.32.06-.8.08-1.47s.05-1.41.06-2.24,0-1.71.06-2.63,0-1.8.06-2.63,0-1.58,0-2.25,0-1.15,0-1.46c0-.08,0-.29,0-.62s-.06-.72-.08-1.13-.06-.82-.1-1.21-.07-.69-.1-.9a7.9,7.9,0,0,0-.19-1.11A2.21,2.21,0,0,0,50,6.38a1.54,1.54,0,0,0-.59-.47,5.17,5.17,0,0,0-1-.33c-.16,0-.28-.24-.35-.55a1.86,1.86,0,0,0-.24-.62V.78a8.28,8.28,0,0,1,2.54.39,15.58,15.58,0,0,0,2.49.59v.31a4,4,0,0,0-.15.43c-.08.23-.13.37-.16.43s0,.07,0,.15,0,.13,0,.16h.55V4.1a6.05,6.05,0,0,0-.9-.26,5.53,5.53,0,0,0-.9-.06h-.51c-.18,0-.29.11-.35.32l.59.62H54.4l.28-.62a.44.44,0,0,1,.17.15l.14.16v.31a1.91,1.91,0,0,0-.18.27.85.85,0,0,0-.13.31.78.78,0,0,0,.09.22l.22.37a2.61,2.61,0,0,1,.19.37.71.71,0,0,1,.08.21,1.62,1.62,0,0,1,0,.3c0,.14-.06.29-.09.45a3.78,3.78,0,0,0-.1.46A2.07,2.07,0,0,0,55,8a1.05,1.05,0,0,0,.14.27.85.85,0,0,1,.13.31c0,.24,0,.38,0,.43a5.77,5.77,0,0,1-.17,1.4A5.39,5.39,0,0,0,55,11.78c0,.1,0,.3,0,.6s0,.49,0,.57l.16.13a.3.3,0,0,1,.11.18.5.5,0,0,1,0,.16.19.19,0,0,1,0,.07.31.31,0,0,0,0,.08,1,1,0,0,1-.13.28.72.72,0,0,0-.14.31,3.05,3.05,0,0,0,0,.37c0,.19.06.41.1.64s.07.46.09.66a3.43,3.43,0,0,1,0,.39v1.1c0,.49,0,1,0,1.65s0,1.26,0,1.93,0,1.33,0,2,0,1.19,0,1.68,0,.86,0,1.09a13.52,13.52,0,0,0,1.91-.13,3.93,3.93,0,0,0,1.75-.72V25l-.14.31a.91.91,0,0,1-.17.31h2.07a2.06,2.06,0,0,1-.74.31l-.73.16a1.35,1.35,0,0,0-.54.25.73.73,0,0,0-.22.61s.06,0,.08-.12,0-.09.08,0a1.26,1.26,0,0,1,.19.43,1.92,1.92,0,0,1,.12.47h-.9l.59.58h.31l.31-.17A1.26,1.26,0,0,1,59.4,28c.05,0,.11,0,.19.12s.12.14.12.19l-.31.28a1.1,1.1,0,0,1-.39,0h-.55l-1.31,0a3.66,3.66,0,0,1-1.3-.3l.31-.58H55l-.39.53c-.18.24-.38.51-.61.8s-.43.55-.64.79l-.43.53a4.85,4.85,0,0,1-.52.37c-.3.2-.63.39-1,.59s-.67.37-1,.54a2.21,2.21,0,0,1-.51.26l-.37,0a4.81,4.81,0,0,1-.7-.14l-.69-.19c-.2-.07-.31-.14-.31-.22V28.9l-.27-.31v3.55h-.31A1.68,1.68,0,0,0,47,32a.88.88,0,0,0-.31-.14.78.78,0,0,0-.29.12,1.16,1.16,0,0,0-.29.2c-.5-.32-.94-.61-1.33-.88s-.77-.55-1.13-.84l-1.09-.88-1.17-.95ZM45.9,7.37q0,.27.24.27c.13,0,.19-.09.19-.27s-.06-.31-.19-.31S45.9,7.16,45.9,7.37Zm.74,11.23c0,.19-.07.28-.23.28s-.2-.09-.2-.28.07-.31.2-.31S46.64,18.4,46.64,18.6ZM47,18c0,.21-.08.31-.24.31s-.23-.1-.23-.31.08-.31.23-.31S47,17.77,47,18Zm0,5q0,.27-.24.27c-.15,0-.23-.09-.23-.27s.08-.31.23-.31S47,22.8,47,23Zm.15,4.72c0,.18.07.27.2.27s.23-.09.23-.27-.08-.31-.23-.31S47.11,27.52,47.11,27.73Zm.27-18q0,.27.24.27c.13,0,.19-.09.19-.27s-.06-.31-.19-.31S47.38,9.54,47.38,9.75Zm.32.27c0,.19.06.28.19.28s.24-.09.24-.28-.08-.31-.24-.31S47.7,9.82,47.7,10Zm2.49.9c0,.18-.08.27-.23.27s-.2-.09-.2-.27.07-.31.2-.31S50.19,10.71,50.19,10.92Zm.43-4.72q0,.27.24.27c.12,0,.19-.09.19-.27s-.07-.31-.19-.31S50.62,6,50.62,6.2Zm3,9.71c0,.21.06.31.19.31s.23-.1.23-.31-.07-.31-.23-.31S53.59,15.7,53.59,15.91Zm1.09.59v-.28H54.4Zm.43,11.93q-.09,0-.12-.12t.12-.15q.2,0,.15.15A.15.15,0,0,1,55.11,28.43Z"/><path class="cls-1" d="M58.81,29.6H57.64l.43-.14.47-.13.13,0,.14,0Zm4,3.26c-.07.17-.15.34-.24.52a1.91,1.91,0,0,1-.33.49.56.56,0,0,1-.39.22l-.12,0a1.76,1.76,0,0,1-.13-.37c-.07-.22-.13-.4-.18-.53v-.27l.18-.16c.09-.08.13-.13.13-.15a2.69,2.69,0,0,0-.11-.61,2.21,2.21,0,0,0-.2-.56,3,3,0,0,0,.88-.32.78.78,0,0,0,.33-.74,4.2,4.2,0,0,0,0-.43c0-.2-.11-.31-.29-.31H60.29a.55.55,0,0,1,.49-.39c.25,0,.51,0,.8,0a2.91,2.91,0,0,0,.76-.08c.22-.05.33-.22.33-.5v-.16c0-.13-.06-.32-.12-.56s-.09-.46-.13-.63a2.34,2.34,0,0,1-.06-.29h-.62a1.31,1.31,0,0,1,.17-.64,1.48,1.48,0,0,1,.45-.53V6.59a4.48,4.48,0,0,1,.57-2.2,6.19,6.19,0,0,1,1.46-1.8,7.63,7.63,0,0,1,2-1.21A5.81,5.81,0,0,1,68.56.94v3.9a.79.79,0,0,1-.17.43c-.12.15-.25.3-.38.44a3.59,3.59,0,0,1-.39.39l-.23.22a2.88,2.88,0,0,0-.41.91,12.2,12.2,0,0,0-.29,1.29c-.08.46-.13.88-.16,1.27s0,.66,0,.82v.12a2.34,2.34,0,0,0,.3.31,1.62,1.62,0,0,1,.29.31v.12a1.62,1.62,0,0,1-.31,1,5.6,5.6,0,0,0-.59.9.12.12,0,0,0,0,.11.12.12,0,0,1,0,.08s.06,0,.12.08.09.07.11,0a1.24,1.24,0,0,0,.14-.29,1,1,0,0,1,.14-.3.1.1,0,0,0,.07,0h.08a.43.43,0,0,1,.37.17,3.77,3.77,0,0,1,.26.39,3.45,3.45,0,0,0,.25.41.58.58,0,0,0,.45.23.31.31,0,0,1-.1.2c-.06.08-.12.12-.17.12a2.06,2.06,0,0,1-.45-.14,3.78,3.78,0,0,1-.45-.18h-.31l-.14.14a.68.68,0,0,0-.14.18.28.28,0,0,1,.18.09.33.33,0,0,1,.1.18,1.25,1.25,0,0,1-.1.31c-.07.16-.12.25-.18.27v4.45a5,5,0,0,1,.26.66,2.88,2.88,0,0,1,.06.67,4.71,4.71,0,0,1-.16,1.17,4.84,4.84,0,0,0-.16,1.21,3.62,3.62,0,0,0,.37,1.57,15,15,0,0,0,.82,1.47c.3.47.57.92.8,1.36a2.76,2.76,0,0,1,.35,1.33,2.58,2.58,0,0,1,.35-1,2.44,2.44,0,0,1,.55-.56l.64-.47a2.27,2.27,0,0,0,.61-.68,6,6,0,0,0,.51-1.19,9.06,9.06,0,0,0,.31-2V22.15a2.64,2.64,0,0,0-.08-.62,1.82,1.82,0,0,0-.23-.55.51.51,0,0,0-.43-.23.22.22,0,0,0-.16,0,.9.9,0,0,0-.29.11l-.29.16c.07-.16,0-.29-.24-.41l-.84-.43a3.74,3.74,0,0,1-.89-.66,1.46,1.46,0,0,1-.41-1.11,1.6,1.6,0,0,1,.21-.61,5.37,5.37,0,0,1,.51-.8,5,5,0,0,1,.6-.68.93.93,0,0,1,.47-.29,1.4,1.4,0,0,0-.55-.78.86.86,0,0,1-.39-.74.41.41,0,0,1,.24-.39,2,2,0,0,1,.54-.18,3.36,3.36,0,0,1,.63-.06h.51q0,.44-.18.51a1.28,1.28,0,0,1-.49.08v.93a1,1,0,0,1,.33-.31c.2-.13.42-.26.67-.39a5.76,5.76,0,0,1,.72-.33,1.73,1.73,0,0,1,.47-.14h.15a7.91,7.91,0,0,0-.86.78,3.63,3.63,0,0,1-.89.71l-.31.29a1.61,1.61,0,0,0-.28.29l.59.59a1.15,1.15,0,0,1,.49-.51l.58-.29a3.66,3.66,0,0,0,.57-.33,1.25,1.25,0,0,0,.42-.63,2.83,2.83,0,0,1,.22.39.67.67,0,0,1,.06.51,3,3,0,0,0,.72.23,2.55,2.55,0,0,0,.9,0,6.36,6.36,0,0,1,.76,0v-.85a1,1,0,0,1,.91.5,2.58,2.58,0,0,1,.35,1.15,7.17,7.17,0,0,1,0,1.31c0,.44-.07.75-.09.94a2.71,2.71,0,0,1,.41.33l.8.72c.28.26.67.6,1.17,1a2.05,2.05,0,0,1,0,.28.81.81,0,0,1-.56.76l-1,.41c.11-.11.12-.2,0-.28a.74.74,0,0,0-.33-.17l-.45-.1a1.81,1.81,0,0,0-.31,0h-.43a3.88,3.88,0,0,0,.24.78,4.16,4.16,0,0,0,.35.7c0,.26-.06.59-.1,1s-.07.8-.1,1.25,0,.88-.08,1.32,0,.83,0,1.17H75.11a.62.62,0,0,0,.28.57l.58.33a3.64,3.64,0,0,1,.59.37.77.77,0,0,1,.27.64.9.9,0,0,1-.39.65,1.56,1.56,0,0,0-.51.68,1.29,1.29,0,0,1-.39,0h-.35a1,1,0,0,1-.8-.3,3.27,3.27,0,0,1-.43-.62,4.33,4.33,0,0,0-.39-.62.78.78,0,0,0-.68-.3.8.8,0,0,0-.72.32,4.77,4.77,0,0,0-.39.66,2.16,2.16,0,0,1-.47.62,1.2,1.2,0,0,1-1,.2v.58a1.26,1.26,0,0,1-1.23-.64,1.82,1.82,0,0,1-.26-1.38,11.48,11.48,0,0,1-.15,1.24.52.52,0,0,1-.31.43,1.79,1.79,0,0,1-.69,0,7.36,7.36,0,0,0-1.19,0,.78.78,0,0,0-.31.16c-.15.1-.25.14-.27.11s-.16-.08-.31-.25a2.64,2.64,0,0,1-.28-.33l-.27.06-.27.06a1.45,1.45,0,0,0,.15.39c.11.2.13.33.08.39a3.06,3.06,0,0,1-.56.7L64,33.6a1.14,1.14,0,0,0-.3.35,1.89,1.89,0,0,0-.11.76c-.24,0-.36-.1-.37-.31a3.37,3.37,0,0,1,0-.7c0-.26,0-.51,0-.74s-.12-.34-.36-.39A2,2,0,0,1,62.85,32.86Zm2.59-15.78c-.1,0-.14.05-.12.16s.07.12.12.12a.16.16,0,0,0,.16-.12C65.62,17.13,65.57,17.08,65.44,17.08Zm0-9.28c0,.18.07.27.2.27s.23-.09.23-.27-.08-.31-.23-.31S65.4,7.59,65.4,7.8Zm2.26,8.85v.28l-.27-.28Zm4.2-7.78a7.53,7.53,0,0,0-.53-1.58,7.13,7.13,0,0,0-.88-1.4,10.06,10.06,0,0,0-1.3-1.33V1h2.06c.08-.18.19-.39.33-.64A.68.68,0,0,1,72.15,0a1.27,1.27,0,0,1-.06.41A.54.54,0,0,1,71.8.7a1.1,1.1,0,0,0,.43.43,7.32,7.32,0,0,0,.7.39l.74.35a2.18,2.18,0,0,1,.51.31,8.84,8.84,0,0,1,.58.88q.39.65.78,1.41c.26.5.49,1,.68,1.44a2.87,2.87,0,0,1,.3,1v.36c0,.13,0,.36,0,.7s-.06.69-.1,1.05-.07.72-.1,1a4.85,4.85,0,0,1-.08.71,1.35,1.35,0,0,0-.42.46,2.23,2.23,0,0,1-.26.41,1,1,0,0,1-.33.28,1.72,1.72,0,0,1-.66.09,1.85,1.85,0,0,1-.59-.15l-.8-.35a5,5,0,0,1-.7-.41,1.2,1.2,0,0,1-.33-.33A15.54,15.54,0,0,0,71.86,8.87Zm-2.64,21c0,.21.08.32.24.32s.19-.11.19-.32-.06-.31-.19-.31S69.22,29.71,69.22,29.91Zm1.33-7.64c0,.18-.08.27-.23.27s-.2-.09-.2-.27.07-.31.2-.31S70.55,22.06,70.55,22.27Zm.66-.9V22l-.15,0-.16,0-.29-.14a.87.87,0,0,1-.29-.17ZM73.55.12l-.27.31V.12Zm1,24.49c0,.18.08.27.23.27s.2-.09.2-.27-.07-.31-.2-.31S74.53,24.4,74.53,24.61Zm2-19.46H76.2V4.84Zm1.4,1.48c0,.18-.08.27-.23.27s-.2-.09-.2-.27.07-.31.2-.31S77.92,6.42,77.92,6.63ZM77.49,22c0,.18.07.27.2.27s.23-.09.23-.27-.08-.31-.23-.31S77.49,21.75,77.49,22Zm5.62-6.2v.35a4.05,4.05,0,0,1,0,.48,1.27,1.27,0,0,1-.16.45.38.38,0,0,1-.35.2h-.15l.31-1.48Zm0-.74c0,.07-.06.13-.16.15s-.12,0-.12-.15,0-.19.12-.16S83.15,14.94,83.15,15Z"/></g></g></svg>