<svg xmlns="http://www.w3.org/2000/svg" viewBox="0 0 53.3 22.25"><defs><style>.cls-1{fill:#5dc6f1;}</style></defs><g id="Capa_2" data-name="Capa 2"><g id="Capa_9" data-name="Capa 9"><path class="cls-1" d="M0,14.5A3.16,3.16,0,0,1,0,14a2.9,2.9,0,0,1,.14-.55V1.5H.55l.41,0,.6.06.6.07.42,0V20.33H.92c0,.16-.05.25-.16.26H.17c0-.22,0-.59,0-1.12s0-1.11-.06-1.72S0,16.58,0,16s0-.92,0-1.14ZM1.47,1c.09,0,.13.05.13.17s0,.18-.13.18-.14-.06-.14-.18S1.38,1,1.47,1ZM2.92,8.5c.11,0,.16.06.16.18s-.05.17-.16.17-.12-.06-.12-.17S2.84,8.5,2.92,8.5Zm0,.35c.11,0,.16.07.16.2s-.05.18-.16.18-.12-.06-.12-.18S2.84,8.85,2.92,8.85Zm0,4.4c.11,0,.16.07.16.2s-.05.17-.16.17-.12,0-.12-.17S2.84,13.25,2.92,13.25ZM3.78,7.7a.37.37,0,0,1-.33.38,3.29,3.29,0,0,1-.55.07c0-.23.1-.37.3-.4A3.9,3.9,0,0,1,3.78,7.7ZM3.12,20.23a.72.72,0,0,1-.21-.59c0-.26,0-.46,0-.59s0-.33,0-.6a.71.71,0,0,1,.21-.6,3,3,0,0,0,2.26-.59,2.59,2.59,0,0,0,.87-2.14,5.77,5.77,0,0,0-.09-.91,4.84,4.84,0,0,0-.3-1.05,2.61,2.61,0,0,0-.56-.86A1.22,1.22,0,0,0,4.4,12a.3.3,0,0,0-.28.13.28.28,0,0,1-.27.12v-.6l-.47.16a2.17,2.17,0,0,0-.46.22V9.52a2.75,2.75,0,0,0,2.24-.88A3.52,3.52,0,0,0,5.9,6.33a3,3,0,0,0-.11-.77,2.64,2.64,0,0,0-.34-.72,1.8,1.8,0,0,0-.55-.55,1.37,1.37,0,0,0-.75-.21,1.54,1.54,0,0,0-.61.11,1.8,1.8,0,0,1-.62.11V1.7l.42,0L4,1.62l.6,0L5,1.52l.19-.09a1.21,1.21,0,0,1,.19-.1h.09a.49.49,0,0,1,.33.16,1,1,0,0,0,.3.21,7.2,7.2,0,0,1,1.12.56,2.26,2.26,0,0,1,.64.63,3.61,3.61,0,0,1,.4.86c.11.33.25.75.41,1.25l.09.11s.07.07.09.07V5.4c0,.08,0,.18,0,.29s0,.21,0,.31v.2a7.45,7.45,0,0,1-.17,1.46,6.79,6.79,0,0,1-.41,1.39A.87.87,0,0,1,8,9.4l-.38.3a1.72,1.72,0,0,0-.32.34.76.76,0,0,0-.14.46.39.39,0,0,0,.24.4,2.15,2.15,0,0,0,.51.15l-.2.2a4.76,4.76,0,0,1,.42.5,5.39,5.39,0,0,1,.43.63,4.07,4.07,0,0,1,.33.66,1.76,1.76,0,0,1,.12.58.48.48,0,0,1-.1.33.47.47,0,0,0-.1.32.29.29,0,0,0,.19.29.34.34,0,0,1,.18.34v.2c-.13.75-.25,1.4-.34,2a5,5,0,0,1-.49,1.43,3,3,0,0,1-1,1,6.51,6.51,0,0,1-1.85.73,1.25,1.25,0,0,0-.46.21.83.83,0,0,1-.46.16,1.06,1.06,0,0,1-.34-.05L4,20.44l-.34-.13A1.84,1.84,0,0,0,3.12,20.23Zm.35-3.85c0,.06-.1.1-.27.1a.36.36,0,0,1-.28-.1s0,0,.08-.05a.69.69,0,0,1,.2,0,.66.66,0,0,1,.21,0C3.47,16.34,3.49,16.36,3.47,16.38ZM3.4,4.8h.13l.14,0L2.92,5a.24.24,0,0,1,.2-.19ZM3.12,14.9h.55v.2H3.12ZM4,10.5v.2h.19ZM4.4,12c.08,0,.13.06.13.2s0,.17-.13.17-.12-.06-.12-.17S4.32,12,4.4,12Zm1.3-.93c-.1,0-.15.07-.15.2s0,.18.15.18.13-.06.13-.18S5.78,11.05,5.7,11.05ZM8.62,5.18c-.08,0-.12.06-.12.2s0,.17.12.17.13-.06.13-.17S8.71,5.18,8.62,5.18Zm0,1.67c-.08,0-.12.06-.12.17s0,.18.12.18.13-.06.13-.18S8.71,6.85,8.62,6.85ZM9,14.73c-.1,0-.15.06-.15.2s.05.17.15.17.12-.06.12-.17S9.08,14.73,9,14.73Zm.17-.93c.09,0,.13.07.13.2s0,.18-.13.18-.12-.06-.12-.18S9.09,13.8,9.17,13.8Zm.38-8.62c.08,0,.12.06.12.2s0,.17-.12.17-.15-.06-.15-.17S9.45,5.18,9.55,5.18Z"/><path class="cls-1" d="M15.55,17.48l.17-.38H13.65v-.27c0-.19,0-.5,0-.95s0-.93.07-1.43,0-1,.06-1.41,0-.76,0-.94a.2.2,0,0,1,.07-.11.48.48,0,0,0,.1-.09s0,0,.05,0,0,0,0,0,0,0,.07-.11.05-.11,0-.14a.73.73,0,0,0-.27-.11,1.82,1.82,0,0,0-.3-.07V9.62a.17.17,0,0,1,.07-.16.32.32,0,0,1,.17,0l.17,0,.11,0a.77.77,0,0,0-.1-.4,2.37,2.37,0,0,0-.22-.33l-.24-.29a1,1,0,0,1-.16-.36s0-.14,0-.28a1.34,1.34,0,0,0,0-.4.38.38,0,0,0-.15-.29q-.12-.11-.42,0V6.25h-.2l-.29.11a1.27,1.27,0,0,1-.29.09,1.25,1.25,0,0,1-.27-.09l-.28-.11h-.19v.4h-.19a.54.54,0,0,1-.19,0,.48.48,0,0,1-.19-.09.38.38,0,0,0-.19-.08,1.33,1.33,0,0,0-.66.19,1.27,1.27,0,0,1-.69.21c0-.14,0-.28,0-.44a2.12,2.12,0,0,1,.07-.45.81.81,0,0,1,.2-.35A.56.56,0,0,1,10,5.45a1.29,1.29,0,0,1,.44.06,1.22,1.22,0,0,1,.41.34.62.62,0,0,1,.39-.31,2,2,0,0,1,.49-.06l.51,0a1.13,1.13,0,0,0,.49,0s.05,0,.11-.09L13,5.2A1.54,1.54,0,0,1,13.16,5l.11-.11a1,1,0,0,1,.19-.11.62.62,0,0,1,.19-.06.37.37,0,0,1-.11-.11l-.09-.1V4.33l.11-.09q.09-.06.09-.09s0-.05,0-.1a.22.22,0,0,1,0-.1h-.18a.51.51,0,0,1,0-.09.34.34,0,0,0,0-.09l.16-.31c.08-.14.15-.29.23-.46s.15-.32.22-.46l.16-.29-.37-.17a.62.62,0,0,0,.27-.23,1,1,0,0,0,.15-.33,1.35,1.35,0,0,0,.07-.36c0-.12,0-.23,0-.31h.5a5.46,5.46,0,0,1,.7,0,2,2,0,0,1,.62.18.46.46,0,0,1,.28.46h.27a.34.34,0,0,1,0,.09.19.19,0,0,1,0,.09,2.14,2.14,0,0,0-.22.43l-.21.53c-.08.17-.16.33-.24.47a.71.71,0,0,1-.28.29.52.52,0,0,0-.08-.52.57.57,0,0,0-.47-.26s-.07,0-.12.08-.08.09-.08.13a2.43,2.43,0,0,1,.19.36l.19.39v.19L15.26,4a1.84,1.84,0,0,1-.09.19h.45v.58a1,1,0,0,1,.68-.58.82.82,0,0,0,0,.14.76.76,0,0,1,0,.14.34.34,0,0,1-.1.28,1.2,1.2,0,0,1-.21.17L15.8,5a.19.19,0,0,0-.1.17.81.81,0,0,0,0,.09.76.76,0,0,0,.19.11l.19.1.3.17V8.08A1.69,1.69,0,0,0,17,8a1.73,1.73,0,0,1,.56-.09.63.63,0,0,1-.25.51l-.55.47a4.08,4.08,0,0,0-.55.55,1.17,1.17,0,0,0-.25.77,2.4,2.4,0,0,0,.25.92,3.25,3.25,0,0,1,.3,1,.63.63,0,0,1,0,.26c0,.13,0,.26,0,.41s0,.29-.05.42a1.49,1.49,0,0,0,0,.26.66.66,0,0,0,.28,0c.06,0,.13,0,.22.19l-.41.2v1.13h.41c0,.15.06.27.08.37a1.55,1.55,0,0,1,.06.31,1.57,1.57,0,0,1,0,.27V17a.32.32,0,0,0,.21.27,1.38,1.38,0,0,0,.41.11,3.16,3.16,0,0,0,.43,0h.28l.52.07.8.11.8.13.52.08c.09,0,.2.08.34.22a.82.82,0,0,1,.24.34,3.4,3.4,0,0,1-.13.37q-.12.35-.3.78c-.11.28-.22.54-.32.77s-.17.35-.2.35H18.2l-.2-.1-.2-.1h-.1a.39.39,0,0,0-.31.1c-.06.07-.21.1-.44.1a1.26,1.26,0,0,1-.73-.2,1.16,1.16,0,0,0-.7-.2,1.93,1.93,0,0,0-.42.05c-.13,0-.24.15-.33.35a.35.35,0,0,0-.08-.33.62.62,0,0,0-.29-.07.25.25,0,0,0-.23.09l-.1.17a.94.94,0,0,1-.12.18.38.38,0,0,1-.3.09V17.48Zm-6-11c0,.11,0,.17.12.17s.15-.06.15-.17-.05-.2-.15-.2S9.55,6.29,9.55,6.43ZM10.77,7q0,.18-.15.18T10.47,7c0-.13,0-.2.15-.2S10.77,6.87,10.77,7Zm1.61-3.24h.14a1,1,0,0,1-.16.31c-.06.06-.11.13-.16.19a.64.64,0,0,0-.1.24,1.09,1.09,0,0,0,0,.39.76.76,0,0,0-.26-.16.78.78,0,0,0-.29,0,.44.44,0,0,0-.37.14.52.52,0,0,1-.43.14,1,1,0,0,1,.49-.89,1.68,1.68,0,0,1,1-.34Zm-1,.39q0,.18.15.18c.09,0,.13-.06.13-.18s0-.2-.13-.2S11.42,4,11.42,4.15ZM12.6,5a.11.11,0,0,1-.08.1c-.06,0-.1,0-.1-.1s0-.12.1-.1A.11.11,0,0,1,12.6,5Zm.67,1a.6.6,0,0,0,.29-.09.31.31,0,0,0,.16-.28h-.45ZM13.85.75V1.5h-.2V.75Zm.27,11.63c-.08,0-.11,0-.1.1a.11.11,0,0,0,.1.07.1.1,0,0,0,.1-.07C14.24,12.41,14.21,12.38,14.12,12.38Zm0-4.83c0,.13,0,.2.15.2s.13-.07.13-.2,0-.2-.13-.2S14.07,7.42,14.07,7.55Zm.2-1.87c0,.11.05.17.13.17s.15-.06.15-.17-.05-.2-.15-.2S14.27,5.54,14.27,5.68Zm.18.17c0,.12.05.17.15.17s.12,0,.12-.17,0-.2-.12-.2S14.45,5.72,14.45,5.85ZM15,5.61a1.18,1.18,0,0,0,.43.09.43.43,0,0,0-.21-.4,3.17,3.17,0,0,0-.42-.2.34.34,0,0,1,0,.09.32.32,0,0,0,0,.08A.33.33,0,0,0,15,5.61Zm-.15,4.59c0,.12.06.18.15.18s.15-.06.15-.18,0-.2-.15-.2S14.82,10.07,14.82,10.2ZM15,2.27q0,.18.15.18c.09,0,.13-.06.13-.18s0-.19-.13-.19S15,2.14,15,2.27ZM15.5,3q0,.18-.15.18c-.08,0-.13-.06-.13-.18s0-.19.13-.19S15.5,2.89,15.5,3Zm.1-1.52q0,.18.12.18c.1,0,.16-.06.16-.18s-.06-.2-.16-.2S15.6,1.37,15.6,1.5Zm0,8.15q0,.18.12.18c.1,0,.16-.06.16-.18s-.06-.2-.16-.2S15.6,9.52,15.6,9.65ZM16,1.88c0,.13,0,.2.13.2s.15-.07.15-.2-.05-.2-.15-.2S16,1.74,16,1.88ZM16,17.2c0,.12,0,.18.13.18s.15-.06.15-.18-.05-.2-.15-.2S16,17.07,16,17.2Zm.54-14.32a1.45,1.45,0,0,1,0,.32H16.3V2.62A.29.29,0,0,1,16.51,2.88Zm.11,2.22c0,.12-.05.17-.15.17s-.12,0-.12-.17,0-.2.12-.2S16.62,5,16.62,5.1ZM16.4,16.52c0,.09,0,.12.07.1s.1,0,.1-.07,0-.08-.1-.1S16.4,16.44,16.4,16.52ZM17.88,4.21c.09.14.14.25.12.31a1.22,1.22,0,0,1-.24.47c-.14.19-.25.28-.34.28h-.2V5.2a.13.13,0,0,1,0-.1s0-.13.07-.24a3.37,3.37,0,0,0,.1-.34l.12-.33A2.16,2.16,0,0,0,17.62,4,.88.88,0,0,1,17.88,4.21Zm-.06,1.27v.1a.08.08,0,0,1,0,.07,1.33,1.33,0,0,1-.08.3c0,.15-.08.24-.1.28V5.48Zm3.95,13.79H21.6v-.19ZM22.15,17v.48a.39.39,0,0,1-.38-.23A.41.41,0,0,1,22.15,17Z"/><path class="cls-1" d="M22.72,15c0,.12,0,.17-.15.17s-.15,0-.15-.17,0-.2.15-.2S22.72,14.82,22.72,15ZM24,6.68c.05.05.08.09.08.12a.86.86,0,0,1-.83.47.7.7,0,0,1,.18-.44.56.56,0,0,1,.45-.23S24,6.62,24,6.68Zm.4.32c0,.12,0,.18-.15.18s-.12-.06-.12-.18,0-.2.12-.2S24.42,6.87,24.42,7Zm2.13,10.77a2.3,2.3,0,0,0,0-.32c0-.17-.05-.35-.07-.54s-.05-.37-.06-.53,0-.28,0-.33c0-.23,0-.59,0-1.07s0-1,0-1.64,0-1.25,0-1.91,0-1.31,0-1.92,0-1.15,0-1.63,0-.85,0-1.08H25.7a.73.73,0,0,1,.06-.32,2.36,2.36,0,0,1,.13-.23L26,6a.68.68,0,0,0,.06-.31l-.05,0s0,0-.05,0l-.23.15L25.4,6l-.34.22a1.19,1.19,0,0,0-.21.17V6.08a1.07,1.07,0,0,0,.74-.25A1.86,1.86,0,0,0,26,5.2a4,4,0,0,0,.22-.81,8.06,8.06,0,0,1,.19-.81A1.88,1.88,0,0,1,26.74,3a.74.74,0,0,1,.61-.25,1.51,1.51,0,0,1,.21-1,.88.88,0,0,1,.53-.27l.66-.05a.92.92,0,0,0,.63-.29A1,1,0,0,0,29.6.83a1.39,1.39,0,0,1,.1-.21.3.3,0,0,1,.18-.1l.44,0V3.2a4.45,4.45,0,0,0-.48.45.89.89,0,0,0-.29.6.09.09,0,0,0,0,0,.09.09,0,0,1,0,0,.65.65,0,0,0,.19.09l.19.08v.75a.56.56,0,0,0,.35.38c.2.1.42.19.65.28a4.74,4.74,0,0,1,.64.27.45.45,0,0,1,.29.4.34.34,0,0,1-.29.35,2.07,2.07,0,0,1-.52.07V6.8H29.82c0-.15,0-.34,0-.57a.8.8,0,0,0-.23-.55,2.77,2.77,0,0,0-.4,1.13A15.84,15.84,0,0,0,29,8.4C29,9,29,9.48,29,10s0,.91,0,1.18v1.5a5.6,5.6,0,0,0,.2,1.5.53.53,0,0,0,.06.13l.13.24.12.24a.42.42,0,0,1,.06.14v.19a.65.65,0,0,1-.17.47.63.63,0,0,0-.18.46h.35a.47.47,0,0,0-.11.1l-.08.1v.2l.08.09a.33.33,0,0,0,.11.08.87.87,0,0,0,.19.13l.29.18.29.17.18.1a.26.26,0,0,0,0,.23.59.59,0,0,0,.18.17l.25.13a.63.63,0,0,0,.2,0,.71.71,0,0,0,.53-.22,1.86,1.86,0,0,0,.37-.53,3.07,3.07,0,0,0,.24-.62,2.09,2.09,0,0,0,.09-.52c0-.2,0-.52.05-.94s0-.91,0-1.44,0-1.1,0-1.69,0-1.15,0-1.69,0-1,0-1.43,0-.74,0-.94c0,0,0-.18,0-.4s0-.46,0-.73,0-.52-.06-.77,0-.44-.06-.58a4.81,4.81,0,0,0-.13-.71,1.36,1.36,0,0,0-.21-.47.85.85,0,0,0-.37-.3,3,3,0,0,0-.62-.21c-.1,0-.17-.15-.22-.35a1.1,1.1,0,0,0-.15-.4V.5a5.09,5.09,0,0,1,1.62.25,9.77,9.77,0,0,0,1.6.37v.21s0,.12-.1.27-.08.24-.1.28,0,.05,0,.1a.41.41,0,0,1,0,.1h.35v.54a4.43,4.43,0,0,0-.58-.16,4.34,4.34,0,0,0-.57,0h-.33a.21.21,0,0,0-.22.19l.37.4h2.11l.17-.4a.56.56,0,0,1,.11.11l.09.1V3a1.76,1.76,0,0,0-.11.18.57.57,0,0,0-.09.2.52.52,0,0,0,.06.14l.14.23.13.24a.51.51,0,0,1,0,.14.84.84,0,0,1,0,.19l-.06.28c0,.11-.05.21-.07.31s0,.15,0,.17a.54.54,0,0,0,.09.17.5.5,0,0,1,.08.21c0,.14,0,.24,0,.27a3.7,3.7,0,0,1-.11.9,3.26,3.26,0,0,0-.12.9c0,.07,0,.2,0,.39s0,.31,0,.36l.1.09a.16.16,0,0,1,.07.11.33.33,0,0,1,0,.1.09.09,0,0,1,0,.05s0,0,0,0a.6.6,0,0,1-.08.18.5.5,0,0,0-.09.2s0,.11,0,.23,0,.27.07.42,0,.29.06.42a1.59,1.59,0,0,1,0,.25v.7c0,.32,0,.67,0,1.06s0,.81,0,1.24,0,.85,0,1.25,0,.76,0,1.08,0,.54,0,.7a8.15,8.15,0,0,0,1.22-.09,2.71,2.71,0,0,0,1.13-.46v.17a1.44,1.44,0,0,0-.09.2.67.67,0,0,1-.11.2h1.32a1.22,1.22,0,0,1-.47.2l-.46.1a.87.87,0,0,0-.35.16.5.5,0,0,0-.14.39s0,0,.05-.07,0-.06,0,0a1,1,0,0,1,.12.28,1.3,1.3,0,0,1,.08.29h-.58l.38.38h.2l.2-.11.17-.09a.24.24,0,0,1,.13.07.23.23,0,0,1,.07.13l-.2.18a.83.83,0,0,1-.25,0H36.64a2.32,2.32,0,0,1-.84-.19l.2-.38h-.75l-.25.34-.39.51c-.14.19-.28.36-.41.52l-.28.34a2.71,2.71,0,0,1-.33.23c-.19.13-.4.25-.63.38l-.61.35a1,1,0,0,1-.33.16l-.23,0-.45-.09-.44-.13c-.13,0-.2-.09-.2-.13V18.52l-.18-.19V20.6h-.2a.78.78,0,0,0-.17-.11.57.57,0,0,0-.2-.09.58.58,0,0,0-.19.08.9.9,0,0,0-.19.12L28.72,20,28,19.5l-.7-.56-.75-.61Zm2.87-13c0,.11,0,.17.15.17s.13-.06.13-.17,0-.21-.13-.21S29.42,4.59,29.42,4.73Zm.48,7.2c0,.11,0,.17-.15.17s-.13-.06-.13-.17.05-.2.13-.2S29.9,11.79,29.9,11.93Zm.2-.41q0,.21-.15.21t-.15-.21c0-.13.05-.19.15-.19S30.1,11.39,30.1,11.52Zm0,3.23q0,.18-.15.18t-.15-.18c0-.13.05-.2.15-.2S30.1,14.62,30.1,14.75Zm.1,3q0,.18.12.18t.15-.18c0-.13,0-.19-.15-.19S30.2,17.64,30.2,17.77Zm.18-11.52c0,.12,0,.18.14.18s.13-.06.13-.18,0-.2-.13-.2S30.38,6.12,30.38,6.25Zm.19.18c0,.11.05.17.13.17s.15-.06.15-.17-.05-.2-.15-.2S30.57,6.29,30.57,6.43Zm1.6.57q0,.18-.15.18T31.9,7c0-.13,0-.2.12-.2S32.17,6.87,32.17,7Zm.28-3c0,.11,0,.17.15.17s.12-.06.12-.17,0-.21-.12-.21S32.45,3.84,32.45,4Zm1.9,6.22c0,.13,0,.2.12.2s.15-.07.15-.2,0-.2-.15-.2S34.35,10.07,34.35,10.2Zm.7.38V10.4h-.17Zm.27,7.65s0,0-.07-.08,0-.1.07-.1.12,0,.1.1A.09.09,0,0,1,35.32,18.23Z"/><path class="cls-1" d="M37.7,19H37a1.28,1.28,0,0,1,.27-.09l.3-.09h.09l.09,0Zm2.59,2.08-.15.34a1.16,1.16,0,0,1-.22.31.34.34,0,0,1-.25.14l-.07,0a.83.83,0,0,1-.09-.24c0-.14-.08-.26-.11-.34v-.17a.58.58,0,0,1,.11-.1.29.29,0,0,0,.09-.1,2,2,0,0,0-.08-.39,2.25,2.25,0,0,0-.12-.37,1.74,1.74,0,0,0,.56-.19.53.53,0,0,0,.21-.48c0-.05,0-.14,0-.27S40.09,19,40,19H38.65a.33.33,0,0,1,.31-.25,4.12,4.12,0,0,1,.51,0,2.31,2.31,0,0,0,.49-.05c.14,0,.21-.14.21-.32v-.1c0-.09,0-.21-.07-.37s-.06-.29-.09-.4,0-.17,0-.19h-.4a.83.83,0,0,1,.12-.41,1,1,0,0,1,.28-.34V4.23a2.84,2.84,0,0,1,.37-1.42,4.13,4.13,0,0,1,.93-1.15A4.9,4.9,0,0,1,42.55.89,3.7,3.7,0,0,1,44,.6V3.1a.56.56,0,0,1-.11.28l-.24.28a3,3,0,0,1-.25.25c-.08.08-.14.12-.15.14a1.72,1.72,0,0,0-.26.59,6.56,6.56,0,0,0-.19.82c0,.29-.08.56-.1.81s0,.43,0,.53v.08a1.35,1.35,0,0,0,.19.2,1.54,1.54,0,0,1,.19.19v.08a1,1,0,0,1-.2.65,4.48,4.48,0,0,0-.38.58.09.09,0,0,0,0,.07s0,0,0,0a.15.15,0,0,1,.08.05s.06,0,.07,0,.05-.07.09-.18a.65.65,0,0,1,.09-.19h.1a.28.28,0,0,1,.24.11,2.72,2.72,0,0,1,.16.25,2.26,2.26,0,0,0,.16.26.43.43,0,0,0,.29.15.19.19,0,0,1-.06.12c0,.06-.08.08-.12.08a1.26,1.26,0,0,1-.28-.09L43,9.15h-.2l-.09.09-.09.11a.19.19,0,0,1,.12.06.17.17,0,0,1,.06.11.77.77,0,0,1-.06.21c-.05.1-.08.15-.12.17v2.85a2.64,2.64,0,0,1,.17.43,2.19,2.19,0,0,1,0,.42,2.76,2.76,0,0,1-.1.75,3.32,3.32,0,0,0-.1.77,2.28,2.28,0,0,0,.24,1,9.77,9.77,0,0,0,.53.94q.28.45.51.87a1.8,1.8,0,0,1,.22.85,1.53,1.53,0,0,1,.23-.61,1.71,1.71,0,0,1,.35-.36l.41-.31a1.38,1.38,0,0,0,.39-.43,3.47,3.47,0,0,0,.32-.76A5.48,5.48,0,0,0,46,15V14.2a1.37,1.37,0,0,0-.05-.4,1,1,0,0,0-.15-.35.29.29,0,0,0-.27-.15s-.09,0-.1,0a.49.49,0,0,0-.19.07l-.19.1c0-.1,0-.19-.15-.26L44.39,13a2.59,2.59,0,0,1-.58-.42,1,1,0,0,1-.26-.71.83.83,0,0,1,.14-.39,3.36,3.36,0,0,1,.32-.51,3.47,3.47,0,0,1,.39-.44c.13-.13.23-.19.3-.19a.92.92,0,0,0-.35-.5.55.55,0,0,1-.25-.47.25.25,0,0,1,.15-.25A1.11,1.11,0,0,1,44.6,9a2.69,2.69,0,0,1,.4,0h.32c0,.18,0,.29-.11.32a.83.83,0,0,1-.31.05v.6a.57.57,0,0,1,.21-.2c.13-.08.27-.17.43-.25A4.69,4.69,0,0,1,46,9.24a1.06,1.06,0,0,1,.3-.09h.1a4.06,4.06,0,0,0-.55.5,2.66,2.66,0,0,1-.58.45l-.2.19a.77.77,0,0,0-.17.19l.37.37a.85.85,0,0,1,.32-.33l.37-.18a1.65,1.65,0,0,0,.36-.22.79.79,0,0,0,.28-.39,2,2,0,0,1,.14.25.4.4,0,0,1,0,.32,2.66,2.66,0,0,0,.47.15l.28,0,.29,0a3.19,3.19,0,0,1,.49,0V9.88a.63.63,0,0,1,.59.32,1.78,1.78,0,0,1,.22.74,3.84,3.84,0,0,1,0,.83c0,.29,0,.49-.06.61a1.44,1.44,0,0,1,.26.21l.51.46.75.65a.82.82,0,0,1,0,.18.52.52,0,0,1-.36.48c-.25.11-.45.2-.62.26.07-.06.08-.12,0-.17a.42.42,0,0,0-.21-.11l-.29-.07-.2,0h-.28a4.74,4.74,0,0,0,.15.5,2.37,2.37,0,0,0,.23.45q0,.25-.06.63c0,.25-.05.51-.07.79l-.05.86c0,.28,0,.53,0,.75h-.7a.42.42,0,0,0,.17.36l.38.21a2.35,2.35,0,0,1,.37.24.48.48,0,0,1,.18.41.56.56,0,0,1-.25.41,1,1,0,0,0-.33.44.58.58,0,0,1-.25,0H48.2a.63.63,0,0,1-.51-.19,2.63,2.63,0,0,1-.28-.4,2.7,2.7,0,0,0-.25-.4.5.5,0,0,0-.44-.19.53.53,0,0,0-.46.2,4.23,4.23,0,0,0-.25.42,1.21,1.21,0,0,1-.3.41.84.84,0,0,1-.64.12v.38a.81.81,0,0,1-.78-.42,1.17,1.17,0,0,1-.17-.88,5.59,5.59,0,0,1-.1.8.31.31,0,0,1-.2.27,1.32,1.32,0,0,1-.43,0,4.17,4.17,0,0,0-.77,0,.49.49,0,0,0-.2.1c-.1.07-.15.09-.17.08s-.1-.06-.2-.17l-.18-.21-.17,0-.18,0a1.19,1.19,0,0,0,.1.24c.07.14.09.22.05.26a1.84,1.84,0,0,1-.36.45l-.27.21a.67.67,0,0,0-.19.22,1.11,1.11,0,0,0-.08.49c-.15,0-.23-.07-.23-.2a2.32,2.32,0,0,1,0-.45,4,4,0,0,0,0-.48c0-.13-.07-.21-.22-.24A1.56,1.56,0,0,1,40.29,21.06ZM42,11c-.07,0-.09,0-.08.1s.05.07.08.07a.1.1,0,0,0,.1-.07C42.07,11,42,11,42,11Zm0-5.95c0,.12,0,.18.13.18s.15-.06.15-.18-.05-.2-.15-.2S41.92,4.87,41.92,5Zm1.45,5.68v.17l-.17-.17Zm2.69-5a4.14,4.14,0,0,0-.34-1,4.55,4.55,0,0,0-.56-.91,5.54,5.54,0,0,0-.84-.84V.65h1.33a4,4,0,0,1,.21-.41A.43.43,0,0,1,46.25,0a.68.68,0,0,1,0,.26A.32.32,0,0,1,46,.45a.83.83,0,0,0,.28.28l.45.25.47.22a1.18,1.18,0,0,1,.33.2,5.33,5.33,0,0,1,.37.56c.17.28.34.58.5.9s.32.64.44.93a1.76,1.76,0,0,1,.19.61v.22c0,.09,0,.24,0,.46s0,.44-.06.67l-.06.68c0,.21,0,.36,0,.45a.86.86,0,0,0-.28.3,2.26,2.26,0,0,1-.16.26.68.68,0,0,1-.21.17,1,1,0,0,1-.43.07,1.37,1.37,0,0,1-.37-.1l-.51-.23a2.32,2.32,0,0,1-.45-.26.62.62,0,0,1-.22-.21A8,8,0,0,0,46.06,5.69ZM44.37,19.18c0,.13.05.2.15.2s.13-.07.13-.2,0-.2-.13-.2S44.37,19,44.37,19.18Zm.85-4.91q0,.18-.15.18T45,14.27c0-.13,0-.19.12-.19S45.22,14.14,45.22,14.27Zm.43-.57v.4h-.2L45.26,14a1,1,0,0,1-.19-.11ZM47.15.08,47,.27V.08Zm.62,15.69q0,.18.15.18c.09,0,.13-.06.13-.18s0-.19-.13-.19S47.77,15.64,47.77,15.77ZM49.05,3.3h-.2V3.1Zm.9,1q0,.18-.15.18c-.09,0-.13-.06-.13-.18s0-.2.13-.2S50,4.12,50,4.25Zm-.28,9.83c0,.11,0,.17.13.17s.15-.06.15-.17-.05-.2-.15-.2S49.67,13.94,49.67,14.08Zm3.6-4v.23a1.67,1.67,0,0,1,0,.31.91.91,0,0,1-.1.29.26.26,0,0,1-.23.12h-.1l.2-1Zm0-.48c0,.06,0,.09-.1.11s-.08,0-.08-.11,0-.11.08-.1S53.3,9.58,53.3,9.62Z"/></g></g></svg>