<svg xmlns="http://www.w3.org/2000/svg" viewBox="0 0 169.84 32.17"><defs><style>.cls-1{fill:#1d1d1b;}</style></defs><g id="Capa_2" data-name="Capa 2"><g id="Capa_9" data-name="Capa 9"><path class="cls-1" d="M2.3,27.57a1.49,1.49,0,0,1-.43.24,2.24,2.24,0,0,1-.43,0,1.41,1.41,0,0,1-.76-.22A.92.92,0,0,1,.27,27c0-.42,0-1.07,0-1.95s0-1.88,0-3S.15,19.78.14,18.54.1,16.14.08,15s0-2.09-.06-3,0-1.53,0-2V9.24A9.48,9.48,0,0,1,.41,6.47,7,7,0,0,1,1.62,4.15a5.86,5.86,0,0,1,2-1.58A6,6,0,0,1,6.28,2V5.82c0,.07-.07.16-.2.25l-.44.31c-.17.12-.34.22-.49.31s-.25.18-.27.26a3.64,3.64,0,0,0-.36.74q-.15.43-.27.9a6.16,6.16,0,0,0-.17.9,5.54,5.54,0,0,0-.06.78v.11a1,1,0,0,0,.27.3,1.16,1.16,0,0,1,.27.29s0,0,0,.12,0,.3-.15.35-.16.18-.16.39a.39.39,0,0,0,.16.37.37.37,0,0,1,.15.33,3.53,3.53,0,0,1-.27,1.31,3.57,3.57,0,0,0-.27,1.31s.06,0,.11.08.09.06.12,0a1.36,1.36,0,0,0,.18-.3.94.94,0,0,0,.09-.29.22.22,0,0,1,0,.16V15a.87.87,0,0,1-.12.49,1.24,1.24,0,0,1-.46.37.41.41,0,0,1,.21.22,2.28,2.28,0,0,1,.18.41c0,.15.09.3.13.45a1.29,1.29,0,0,1,.06.33,2.53,2.53,0,0,1-.31,1.21A2.6,2.6,0,0,0,4,19.72a3.87,3.87,0,0,0,0,.49,5.65,5.65,0,0,0,.11.68,4.83,4.83,0,0,0,.2.64c.08.2.15.31.23.34a11.71,11.71,0,0,0-.25,1.48c0,.42-.06.91-.06,1.48a3.19,3.19,0,0,0,.33,1.59,9.73,9.73,0,0,0,.72,1A7.9,7.9,0,0,1,6,28.58a3.73,3.73,0,0,1,.33,1.72c0,.13,0,.4,0,.8s0,.67-.06.8-.12.24-.22.26H5.42A1,1,0,0,1,5.15,32a1.67,1.67,0,0,0-.27-.14S4.8,32,4.72,32s-.13.13-.16.13H4.13a1.31,1.31,0,0,1-.7-.31,5.77,5.77,0,0,1-.84-.76,7.56,7.56,0,0,1-.74-1,3.08,3.08,0,0,1-.41-.86,1.33,1.33,0,0,1-.07-.47v-.27h1.2Zm-1.25.9c0,.18-.06.27-.19.27s-.2-.09-.2-.27.07-.31.2-.31S1.05,28.26,1.05,28.47Zm.94.86L2.57,29H2Zm1-1.6q-.19,0-.15.15T3,28a.16.16,0,0,0,.16-.12C3.18,27.78,3.13,27.73,3,27.73Zm.78-3.28c0,.18.08.28.24.28s.19-.1.19-.28-.06-.31-.19-.31S3.78,24.25,3.78,24.45Zm.67,4.18c-.13,0-.19,0-.16.11s.06.12.12.12a.15.15,0,0,0,.15-.12C4.61,28.67,4.58,28.63,4.45,28.63ZM4.8,9.87q0,.27-.24.27c-.13,0-.19-.09-.19-.27s.06-.32.19-.32S4.8,9.66,4.8,9.87Zm.27,3.43c0,.18-.07.27-.19.27s-.24-.09-.24-.27.08-.31.24-.31S5.07,13.09,5.07,13.3Zm.16,14.58c0,.19.06.28.19.28s.24-.09.24-.28-.08-.27-.24-.27S5.23,27.7,5.23,27.88ZM5.5,3.28c0,.18.08.27.23.27s.2-.09.2-.27S5.86,3,5.73,3,5.5,3.07,5.5,3.28Zm4,7.07a16.5,16.5,0,0,0-.26-1.67,6.62,6.62,0,0,0-.5-1.54,2.27,2.27,0,0,0-1-1.06.48.48,0,0,0-.31,0,.93.93,0,0,1-.27,0A.25.25,0,0,1,6.94,6a1,1,0,0,1-.08-.49V2a4.61,4.61,0,0,1,1.23.16c.41.1.81.21,1.21.33l1.19.33A4.69,4.69,0,0,0,11.66,3a2.27,2.27,0,0,0,.18.84,3.49,3.49,0,0,0,.48.86,3.41,3.41,0,0,0,.69.68,1.26,1.26,0,0,0,.8.28.27.27,0,0,1-.08.19s-.05.07-.14.14-.13.11-.13.13v.28s0,.07.13.15.14.13.14.16a.41.41,0,0,1,0,.12s0,.07,0,.15-.09.12-.27.27v.32s0,.07.13.13.14.11.14.14a1.17,1.17,0,0,1,0,.16.51.51,0,0,1,0,.11s0,.11-.12.18l-.15.13V11.7l-.36,0-.5,0-.51,0-.35,0s-.07,0-.14.13-.11.14-.13.14l-.14,0-.18,0a.65.65,0,0,1-.37-.08l-.19-.17a.58.58,0,0,0-.27-.14,1.2,1.2,0,0,0-.57.08A10.36,10.36,0,0,1,9.52,10.35ZM8.17,28.61c.07.09.11.13.14.13a1.22,1.22,0,0,0,.27-.13,1,1,0,0,1,.31-.14A.23.23,0,0,1,9,28.41l.14,0v.35L8,29.33s-.07,0-.07.12,0,.15.07.15a1.72,1.72,0,0,0,.28.18.81.81,0,0,0,.27.09.69.69,0,0,0,.29-.13.79.79,0,0,1,.3-.14c.18,0,.27.1.29.29s0,.33,0,.41,0,.28,0,.43a.35.35,0,0,1-.29.31h.27a.67.67,0,0,0,.49-.15.65.65,0,0,1,.52-.16h.43a4.66,4.66,0,0,1-.66.67,6.12,6.12,0,0,1-.78.5l.31.27H9.17s-.08,0-.14-.13-.11-.14-.14-.14a1,1,0,0,0-.31.14,1.22,1.22,0,0,1-.27.13h-1c-.28,0-.43-.1-.43-.26V28.74s.15-.11.45-.17a3.29,3.29,0,0,1,.72-.1S8.11,28.52,8.17,28.61ZM9,3.28c0,.18.06.27.2.27s.19-.09.19-.27S9.29,3,9.17,3,9,3.07,9,3.28Zm.47-2.07v.31H9.17V1.21Zm.23,24.1c0,.18-.08.27-.23.27s-.2-.09-.2-.27.07-.31.2-.31S9.67,25.1,9.67,25.31Zm2.09,2.57a4,4,0,0,1-.61-.21,3.93,3.93,0,0,1-.6-.33A5.45,5.45,0,0,0,10,27a.33.33,0,0,1,.1-.18c.07-.06.12-.1.18-.1a.77.77,0,0,1,.29.14.77.77,0,0,0,.29.14l.22,0,.25,0a1.54,1.54,0,0,0,.55-.1,1,1,0,0,0,.42-.53H12l-.27.14a1,1,0,0,0-.27.17v-.31H11a1.31,1.31,0,0,0-.18-.66,1.09,1.09,0,0,0-.52-.47l.85-.58H10.3l.29-.3.29-.29s0-.06,0-.12a.24.24,0,0,1-.06-.11l-.09,0-.1,0L10,24l-.58.14V21.88h1.71a.39.39,0,0,0-.27.27,1.08,1.08,0,0,0,.59.94,2.13,2.13,0,0,0,1,.35.94.94,0,0,1-.1.53,1,1,0,0,1-.23.23l-.24.18c-.06.05-.09.16-.09.35h1.71a6.37,6.37,0,0,1-.06,1c0,.23-.24.35-.6.35,0,0,0,.09,0,.18s0,.15,0,.17a1.11,1.11,0,0,0,.06.27q.06.21.12.45c0,.17.07.33.09.47a1.74,1.74,0,0,1,0,.25.74.74,0,0,1-.12.3,1.19,1.19,0,0,1-.19.29l-.27-.31c0,.26,0,.43-.14.51a.88.88,0,0,1-.45.11.4.4,0,0,1-.13,0l-.14,0,.58-.86A.89.89,0,0,1,11.76,27.88ZM10,26.15l.07,0-.27.27-.08,0-.08,0-.07,0-.08,0,.13-.13a.89.89,0,0,1,.18-.14.24.24,0,0,1,.12,0ZM9.89,28.9c-.07.08-.11.12-.14.12a.12.12,0,0,0-.08,0H9.52a.13.13,0,0,0-.08,0l.58-.28ZM10,23.59V23l-.27.27Zm.51-11.15c0,.18-.08.27-.23.27s-.2-.09-.2-.27.07-.31.2-.31S10.53,12.23,10.53,12.44Zm-.43,9.71c0,.18.07.27.2.27s.23-.09.23-.27-.08-.27-.23-.27S10.1,22,10.1,22.15ZM10.45,30c0,.08,0,.13-.15.16s-.12,0-.12-.16,0-.18.12-.16S10.45,30,10.45,30ZM10.37,9q0,.27.24.27c.13,0,.19-.09.19-.27s-.06-.31-.19-.31S10.37,8.8,10.37,9Zm.32,16.3c0,.18.06.27.19.27s.2-.09.2-.27S11,25,10.88,25,10.69,25.1,10.69,25.31Zm.7,3.43c0,.18-.08.28-.24.28s-.19-.1-.19-.28.06-.27.19-.27S11.39,28.56,11.39,28.74Zm-.16-3.43q0,.27.24.27c.13,0,.19-.09.19-.27S11.6,25,11.47,25,11.23,25.1,11.23,25.31Zm.24,4.88a.22.22,0,0,1,0-.16c0-.1,0-.16,0-.16a.29.29,0,0,1,.09-.13.89.89,0,0,1,.18-.14Zm.07-4.29c0,.18.07.27.2.27s.19-.09.19-.27-.06-.32-.19-.32S11.54,25.69,11.54,25.9Zm.76-4.22a2,2,0,0,1,.76-.15,1.09,1.09,0,0,1-.17.62.64.64,0,0,1-.57.27.94.94,0,0,1-.29-.09,1.23,1.23,0,0,1-.29-.18A1.24,1.24,0,0,1,12.3,21.68Zm-.21,5.66c0,.18.08.27.23.27s.2-.09.2-.27-.07-.31-.2-.31S12.09,27.13,12.09,27.34Zm.23-17.51h.28V9.55ZM12.4,25.9c0,.18.07.27.2.27s.19-.09.19-.27-.06-.32-.19-.32S12.4,25.69,12.4,25.9Zm.78-2-.31.27v-.27Zm.28-.86h-.28v-.27Zm.19-.86c0,.18-.07.27-.19.27s-.2-.09-.2-.27.06-.27.2-.27S13.65,22,13.65,22.15Zm.58-.54c0,.18-.06.27-.19.27s-.23-.09-.23-.27.07-.32.23-.32S14.23,21.4,14.23,21.61Zm0,.54c0,.18-.06.27-.19.27s-.23-.09-.23-.27.07-.27.23-.27S14.23,22,14.23,22.15Z"/><path class="cls-1" d="M15.09,23.36c0,.18-.08.27-.23.27s-.24-.09-.24-.27.08-.31.24-.31S15.09,23.15,15.09,23.36Zm2-12.91a.34.34,0,0,1,.12.2,1.35,1.35,0,0,1-1.29.74,1.12,1.12,0,0,1,.27-.7.86.86,0,0,1,.71-.36C17,10.33,17,10.37,17.12,10.45Zm.62.51c0,.18-.07.27-.23.27s-.19-.09-.19-.27.06-.31.19-.31S17.74,10.75,17.74,11Zm3.32,16.81a4.37,4.37,0,0,0-.06-.51q-.06-.39-.12-.84c0-.3-.07-.58-.09-.84a5,5,0,0,1,0-.5q0-.55-.06-1.68c0-.75,0-1.61,0-2.55s0-2-.06-3,0-2-.06-3,0-1.8,0-2.56,0-1.31,0-1.67h-.75a1.22,1.22,0,0,1,.1-.51,3.63,3.63,0,0,1,.2-.35l.19-.33a1,1,0,0,0,.1-.49s-.05,0-.08-.06,0,0-.08,0l-.37.24-.52.33c-.19.11-.36.23-.53.35a3.22,3.22,0,0,0-.33.25V9.52a1.6,1.6,0,0,0,1.15-.39,2.69,2.69,0,0,0,.64-1,5.51,5.51,0,0,0,.35-1.27,10.59,10.59,0,0,1,.3-1.26,2.59,2.59,0,0,1,.5-1,1.19,1.19,0,0,1,1-.39,2.36,2.36,0,0,1,.33-1.52,1.32,1.32,0,0,1,.82-.41c.32,0,.67-.06,1-.08a1.4,1.4,0,0,0,1-.45,1.5,1.5,0,0,0,.35-.46A2,2,0,0,1,26,1a.45.45,0,0,1,.28-.15,3.72,3.72,0,0,1,.7,0V5a7.11,7.11,0,0,0-.76.7,1.38,1.38,0,0,0-.45.94.24.24,0,0,0,0,.08.19.19,0,0,1,0,.08,1.18,1.18,0,0,0,.29.13,1,1,0,0,1,.29.14V8.27a.94.94,0,0,0,.55.58,8.52,8.52,0,0,0,1,.43,7.15,7.15,0,0,1,1,.43.71.71,0,0,1,.45.62.53.53,0,0,1-.45.55,3.17,3.17,0,0,1-.8.12v-.35H26.17c0-.24,0-.54,0-.9a1.32,1.32,0,0,0-.35-.86,4.12,4.12,0,0,0-.63,1.78,21.51,21.51,0,0,0-.25,2.47c0,.86,0,1.69,0,2.5s0,1.42,0,1.83v2.34a8.82,8.82,0,0,0,.31,2.34,1,1,0,0,0,.1.22c.07.11.13.24.2.37s.13.25.19.37a.65.65,0,0,1,.1.21v.31a1,1,0,0,1-.27.73,1,1,0,0,0-.28.72h.55a.7.7,0,0,0-.18.15l-.13.16v.31l.13.14a.78.78,0,0,0,.18.13,1.16,1.16,0,0,0,.29.2l.45.27a3.82,3.82,0,0,0,.45.27l.29.16a.39.39,0,0,0,0,.35.78.78,0,0,0,.29.28,3.49,3.49,0,0,0,.39.19,1,1,0,0,0,.31.08,1.12,1.12,0,0,0,.82-.35,3.23,3.23,0,0,0,.59-.82,5.49,5.49,0,0,0,.37-1,3.33,3.33,0,0,0,.14-.82c0-.31,0-.8.07-1.46s0-1.41.06-2.24,0-1.71.06-2.63.05-1.8.06-2.64,0-1.58,0-2.24,0-1.15,0-1.46c0-.08,0-.29,0-.63s-.05-.71-.08-1.13-.06-.82-.1-1.2-.07-.69-.09-.9A9.46,9.46,0,0,0,30,7.16a2.21,2.21,0,0,0-.33-.74A1.39,1.39,0,0,0,29.07,6a4.91,4.91,0,0,0-.95-.33c-.16-.06-.27-.24-.35-.55a1.86,1.86,0,0,0-.24-.62V.82a8.23,8.23,0,0,1,2.54.39,15.82,15.82,0,0,0,2.49.58v.32c0,.05-.07.19-.15.43a3.51,3.51,0,0,1-.16.42s0,.08,0,.16a.6.6,0,0,1,0,.16h.55v.85a5.82,5.82,0,0,0-.9-.25,5.45,5.45,0,0,0-.9-.06h-.5a.35.35,0,0,0-.35.31l.58.63h3.28l.27-.63a.79.79,0,0,1,.18.16l.13.16v.31a3,3,0,0,0-.17.27.77.77,0,0,0-.14.31.65.65,0,0,0,.1.22c.06.11.13.24.21.37s.14.25.2.37a.89.89,0,0,1,.07.21,2.63,2.63,0,0,1,0,.3c0,.14-.06.29-.1.44s-.07.32-.1.47a2.07,2.07,0,0,0,0,.28,1.67,1.67,0,0,0,.14.27.79.79,0,0,1,.13.31,4.24,4.24,0,0,1,0,.43,5.32,5.32,0,0,1-.17,1.4,5.39,5.39,0,0,0-.18,1.41c0,.1,0,.3,0,.6s0,.49,0,.57l.16.13a.26.26,0,0,1,.11.18.5.5,0,0,1,0,.16.1.1,0,0,1,0,.07.31.31,0,0,0,0,.08.9.9,0,0,1-.13.27.9.9,0,0,0-.14.32,3.05,3.05,0,0,0,0,.37c0,.19.06.41.1.64s.07.46.1.66,0,.34,0,.39v1.1c0,.49,0,1,0,1.65s0,1.26,0,1.93,0,1.33,0,1.95,0,1.19,0,1.68,0,.86,0,1.09a13.42,13.42,0,0,0,1.91-.13,4.07,4.07,0,0,0,1.75-.73v.28c0,.05-.07.15-.13.31a1.25,1.25,0,0,1-.18.31h2.07a1.92,1.92,0,0,1-.74.31l-.72.16a1.4,1.4,0,0,0-.55.25A.76.76,0,0,0,38,27s0,0,.07-.12.06-.09.08,0a1.43,1.43,0,0,1,.2.43,1.67,1.67,0,0,1,.11.47h-.89l.58.58h.31a2.76,2.76,0,0,0,.32-.17A1.09,1.09,0,0,1,39,28a.3.3,0,0,1,.19.12c.08.08.12.14.12.19l-.31.28a1.1,1.1,0,0,1-.39,0H38.1l-1.3,0a3.71,3.71,0,0,1-1.31-.3l.31-.58H34.63l-.39.52c-.18.25-.38.52-.6.8s-.44.56-.65.8l-.43.53a3.91,3.91,0,0,1-.52.37c-.3.2-.63.39-1,.59s-.67.37-.95.54a2,2,0,0,1-.51.25l-.37,0c-.22,0-.45-.08-.7-.14s-.48-.13-.68-.2-.32-.13-.32-.21V28.94l-.27-.31v3.54H27L26.68,32a.9.9,0,0,0-.32-.14.78.78,0,0,0-.29.12,1.59,1.59,0,0,0-.29.19c-.5-.31-.94-.6-1.33-.87s-.76-.55-1.13-.84l-1.09-.88c-.36-.3-.75-.62-1.17-.95ZM25.54,7.41q0,.27.24.27c.13,0,.19-.09.19-.27s-.06-.31-.19-.31S25.54,7.2,25.54,7.41Zm.75,11.23c0,.18-.08.28-.24.28s-.19-.1-.19-.28.06-.31.19-.31S26.29,18.43,26.29,18.64ZM26.6,18c0,.21-.08.31-.24.31s-.23-.1-.23-.31.08-.31.23-.31S26.6,17.81,26.6,18Zm0,5q0,.27-.24.27c-.15,0-.23-.09-.23-.27s.08-.31.23-.31S26.6,22.84,26.6,23.05Zm.15,4.72c0,.18.07.27.2.27s.23-.09.23-.27-.08-.31-.23-.31S26.75,27.56,26.75,27.77Zm.28-18c0,.18.07.27.23.27s.2-.09.2-.27-.07-.31-.2-.31S27,9.58,27,9.79Zm.31.27c0,.18.06.27.19.27s.24-.09.24-.27-.08-.31-.24-.31S27.34,9.85,27.34,10.06Zm2.49.9c0,.18-.07.27-.23.27s-.19-.09-.19-.27.06-.31.19-.31S29.83,10.75,29.83,11Zm.43-4.72q0,.27.24.27c.13,0,.19-.09.19-.27s-.06-.31-.19-.31S30.26,6,30.26,6.24Zm3,9.71c0,.21.06.31.19.31s.24-.1.24-.31-.08-.31-.24-.31S33.23,15.74,33.23,16Zm1.09.59v-.28h-.27Zm.43,11.93s-.09,0-.12-.12,0-.15.12-.15.18.05.15.15A.14.14,0,0,1,34.75,28.47Z"/><path class="cls-1" d="M54.74,31.28a.52.52,0,0,1-.53.31.86.86,0,0,1-.53-.16.89.89,0,0,0-.52-.15H53l-.29.13a1,1,0,0,0-.29.18,4.69,4.69,0,0,1-.3-.59,5.77,5.77,0,0,0-.29-.58c0-.05,0-.15,0-.29a1.11,1.11,0,0,0,.08-.3A5.47,5.47,0,0,0,50.8,30a2.72,2.72,0,0,0-1,.47v-.31q-.07-.2-.27-.9H46.84c-.16,0-.26-.11-.31-.33a2,2,0,0,1-.08-.41,2.14,2.14,0,0,0,.64-.12,3.19,3.19,0,0,0,1.31-.8.79.79,0,0,0,.23-.52,1.34,1.34,0,0,0-.19-.74A3.68,3.68,0,0,0,48,25.7l-.51-.54a1.75,1.75,0,0,1-.37-.67,1,1,0,0,0,1-.19,3.51,3.51,0,0,0,.72-1,5.28,5.28,0,0,0,.43-1.23,5.14,5.14,0,0,0,.13-1,.87.87,0,0,0,.57-.29c.19-.2.32-.34.37-.41a1,1,0,0,0-.37-.06l-.37,0a5.12,5.12,0,0,0-.78.06c-.26,0-.44.24-.55.6a3.46,3.46,0,0,0-.19-1.71,15.35,15.35,0,0,0-.72-1.54Q47,17,46.59,16.2a3.5,3.5,0,0,1-.38-1.58,1.53,1.53,0,0,1,.16-.66,1.53,1.53,0,0,0,.16-.66V13a.92.92,0,0,0-.65.33,1,1,0,0,0-.25.68v.16a2.74,2.74,0,0,0,.06.37c0,.19.07.41.1.64a6.19,6.19,0,0,0,.09.66,3.08,3.08,0,0,1,.06.39v.47a5.21,5.21,0,0,1-.19,1.48,4.29,4.29,0,0,0-.12,1.56l-1.75.63v.27h2.33l-.58.9a.78.78,0,0,1,.18.13l.13.14a1.65,1.65,0,0,0,.63.78,3.32,3.32,0,0,0,.58.23.88.88,0,0,1,.43.28,1.66,1.66,0,0,1,.16.89,3.49,3.49,0,0,1-.51,0,1.87,1.87,0,0,1-.33-.1l-.26-.12a.76.76,0,0,0-.35-.06.16.16,0,0,1,0,.1.26.26,0,0,0,0,.1l.18.31a1.67,1.67,0,0,1,.14.27,3.23,3.23,0,0,1-.26.65,2.42,2.42,0,0,1-.33.56c0,.37.05.78.08,1.25a10.9,10.9,0,0,1,0,1.4,8.55,8.55,0,0,1-.2,1.41A4.56,4.56,0,0,1,45.36,31a2,2,0,0,0-1-.05.93.93,0,0,0-.78.64L43,31l-.29.3-.3.29h-.27a1.05,1.05,0,0,1-.2-.16.39.39,0,0,1-.11-.15V21c0-.13,0-.21.1-.25a.34.34,0,0,1,.23,0,1,1,0,0,1,.25.06,1,1,0,0,0,.2,0,.42.42,0,0,1,.08-.22c0-.09.06-.15,0-.17a3.93,3.93,0,0,0-.42-.32l-.47-.31V9.09A3.18,3.18,0,0,0,42.57,9,.52.52,0,0,0,43,8.31h-.86a1.25,1.25,0,0,1-.2-.14A.26.26,0,0,1,41.81,8V.94H42c0,.13,0,.28,0,.44a2.51,2.51,0,0,0,.08.49,1.11,1.11,0,0,0,.19.41.46.46,0,0,0,.37.18.37.37,0,0,0,.38-.24,3.37,3.37,0,0,0,.15-.48,1.21,1.21,0,0,1,.18-.43c.07-.12.23-.15.47-.1a1.36,1.36,0,0,1,.33.27,2.92,2.92,0,0,1,.25.31A.7.7,0,0,1,45,1.05,3.65,3.65,0,0,1,46,.9a.76.76,0,0,1,.66.27,4.69,4.69,0,0,1,.47.94,1,1,0,0,0-.17.29.8.8,0,0,0-.1.29,2.74,2.74,0,0,0,.27,1c.18.41.39.84.61,1.28l.6,1.21a2.62,2.62,0,0,1,.27.67,1.22,1.22,0,0,1-.13.27l-.18.31v.27a6.78,6.78,0,0,1,.84.45.84.84,0,0,1,.41.76s0,.07,0,.14a1.15,1.15,0,0,0,0,.14l-.62-.28v.28a.71.71,0,0,0,.17.29l.41.45c.16.15.32.3.49.44a1.86,1.86,0,0,0,.41.3,7.07,7.07,0,0,0,.78.21,4.59,4.59,0,0,0,.78.14c0,.13-.11.21-.33.23a7.78,7.78,0,0,1-.78.06l-.92.06a1.59,1.59,0,0,0-.7.19,1.82,1.82,0,0,0-.31.28v2.06s.11.08.35.14a4.8,4.8,0,0,1,.54.18h.32l.29-.14a.8.8,0,0,0,.29-.18v.47a2.12,2.12,0,0,1-.06.49c0,.17-.17.25-.41.25h-.08s0,0,0,0-.08,0-.16-.13-.13-.14-.16-.14a.73.73,0,0,0-.35,0l-.35.06c0,.08,0,.21,0,.39s0,.38.06.6a4.66,4.66,0,0,1,0,.61v.39a.64.64,0,0,1-.16.29.7.7,0,0,0-.15.29.83.83,0,0,0,.27.33,1.24,1.24,0,0,0,.35.26,3.5,3.5,0,0,0,.14-.43c.06-.23.11-.39.13-.47a9.34,9.34,0,0,1,.47-1.38c.11-.2.21-.28.31-.26a4.1,4.1,0,0,1,.43.14,1.19,1.19,0,0,0,.86-.25c.05,0,.1-.17.16-.43a1.17,1.17,0,0,1,.15-.47,1.32,1.32,0,0,1,.28-.14l.31-.13.13-.14a.55.55,0,0,0,.14-.18,1.47,1.47,0,0,1-.66-.76,2.39,2.39,0,0,1-.24-1,1.78,1.78,0,0,1,0-.35c0-.11.12-.18.28-.24V.62h2.65L55.2.33A1.23,1.23,0,0,1,55.38,0l.16,0a.33.33,0,0,1,.31.14A1.66,1.66,0,0,1,56,.41a.72.72,0,0,0,.26.27,1.2,1.2,0,0,0,.66.14,1,1,0,0,1-.17.56,1,1,0,0,0-.18.57v.16a1.58,1.58,0,0,1,.18.27.85.85,0,0,1,.13.31.69.69,0,0,1-.13.29,2.8,2.8,0,0,0-.18.3v.15a1.67,1.67,0,0,0,.16.76,2,2,0,0,1,.15.84,9.82,9.82,0,0,1-.08,1.42c-.05.41-.09.81-.13,1.21s-.08.84-.12,1.31a10.66,10.66,0,0,0,0,1.68,8.08,8.08,0,0,0-1.4,1A2.7,2.7,0,0,0,54.21,13h2.34l.31.27a.92.92,0,0,0-.31.31v.12a2,2,0,0,0,.08.66.59.59,0,0,0,.21.29.86.86,0,0,0,.35.14,1.63,1.63,0,0,1,.53.23.48.48,0,0,1,.16.28,1.58,1.58,0,0,0-1.17.46A1.63,1.63,0,0,0,56.24,17v.12l.62-.27V18c0,.05-.08.15-.17.31a1.05,1.05,0,0,0-.14.27c0,.06,0,.12.12.2a.3.3,0,0,0,.19.12V21s.07.09.22.2a2.53,2.53,0,0,1,.46.43,3.71,3.71,0,0,1,.49.64,1.66,1.66,0,0,1,.27.8,1.65,1.65,0,0,0-.64.31,3.46,3.46,0,0,0-.53.55q.43.19.51.45a1.6,1.6,0,0,1,.06.54,5.81,5.81,0,0,0,0,.59A.6.6,0,0,0,58,26a2.59,2.59,0,0,0,.78.39c.31.11.62.22.92.35a3.3,3.3,0,0,1,.8.51A1.39,1.39,0,0,1,61,28a2,2,0,0,0-.47-.06.25.25,0,0,0-.12.08.92.92,0,0,1-.12.16.75.75,0,0,1-.46.13h-.55c-.23,0-.5,0-.8,0l-.82,0c-.24,0-.42,0-.52,0a7.31,7.31,0,0,1-.08.91,7.49,7.49,0,0,1-.26,1.17,5,5,0,0,1-.44,1.11,1.88,1.88,0,0,1-.67.74.86.86,0,0,0,0-.31,1.72,1.72,0,0,0,0-.39.91.91,0,0,0-.15-.35.35.35,0,0,0-.28-.15A.48.48,0,0,0,54.74,31.28ZM42.86,3.71a2.37,2.37,0,0,0,.43.46s0-.08,0-.15,0-.13,0-.16A1,1,0,0,0,42.7,3l0,.12A1,1,0,0,0,42.86,3.71ZM44.15,13h.31v-.32h-.31Zm.08,5c0,.18.07.27.23.27s.23-.09.23-.27-.07-.31-.23-.31S44.23,17.85,44.23,18.06Zm.39-2.81c-.13,0-.19,0-.16.12s.06.15.12.15a.23.23,0,0,0,.19-.15Q44.82,15.25,44.62,15.25Zm1.09-6.63c0,.18.08.27.23.27s.2-.09.2-.27-.07-.31-.2-.31S45.71,8.41,45.71,8.62Zm.15-6.9c0,.28,0,.68,0,1.19s0,1.07,0,1.69,0,1.19,0,1.7,0,.9,0,1.19.06.35.08.19S46,7.05,46,6.47s0-1.18,0-1.83,0-1.31,0-1.89-.05-1-.08-1.23S45.89,1.43,45.86,1.72Zm.35,7.48a1.37,1.37,0,0,0-.27.57,2.57,2.57,0,0,0-.06.68c0,.24,0,.44,0,.63s0,.35,0,.68,0,.54,0,.64l.59-.58c0-.05,0-.21.06-.47s.08-.59.13-1,.09-.68.12-.89V8.89A1,1,0,0,0,46.21,9.2Zm.24.59q0,.27-.24.27c-.13,0-.19-.09-.19-.27s.06-.31.19-.31S46.45,9.58,46.45,9.79Zm-.16-1.48q0,.27.24.27c.15,0,.23-.09.23-.27S46.68,8,46.53,8,46.29,8.1,46.29,8.31Zm2.65,19.15c0,.2.08.31.24.31s.23-.11.23-.31-.08-.32-.23-.32S48.94,27.25,48.94,27.46Zm1.41-15.33a1.19,1.19,0,0,1,.19.29.78.78,0,0,1,.12.29,1.91,1.91,0,0,1-.49.69,1,1,0,0,1-.68.25l-.17,0-.14,0a1,1,0,0,0,.27-.33c.11-.17.21-.34.31-.51s.2-.32.28-.47.13-.21.15-.21A.5.5,0,0,1,50.35,12.13Zm-.59,13h.32V24.8Zm0,1.56a.44.44,0,0,0,.41-.26,1.91,1.91,0,0,0,.18-.45h-.59Zm1,4.44q-.08,0-.12-.12c0-.1,0-.15.16-.15s.17,0,.11.15A.14.14,0,0,1,50.78,31.12Zm0-10.72c0,.18.06.27.19.27s.24-.09.24-.27-.08-.32-.24-.32S50.74,20.19,50.74,20.4Zm1-1.31a1.57,1.57,0,0,0,.41.41V17.43h-1a.73.73,0,0,0,.25.53,5,5,0,0,0,.41.37.29.29,0,0,0-.19.1c-.08.06-.12.12-.12.17A.9.9,0,0,0,51.73,19.09ZM52,16.18a3,3,0,0,0-.43.36h.9V16A1.86,1.86,0,0,0,52,16.18Zm-.43,4.49a.7.7,0,0,0,.15.18l.16.13a.92.92,0,0,0,.31-.31V20.4a1,1,0,0,0-.31-.32,1.4,1.4,0,0,1-.16.14.7.7,0,0,0-.15.18v.27Zm.82-7.06c0,.18-.07.27-.2.27s-.23-.09-.23-.27.08-.31.23-.31S52.34,13.4,52.34,13.61Zm1,3.82c0,.21.07.32.2.32s.23-.11.23-.32-.08-.31-.23-.31S53.39,17.23,53.39,17.43Zm.35,2.81c-.13,0-.18.05-.15.16s.1.11.15.11a.16.16,0,0,0,.16-.11C53.92,20.29,53.87,20.24,53.74,20.24Zm.59-6.18a1.1,1.1,0,0,1,.15.14h.31l.14-.14a.55.55,0,0,0,.14-.18,1.12,1.12,0,0,1-.14-.15c-.06-.08-.11-.12-.14-.12l-.07,0-.08,0-.16,0a.35.35,0,0,0-.15.12q-.12.12-.12.15A.24.24,0,0,0,54.33,14.06Zm0,6.65c0,.18.06.27.19.27s.24-.09.24-.27-.08-.31-.24-.31S54.29,20.5,54.29,20.71Zm.19-5.66a1,1,0,0,0,.31.32v-.32l-.13-.13a.89.89,0,0,0-.18-.14v.27Zm.59-2.65h-.28l.28-.27Zm0,3.55.31-.27h-.31Zm1.17-3.82h-.63a.67.67,0,0,1,.18-.47.58.58,0,0,1,.45-.19Zm1.13,7.95c0,.21-.08.32-.24.32s-.19-.11-.19-.32.06-.31.19-.31S57.37,19.88,57.37,20.08Zm-.43,3c0,.18.06.27.19.27s.24-.09.24-.27-.08-.31-.24-.31S56.94,22.84,56.94,23.05Zm0,3.24c0,.18.06.27.19.27s.24-.09.24-.27-.08-.32-.24-.32S56.94,26.08,56.94,26.29Zm.27.58q0,.27.24.27c.13,0,.19-.09.19-.27s-.06-.31-.19-.31S57.21,26.66,57.21,26.87ZM57.72,11v.27L57.45,11Zm0,7.06v.31L57.45,18Zm1,12.17a.66.66,0,0,1-.74-.74A.65.65,0,0,1,58.69,30.19Zm-.15-1.25q0,.27-.24.27c-.13,0-.19-.09-.19-.27s.06-.31.19-.31S58.54,28.73,58.54,28.94Zm.31-4.72c0,.18-.08.27-.23.27s-.24-.09-.24-.27.08-.31.24-.31S58.85,24,58.85,24.22Zm-.47,3.55q0,.27.24.27c.15,0,.23-.09.23-.27s-.08-.31-.23-.31S58.38,27.56,58.38,27.77Zm1.13-4.14-.31.28v-.28ZM61,23.05v.27H60.1v-.27Z"/><path class="cls-1" d="M66.77,23.32v-.58h1.56A6,6,0,0,0,68.09,21a2,2,0,0,0-1.32-1.21,1.15,1.15,0,0,0,.37-.39,2.35,2.35,0,0,0,.21-.46c.21.33.38.6.51.79a.77.77,0,0,0,.7.3v-2.3s0-.08-.12-.14a.9.9,0,0,0-.19-.14,2.06,2.06,0,0,0-.57-.17l-.6-.14A.93.93,0,0,1,67,18a3.31,3.31,0,0,1-.49.64V16.22a.41.41,0,0,0,.32-.46v-.55a2,2,0,0,0-.08-.62,1.89,1.89,0,0,0-.2-.43,3,3,0,0,1-.21-.47,2.87,2.87,0,0,1-.14-.7h-.27l-.61.29-.6.29a.77.77,0,0,0,0-.56,2.4,2.4,0,0,0-.31-.59,3.94,3.94,0,0,0-.47-.52c-.17-.16-.31-.29-.41-.4a.24.24,0,0,1,0-.11.27.27,0,0,1,.12-.24.8.8,0,0,1,.23-.11,1.34,1.34,0,0,0,.24-.12.37.37,0,0,0,.11-.31c0-.5-.31-.68-.93-.55.26-.13.35-.22.29-.27s-.1-.17-.1-.35H62.36v.74c-.21,0-.34-.07-.39-.22s-.1-.27-.16-.41a.45.45,0,0,0-.25-.27c-.12,0-.34,0-.68.16A1.57,1.57,0,0,1,61.5,9c.34-.17.71-.33,1.11-.49s.79-.28,1.15-.39A3.54,3.54,0,0,1,64.54,8a3.13,3.13,0,0,1,1,.15,6.45,6.45,0,0,1,.84.37l.7.41a2.76,2.76,0,0,0,.58.28c.21.05.41-.06.59-.32a2,2,0,0,0,.31-.58c0-.11,0-.28,0-.53s0-.51,0-.8,0-.55,0-.8,0-.42,0-.52l4.72.31V16a1,1,0,0,0-.27.49A2.62,2.62,0,0,0,73,17v.47s.08.12.17.28a.88.88,0,0,1,.14.31.78.78,0,0,1-.12.29,1.59,1.59,0,0,1-.19.29l.31,4.14a2.42,2.42,0,0,1,.47.21,1.37,1.37,0,0,1,.39.37h-.86a26.35,26.35,0,0,0-.35,4c0,1.42,0,2.74,0,4l-.28.89H72A2.15,2.15,0,0,1,71,32a2,2,0,0,0-.88-.18.34.34,0,0,0-.33.18c-.07.12-.2.17-.41.17a.68.68,0,0,1-.64-.37,1.48,1.48,0,0,1-.22-.8V23.32ZM64.27,8.76a2.64,2.64,0,0,0,.43.09.37.37,0,0,0,.2-.09A.3.3,0,0,0,65,8.58c-.05-.18-.13-.28-.23-.29a1.94,1.94,0,0,0-.35,0,1.89,1.89,0,0,0-.35,0c-.11,0-.19.11-.24.29A1.32,1.32,0,0,0,64.27,8.76ZM64.11,5.3v-4a3.14,3.14,0,0,0,.69-.06,1.83,1.83,0,0,0,.45-.16,3.12,3.12,0,0,1,.39-.15,1.91,1.91,0,0,1,.54-.06l.59,0a.86.86,0,0,1,.31.15,1,1,0,0,0,.27.16,2.13,2.13,0,0,0,.59-.1L68.7.9l.8-.22a3.18,3.18,0,0,1,.7-.1h1.29l.31.18a.88.88,0,0,0,.31.14s.07-.05.14-.14l.13-.18h.31a.9.9,0,0,1,.18.32.92.92,0,0,1,.1.31h.89a2.16,2.16,0,0,0,.57-.06L74.82,1l.39-.11a2.16,2.16,0,0,1,.57-.06l.43,0,.31,0a.7.7,0,0,1,.29.15.64.64,0,0,0,.29.16,2.46,2.46,0,0,0,.45-.14L78,.9l.25,0,.26,0c0,.1,0,.3,0,.58s0,.59-.06.9-.05.62-.08.92a4.35,4.35,0,0,1-.08.6,2.46,2.46,0,0,1-.21.53,4.23,4.23,0,0,1-.37.64,1.5,1.5,0,0,1-.14.18.26.26,0,0,1-.14.09H75c0,.19-.13.29-.23.32a1.55,1.55,0,0,1-.7,0c-.11,0-.18-.13-.24-.32Zm.59,4.45V9.44h-.27Zm.39,3c0,.19.06.28.19.28s.24-.09.24-.28-.08-.31-.24-.31S65.09,12.51,65.09,12.71Zm.74,1.76c0,.21-.08.31-.23.31s-.24-.1-.24-.31.08-.31.24-.31S65.83,14.26,65.83,14.47ZM65.75,9c-.13,0-.18.05-.15.16s.06.11.11.11a.24.24,0,0,0,.2-.11C65.93,9.06,65.88,9,65.75,9Zm0,6.47a1.92,1.92,0,0,1,.12.47q0,.07-.12.18a.35.35,0,0,1-.19.09V15.05A1.67,1.67,0,0,1,65.79,15.48Zm.31-1.87c0,.18-.06.27-.19.27s-.24-.09-.24-.27.08-.31.24-.31S66.1,13.4,66.1,13.61ZM66,9.48c0,.18.06.27.19.27s.24-.09.24-.27-.08-.31-.24-.31S66,9.27,66,9.48Zm1.44,5.3c0,.18.08.27.23.27s.24-.09.24-.27-.08-.31-.24-.31S67.43,14.57,67.43,14.78ZM67.9,18q0,.27-.24.27c-.15,0-.23-.09-.23-.27s.08-.31.23-.31S67.9,17.81,67.9,18Zm.15-3.24c0,.18.07.27.2.27s.23-.09.23-.27-.08-.31-.23-.31S68.05,14.57,68.05,14.78Zm.28,5.89c0,.18.07.27.23.27s.2-.09.2-.27-.07-.31-.2-.31S68.33,20.46,68.33,20.67Zm6.35-9.13c0,.19-.07.28-.23.28s-.23-.09-.23-.28.07-.31.23-.31S74.68,11.34,74.68,11.54Zm0,4.14c0,.18-.07.27-.23.27s-.23-.09-.23-.27.07-.31.23-.31S74.68,15.47,74.68,15.68Zm0,2.92c0,.21-.07.32-.23.32s-.23-.11-.23-.32.07-.31.23-.31S74.68,18.4,74.68,18.6Z"/><path class="cls-1" d="M85.17,18.33a5,5,0,0,0-1.17.33,3.07,3.07,0,0,1-1.17.26h-.31a1.19,1.19,0,0,1,.1-.24l.23-.43c.1-.15.18-.23.26-.23h2.06ZM85.1,29.07c.15-.79.33-1.58.52-2.37s.37-1.59.53-2.38A11.94,11.94,0,0,0,86.38,22c0-.16,0-.4,0-.72a8.42,8.42,0,0,0-.18-1,6.05,6.05,0,0,0-.29-.88.83.83,0,0,0-.37-.46,1,1,0,0,0,.41-.59,3.92,3.92,0,0,0,.17-.95,8.81,8.81,0,0,0,0-1c0-.32,0-.57,0-.72a1,1,0,0,1,.45-.2l.49-.07a1,1,0,0,0,.39-.16.52.52,0,0,0,.15-.43,1.18,1.18,0,0,0-.07-.43.34.34,0,0,0-.36-.19,5.32,5.32,0,0,0-1.13.17,3.51,3.51,0,0,0-1.09.45,5,5,0,0,1-.64-.56c-.3-.3-.49-.51-.57-.61V13.3A3.37,3.37,0,0,1,84,13c.16-.16.25-.24.28-.24a1.09,1.09,0,0,1,.54.08,3.67,3.67,0,0,1,.63.31l.58.36a1,1,0,0,0,.47.15h.16a4,4,0,0,1,.43-.15l.46-.16h-1a.84.84,0,0,1,.23-.59c.16-.15.33-.3.51-.44l.53-.45a1.09,1.09,0,0,0,.33-.59l1.75-10,.35,0a2.74,2.74,0,0,1,.59.06,1.57,1.57,0,0,1,.55.25c.05.29.13.78.25,1.48s.23,1.45.35,2.23.23,1.52.33,2.22.18,1.18.24,1.44v.32a1,1,0,0,1-.14.31,1.09,1.09,0,0,0-.14.27s0,.08.14.16.14.13.14.15v.12a6.32,6.32,0,0,1-.16,1.4A6.64,6.64,0,0,0,92.23,13a3.66,3.66,0,0,0,.16,1.17,3,3,0,0,1,.16,1v.16a.7.7,0,0,0-.14.15c-.07.08-.11.12-.14.12l-.13-.29a1.36,1.36,0,0,0-.18-.3s0,0-.06,0,0,.08-.06.08a.79.79,0,0,0,.12.45,2.85,2.85,0,0,0,.25.33l.26.33a.72.72,0,0,1,.11.41.8.8,0,0,1,0,.16,1.26,1.26,0,0,1-.43.17,2,2,0,0,1-.47.1,4.19,4.19,0,0,0-.12.47c0,.23-.11.47-.17.72s-.13.49-.18.72a3.65,3.65,0,0,1-.12.47v.27a.86.86,0,0,0,.32.31h.15a1.69,1.69,0,0,0,.35-.11l.7-.26a6.94,6.94,0,0,0,.73-.29,2,2,0,0,0,.41-.23c-.06.15,0,.36.23.6a2.38,2.38,0,0,1,.39.57s.07,0,.14-.12l.13-.16v-.31a1.22,1.22,0,0,0-.13-.27.77.77,0,0,1-.14-.31V18c0-.13-.07-.39-.14-.78s-.13-.85-.21-1.39-.16-1.09-.25-1.67-.18-1.15-.26-1.68-.15-1-.21-1.38-.11-.65-.14-.79v-.15a.25.25,0,0,1,.14-.23l.29-.18a1.54,1.54,0,0,0,.29-.23A.76.76,0,0,0,94,9.17c-.44.05-.74-.05-.88-.3A2.48,2.48,0,0,1,92.86,8c0-.21-.12-.58-.2-1.1s-.17-1.08-.27-1.67-.2-1.17-.27-1.7S92,2.61,92,2.38V1.91A3.85,3.85,0,0,1,92,1.25c0-.24.2-.35.49-.35h.35a1.92,1.92,0,0,0,.27.17,1,1,0,0,0,.31.14l.41,0,.61,0,.64,0,.41,0a3.19,3.19,0,0,0,.37.74,7,7,0,0,1,.37.6,2.33,2.33,0,0,1,.22.66,2.43,2.43,0,0,1-.1.92l.64.2a.87.87,0,0,1,.57.42h-.82a1.37,1.37,0,0,1-.06.3.43.43,0,0,0,0,.29,1.17,1.17,0,0,0,.16.27.86.86,0,0,1,.15.31.7.7,0,0,1-.15.29.66.66,0,0,0-.16.3,1.23,1.23,0,0,0,0,.21,2.93,2.93,0,0,0,.1.37c0,.13.07.25.11.37a1.25,1.25,0,0,1,.06.21,4.66,4.66,0,0,0,.06.61c0,.27.07.56.1.88s0,.61.08.89,0,.48,0,.59a1.13,1.13,0,0,0,.39.35,5.3,5.3,0,0,0,.59.27c.21.08.48.17.82.27v.2a1.5,1.5,0,0,0-.8.25.81.81,0,0,0-.41.72,1.37,1.37,0,0,0,.33.93,5.49,5.49,0,0,1,.57.82v.31a3.21,3.21,0,0,0-.14.3,1,1,0,0,1-.18.29l.9,1.75a1.06,1.06,0,0,0-.27.51,2.9,2.9,0,0,0,0,.54c0,.39.08.61.23.65a3.91,3.91,0,0,0,.55.07,1,1,0,0,1,.6.28,1.85,1.85,0,0,1,.41,1.18,1.16,1.16,0,0,0-.72.2,1.12,1.12,0,0,0-.37.49,1.62,1.62,0,0,0-.12.64v.7a1.3,1.3,0,0,0,.14.66,2.2,2.2,0,0,0,.31.41,3.8,3.8,0,0,1,.33.37.76.76,0,0,1,.16.51.54.54,0,0,1,0,.15,1.12,1.12,0,0,1,0,.22c0,.11-.06.24-.09.39a3.75,3.75,0,0,0-.1.39,1,1,0,0,0,0,.21s.08.16.23.31a1.1,1.1,0,0,0,.35.27v2.93a3.58,3.58,0,0,1,.47.42,3.86,3.86,0,0,1,.43.47.24.24,0,0,0,0,.12.24.24,0,0,1,0,.12.69.69,0,0,0-.72.4,4.51,4.51,0,0,0-.26.84H96.68l-.31-.31a3.57,3.57,0,0,0-.16-2.36,2.15,2.15,0,0,0-1.87-1.15v-.54a5,5,0,0,0-1.09.14,2.19,2.19,0,0,0-1,.4v-.31a2.74,2.74,0,0,1-.17-.48,3.34,3.34,0,0,0-.14-.41h-.12a1.52,1.52,0,0,0-1.17.41,2.54,2.54,0,0,0-.58,1,9.33,9.33,0,0,0-.31,1.36,10.43,10.43,0,0,1-.32,1.36,2.39,2.39,0,0,1-.62,1.06,1.76,1.76,0,0,1-1.25.4A2.26,2.26,0,0,1,86.7,32a2,2,0,0,0-.78-.16h-.16a1.91,1.91,0,0,1-.27.18.81.81,0,0,1-.32.13c-.18,0-.27-.09-.29-.29s0-.33,0-.41A12.21,12.21,0,0,1,85.1,29.07Zm-.9-10.15c0,.18-.07.27-.2.27s-.23-.09-.23-.27.08-.32.23-.32S84.2,18.71,84.2,18.92Zm1-5h.32v-.27h-.32Zm.32,2.38h-.32l.32-.31Zm5.07,9.13c0,.21.07.31.23.31s.2-.1.2-.31-.07-.31-.2-.31S90.56,25.18,90.56,25.39Zm1.79-5.58c0,.18.07.27.2.27s.23-.09.23-.27-.08-.31-.23-.31S92.35,19.6,92.35,19.81Zm.51.27a1.66,1.66,0,0,0-.18.3l-.13.29.07,0,.08,0,.16,0a1,1,0,0,0,.17-.29.78.78,0,0,0,.1-.3l-.16,0Zm.5-5.88c0,.18-.07.27-.23.27s-.19-.09-.19-.27.06-.32.19-.32S93.36,14,93.36,14.2Zm0,4.72c0,.18-.07.27-.23.27s-.19-.09-.19-.27.06-.32.19-.32S93.36,18.71,93.36,18.92Zm.08,9.43h-.31V28Zm.2-13.57c0,.18-.07.27-.2.27s-.23-.09-.23-.27.08-.31.23-.31S93.64,14.57,93.64,14.78Zm-.12,10.61c0,.21.07.31.2.31s.23-.1.23-.31-.08-.31-.23-.31S93.52,25.18,93.52,25.39Zm.9-13.85c0,.19.06.28.19.28s.24-.09.24-.28-.08-.31-.24-.31S94.42,11.34,94.42,11.54ZM95.7.62c0,.19-.06.28-.19.28s-.23-.09-.23-.28.07-.31.23-.31S95.7.42,95.7.62Zm4.37,19.31q-.19,0-.15.15a.14.14,0,0,0,.15.12.16.16,0,0,0,.16-.12C100.25,20,100.2,19.93,100.07,19.93Zm1.17,5s-.1,0-.15-.12,0-.15.15-.15.18.05.16.15A.16.16,0,0,1,101.24,24.92Zm.67-.7c0,.18-.07.27-.2.27s-.23-.09-.23-.27.07-.31.23-.31S101.91,24,101.91,24.22Zm-.08-3.08c0,.05,0,.09-.12.11s-.16,0-.16-.15.06-.17.16-.12A.16.16,0,0,1,101.83,21.14Zm1.32-.78v.31h-.58v-.31Z"/><path class="cls-1" d="M104.09,7.08l.19,0a1.33,1.33,0,0,1-.37.51.92.92,0,0,1-.48.11h-.32c0-.31,0-.5.2-.56a1.49,1.49,0,0,1,.55-.1Zm.7.33c0,.21-.06.31-.19.31s-.24-.1-.24-.31.08-.31.24-.31S104.79,7.2,104.79,7.41Zm.59-3.51c0,.18-.07.27-.2.27S105,4.08,105,3.9s.08-.31.23-.31S105.38,3.69,105.38,3.9Zm.31,2.65c0,.18-.08.28-.24.28s-.19-.1-.19-.28.06-.31.19-.31S105.69,6.34,105.69,6.55Zm1-.62h-.31V5.66Zm3.24,22.42a1.63,1.63,0,0,1,.57-.23,1.56,1.56,0,0,1,.6-.08l-.27-.58a1.67,1.67,0,0,1-.51.09,2.76,2.76,0,0,1-.64,0,1.42,1.42,0,0,1-.59-.19.71.71,0,0,1-.33-.47q0-.61-.06-1.95c0-.88,0-1.88-.06-3s0-2.26-.06-3.47,0-2.37,0-3.47,0-2.1-.06-3,0-1.53,0-1.95a2,2,0,0,0-.14-.74c-.09-.23-.19-.47-.29-.7s-.2-.48-.29-.72a3.45,3.45,0,0,1-.18-.8H107a.63.63,0,0,0-.35-.59,2.12,2.12,0,0,0,1.19-1,10.72,10.72,0,0,1,.88-1.35,7.75,7.75,0,0,1,1.21-1.3,8.44,8.44,0,0,1,1.52-1.06,8.34,8.34,0,0,1,1.7-.7,6.14,6.14,0,0,1,1.73-.25V5.34c0,.39.11.64.31.74a3.58,3.58,0,0,0,.67.26,1.86,1.86,0,0,1,.62.29c.18.13.25.39.2.78h-3.86V9.79s.11,0,.17.12.11.13.14.15v.31a1.48,1.48,0,0,0-.16.28c-.08.15-.13.26-.15.31v.16a.32.32,0,0,0,.15.31c.1.05.16.18.16.39A4.71,4.71,0,0,1,113,13a4.83,4.83,0,0,0-.15,1.21v.27a.7.7,0,0,1,.74-.7,1,1,0,0,1-.12.54,2.41,2.41,0,0,1-.25.35,2.27,2.27,0,0,0-.26.35.91.91,0,0,0-.11.47.85.85,0,0,0,.17.63.74.74,0,0,1,.18.58A3.63,3.63,0,0,1,113,17.9a4,4,0,0,0-.17,1.29A3.84,3.84,0,0,0,113,20.4a3,3,0,0,1,.16,1v.16a1.94,1.94,0,0,1-.06.33l-.12.54c0,.2-.07.39-.1.57s0,.29,0,.31a.79.79,0,0,0,.13.31,1.68,1.68,0,0,0,.18.28v.31a3.43,3.43,0,0,0-.16.45c-.08.25-.13.39-.15.45v.15a1,1,0,0,0,.33.78c.22.21.45.41.7.61a6.89,6.89,0,0,1,.7.62,1,1,0,0,1,.33.76v3.55a.8.8,0,0,1-.1.29.87.87,0,0,1-.17.29h-.31L114,32l-.31-.16h-.15a.39.39,0,0,0-.34.16.44.44,0,0,1-.4.15h-.28a6.5,6.5,0,0,0-.86-.79q-.47-.37-.87-.75a3.43,3.43,0,0,1-.69-.83,2.19,2.19,0,0,1-.27-1.1A2.7,2.7,0,0,1,109.9,28.35ZM107.85,3.72a.49.49,0,0,1,0,.14,1.81,1.81,0,0,1,0,.31,3.29,3.29,0,0,1-.31.72,1.69,1.69,0,0,1-.27.45h-.31l.89-1.75S107.84,3.66,107.85,3.72Zm.8-1.3c0,.18-.08.27-.23.27s-.2-.09-.2-.27.07-.31.2-.31S108.65,2.21,108.65,2.42Zm.78,25.78a.14.14,0,0,1-.11.15c-.11,0-.16,0-.16-.15s0-.18.16-.16A.16.16,0,0,1,109.43,28.2Zm1.13.47q0,.27.24.27c.13,0,.19-.09.19-.27s-.06-.32-.19-.32S110.56,28.46,110.56,28.67Zm1-27.42c0,.18-.07.27-.2.27s-.23-.09-.23-.27.08-.31.23-.31S111.58,1,111.58,1.25Zm1.79,7.64c0,.18-.08.28-.23.28s-.24-.1-.24-.28.08-.31.24-.31S113.37,8.68,113.37,8.89Zm.2,3.67c-.06,0-.09,0-.12-.12s0-.15.12-.15.18.05.15.15A.15.15,0,0,1,113.57,12.56Zm.54-5.42c0,.18.07.27.2.27s.23-.09.23-.27-.08-.31-.23-.31S114.11,6.93,114.11,7.14Zm.2-.63h.31l-.31-.27Zm.74.47c-.13,0-.18,0-.16.12s.08.15.16.15.13,0,.15-.15S115.18,7,115.05,7Zm3.47,3.67A9.77,9.77,0,0,1,117.9,9q-.29-1-.51-2A7.33,7.33,0,0,0,117,5.66a.6.6,0,0,0-.37-.36l-.49-.13a1.4,1.4,0,0,1-.43-.2.59.59,0,0,1-.19-.52V.86a8.13,8.13,0,0,1,2.57.37,14.56,14.56,0,0,0,2.46.56l1.17,2.38a2.83,2.83,0,0,1,.47.1,1.21,1.21,0,0,1,.43.18v.31l-.18.29a.77.77,0,0,0-.14.29s0,.08.16.16.16.13.16.16c0,.36,0,.59,0,.7s0,.47,0,.7a1.06,1.06,0,0,1-.34.66v3a2.87,2.87,0,0,0-.64.12l-1,.29c-.36.12-.68.24-1,.36a2.18,2.18,0,0,0-.64.33v-.28a.84.84,0,0,1,.31-.31C119,11.31,118.75,11.12,118.52,10.65Zm-.47,17.57a1.58,1.58,0,0,0,.74.17.3.3,0,0,1,0,.12.74.74,0,0,0,0,.12,1.72,1.72,0,0,0-.17.19c-.07.08-.11.12-.14.12a1.82,1.82,0,0,1-.45-.16,1.78,1.78,0,0,0-.45-.15,1.43,1.43,0,0,0-.46.05.19.19,0,0,0-.12.18.41.41,0,0,0,.06.19.61.61,0,0,1,.06.28,1.41,1.41,0,0,1,.78.17,5.22,5.22,0,0,1,.43.39,1.94,1.94,0,0,0,.46.39,1.41,1.41,0,0,0,.86.14l0,.12a.47.47,0,0,1,0,.15l-.43.45c-.23.25-.37.4-.43.45a2.83,2.83,0,0,0-.15.29,1.12,1.12,0,0,1-.16.29h-.27l-.31-.17a.9.9,0,0,0-.32-.14,1.87,1.87,0,0,0-.27.16.79.79,0,0,1-.31.15h-.27l-.32,0L116,32a1.51,1.51,0,0,1-.35-.2.29.29,0,0,1-.15-.23V28.35c0-.07.08-.13.23-.17a2.79,2.79,0,0,1,.55-.08l.6,0,.41,0A1.55,1.55,0,0,1,118.05,28.22ZM118.17,0V.35h-.31V0Zm.19,24.76c0,.21-.06.32-.19.32s-.24-.11-.24-.32.08-.31.24-.31S118.36,24.6,118.36,24.8Zm-.07,5.78c-.14,0-.17,0-.12.11s.06.16.12.16.13-.05.15-.16S118.42,30.58,118.29,30.58Zm1.32-4.88a.94.94,0,0,1-.53-.45,1.8,1.8,0,0,1-.09-.6.65.65,0,0,1,.09-.37,2,2,0,0,1,.24-.26,1.25,1.25,0,0,0,.23-.23.45.45,0,0,0,.1-.31.24.24,0,0,0,0-.08.24.24,0,0,1,0-.08,2.38,2.38,0,0,1-.56.18l-.61.13-.13,0a.49.49,0,0,1-.14,0V21.25h1.68a1.57,1.57,0,0,0,.21.94,1.21,1.21,0,0,0,.53.39l.68.24a1.55,1.55,0,0,1,.72.5,2,2,0,0,1,.16.47h-1.33v.43h1.44V25.7l-.58.27a4.75,4.75,0,0,1,.25.86,5,5,0,0,1,.06.82,1,1,0,0,1-.27.72,1,1,0,0,1-.78.3c-.18,0-.29-.05-.33-.14a1.34,1.34,0,0,1-.1-.35c0-.14-.05-.28-.08-.41a.45.45,0,0,0-.23-.31.92.92,0,0,0-.2-.12l-.37-.18-.39-.17a.56.56,0,0,1-.21-.12l-.16-.14c-.08-.06-.12-.12-.12-.17Zm-.86.27h-.58a.54.54,0,0,1,.58-.35Zm-.23-3.19c0,.18.08.27.23.27s.2-.09.2-.27-.07-.32-.2-.32S118.52,22.57,118.52,22.78Zm.66,6.9q0,.08-.15.15t-.12-.15c0-.13,0-.18.12-.16S119.18,29.6,119.18,29.68Zm-.08-5.15q0,.27.24.27c.13,0,.19-.09.19-.27s-.06-.31-.19-.31S119.1,24.32,119.1,24.53Zm.51,2h.31l-.31-.27Zm.51,1.79c0,.19-.07.28-.2.28s-.23-.09-.23-.28.08-.31.23-.31S120.12,28.15,120.12,28.35Zm.39,1.48h-.35a.65.65,0,0,1,.35-.62Zm-.24-3.23q0,.27.24.27c.15,0,.23-.09.23-.27s-.08-.31-.23-.31S120.27,26.39,120.27,26.6Zm.8-5.5a2,2,0,0,1,.73-.16,1.54,1.54,0,0,1-.14.67.57.57,0,0,1-.57.27,1.29,1.29,0,0,1-.35,0,.38.38,0,0,1-.23-.27A1.18,1.18,0,0,1,121.07,21.1Zm.1-12.21c0,.18.08.28.24.28s.19-.1.19-.28-.07-.31-.19-.31S121.17,8.68,121.17,8.89Zm.8,13.34a.24.24,0,0,0,0-.08l.16.14a.26.26,0,0,1,.11.17.31.31,0,0,1,0,.12.5.5,0,0,1,0,.16l-.27-.28a.19.19,0,0,0,0-.07.31.31,0,0,1,0-.08A.24.24,0,0,1,122,22.23Zm.57-.55a.31.31,0,0,1-.28-.11c0-.05,0-.09.08-.12a.67.67,0,0,1,.24,0,.52.52,0,0,1,.21,0q.09,0,.06.12C122.8,21.65,122.69,21.68,122.54,21.68Zm.54-.7c0,.18-.08.27-.23.27s-.2-.09-.2-.27.07-.31.2-.31S123.08,20.77,123.08,21Z"/><path class="cls-1" d="M131.66,23.32v-.58h1.56A6.36,6.36,0,0,0,133,21a2,2,0,0,0-1.33-1.21,1.06,1.06,0,0,0,.37-.39,3.21,3.21,0,0,0,.22-.46c.2.33.37.6.5.79a.79.79,0,0,0,.71.3v-2.3s0-.08-.12-.14a.92.92,0,0,0-.2-.14,1.84,1.84,0,0,0-.56-.17l-.61-.14a.9.9,0,0,1-.09.84,3.77,3.77,0,0,1-.49.64V16.22c.21,0,.31-.2.31-.46v-.55a2,2,0,0,0-.08-.62,1.87,1.87,0,0,0-.19-.43,3,3,0,0,1-.22-.47,2.92,2.92,0,0,1-.13-.7h-.28l-.6.29-.6.29a.77.77,0,0,0,0-.56,2.1,2.1,0,0,0-.31-.59,3.35,3.35,0,0,0-.47-.52c-.17-.16-.3-.29-.4-.4a.24.24,0,0,1,0-.11.29.29,0,0,1,.11-.24.86.86,0,0,1,.24-.11l.23-.12a.35.35,0,0,0,.12-.31c0-.5-.31-.68-.94-.55.26-.13.36-.22.29-.27a.47.47,0,0,1-.09-.35h-1.1v.74a.37.37,0,0,1-.39-.22l-.15-.41a.48.48,0,0,0-.25-.27c-.12,0-.35,0-.69.16A1.62,1.62,0,0,1,126.4,9c.33-.17.71-.33,1.11-.49s.78-.28,1.15-.39a3.35,3.35,0,0,1,.78-.15,3.12,3.12,0,0,1,1,.15,6.45,6.45,0,0,1,.84.37c.26.15.5.28.7.41a2.82,2.82,0,0,0,.59.28c.21.05.4-.06.58-.32a1.82,1.82,0,0,0,.32-.58c0-.11,0-.28,0-.53s0-.51,0-.8,0-.55,0-.8,0-.42,0-.52l4.72.31V16a1.14,1.14,0,0,0-.28.49,3.67,3.67,0,0,0,0,.52v.47a1.68,1.68,0,0,1,.18.28.88.88,0,0,1,.14.31.78.78,0,0,1-.12.29,1.51,1.51,0,0,1-.2.29l.32,4.14a2.35,2.35,0,0,1,.46.21,1.15,1.15,0,0,1,.39.37h-.85a27.65,27.65,0,0,0-.36,4c0,1.42,0,2.74,0,4l-.27.89h-.7a2.23,2.23,0,0,1-1-.17,2,2,0,0,0-.87-.18.36.36,0,0,0-.34.18c-.06.12-.2.17-.41.17a.69.69,0,0,1-.64-.37,1.57,1.57,0,0,1-.21-.8V23.32ZM129.17,8.76a2.45,2.45,0,0,0,.43.09.35.35,0,0,0,.19-.09q.12-.11.12-.18c-.06-.18-.13-.28-.24-.29a3.07,3.07,0,0,0-.7,0c-.1,0-.18.11-.23.29A1.22,1.22,0,0,0,129.17,8.76ZM129,5.3v-4a3,3,0,0,0,.68-.06,1.83,1.83,0,0,0,.45-.16l.39-.15a1.94,1.94,0,0,1,.55-.06l.58,0a.79.79,0,0,1,.31.15,1,1,0,0,0,.28.16,2.07,2.07,0,0,0,.58-.1l.76-.21.8-.22a3.27,3.27,0,0,1,.7-.1h1.29l.31.18A1,1,0,0,0,137,.9s.08-.05.14-.14l.14-.18h.31a1.37,1.37,0,0,1,.18.32,1.09,1.09,0,0,1,.09.31h.9a2.26,2.26,0,0,0,.57-.06l.39-.12.38-.11a2.26,2.26,0,0,1,.57-.06l.43,0,.31,0a.7.7,0,0,1,.29.15.66.66,0,0,0,.3.16,2.46,2.46,0,0,0,.45-.14l.44-.17.26,0,.25,0c0,.1,0,.3,0,.58s0,.59-.06.9,0,.62-.08.92a4.93,4.93,0,0,1-.07.6,2.22,2.22,0,0,1-.22.53,3,3,0,0,1-.37.64.78.78,0,0,1-.13.18.36.36,0,0,1-.14.09h-2.38c-.05.19-.13.29-.23.32a1.6,1.6,0,0,1-.71,0c-.1,0-.18-.13-.23-.32Zm.59,4.45V9.44h-.28Zm.38,3c0,.19.07.28.2.28s.23-.09.23-.28-.07-.31-.23-.31S130,12.51,130,12.71Zm.75,1.76c0,.21-.08.31-.24.31s-.23-.1-.23-.31.08-.31.23-.31S130.73,14.26,130.73,14.47ZM130.65,9c-.13,0-.18.05-.16.16s.07.11.12.11a.23.23,0,0,0,.19-.11C130.83,9.06,130.78,9,130.65,9Zm0,6.47a1.75,1.75,0,0,1,.11.47.26.26,0,0,1-.11.18.37.37,0,0,1-.2.09V15.05A1.58,1.58,0,0,1,130.69,15.48Zm.31-1.87c0,.18-.07.27-.2.27s-.23-.09-.23-.27.08-.31.23-.31S131,13.4,131,13.61Zm-.12-4.13c0,.18.07.27.2.27s.23-.09.23-.27-.08-.31-.23-.31S130.88,9.27,130.88,9.48Zm1.44,5.3q0,.27.24.27c.16,0,.23-.09.23-.27s-.07-.31-.23-.31S132.32,14.57,132.32,14.78Zm.47,3.24c0,.18-.07.27-.23.27s-.24-.09-.24-.27.08-.31.24-.31S132.79,17.81,132.79,18Zm.16-3.24c0,.18.06.27.19.27s.24-.09.24-.27-.08-.31-.24-.31S133,14.57,133,14.78Zm.27,5.89q0,.27.24.27c.13,0,.19-.09.19-.27s-.06-.31-.19-.31S133.22,20.46,133.22,20.67Zm6.36-9.13c0,.19-.08.28-.23.28s-.24-.09-.24-.28.08-.31.24-.31S139.58,11.34,139.58,11.54Zm0,4.14c0,.18-.08.27-.23.27s-.24-.09-.24-.27.08-.31.24-.31S139.58,15.47,139.58,15.68Zm0,2.92c0,.21-.08.32-.23.32s-.24-.11-.24-.32.08-.31.24-.31S139.58,18.4,139.58,18.6Z"/><path class="cls-1" d="M144.73,23.36q0,.27-.24.27c-.15,0-.23-.09-.23-.27s.08-.31.23-.31S144.73,23.15,144.73,23.36Zm2-12.91a.34.34,0,0,1,.12.2,1.35,1.35,0,0,1-1.29.74,1.14,1.14,0,0,1,.28-.7.83.83,0,0,1,.7-.36A.3.3,0,0,1,146.75,10.45Zm.63.51c0,.18-.08.27-.23.27s-.2-.09-.2-.27.07-.31.2-.31S147.38,10.75,147.38,11Zm3.31,16.81c0-.08,0-.25-.05-.51s-.08-.54-.12-.84-.07-.58-.1-.84a5,5,0,0,1,0-.5c0-.37,0-.93-.06-1.68s0-1.61,0-2.55,0-2-.05-3,0-2-.06-3,0-1.8,0-2.56,0-1.31,0-1.67h-.74a1.08,1.08,0,0,1,.1-.51,3.69,3.69,0,0,1,.19-.35,3.54,3.54,0,0,0,.19-.33A1,1,0,0,0,150,9s0,0-.08-.06-.05,0-.07,0l-.37.24-.53.33-.53.35a3.22,3.22,0,0,0-.33.25V9.52a1.59,1.59,0,0,0,1.15-.39,2.71,2.71,0,0,0,.65-1,6.73,6.73,0,0,0,.35-1.27,10.63,10.63,0,0,1,.29-1.26,2.76,2.76,0,0,1,.51-1,1.18,1.18,0,0,1,.95-.39,2.36,2.36,0,0,1,.33-1.52,1.35,1.35,0,0,1,.82-.41c.33,0,.67-.06,1-.08a1.4,1.4,0,0,0,1-.45,1.5,1.5,0,0,0,.35-.46,1.9,1.9,0,0,1,.16-.32.4.4,0,0,1,.27-.15,3.72,3.72,0,0,1,.7,0V5a7.11,7.11,0,0,0-.76.7,1.38,1.38,0,0,0-.45.94.24.24,0,0,0,0,.08.11.11,0,0,1,0,.08,1.68,1.68,0,0,0,.3.13,1.53,1.53,0,0,1,.29.14V8.27a.89.89,0,0,0,.54.58,8.68,8.68,0,0,0,1,.43,7.56,7.56,0,0,1,1,.43.71.71,0,0,1,.45.62.53.53,0,0,1-.45.55,3.11,3.11,0,0,1-.8.12v-.35H155.8c0-.24,0-.54,0-.9a1.28,1.28,0,0,0-.35-.86,4.26,4.26,0,0,0-.62,1.78,21.48,21.48,0,0,0-.26,2.47c0,.86-.05,1.69,0,2.5s0,1.42,0,1.83v2.34a8.43,8.43,0,0,0,.31,2.34.65.65,0,0,0,.1.22c.06.11.13.24.19.37l.19.37a.65.65,0,0,1,.1.21v.31a1,1,0,0,1-.27.73,1,1,0,0,0-.27.72h.54a.55.55,0,0,0-.17.15l-.14.16v.31l.14.14a.59.59,0,0,0,.17.13,1.08,1.08,0,0,0,.3.2l.44.27a3.82,3.82,0,0,0,.45.27,2.4,2.4,0,0,0,.3.16.36.36,0,0,0,0,.35.9.9,0,0,0,.3.28,3.49,3.49,0,0,0,.39.19.94.94,0,0,0,.31.08,1.15,1.15,0,0,0,.82-.35,3.2,3.2,0,0,0,.58-.82,4.82,4.82,0,0,0,.37-1,3.33,3.33,0,0,0,.14-.82c0-.31.05-.8.08-1.46s0-1.41.06-2.24,0-1.71.06-2.63,0-1.8,0-2.64,0-1.58,0-2.24,0-1.15,0-1.46c0-.08,0-.29,0-.63s-.05-.71-.07-1.13-.06-.82-.1-1.2-.07-.69-.1-.9a7.75,7.75,0,0,0-.2-1.11,1.87,1.87,0,0,0-.33-.74,1.42,1.42,0,0,0-.58-.47,5.3,5.3,0,0,0-1-.33c-.15-.06-.27-.24-.35-.55a1.91,1.91,0,0,0-.23-.62V.82a8.16,8.16,0,0,1,2.53.39,15.94,15.94,0,0,0,2.5.58v.32a3.25,3.25,0,0,0-.16.43l-.15.42a.6.6,0,0,0,0,.16c0,.08,0,.13,0,.16h.54v.85a5.27,5.27,0,0,0-.9-.25,5.4,5.4,0,0,0-.89-.06h-.51a.35.35,0,0,0-.35.31l.58.63h3.28l.27-.63a.63.63,0,0,1,.18.16,1.4,1.4,0,0,0,.14.16v.31a1.42,1.42,0,0,0-.18.27,1,1,0,0,0-.14.31,1,1,0,0,0,.1.22l.22.37c.07.13.14.25.19.37a1.31,1.31,0,0,1,.08.21c0,.06,0,.15,0,.3s-.06.29-.1.44-.07.32-.1.47,0,.25,0,.28a1.22,1.22,0,0,0,.13.27.88.88,0,0,1,.14.31c0,.23,0,.38,0,.43a5.32,5.32,0,0,1-.18,1.4,5.4,5.4,0,0,0-.17,1.41c0,.1,0,.3,0,.6s0,.49,0,.57l.15.13q.12.11.12.18a1.17,1.17,0,0,1,0,.16.19.19,0,0,1,0,.07.13.13,0,0,0,0,.08,1.09,1.09,0,0,1-.14.27.81.81,0,0,0-.13.32c0,.05,0,.17,0,.37s.06.41.1.64.07.46.1.66,0,.34,0,.39v1.1c0,.49,0,1,0,1.65s0,1.26,0,1.93,0,1.33,0,1.95,0,1.19,0,1.68,0,.86,0,1.09a13.32,13.32,0,0,0,1.91-.13,4.11,4.11,0,0,0,1.76-.73v.28c0,.05-.07.15-.14.31a1,1,0,0,1-.17.31h2.06a1.92,1.92,0,0,1-.74.31l-.72.16a1.47,1.47,0,0,0-.55.25.76.76,0,0,0-.21.61s0,0,.08-.12.05-.09.08,0a1.51,1.51,0,0,1,.19.43,1.82,1.82,0,0,1,.12.47h-.9l.59.58h.31l.31-.17a1.67,1.67,0,0,1,.27-.14.34.34,0,0,1,.2.12.29.29,0,0,1,.11.19l-.31.28a1,1,0,0,1-.39,0h-.54l-1.31,0a3.76,3.76,0,0,1-1.31-.3l.32-.58h-1.17l-.39.52-.61.8c-.22.29-.43.56-.64.8l-.43.53a4.39,4.39,0,0,1-.53.37c-.3.2-.62.39-1,.59l-1,.54a1.69,1.69,0,0,1-.51.25l-.37,0c-.22,0-.45-.08-.7-.14l-.68-.2c-.21-.06-.31-.13-.31-.21V28.94l-.27-.31v3.54h-.32a1.92,1.92,0,0,0-.27-.17,1,1,0,0,0-.31-.14.72.72,0,0,0-.29.12,1.43,1.43,0,0,0-.3.19q-.74-.47-1.32-.87c-.39-.28-.77-.55-1.13-.84l-1.1-.88c-.36-.3-.75-.62-1.17-.95Zm4.49-20.36c0,.18.08.27.23.27s.2-.09.2-.27-.07-.31-.2-.31S155.18,7.2,155.18,7.41Zm.74,11.23c0,.18-.08.28-.23.28s-.2-.1-.2-.28.07-.31.2-.31S155.92,18.43,155.92,18.64Zm.31-.62c0,.21-.08.31-.23.31s-.24-.1-.24-.31.08-.31.24-.31S156.23,17.81,156.23,18Zm0,5c0,.18-.08.27-.23.27s-.24-.09-.24-.27.08-.31.24-.31S156.23,22.84,156.23,23.05Zm.16,4.72c0,.18.06.27.19.27s.24-.09.24-.27-.08-.31-.24-.31S156.39,27.56,156.39,27.77Zm.27-18q0,.27.24.27c.12,0,.19-.09.19-.27s-.07-.31-.19-.31S156.66,9.58,156.66,9.79Zm.31.27c0,.18.07.27.2.27s.23-.09.23-.27-.08-.31-.23-.31S157,9.85,157,10.06Zm2.5.9q0,.27-.24.27c-.13,0-.19-.09-.19-.27s.06-.31.19-.31S159.47,10.75,159.47,11Zm.43-4.72c0,.18.08.27.23.27s.2-.09.2-.27-.07-.31-.2-.31S159.9,6,159.9,6.24Zm3,9.71c0,.21.07.31.2.31s.23-.1.23-.31-.08-.31-.23-.31S162.86,15.74,162.86,16Zm1.09.59v-.28h-.27Zm.43,11.93s-.09,0-.11-.12,0-.15.11-.15.18.05.16.15A.16.16,0,0,1,164.38,28.47Z"/></g></g></svg>