<svg xmlns="http://www.w3.org/2000/svg" viewBox="0 0 50.45 51.43"><defs><style>.cls-1{fill:#fff;}</style></defs><g id="Capa_2" data-name="Capa 2"><g id="Capa_5" data-name="Capa 5"><path d="M25,51.43C-8.49,51.29-8.4-.4,25.64,0,59,.34,58.67,51.69,25,51.43Zm.11-1.79c31.12-.8,31.58-46.53.37-47.85C-5.84,2.24-6.36,48.59,25.15,49.64Z"/><path class="cls-1" d="M25.15,49.64c-31.52-1-31-47.4.37-47.85C56.73,3.11,56.27,48.85,25.15,49.64ZM12.24,39.93C-.51,25.6,10.41,4.85,29.68,7,11.38-1.86-5.35,29.39,12.24,39.93ZM25.78,14.42l-1.4,0V24.61l-10.46.51,0,1.23,10.21.46L24.63,37l1.42,0V26.8l10.48-.5-.05-1.51H25.78Zm12.7,25.7c10.37-7.2,9.68-24.77-1.92-30.28C45.62,19.46,46.38,29.41,38.48,40.12Z"/><path d="M12.24,39.93C-5.36,29.38,11.39-1.86,29.68,7,10.41,4.85-.5,25.61,12.24,39.93Z"/><path d="M25.78,14.42V24.79h10.7l.05,1.51-10.48.5V37l-1.42,0-.48-10.22-10.21-.46,0-1.23,10.46-.51V14.45Z"/><path d="M38.48,40.12c7.9-10.71,7.14-20.66-1.92-30.28C48.16,15.35,48.85,32.91,38.48,40.12Z"/></g></g></svg>