<svg xmlns="http://www.w3.org/2000/svg" viewBox="0 0 82.89 69.89"><defs><style>.cls-1{fill:#009dd0;}</style></defs><g id="Capa_2" data-name="Capa 2"><g id="Capa_2-2" data-name="Capa 2"><path class="cls-1" d="M3.63,36.91H23.05l7.33-20.52L41.92,45,52.18,23.72l7,12.64H80.21A39.37,39.37,0,0,0,82.05,14a21.26,21.26,0,0,0-7.33-9.53A21,21,0,0,0,64.64.64C63.35.5,54.72-.28,48,6a20.44,20.44,0,0,0-5.19,8,47,47,0,0,0-6.23-6.78,45.21,45.21,0,0,0-7.33-5.31A18.8,18.8,0,0,0,17.75.31,17.76,17.76,0,0,0,11.7,2.65,20.78,20.78,0,0,0,.52,15.84,33.63,33.63,0,0,0,3.63,36.91Z"/><path class="cls-1" d="M4.73,39.48H25.25l5.5-17L41.44,51.57,52,28.67l4.76,10.26H78.38c-.36.56-.73,1.13-1.11,1.69A71.12,71.12,0,0,1,59.15,58.9a64.22,64.22,0,0,1-5.32,4.21,63.15,63.15,0,0,1-12.27,6.78,105.61,105.61,0,0,1-20.7-13.56A105.81,105.81,0,0,1,4.73,39.48Z"/></g></g></svg>