<svg xmlns="http://www.w3.org/2000/svg" viewBox="0 0 220.8 157.51"><defs><style>.cls-1{fill:#fff;}.cls-2{fill:#1d1d1b;}</style></defs><g id="Capa_2" data-name="Capa 2"><g id="Capa_6" data-name="Capa 6"><path d="M110,101C44.15,100.77,44.35-.78,111.22,0,176.68.66,176.12,101.57,110,101Zm.23-3.51c61.14-1.57,62-91.42.72-94C49.37,4.4,48.35,95.48,110.26,97.53Z"/><path class="cls-1" d="M110.26,97.53c-61.93-2.06-60.88-93.14.72-94C172.31,6.12,171.39,96,110.26,97.53ZM84.89,78.45c-25-28.14-3.58-68.92,34.27-64.64C83.19-3.66,50.33,57.75,84.89,78.45ZM111.5,28.33l-2.76.07v20l-20.54,1,0,2.43,20.08.89c.33,7.07.63,13.58.94,20.09l2.78-.07v-20l20.61-1-.11-3h-21Zm24.94,50.49c20.39-14.15,19-48.66-3.76-59.49C150.48,38.23,152,57.79,136.44,78.82Z"/><path d="M84.89,78.45c-34.58-20.73-1.66-82.1,34.27-64.64C81.29,9.53,59.85,50.32,84.89,78.45Z"/><path d="M111.5,28.33V48.72h21l.11,3-20.61,1v20l-2.78.07c-.31-6.51-.61-13-.94-20.09l-20.08-.89,0-2.43,20.54-1v-20Z"/><path d="M136.44,78.82c15.53-21,14-40.59-3.76-59.49C155.46,30.16,156.83,64.67,136.44,78.82Z"/><path class="cls-2" d="M2.05,108.54c.8-.85,2.22.07,3-.85.25-.68.06-1,1.13-.94v3.82c-3.82,3.74-1.42,10.5-1.95,15.35A5,5,0,0,0,5,128.69c.25.49-.63.92-.78,1.34,1.56,3.88,2.31,2.05,2,7.18-3.47-1.06-6-3.29-6-7.18.62-1.9-1.57-20.39,1.52-20A2.33,2.33,0,0,1,2.05,108.54Zm.31,1c0,.16-.11.79.12.74S2.59,109,2.36,109.52ZM3.77,119c0,.19.27.13.27,0S3.74,118.79,3.77,119ZM4,128.9c0,.37.42.37.39,0S4,128.54,4,128.9Zm1,1.45a.22.22,0,1,1-.43,0C4.52,130,5,129.91,5,130.35Zm.19-16.46c-.14.4-.48-.26-.11-.16A.16.16,0,0,1,5.17,113.89ZM5.56,124a.22.22,0,1,1-.43,0C5.1,123.64,5.59,123.68,5.56,124Zm.28-.55a.22.22,0,1,1-.43,0C5.38,123.08,5.87,123.05,5.84,123.48Zm0,4.88a.22.22,0,1,1-.43,0C5.38,128,5.87,127.92,5.84,128.36Zm.91,7.56c-.38-2.26,1-3,2.32-4.19.9-.64.24-12.59.43-13.71.54-.1.4-.56.12-.86-.3-1.85.24-6.25-2.58-6l.32-.27L6.77,110v-3.16c1.27-.06,2-.15,1.72,1.44.47-.15.21-1.53.86-1.13a2.54,2.54,0,0,1,.27.86l.31-.59,1.72.28c-.14.77-.81,1.2-.59,2-2.37-1.33-2.66,2,1.17.86.41.69,1.07-.12,1.13-.58-.19,2.13,1.17,4.34.29,6.41-.22.83-.66,2.17.3,2.75l-.31.28v12.63c-1.44,2.45-3.49,5.93-6.87,4.56C6.77,136.52,6.76,136.29,6.75,135.92ZM9.5,111.86c-.26,0-.15.26,0,.27S9.77,111.83,9.5,111.86Zm.12-.43v-.31H9.35Zm.19,10.08c0,.11-.1.57.12.53S10,121.23,9.81,121.51Zm.55-9.38c0,.26.26.15.27,0S10.34,111.83,10.36,112.13Zm1.27-2.86c0-.07,0-.11,0-.14.4.12.31.54.27.86C11.57,109.88,11.59,109.57,11.63,109.27Zm.72,12.61c-.23,0-.12.27,0,.28S12.59,121.86,12.35,121.88Zm0-.58c0,.24.22.17.23,0S12.36,121,12.39,121.3Zm.47-2.15c0,.35.46.39.42,0S12.83,118.8,12.86,119.15Zm0,1.76c0,.35.46.38.42,0S12.83,120.51,12.86,120.91Zm.23,1.13h.35a.64.64,0,0,0-.35-.59Zm1.05-9.75a.22.22,0,1,1-.43,0C13.69,111.89,14.18,111.85,14.14,112.29Z"/><path class="cls-2" d="M20.38,107.55a3.19,3.19,0,0,0,1.95-.41v.43h1.76c.06.5-.42,1.1-.35,1.6a1.31,1.31,0,0,1,.85-.31,14.46,14.46,0,0,0-.27,1.71c.08.08.5.51.59.59v4c.31.21.71.78.54,1.14a3.1,3.1,0,0,0,0,2.3c.33-.87,1.68,0,2-.86.75-3.55,1.06-6.78,1.72-10.34,1.75.06,3.83-.59,4.36,1.76H33c.19,1.64.12,3.54,1.64,4.41h-.86c1.14,1.45-.28,4.27,2,4.71-.43.12-1.25.25-1.17.86,0,.08.53.26.58.31a11.38,11.38,0,0,1-.27,1.72c.75.23-.26,1.62.86,1.44.47-.11.21-2,.27-2.3,1-.2-.38-1.79.59-2l1.44-10.88c.91.33,1.26-.34,2.14-.31s1.29.73,1.84-.23c0,.41-.2,1.51.31,1.71v.28a.92.92,0,0,1-.31.31,4.71,4.71,0,0,1-1.13,4.29,1,1,0,0,0,.13.27c.5.55-.32,1.08-.45,1.56.12.45.19,1.32.59,1.6.16.28-.41.92-.55,1.13l.28.27c-1.38,1.18-.71,3.8-1.14,5.46h.35c-1.16,2.75-.71,5.66-1.79,8.43.65,1.65-.2,2.94-.86,4.44-.25-.1-.78,0-.85.32l.27.27c-3.2.18-2.8.07-3.38-3.08-.71-1.73-.6-9.59-2.35-8.82.1-.29.68-.93.58-1.28,0,0-.57-.53-.58-.55v-.31s.27-.53.31-.55v-.31a5,5,0,0,0-.59-.54c-2,1.91-.8,5.22-1.87,7.56-.16.42-.15.53.16.7a23.25,23.25,0,0,1-1.45,6.05c-.15-.64.32-.9.32-1.44-1.67-3.35-1.42-7.81-1.45-11.47-2.56-.5,1.27,10.9.63,13.3-.35,0-1.54,0-1.49.58h1.45l-3.16.16c-.52-9.92-3.16-19.76-4.1-29.68Zm2.23.72V108h-.28Zm-.2,10.61c0,.37.42.37.39,0S22.38,118.51,22.41,118.88Zm.31-11.58c-.38-.14.21-.47.16-.16C22.85,107.24,22.8,107.3,22.72,107.3Zm.82,23.63a.22.22,0,1,0,.43,0C24,130.53,23.51,130.49,23.54,130.93Zm.27-15.76c0,.35.47.39.43,0S23.79,114.77,23.81,115.17Zm.59,21.77a.22.22,0,1,0,.43,0C24.86,136.54,24.36,136.5,24.4,136.94Zm1-17.87c-.31-.17-.75.16-.21.24C25.3,119.33,25.58,119.16,25.39,119.07Zm-.41,15c0,.37.42.37.39,0S25,133.67,25,134.09Zm0,2.85c0,.36.42.36.39,0S25,136.52,25,136.94Zm.74-22.51c-.6-.07,0-.4.26-.23S25.9,114.45,25.72,114.43Zm-.19,15.92a.22.22,0,1,0,.43,0C26,129.91,25.5,129.94,25.53,130.35Zm.23-8.31c1.47,1.11,1.59-2.57,1.56-3.43H26.15c0,.18,0,1.12-.39,1.13Zm.71,12.75c-.26,0-.09.27,0,.27S26.74,134.76,26.47,134.79Zm.35-14.47c0,.37-.42.37-.39,0S26.84,119.9,26.82,120.32Zm1-1.13a.22.22,0,1,0,.43,0C28.29,118.76,27.8,118.79,27.83,119.19Zm2.5-4v-.7a.56.56,0,0,0-.55.35A.51.51,0,0,0,30.33,115.21Zm-.08,11.43c0,.37-.42.37-.39,0S30.28,126.22,30.25,126.64Zm-.08-7.6c-.22,0-.09.28,0,.27S30.44,119,30.17,119Zm0,2.14a.22.22,0,1,0,.43,0A.22.22,0,1,0,30.13,121.18Zm.35-9c0,.2.28.13.28,0S30.46,111.93,30.48,112.17Zm.28,8c-.2,0-.13.27,0,.27S31,120.14,30.76,120.17Zm.15-9.6c0,.05-.29.22-.27.31h.27s.29-.21.28-.31Zm.08,8.62a.22.22,0,1,0,.43,0C31.45,118.79,31,118.76,31,119.19Zm.58,5.73c0,.37.42.37.4,0S31.55,124.51,31.57,124.92Zm1.72-5.73c0,.37.42.37.39,0S33.26,118.77,33.29,119.19Zm0,12c0,.37.42.37.39,0S33.26,130.79,33.29,131.2Zm.47-.85V130h-.27Zm-.2,1.71a.22.22,0,1,0,.43,0A.22.22,0,1,0,33.56,132.06Zm.36,2.42c0,.23.26.18.27,0S33.89,134.24,33.92,134.48Zm.23-1.83c0,.36.42.36.39,0S34.12,132.23,34.15,132.65Zm0,2.3c0,.36.42.36.39,0S34.12,134.53,34.15,135Zm.31-23.64c-.13.37-.4-.17-.12-.15A.15.15,0,0,1,34.46,111.31Zm1.17,12c-.26,0-.15.27,0,.27S35.87,123.3,35.63,123.33Zm0,1.17c0,.19.28.13.27,0S35.61,124.25,35.63,124.5ZM37,119.19a.22.22,0,1,0,.43,0C37.46,118.76,37,118.79,37,119.19Zm.31-3.74c0,.36.42.36.39,0S37.28,115.08,37.31,115.45Zm.27,15.17a.22.22,0,1,0,.43,0A.22.22,0,1,0,37.58,130.62Zm.51,3.43h.27v-.55h-.27Zm.43-11.31c0,.26.26.15.27,0S38.49,122.48,38.52,122.74Zm.11-7.29H39l-.32-.28Zm.78,16.07c0,.36-.41.36-.39,0S39.44,131.1,39.41,131.52Zm-.11-12.91a.22.22,0,1,0,.43,0C39.75,118.21,39.26,118.17,39.3,118.61Zm.62-11.31c-.25,0-.08.27,0,.27S40.19,107.27,39.92,107.3Zm.16,7.87v-.31H39.8Zm1.21-4.29c0,.35.46.39.43,0S41.26,110.48,41.29,110.88Z"/><path class="cls-2" d="M49.2,115.64c.67,0,1.32-.28,1.13-1-2.06,2-.81-6.49-1.13-6.9h.28V109c.62-.08,1.26.39,1.24-.58h1.06c0-.51.76-.68,1.13-.74v14c.67,1.33.49,5.61-1.72,4,.22,1-1.63.63-2,.32Zm.94,11.23a10.53,10.53,0,0,1,2.77.32c-.29,1.15.93,2.57.45,3.57-.25.27-.76,1.47-.14,1.57l-.31.28c-.14,1.07.56,4.26-.72,4.39-.54-.17-1-.37-1.54.21V137c-.8,0-.65.25-1.45.23V127.19C49.23,126.78,49.87,126.84,50.14,126.87Zm-.66-16.3c-.25,0-.28.63,0,.59S49.77,110.53,49.48,110.57Zm0,24.07c-.25,0-.28.62,0,.58S49.77,134.59,49.48,134.64Zm.31-22.94-.31.59a2,2,0,0,0,.31-.27Zm-.08-2.18c.08.41.39,1.47.94,1.33l.27-.28A1.3,1.3,0,0,0,49.71,109.52Zm.35,2.5c-.26,0-.26.58,0,.54S50.32,112,50.06,112Zm.27,3.43c-.26,0-.26.58,0,.54S50.65,115.41,50.33,115.45Zm.59,3.7c0-.08,0-.11-.16-.11C50.41,119,50.86,119.55,50.92,119.15Zm.27-11.46c.3,0,.33.62,0,.58S51,107.64,51.19,107.69Zm0,4.87c-.24,0-.27.62,0,.59S51.49,112.52,51.19,112.56Zm.31,6.32v.86l.28-.28C51.91,119.25,51.66,119,51.5,118.88Zm.28,4.29c-.25,0-.28.62,0,.58S52,123.13,51.78,123.17Zm0,.86q-.12,0-.12.15C51.67,124.54,52.17,124.09,51.78,124Zm0-2.58v1.45C51.86,122.63,52.36,121.45,51.78,121.45Zm0,3.44v.27h.27Zm.27-16.35c-.25,0-.28.63,0,.59S52.35,108.5,52.05,108.54Zm0,9.21c-.26,0-.26.58,0,.54S52.36,117.71,52.05,117.75Zm0,2.85c-.25,0-.28.62,0,.58S52.35,120.55,52.05,120.6Zm.58-9.17q0-.12-.15-.12C52.17,111.34,52.51,111.73,52.63,111.43Zm.86,4.56c.3,0,.33.63,0,.59S53.25,116,53.49,116Zm2.89,11.28c1.47-.54,2.7-.62,2.57,1.36h.39c-.47-2.26.39-1.64,2.07-1.72-.07-1.1-1.61-.21-2.18-.85l.27-.32v-2c-.32-.6-1.81-.17-1.72.55l.59-.27-.28.58h.55l-.27.28c.5.19.26.66.29,1.13.09.62-2,.19-2.28.31l.27-.27s-.27-.07-.27,0a1.51,1.51,0,0,0-.59.27c-.19-1.56-3.56-5-1.75-5.89-1.34-2.58.85-3.24,0-5.3l-.59.31a1,1,0,0,0,0-1.45v-5.49a1.52,1.52,0,0,1,.86.35l-.27.27c.22,1.23.7,3.43,1.71,4.29-1.22,1.69,1.32,4.12,3.16,3.94v.08l-2.57.31-.31-.31c0,1.09-.88,2.68.58,3.16.25.42-.65.47-.86.58,1.71.52-.59,2.68.71,3.16,1.17-.24-.07-2.82,1.59-2.61.49.82,1.51-1.09,2-1.41-.47-.45-1.33-1.82-.58-2.3V107.41h2.61c0-.24.24-.72.55-.7v.7h1.21c0,.6-.87,1.63,0,2-.46,0-.47,1.48,0,1.45a.77.77,0,0,0-.31.31c0,.44.45.62.31,1.13-.62,1.28-.27,3.18-.31,4.56-1.16,1.47-2.45,1.45-2.19,3.67.75.06.65-.43.82-.9,1-.73,1.37.9,1.25,1.68h1.29c-.86.28-2.3,1.59-1.45,2.45l.28-.58v1.44h-.16c0,.48.6.4.59.86h-.32c.07.46-.48,1.83.2,2l-.31.31v7.72c-.4,0-.39,1-.39,1.13H59.5A41,41,0,0,1,56.38,127.27ZM54.94,120c-.25,0-.28.62,0,.59S55.18,120,54.94,120Zm.27-4.87c-.25,0-.28.62,0,.58S55.51,115.09,55.21,115.14Zm.31,8.3c-.3,0-.33.63,0,.59S55.77,123.4,55.52,123.44Zm0,3.16c.25,0,.28.62,0,.59S55.22,126.56,55.52,126.6Zm.86-11.46h.27v.31h-.27Zm1,3.47h.2c0,.63-.36,1.64-1.21,1.4C56.78,119.76,57.43,119.15,57.39,118.61Zm-.74,6.55c-.24,0-.27.62,0,.58S56.9,125.11,56.65,125.16Zm1.13-4.84c.15.41.16,1.3-.54,1.13A.88.88,0,0,1,57.78,120.32ZM59.5,122c-.34.12-.94.44-1,.86h1ZM59,129.18c-.21-.09-.21.39,0,.31S59.11,129.27,59,129.18Zm.28-9.44c.24,0,.27.62,0,.58S59,119.69,59.23,119.74Zm.58,17.47a.2.2,0,0,1-.31,0C59.36,137.06,59.9,137,59.81,137.21Zm.55-13.77a.84.84,0,0,0,.31.31h.27l.59-.58A1.15,1.15,0,0,1,60.36,123.44Zm1.17,13.77a1.27,1.27,0,0,1-.86,0C60.73,137,61.46,137,61.53,137.21Zm-.28-16a4.08,4.08,0,0,0,.86,1.13c.58-.27,0-.9-.31-1.13C61.8,121.08,61.35,121.08,61.25,121.18Zm.28-1.72c.14.1.17.22,0,.28S61.3,119.38,61.53,119.46Zm.27,7.45c-.26,0-.26.59,0,.55S62.11,126.88,61.8,126.91Zm.31-8.3v.27H61.8Zm.55,5.42c-.25,0-.28.62,0,.58S63,124,62.66,124Zm0-5.74a.64.64,0,0,1,.66-.35.77.77,0,0,1-.35.67Zm.86,1.17c.4.07-.14.54-.12.12Q63.4,119.43,63.52,119.46Zm.31,9.17c.26,0,.26.58,0,.55S63.51,128.59,63.83,128.63Zm.86-11.19c-.07.4-.6-.13-.16-.12C64.66,117.32,64.71,117.36,64.69,117.44Zm0,6.86c-.07.41-.6-.13-.16-.12C64.66,124.18,64.71,124.22,64.69,124.3Z"/><path class="cls-2" d="M88,132.61c-3.84,2.06-1.49-10.26-2.23-12.54-.28-5.16-.73-12.94,6.21-13v3.83c-.89.78-1.93,1.39-2,2.77-.19.88-.52,1.81.31,2.39.21.41-.33.43-.27.85.74,1-.24,2.2-.24,3.32.3.35.45-.25.51-.46a.91.91,0,0,1-.55,1.17c1.59,1.69-1.13,4.2.55,6-1.7,4,2.51,6.19,1.72,10-.22.56-1,.2-1.41,0C89.05,138,87,135,87,133.58h1.21Zm-1.25.89c0,.37-.42.37-.39,0S86.75,133.09,86.72,133.5Zm.94.86.58-.31h-.58Zm1-1.6c-.26,0-.15.28,0,.28S88.91,132.74,88.67,132.76Zm.78-3.27a.22.22,0,1,0,.43,0C89.91,129.05,89.42,129.09,89.45,129.49Zm.66,4.17c-.24,0-.16.22,0,.23S90.37,133.64,90.11,133.66Zm.35-18.76c0,.35-.46.38-.42,0S90.49,114.5,90.46,114.9Zm.28,3.43c0,.39-.46.35-.43,0S90.77,117.9,90.74,118.33Zm.15,14.59a.22.22,0,1,0,.43,0A.22.22,0,1,0,90.89,132.92Zm.28-24.61a.22.22,0,1,0,.43,0C91.63,107.87,91.14,107.91,91.17,108.31Zm4,7.08c-.82-7.42-3.2-.88-2.65-8.37,1.65,0,3.16,1,4.8,1,.06,1.1,1,2.56,2.14,2.65a.29.29,0,0,1-.07.2c-.85.57.6.82-.28,1.4-.09.54.73.67,0,1.17v3.31a5.58,5.58,0,0,0-2.3.43c-.62,0-.68-.64-1.4-.31A9.87,9.87,0,0,1,95.18,115.39Zm-1.34,18.25c.12.35.53-.16.72-.14a.64.64,0,0,1,.27-.07v.35c-.09.13-1.58.58-1.13.86s.78.2,1.13,0c.49.08.46,1.32,0,1.45.67.08,1-.46,1.72-.31a4.64,4.64,0,0,1-1.44,1.17l.31.27c-.33,0-.66,0-.86-.27-.46.24-1.71.54-2,0v-3.16C92.68,133.65,93.69,133.32,93.84,133.64Zm.8-25.33c0,.37.41.37.39,0S94.61,107.89,94.64,108.31Zm.47-2.07v.32h-.28v-.32Zm.23,24.11a.22.22,0,1,1-.43,0C94.88,129.91,95.37,130,95.34,130.35Zm2.09,2.57a6.88,6.88,0,0,1-1.74-.86c.11-.52.6-.07.86,0,.6.07,1.18.12,1.44-.58a1.21,1.21,0,0,0-.86.31v-.31h-.46a1.21,1.21,0,0,0-.71-1.13l.86-.59H96c.13-.21.79-.54.51-.82-.27-.1-1.08.2-1.36.24v-2.27h1.71c-.95.59.76,1.66,1.37,1.56.12.77-.65.65-.67,1.29h1.72c-.07.72.21,1.35-.66,1.37-.19.76.66,1.72,0,2.37l-.28-.31c.1.62-.41.68-.85.59l.58-.86A1.06,1.06,0,0,1,97.43,132.92Zm-1.82-1.74a.12.12,0,0,0,.08,0l-.27.28a.42.42,0,0,1-.31,0C95.22,131.37,95.43,131.09,95.61,131.18Zm-.06,2.75a.34.34,0,0,1-.44.12l.58-.27S95.62,133.86,95.55,133.93Zm.14-5.3V128l-.27.28Zm.51-11.15a.22.22,0,1,1-.43,0C95.73,117,96.23,117.08,96.2,117.48Zm-.43,9.71a.22.22,0,1,0,.43,0C96.23,126.84,95.74,126.8,95.77,127.19Zm.35,7.87c0,.15-.3.28-.27,0S96.13,134.92,96.12,135.06ZM96,114c0,.35.46.39.43,0S96,113.64,96,114Zm.31,16.31c0,.36.42.36.39,0S96.32,129.93,96.35,130.35Zm.71,3.43c0,.35-.47.38-.43,0S97.08,133.43,97.06,133.78Zm-.16-3.43a.22.22,0,1,0,.43,0C97.36,129.91,96.87,130,96.9,130.35Zm.23,4.87s0-.32,0-.31a.66.66,0,0,1,.28-.27Zm.08-4.29c0,.37.42.37.39,0S97.18,130.51,97.21,130.93Zm.76-4.21a1.85,1.85,0,0,1,.76-.16.76.76,0,0,1-1.32.63A1.13,1.13,0,0,1,98,126.72Zm-.21,5.65c0,.35.46.39.43,0S97.73,132,97.76,132.37ZM98,114.86h.27v-.27Zm.08,16.07c0,.37.42.37.39,0S98,130.51,98.07,130.93Zm.78-2-.31.28v-.28Zm.27-.86h-.27v-.27Zm.2-.85c0,.36-.42.36-.39,0S99.34,126.82,99.32,127.19Zm.58-.55a.22.22,0,1,1-.43,0C99.45,126.24,99.94,126.2,99.9,126.64Zm0,.55a.22.22,0,1,1-.43,0C99.44,126.84,99.93,126.8,99.9,127.19Z"/><path class="cls-2" d="M107.62,108.54c.8-.85,2.22.07,3-.85.25-.68.06-1,1.13-.94v3.82c-3.81,3.74-1.42,10.5-2,15.35a5,5,0,0,0,.74,2.77c.25.49-.63.92-.78,1.34,1.56,3.88,2.31,2.05,2,7.18-3.47-1.06-6-3.29-6-7.18.62-1.9-1.56-20.39,1.52-20A2.33,2.33,0,0,1,107.62,108.54Zm.32,1c0,.16-.12.79.11.74S108.16,109,107.94,109.52Zm1.4,9.52c0,.19.28.13.27,0S109.31,118.79,109.34,119Zm.23,9.86c0,.37.42.37.39,0S109.55,128.54,109.57,128.9Zm1,1.45a.22.22,0,1,1-.43,0C110.09,130,110.58,129.91,110.55,130.35Zm.19-16.46c-.14.4-.48-.26-.11-.16A.15.15,0,0,1,110.74,113.89Zm.39,10.14c0,.35-.46.38-.42,0S111.16,123.68,111.13,124Zm.28-.55a.22.22,0,1,1-.43,0C111,123.08,111.44,123.05,111.41,123.48Zm0,4.88a.22.22,0,1,1-.43,0C111,128,111.44,127.92,111.41,128.36Zm.91,7.56c-.38-2.26,1-3,2.32-4.19.9-.64.24-12.59.43-13.71.54-.1.4-.56.12-.86-.3-1.85.24-6.25-2.57-6l.31-.27-.59-.86v-3.16c1.27-.06,2-.15,1.72,1.44.48-.15.21-1.53.86-1.13a2.54,2.54,0,0,1,.27.86l.31-.59,1.72.28c-.14.77-.81,1.2-.59,2-2.37-1.33-2.66,2,1.17.86.41.69,1.07-.12,1.13-.58-.19,2.13,1.17,4.34.3,6.41-.22.83-.67,2.17.29,2.75l-.31.28v12.63c-1.44,2.45-3.49,5.92-6.87,4.56C112.34,136.52,112.34,136.29,112.32,135.92Zm2.75-24.06c-.26,0-.14.26,0,.27S115.34,111.83,115.07,111.86Zm.12-.43v-.31h-.27Zm.19,10.08c0,.11-.09.57.12.53S115.61,121.23,115.38,121.51Zm.55-9.38c0,.26.27.15.27,0S115.91,111.83,115.93,112.13Zm1.27-2.86c0-.07,0-.11,0-.14.41.12.31.54.27.86C117.14,109.88,117.17,109.57,117.2,109.27Zm.72,12.61c-.23,0-.12.27,0,.28S118.16,121.86,117.92,121.88Zm0-.58c0,.24.22.17.23,0S117.93,121,118,121.3Zm.47-2.15c0,.35.46.39.43,0A.22.22,0,1,0,118.43,119.15Zm0,1.76a.22.22,0,1,0,.43,0C118.89,120.47,118.4,120.51,118.43,120.91Zm.23,1.13H119a.63.63,0,0,0-.35-.59Zm1-9.75c0,.38-.45.35-.43,0S119.75,111.85,119.71,112.29Z"/><path class="cls-2" d="M126.15,115.64c.66,0,1.32-.28,1.13-1-2.06,2-.81-6.49-1.13-6.9h.27V109c.63-.07,1.27.39,1.25-.58h1c.06-.51.76-.68,1.13-.74v14c.67,1.33.5,5.61-1.71,4,.22,1-1.63.63-2,.32Zm.93,11.23a10.53,10.53,0,0,1,2.77.32c-.28,1.15.94,2.57.45,3.57-.24.27-.75,1.47-.13,1.57l-.32.28c-.14,1.07.56,4.26-.72,4.39-.53-.17-1-.37-1.54.21V137c-.79,0-.65.25-1.44.23V127.19C126.18,126.77,126.81,126.84,127.08,126.87Zm-.66-16.3c-.24,0-.27.63,0,.59S126.72,110.53,126.42,110.57Zm0,24.07c-.24,0-.27.62,0,.58S126.72,134.59,126.42,134.64Zm.31-22.94-.31.59a1.37,1.37,0,0,0,.31-.27Zm-.07-2.18c.07.41.38,1.47.93,1.33l.27-.28A1.29,1.29,0,0,0,126.66,109.52ZM127,112c-.26,0-.26.58,0,.54S127.27,112,127,112Zm.27,3.43c-.26,0-.26.58,0,.54S127.59,115.41,127.28,115.45Zm.58,3.7c0-.08,0-.11-.15-.11C127.35,119,127.81,119.55,127.86,119.15Zm.28-11.46c.3,0,.33.62,0,.58S127.89,107.64,128.14,107.69Zm0,4.87c-.25,0-.28.62,0,.59S128.44,112.52,128.14,112.56Zm.31,6.32v.86l.27-.28C128.86,119.25,128.6,119,128.45,118.88Zm.27,4.29c-.24,0-.27.62,0,.58S129,123.13,128.72,123.17Zm0,.86c-.08,0-.11,0-.11.15C128.61,124.54,129.12,124.09,128.72,124Zm0-2.58v1.45C128.8,122.63,129.3,121.45,128.72,121.45Zm0,3.44v.27H129Zm.28-16.35c-.25,0-.28.63,0,.59S129.29,108.5,129,108.54Zm0,9.21c-.27,0-.27.58,0,.54S129.31,117.71,129,117.75Zm0,2.85c-.25,0-.28.62,0,.58S129.29,120.55,129,120.6Zm.58-9.17c0-.08,0-.12-.16-.12C129.12,111.34,129.46,111.73,129.58,111.43Zm.86,4.56c.29,0,.33.63,0,.59S130.19,116,130.44,116Zm2.88,11.28c1.57-.51,2.63-.73,2.58,1.36h.39c-.48-2.26.39-1.64,2.07-1.72-.08-1.1-1.62-.21-2.19-.85l.27-.32v-2c-.31-.6-1.8-.17-1.71.55l.58-.27-.27.58h.55l-.28.28c.5.19.27.66.3,1.13.09.62-2,.19-2.29.31l.28-.27s-.28-.07-.28,0a1.46,1.46,0,0,0-.58.27c-.19-1.56-3.57-5-1.76-5.89-1.33-2.58.86-3.24,0-5.3l-.58.31a1.06,1.06,0,0,0,0-1.45v-5.49a1.58,1.58,0,0,1,.86.35l-.28.27c.22,1.23.7,3.43,1.72,4.29-1.23,1.69,1.32,4.12,3.16,3.94v.08l-2.58.31-.31-.31c0,1.09-.87,2.68.59,3.16.25.42-.66.47-.86.58,1.7.52-.59,2.68.7,3.16,1.18-.24-.06-2.82,1.6-2.61.49.82,1.51-1.09,2-1.41-.48-.45-1.33-1.82-.59-2.3V107.41h2.62c0-.24.24-.72.54-.7v.7h1.21c0,.6-.87,1.63,0,2-.45,0-.47,1.48,0,1.45a.84.84,0,0,0-.31.31c0,.45.45.62.31,1.13-.61,1.28-.27,3.18-.31,4.56-1.15,1.47-2.44,1.45-2.18,3.67.75.06.65-.43.82-.9,1-.73,1.36.9,1.24,1.68h1.29c-.85.28-2.3,1.59-1.44,2.45l.27-.58v1.44h-.16c0,.48.61.4.59.86h-.31c.07.46-.48,1.83.19,2l-.31.31v7.72c-.4,0-.38,1-.39,1.13h-3.63A41.44,41.44,0,0,1,133.32,127.27ZM131.88,120c-.24,0-.27.62,0,.59S132.13,120,131.88,120Zm.27-4.87c-.24,0-.27.62,0,.58S132.45,115.09,132.15,115.14Zm.32,8.3c-.3,0-.33.63,0,.59S132.71,123.4,132.47,123.44Zm0,3.16c.24,0,.27.62,0,.59S132.17,126.56,132.47,126.6Zm.85-11.46h.28v.31h-.28Zm1,3.47h.19c0,.63-.36,1.64-1.21,1.4C133.72,119.76,134.37,119.15,134.34,118.61Zm-.74,6.55c-.25,0-.28.62,0,.58S133.84,125.11,133.6,125.16Zm1.13-4.84c.14.41.15,1.3-.55,1.13A.88.88,0,0,1,134.73,120.32Zm1.71,1.72c-.33.12-.93.44-1,.86h1Zm-.54,7.14c-.21-.09-.21.39,0,.31S136.05,129.27,135.9,129.18Zm.27-9.44c.25,0,.28.62,0,.58S135.93,119.69,136.17,119.74Zm.59,17.47a.21.21,0,0,1-.32,0C136.31,137.06,136.85,137,136.76,137.21Zm.54-13.77a.84.84,0,0,0,.31.31h.28l.58-.58A1.15,1.15,0,0,1,137.3,123.44Zm1.17,13.77a1.27,1.27,0,0,1-.86,0C137.67,137,138.41,137,138.47,137.21Zm-.27-16a3.9,3.9,0,0,0,.86,1.13c.57-.27,0-.9-.31-1.13C138.75,121.08,138.3,121.08,138.2,121.18Zm.27-1.72c.14.1.17.22,0,.28S138.25,119.38,138.47,119.46Zm.28,7.45c-.27,0-.27.59,0,.55S139.06,126.88,138.75,126.91Zm.31-8.3v.27h-.31Zm.54,5.42c-.24,0-.27.62,0,.58S139.9,124,139.6,124Zm0-5.74a.67.67,0,0,1,.67-.35.77.77,0,0,1-.35.67Zm.86,1.17c.41.07-.13.54-.12.12Q140.34,119.43,140.46,119.46Zm.31,9.17c.26,0,.26.58,0,.55S140.46,128.59,140.77,128.63Zm.86-11.19c-.06.4-.6-.13-.15-.12C141.6,117.32,141.66,117.36,141.63,117.44Zm0,6.86c-.06.41-.6-.13-.15-.12C141.6,124.18,141.66,124.22,141.63,124.3Z"/><path class="cls-2" d="M147.56,107.47a2.38,2.38,0,0,1,2.34-.06c.72-.08,1.9-.79,2.46,0h2.26c.06-.25.23-.73.58-.7v.7h2c.49-.76,1.56-.08,2.15,0,.16,0,.84-.28,1-.27s.27,0,.31,0a15.74,15.74,0,0,1-.58,4H146.9v-3.59A2.85,2.85,0,0,0,147.56,107.47Zm1.4-.06c0,.35.47.39.43,0A.22.22,0,1,0,149,107.41Zm1.45,0c0,.35.46.39.43,0A.22.22,0,1,0,150.41,107.41Zm.58,0c0,.39.46.35.43,0A.22.22,0,1,0,151,107.41Zm.51,4.29a11.27,11.27,0,0,1,4,.28v9.2c.94.42-.77,2,.31,2.57l-.31.28v4.29c.17,0,1.09.21,1,.58h-1v8.31h-2.26c-.69-.94-2.21,1.21-2-1.13V112Zm.08-4.29c0,.37.41.37.39,0S151.55,107.05,151.58,107.41Zm.27,29.53a.22.22,0,1,0,.43,0C152.31,136.54,151.82,136.5,151.85,136.94Zm.58-10.3c0,.37.42.37.39,0S152.41,126.22,152.43,126.64Zm4.41-14.94c0,.39-.46.35-.43,0A.22.22,0,1,1,156.84,111.7Zm.27,5.74c0,.36-.41.36-.39,0S157.14,117.07,157.11,117.44Zm0,4c0,.37-.41.37-.39,0S157.14,121.09,157.11,121.45Zm0,2.89c0,.37-.41.37-.39,0S157.14,123.92,157.11,124.34Z"/><path class="cls-2" d="M167.25,127.46l.86-.86c-.25.11-.44-.07-.54-.27l.27-.27h-.7c.13-.87-.13-2.14.39-2.89h-.28c0-5.22-.36-10.52-.27-15.76a2.45,2.45,0,0,1,1.44-.27c-.94,0-.8,1-.78,1.72h.2l.58-1.17h.16c0,.68.58,1.58,1.25.85H171c.16-.22.28-.73.58-.85v3.74c-.24.2-.49.8,0,.86a51.47,51.47,0,0,0-.31,7.45c-.62.27-.76.28-.78.93,2.19.13.21,2.74,1.09,3.94-.32.2-.55-.34-.58-.58h-2.3a3.27,3.27,0,0,0,2.88,1.13c-.23.24-.49.79,0,.9v2c.32.09.34.58.35.82a4.67,4.67,0,0,0-1.52.63l.59.27c0,.27-.26,1.75.27,1.72v3.43c1.33.31-.12,1.45-.7,1.85-.43.3-2.48.14-3,.18a.63.63,0,0,1-.59.27Zm0-.86c.3,0,.33.63,0,.59S167,126.56,167.25,126.6Zm.32-10c-.3,0-.33.62,0,.58S167.81,116.53,167.57,116.58Zm0,2.3c-.3,0-.33.62,0,.58S167.81,118.84,167.57,118.88Zm.27,2.85c-.25,0-.28.62,0,.58S168.09,121.68,167.84,121.73ZM169,120c-.28,0-.45,0-.55.31a1.32,1.32,0,0,0,.86-.31Zm-.27-2.57c-.25,0-.28.62,0,.58S168.94,117.39,168.7,117.44Zm0-.86q-.12,0-.12.15C168.58,117.07,169,116.7,168.7,116.58Zm0,5.73c-.08,0-.12,0-.12.16C168.6,122.77,169,122.43,168.7,122.31Zm0,2.58q-.12,0-.12.15C168.58,125.37,169,125,168.7,124.89Zm.27-1.45c0-.08,0-.11-.12-.11C168.43,123.31,168.9,123.85,169,123.44Zm0,4.88c-.25,0-.28.62,0,.58S169.27,128.28,169,128.32Zm.31,2.3c-.07-.18-.49.18-.31.27S169.4,130.79,169.28,130.62Zm0-.86c-.3,0-.33.63,0,.59S169.53,129.72,169.28,129.76Zm.27-9.75c-.24,0-.27.62,0,.59S169.8,120,169.55,120Zm.28,2.3c.08-.17-.36-.14-.28,0S169.74,122.45,169.83,122.31Zm0-4.6c-.25,0-.28.62,0,.58S170.12,117.67,169.83,117.71Zm0,5.46c-.25,0-.28.62,0,.58S170.12,123.13,169.83,123.17Zm.31,7.45c.09-.17-.45-.15-.31,0S170.05,130.77,170.14,130.62Zm0-8c-.21-.08-.21.4,0,.32S170.3,122.67,170.14,122.58Zm.27-6c-.24,0-.27.62,0,.58S170.66,116.53,170.41,116.58Zm.28,3.43c.29,0,.33.63,0,.59S170.44,120,170.69,120Zm.31-1.72c-.3,0-.33.63,0,.59S171.24,118.25,171,118.29Zm0,4.29c-.3,0-.33.63,0,.59S171.24,122.54,171,122.58Zm.27,7.45c.3,0,.33.63,0,.59S171,130,171.27,130Zm.31.59v.27h-.31Zm.55-10c.3,0,.33.62,0,.58S171.88,120.55,172.13,120.6Zm0,9.75c.31,0,.31.58,0,.54S171.87,130.31,172.13,130.35Zm.31-12.91c-.07.39-.6-.12-.15-.12Q172.49,117.32,172.44,117.44Zm3.71,18.64c-.81-3.74-1.87-7.44-2.58-11.19h-1.13a1.88,1.88,0,0,0,.86-.59h-1.17c-.39-3.84.54-3.8,4-4.29-2-1.06,3.1-8.09-4-8.85v-3.47a8,8,0,0,0,2.88-.55v.43c5.66,0,2,3.29,3.71,2.92V110h.43a1.25,1.25,0,0,1-.7,1.17c2.42-.6,2,4.19,2.3,5.69l.54.59c-1.95.75-1,3.78-2.63,4.91s-1.75,2.21-.21,3.39c-.24.1-.43.28-.2.57,1.42,2,.59,5.12,2.22,7-.69,1.21.12,1.63,1.14,2.18-1.37-.27-.74,1.79-2,1.76a.67.67,0,0,0-.36-.63C179.1,137.68,175.09,137.51,176.15,136.08Zm-3.71-23.79c.25-.05.28.62,0,.58S172.14,112.25,172.44,112.29Zm0,9.44c-.3,0-.33.62,0,.58S172.69,121.68,172.44,121.73Zm2.85,5.73c-.25,0-.28.62,0,.58S175.53,127.42,175.29,127.46Zm.27.58c-.08,0-.12,0-.12.16C175.45,128.56,176,128.1,175.56,128Zm.31-5.73c-.3,0-.33.63,0,.59S176.12,122.27,175.87,122.31Zm0,5.15a1.42,1.42,0,0,0,.28.58.57.57,0,0,0,.58-.27C176.62,127.36,176.19,127.48,175.87,127.46Zm.28,2.89c-.27,0-.26.58,0,.54S176.41,130.31,176.15,130.35Zm.27-.86c-.26,0-.26.58,0,.54S176.73,129.45,176.42,129.49Zm.31-13.18q-.15,0-.15.15C176.6,116.76,177.05,116.45,176.73,116.31Zm1-5.19s-.13,0-.12,0a.31.31,0,0,0-.31.27h.31l.27-.27S177.81,111.12,177.71,111.12Zm-.12,8.62c-.3,0-.33.62,0,.58S177.84,119.69,177.59,119.74Zm.27,8c-.26,0-.26.59,0,.55S178.12,127.73,177.86,127.77Zm.27-6c-.24,0-.27.62,0,.58S178.43,121.68,178.13,121.73Zm1.45-6.87c-.79.07-.84,1.1-1.45,1.45C179,116.46,179.46,115.53,179.58,114.86ZM178.13,120v.31l.32-.31Zm.32.31c-.32,0-.32.59,0,.55S178.71,120.29,178.45,120.32Zm0,16.3c-.3,0-.33.63,0,.59S178.69,136.58,178.45,136.62Zm.27-17.47c-.25,0-.28.63,0,.59S179,119.11,178.72,119.15Zm.31-10.61c.25,0,.28.63,0,.59S178.73,108.5,179,108.54Zm.27,11.2c-.24,0-.27.62,0,.58S179.55,119.69,179.3,119.74Zm0,8.58c.25,0,.28.62,0,.58S179.06,128.27,179.3,128.32ZM181,131.2c.26,0,.26.59,0,.55S180.76,131.17,181,131.2Zm.59-17.78c0,.19-.56.22-.59,0S181.63,113.26,181.61,113.42Z"/><path class="cls-2" d="M189.52,108.54c.8-.85,2.22.07,3-.85.25-.68.06-1,1.13-.94v3.82c-3.82,3.74-1.42,10.5-1.95,15.35a5,5,0,0,0,.74,2.77c.25.49-.63.92-.78,1.34,1.56,3.88,2.31,2.05,2,7.18-3.47-1.06-6-3.29-6-7.18.62-1.9-1.57-20.39,1.52-20A2.33,2.33,0,0,1,189.52,108.54Zm.32,1c0,.16-.12.79.11.74S190.06,109,189.84,109.52Zm1.4,9.52c0,.19.27.13.27,0S191.21,118.79,191.24,119Zm.23,9.86c0,.37.42.37.39,0S191.44,128.54,191.47,128.9Zm1,1.45a.22.22,0,1,1-.43,0C192,130,192.48,129.91,192.45,130.35Zm.19-16.46c-.14.4-.48-.26-.11-.16A.16.16,0,0,1,192.64,113.89ZM193,124a.22.22,0,1,1-.43,0C192.57,123.64,193.06,123.68,193,124Zm.28-.55a.22.22,0,1,1-.43,0C192.85,123.08,193.34,123.05,193.31,123.48Zm0,4.88a.22.22,0,1,1-.43,0C192.85,128,193.34,127.92,193.31,128.36Zm.91,7.56c-.38-2.26.95-3,2.32-4.19.9-.64.24-12.59.43-13.71.54-.1.4-.56.12-.86-.3-1.85.24-6.25-2.58-6l.32-.27-.59-.86v-3.16c1.27-.06,1.95-.15,1.72,1.44.47-.15.21-1.53.86-1.13a2.54,2.54,0,0,1,.27.86l.31-.59,1.72.28c-.14.77-.81,1.2-.59,2-2.37-1.33-2.66,2,1.17.86.41.69,1.07-.12,1.13-.58-.19,2.13,1.17,4.34.3,6.41-.23.83-.67,2.17.29,2.75l-.31.28v12.63c-1.44,2.45-3.49,5.92-6.87,4.56C194.24,136.52,194.24,136.29,194.22,135.92ZM197,111.86c-.26,0-.14.26,0,.27S197.24,111.83,197,111.86Zm.12-.43v-.31h-.27Zm.19,10.08c0,.11-.09.57.12.53S197.5,121.24,197.28,121.51Zm.55-9.38c0,.26.26.15.27,0S197.81,111.83,197.83,112.13Zm1.27-2.86c0-.07,0-.11,0-.14.4.12.31.54.27.86C199,109.88,199.06,109.57,199.1,109.27Zm.72,12.61c-.23,0-.12.27,0,.28S200.06,121.86,199.82,121.88Zm0-.58c0,.24.22.17.23,0S199.83,121,199.86,121.3Zm.47-2.15a.22.22,0,1,0,.43,0A.22.22,0,1,0,200.33,119.15Zm0,1.76a.22.22,0,1,0,.43,0C200.79,120.47,200.3,120.51,200.33,120.91Zm.23,1.13h.35a.64.64,0,0,0-.35-.59Zm1.05-9.75c0,.38-.45.35-.43,0S201.65,111.85,201.61,112.29Z"/><path class="cls-2" d="M208.17,130.89c.29-.57-.8-7.46.85-6.59-1.08-.91-1.35-1-1.13-2.57.11-.25.49-.75,0-.86.15-.57.49-.15.86-.2v-1.48c-.26-.11-.63.13-.86.24.61-1.07,1.46-2.17.33-3.26-.44-2,1.16-.45,2-.45l-.58-.86h.7c.15-1.69-1.93-1.16-1.76-2.88h-.42a5.9,5.9,0,0,1,.89-2.58c-.68-.27.42-1.26-.27-1.71h1.52a.62.62,0,0,1-.39.58,1,1,0,0,0,1.17-.86,1.36,1.36,0,0,1,1.09,1.45h-.82v.54h.32c0,.51,0,1.48-.59,1.72.51-.76-.64-.82-1.09-.78-.05.5-.17.69.23,1.09a1.34,1.34,0,0,0-1.17.27c.24.57,1,1.63,1.72.86,0,0,.06.27,0,.27a2,2,0,0,1-.27.59,2.51,2.51,0,0,0,0,.27h.23l.58,1.17.59-.27c.1,2.09.12,5.68-1.17,7.45h.9c-1.09,1.46,1.66,2.9,0,4.29l.27.27c0,.74-.11,4.91.31,5.46h-4.41c0-.31.45-.74.67-.86Zm0,6.44c-.6-.08,0-.35.25-.2S208.32,137.34,208.17,137.33Zm.11-29.92c0,.18,0,1.12-.39,1.13v-1.13Zm-.39,10c.18.13.4.34.28.58A.6.6,0,0,1,207.89,117.44Zm.28,15.48a12.29,12.29,0,0,1,4.32-.31l.28.31c.13-.44,1-.46,1.13,0,1.41-.72,5-.39,6,1.13-.75.59-.53,1.95-.87,2.75-.06.83-4.13.24-4.59.41-.58-.76-.89.1-1.71,0-1.15,0-2.41-.82-3.43,0h.27c-.24-.71-1-.44-1.5-.62s-.12-3.64-.22-4Zm.27-23.56c-.14.17-.49,0-.22-.19S208.61,109.2,208.44,109.36Zm-.12,13.11c-.27,0-.14.28,0,.27S208.59,122.44,208.32,122.47Zm.27-7.88c-.07.61-.4,0-.23-.25S208.61,114.41,208.59,114.59Zm-.11,10.88.27-.31-.27-.27Zm.07,5.15c0,.36.42.37.39,0S208.53,130.25,208.55,130.62Zm.08-3.86c0,.24.23.1.24,0S208.61,126.5,208.63,126.76Zm.24-12.91c-.06,0-.09,0-.12-.16C208.79,113.35,209.26,113.78,208.87,113.85Zm.23-2.69a.22.22,0,1,0,.43,0C209.56,110.72,209.07,110.76,209.1,111.16Zm.39,7.13a2.26,2.26,0,0,0-.19.94c.73,0,1.36-1.8.39-1.87A2.18,2.18,0,0,1,209.49,118.29Zm0,4.76c-.1,0-.14,0-.11.12C209.42,123.5,209.84,123,209.45,123.05Zm-.11-3,.27-.27h-.27Zm.27,2,.58-.31h-.58Zm.08-5.46c0,.38.45.35.42,0S209.65,116.2,209.69,116.58Zm.25,8.34c-.28.22.07.36.21.2S210.15,124.7,209.94,124.92Zm.17-15.48a.38.38,0,0,0-.23.27,1.21,1.21,0,0,0,.86-.31A2.6,2.6,0,0,0,210.11,109.44Zm.28,2.58a.22.22,0,1,1-.43,0C209.93,111.61,210.42,111.58,210.39,112Zm-.43,7.44c0,.35.46.39.43,0S209.93,119.06,210,119.46Zm.31.86c0,.37.42.37.39,0S210.24,119.9,210.27,120.32Zm.08-4.17c0,.27.28.14.27,0S210.32,115.88,210.35,116.15Zm0,14.9c0,.27.28.14.27,0S210.32,130.78,210.35,131.05Zm.19-15.6a.22.22,0,1,0,.43,0C211,115.05,210.51,115,210.54,115.45Zm0,14.9a.22.22,0,1,0,.43,0C211,130,210.51,129.91,210.54,130.35Zm.35-21.92c0,.19.28.13.28,0S210.87,108.18,210.89,108.43Zm.16,23h.27v-.28h-.27Zm.51-18.61c0,.35-.46.39-.43,0S211.59,112.47,211.56,112.87Zm-.43,6.28c0,.39.46.35.43,0A.22.22,0,1,0,211.13,119.15Zm.1-3.33c0,.17-.12.73.09.76S211.46,115.39,211.23,115.82Zm.6-2.69.08,0a1.93,1.93,0,0,0-.59.85C211.31,113.66,211.29,113,211.83,113.13Zm.27-.57c0,.37-.41.37-.39,0S212.13,112.2,212.1,112.56Zm0,7.76c0,.37-.41.37-.39,0S212.13,119.9,212.1,120.32Zm-.07-9.59c-.1,1-.52-.35-.12-.47A.66.66,0,0,1,212,110.73Zm.39,3.27c0,.35-.47.39-.43,0S212.44,113.6,212.42,114Zm.07,16.62h-.31v-.27Zm.12-21.92a.21.21,0,0,1-.12.16C212.11,108.88,212.51,108.24,212.61,108.7Zm0,18.06s0,.09-.12.11C212.11,127,212.51,126.28,212.61,126.76Zm.51,10.18a.22.22,0,1,0,.43,0C213.58,136.5,213.09,136.54,213.12,136.94Zm2.22-3.86c-.48,0-.25.27,0,.27S215.82,133,215.34,133.08Zm-.19,3.86c0,.36.41.36.39,0S215.12,136.52,215.15,136.94Zm1.4,0a.22.22,0,1,0,.43,0C217,136.5,216.52,136.54,216.55,136.94Zm1.17,0a.22.22,0,1,0,.43,0C218.18,136.54,217.69,136.5,217.72,136.94Zm2.34-1.56c-.14.4-.48-.26-.12-.16A.16.16,0,0,1,220.06,135.38Zm.74-3h-.58a.57.57,0,0,1,.58-.35Z"/><path class="cls-2" d="M61.37,148.8c.14.32.26.62.37.9-1,.83-2.27.82-3.53,1-1.42.92-3.46,2.68-4.93,1.45.68-1.28,2.1-1.22,3.16-2.08,3.92-3.07,4.75-7.36-.59-9.41C55,143.49,54.54,147,54,149.87c-.42,1.11-1.48,2-1.1.28-.18-1.87.56-3.94.4-5.77.39-1.33.09-2.91,1.28-3.87,1.53-.46-2.66-.57-1.81-1.79-.7-1.13,1.62-.74,2.15-.36,6.63.93,8.39,7.13,3.18,11.6C59.07,149.49,60.51,149.56,61.37,148.8Z"/><path class="cls-2" d="M62.17,148.81a2.93,2.93,0,0,1,.77-.85c-.23-1.77,3.13-6.48,3.88-3-.16,1.38-1.54,2.31-2.29,3.58.11,1.28,1.89.77,2.56.24.14.31.28.61.38.9a3.18,3.18,0,0,1-1.85,1.1c-2.22,1.18-2.18-2.21-3.06-1.1A6.63,6.63,0,0,0,62.17,148.81Zm3.12-3.18c-.25,0-1.27,1.41-.81,1.5C64.78,146.85,65.76,146,65.29,145.63Z"/><path class="cls-2" d="M67.94,148.81c1.21-.62,3.57-14.45,5-8.88-.07,3.54-2.75,7-3,10.76-.46,2.52-.45,7.11,1.06,1.87.61-1.34.62-2.7,1.6-3.75.16.32.26.61.39.9-2.27,8.93-5.62,11.68-4.48.22l-.25-.22A7.22,7.22,0,0,0,67.94,148.81Zm3.85-6.57a5.77,5.77,0,0,0-.55,1.61l.07.07.14-.14C71.42,143.33,72.22,142.58,71.79,142.24Z"/><path class="cls-2" d="M73.52,148.81c5.45-6.84,1.66,3.51,5.59,0l.39.9c-4.56,4.4-3.24-2.92-5.59,0A6.44,6.44,0,0,0,73.52,148.81Zm4.08-7.71c1,.15.06,2.1-.52,2.4-1.66,1.17-1.94-1.36-.49-1.77C76.82,141.41,77.12,141,77.6,141.1Z"/><path class="cls-2" d="M80,148.81c2.75-3.36,6.25-6.69,3.91.5,5.16-6.13,3.26.14,5.44-.5l.39.9c-1.64,1.88-2.38.41-3.41-1.1l-.09,0c-1.76.65-2.31,2.88-4.09,3.36-1.37-.65.65-2.89.42-4.11-.84.09-1.57,1.29-2.18,1.88A5.57,5.57,0,0,0,80,148.81Z"/><path class="cls-2" d="M90.16,148.81a2.93,2.93,0,0,1,.77-.85c-.23-1.77,3.13-6.48,3.89-3-.17,1.38-1.55,2.31-2.3,3.58.11,1.28,1.89.77,2.56.24.14.31.28.61.38.9a3.18,3.18,0,0,1-1.85,1.1c-2.22,1.18-2.18-2.21-3.06-1.1A6.63,6.63,0,0,0,90.16,148.81Zm3.12-3.18c-.25,0-1.27,1.41-.81,1.5C92.77,146.85,93.75,146,93.28,145.63Z"/><path class="cls-2" d="M101.79,148.81c.77-1.18,3.79-3.89,3.14-4.95a4.43,4.43,0,0,1-2.46-.24c-.15-.52,0-1.38.47-1.44,1,.12,1.89-.05,2.79.08.48.06,1-2,1.55-1.87.9.05.28,1.23.21,1.72.47.6.46,2-.63,1.91-.17,1.42-3,8.16.36,4.79l.38.9c-4.17,4.51-4.08,1.67-3.09-2.46-.67.87-1.66,1.55-2.33,2.46A5.1,5.1,0,0,0,101.79,148.81Z"/><path class="cls-2" d="M108.06,148.81a.21.21,0,0,0,.09-.17c.91-.49,3.12-5.12,3.83-3.15-.36,1.31-1.27,3.23-.62,4.45,1.32-.28,3.45-5.77,3.86-2.06,0,.67.22,1.28,1,.93l.4.9c-1.36,1-2.54.86-3-.77-5.65,7.07-2.81-3.08-5.1.77A6.63,6.63,0,0,0,108.06,148.81Z"/><path class="cls-2" d="M122.9,148.81l.09-.08c.61-.72,5.76-5.42,5.6-2.87-.28,1.43-6.18,3.32-2.76,4.89a6.86,6.86,0,0,0,3.25-1.94,8.1,8.1,0,0,1,.39.9C126.68,152.09,123.45,153.78,122.9,148.81Z"/><path class="cls-2" d="M129.93,148.81a.18.18,0,0,0,.08-.17c.92-.49,3.12-5.12,3.83-3.15-.35,1.31-1.26,3.23-.61,4.45,1.45-.44,3.56-6,3.9-1.76a.59.59,0,0,0,.92.63l.39.9c-1.35,1-2.53.86-3-.77-5.65,7.07-2.81-3.08-5.1.77A6.63,6.63,0,0,0,129.93,148.81Z"/><path class="cls-2" d="M138.91,148.81a2.93,2.93,0,0,1,.77-.85c-.23-1.77,3.14-6.48,3.89-3-.17,1.38-1.54,2.31-2.3,3.58.11,1.28,1.9.77,2.56.24.14.31.28.61.38.9a3.18,3.18,0,0,1-1.84,1.1c-2.23,1.18-2.18-2.21-3.07-1.1A5.57,5.57,0,0,0,138.91,148.81Zm3.13-3.18c-.26,0-1.28,1.41-.81,1.5C141.52,146.85,142.51,146,142,145.63Z"/><path class="cls-2" d="M144.68,148.81c.68-.91,1.76-1.58,2.14-2.57l-.1-.47c1.31-2,3.6-.05,3.39,1.87-.46,1.93-1.32,3.3,1.1,1.17.11.29.27.58.39.9-1,.66-2.35,2.25-3.67,1.9-.67-1.19,1.89-3.83,0-4.68-.72.34-1.23,1.34-1.87,1.75a2.72,2.72,0,0,1-.8.73.93.93,0,0,1-.19.3A6,6,0,0,0,144.68,148.81Z"/><path class="cls-2" d="M152.06,148.81c1.85-1.67,2.53-4.53,4.08-6.28.74.36.3.88,0,1.95a43.28,43.28,0,0,0-2.31,9c1.06-2.47,1.93-10.79,5-4.65l.41.9c-.23.06-.5.13-.86.19-.68-.06-1.31-.86-1.81-1.2-1.39,1.81-1.71,4.47-2.56,6.64-2.67,4.49-.85-5.19-.7-6.54a3.4,3.4,0,0,0-.91.91A6.63,6.63,0,0,0,152.06,148.81Z"/><path class="cls-2" d="M159.74,148.81c.39-.31,5.47-5.77,4.62-3.21l.06.09c2.21-1.31,3.11,1.62,1.83,3.08.07.36.37.23.57,0,.14.29.26.6.38.9-.53.48-1.59,1.51-2.11.52-.93,1.37-3.87,2.14-4.05-.15.4-1.51.07-1.54-.91-.37A4.8,4.8,0,0,0,159.74,148.81Zm4.7-1.79c-3.76,3-.42,5.08,1,.81C165.32,147.19,165.08,147.05,164.44,147Z"/></g></g></svg>