<svg xmlns="http://www.w3.org/2000/svg" viewBox="0 0 220.8 31.08"><defs><style>.cls-1{fill:#1d1d1b;}</style></defs><g id="Capa_2" data-name="Capa 2"><g id="Capa_7" data-name="Capa 7"><path class="cls-1" d="M2.05,2.3c.8-.86,2.22.07,3-.86.25-.67.06-1,1.13-.93V4.33C2.37,8.06,4.77,14.82,4.24,19.68A5,5,0,0,0,5,22.44c.25.5-.63.93-.78,1.35,1.56,3.88,2.31,2.05,2,7.18-3.47-1.06-6-3.3-6-7.18.62-1.91-1.57-20.4,1.52-20A2.3,2.3,0,0,1,2.05,2.3Zm.31,1c0,.15-.11.78.12.74S2.59,2.8,2.36,3.28Zm1.41,9.51c0,.2.27.13.27,0S3.74,12.55,3.77,12.79ZM4,22.66c0,.36.42.36.39,0S4,22.29,4,22.66ZM5,24.1c0,.39-.46.35-.43,0S5,23.67,5,24.1ZM5.17,7.64c-.14.41-.48-.25-.11-.15A.15.15,0,0,1,5.17,7.64Zm.39,10.14c0,.35-.46.39-.43,0A.22.22,0,1,1,5.56,17.78Zm.28-.54a.22.22,0,1,1-.43,0C5.38,16.84,5.87,16.8,5.84,17.24Zm0,4.87c0,.39-.46.35-.43,0S5.87,21.68,5.84,22.11Zm.91,7.57c-.38-2.26,1-3,2.32-4.19.9-.65.24-12.6.43-13.71.54-.1.4-.56.12-.86-.3-1.86.24-6.25-2.58-6l.32-.28-.59-.86V.58C8,.53,8.72.44,8.49,2,9,1.88,8.7.49,9.35.9a2.49,2.49,0,0,1,.27.85l.31-.58,1.72.27c-.14.78-.81,1.2-.59,2-2.37-1.33-2.66,2,1.17.86.41.69,1.07-.13,1.13-.59-.19,2.14,1.17,4.35.29,6.42-.22.83-.66,2.16.3,2.75l-.31.27V25.82c-1.44,2.45-3.49,5.92-6.87,4.56C6.77,30.28,6.76,30,6.75,29.68ZM9.5,5.62c-.26,0-.15.26,0,.27S9.77,5.59,9.5,5.62Zm.12-.43V4.88H9.35Zm.19,10.08c0,.11-.1.57.12.52S10,15,9.81,15.27Zm.55-9.38c0,.26.26.15.27,0S10.34,5.58,10.36,5.89ZM11.63,3c0-.06,0-.11,0-.13.4.11.31.54.27.85C11.57,3.63,11.59,3.33,11.63,3Zm.72,12.62c-.23,0-.12.26,0,.27S12.59,15.61,12.35,15.64Zm0-.59c0,.25.22.17.23,0S12.36,14.8,12.39,15.05Zm.47-2.14c0,.35.46.38.42,0S12.83,12.56,12.86,12.91Zm0,1.75c0,.35.46.39.42,0S12.83,14.26,12.86,14.66Zm.23,1.13h.35a.64.64,0,0,0-.35-.58ZM14.14,6c0,.39-.46.35-.43,0S14.18,5.61,14.14,6Z"/><path class="cls-1" d="M20.38,1.31A3.26,3.26,0,0,0,22.33.9v.43h1.76c.06.5-.42,1.1-.35,1.59a1.37,1.37,0,0,1,.85-.31,15,15,0,0,0-.27,1.72l.59.58v4c.31.2.71.77.54,1.13a3.1,3.1,0,0,0,0,2.3c.33-.86,1.68,0,2-.86C28.23,8,28.54,4.73,29.2,1.17,31,1.23,33,.58,33.56,2.92H33c.19,1.65.12,3.55,1.64,4.41h-.86c1.14,1.45-.28,4.27,2,4.72-.43.12-1.25.25-1.17.86,0,.08.53.25.58.31a11.38,11.38,0,0,1-.27,1.72c.75.23-.26,1.62.86,1.44.47-.12.21-2,.27-2.3,1-.21-.38-1.79.59-2L38.09,1.17c.91.32,1.26-.35,2.14-.31s1.29.73,1.84-.24c0,.41-.2,1.52.31,1.72v.27a.84.84,0,0,1-.31.31,4.71,4.71,0,0,1-1.13,4.29,1,1,0,0,0,.13.28c.5.54-.32,1.07-.45,1.56.12.44.19,1.31.59,1.6.16.27-.41.92-.55,1.13l.28.27c-1.38,1.18-.71,3.8-1.14,5.46h.35c-1.16,2.74-.71,5.65-1.79,8.43.65,1.65-.2,2.93-.86,4.44-.25-.1-.78,0-.85.31l.27.28c-3.2.17-2.8.07-3.38-3.09-.71-1.72-.6-9.58-2.35-8.81.1-.3.68-.93.58-1.29,0,0-.57-.52-.58-.54v-.31s.27-.53.31-.55v-.31a5.12,5.12,0,0,0-.59-.55c-2,1.92-.8,5.23-1.87,7.57-.16.42-.15.52.16.7a23.08,23.08,0,0,1-1.45,6c-.15-.64.32-.9.32-1.44-1.67-3.35-1.42-7.8-1.45-11.46-2.56-.5,1.27,10.9.63,13.29-.35,0-1.54,0-1.49.59h1.45L24.05,31C23.53,21,20.89,11.21,20,1.29A4.2,4.2,0,0,1,20.38,1.31ZM22.61,2V1.75h-.28Zm-.2,10.61c0,.36.42.36.39,0S22.38,12.27,22.41,12.64Zm.31-11.59c-.38-.14.21-.46.16-.15C22.85,1,22.8,1.05,22.72,1.05Zm.82,23.64a.22.22,0,1,0,.43,0C24,24.29,23.51,24.25,23.54,24.69Zm.27-15.76c0,.35.47.38.43,0S23.79,8.53,23.81,8.93Zm.59,21.76c0,.39.46.35.43,0S24.36,30.26,24.4,30.69Zm1-17.86c-.31-.17-.75.16-.21.24C25.3,13.08,25.58,12.92,25.39,12.83Zm-.41,15c0,.36.42.36.39,0S25,27.43,25,27.85Zm0,2.84c0,.37.42.37.39,0S25,30.27,25,30.69Zm.74-22.5c-.6-.08,0-.41.26-.23S25.9,8.21,25.72,8.19ZM25.53,24.1a.22.22,0,1,0,.43,0C26,23.67,25.5,23.7,25.53,24.1Zm.23-8.31c1.47,1.11,1.59-2.57,1.56-3.43H26.15c0,.18,0,1.12-.39,1.13Zm.71,12.76c-.26,0-.09.27,0,.27S26.74,28.52,26.47,28.55Zm.35-14.47c0,.37-.42.37-.39,0S26.84,13.66,26.82,14.08Zm1-1.13a.22.22,0,1,0,.43,0C28.29,12.51,27.8,12.55,27.83,13Zm2.5-4v-.7a.55.55,0,0,0-.55.35A.52.52,0,0,0,30.33,9ZM30.25,20.4c0,.36-.42.36-.39,0S30.28,20,30.25,20.4Zm-.08-7.61c-.22,0-.09.28,0,.28S30.44,12.76,30.17,12.79Zm0,2.15a.22.22,0,1,0,.43,0C30.59,14.59,30.1,14.55,30.13,14.94Zm.35-9c0,.19.28.13.28,0S30.46,5.68,30.48,5.93Zm.28,8c-.2,0-.13.28,0,.28S31,13.9,30.76,13.92Zm.15-9.59s-.29.22-.27.31h.27s.29-.22.28-.31ZM31,13a.22.22,0,1,0,.43,0C31.45,12.55,31,12.51,31,13Zm.58,5.73c0,.37.42.37.4,0S31.55,18.26,31.57,18.68ZM33.29,13c0,.36.42.36.39,0S33.26,12.53,33.29,13Zm0,12c0,.37.42.37.39,0S33.26,24.54,33.29,25Zm.47-.86v-.31h-.27Zm-.2,1.72a.22.22,0,1,0,.43,0C34,25.47,33.53,25.43,33.56,25.82Zm.36,2.42c0,.22.26.18.27,0S33.89,28,33.92,28.24Zm.23-1.84c0,.37.42.37.39,0S34.12,26,34.15,26.4Zm0,2.3c0,.37.42.37.39,0S34.12,28.29,34.15,28.7Zm.31-23.63c-.13.37-.4-.17-.12-.16A.16.16,0,0,1,34.46,5.07Zm1.17,12c-.26,0-.15.28,0,.28S35.87,17.06,35.63,17.08Zm0,1.17c0,.2.28.13.27,0S35.61,18,35.63,18.25ZM37,13a.22.22,0,1,0,.43,0C37.46,12.51,37,12.55,37,13Zm.31-3.75c0,.37.42.37.39,0S37.28,8.84,37.31,9.2Zm.27,15.18c0,.38.46.34.43,0A.22.22,0,1,0,37.58,24.38Zm.51,3.43h.27v-.55h-.27Zm.43-11.31c0,.26.26.14.27,0S38.49,16.23,38.52,16.5Zm.11-7.3H39l-.32-.27Zm.78,16.07c0,.37-.41.37-.39,0S39.44,24.85,39.41,25.27ZM39.3,12.36c0,.39.46.35.43,0S39.26,11.93,39.3,12.36Zm.62-11.31c-.25,0-.08.27,0,.28S40.19,1,39.92,1.05Zm.16,7.88V8.62H39.8Zm1.21-4.29a.22.22,0,1,0,.43,0C41.75,4.21,41.26,4.24,41.29,4.64Z"/><path class="cls-1" d="M49.2,9.4c.67,0,1.32-.28,1.13-1.05-2.06,2-.81-6.49-1.13-6.91h.28V2.77c.62-.08,1.26.39,1.24-.59h1.06c0-.5.76-.67,1.13-.74v14c.67,1.33.49,5.62-1.72,4,.22,1-1.63.62-2,.31Zm.94,11.23a11,11,0,0,1,2.77.31c-.29,1.16.93,2.58.45,3.57-.25.28-.76,1.48-.14,1.58l-.31.27c-.14,1.08.56,4.26-.72,4.39-.54-.17-1-.36-1.54.22v-.2c-.8,0-.65.26-1.45.23V20.94C49.23,20.53,49.87,20.6,50.14,20.63Zm-.66-16.3c-.25,0-.28.62,0,.58S49.77,4.29,49.48,4.33Zm0,24.06c-.25,0-.28.63,0,.59S49.77,28.35,49.48,28.39Zm.31-22.93L49.48,6a1.58,1.58,0,0,0,.31-.27Zm-.08-2.18c.08.41.39,1.47.94,1.32l.27-.27A1.3,1.3,0,0,0,49.71,3.28Zm.35,2.49c-.26,0-.26.59,0,.55S50.32,5.73,50.06,5.77Zm.27,3.43c-.26,0-.26.59,0,.55S50.65,9.17,50.33,9.2Zm.59,3.71c0-.08,0-.12-.16-.12C50.41,12.8,50.86,13.31,50.92,12.91Zm.27-11.47c.3,0,.33.63,0,.59S51,1.4,51.19,1.44Zm0,4.88c-.24-.05-.27.62,0,.58S51.49,6.28,51.19,6.32Zm.31,6.32v.85l.28-.27C51.91,13,51.66,12.77,51.5,12.64Zm.28,4.29c-.25-.05-.28.62,0,.58S52,16.88,51.78,16.93Zm0,.85c-.08,0-.12,0-.12.16C51.67,18.3,52.17,17.84,51.78,17.78Zm0-2.57v1.44C51.86,16.39,52.36,15.21,51.78,15.21Zm0,3.43v.28h.27ZM52.05,2.3c-.25,0-.28.62,0,.59S52.35,2.26,52.05,2.3Zm0,9.2c-.26,0-.26.59,0,.55S52.36,11.47,52.05,11.5Zm0,2.85c-.25,0-.28.63,0,.59S52.35,14.31,52.05,14.35Zm.58-9.16q0-.12-.15-.12C52.17,5.09,52.51,5.49,52.63,5.19Zm.86,4.56c.3,0,.33.62,0,.58S53.25,9.71,53.49,9.75ZM56.38,21c1.47-.53,2.7-.61,2.57,1.37h.39c-.47-2.27.39-1.65,2.07-1.72-.07-1.11-1.61-.21-2.18-.86l.27-.31v-2c-.32-.61-1.81-.17-1.72.55l.59-.28-.28.59h.55l-.27.27c.5.2.26.67.29,1.13.09.62-2,.2-2.28.31l.27-.27s-.27-.06-.27,0a1.66,1.66,0,0,0-.59.27c-.19-1.56-3.56-5-1.75-5.88-1.34-2.59.85-3.24,0-5.31l-.59.31a1,1,0,0,0,0-1.44V2.26a1.52,1.52,0,0,1,.86.35l-.27.28c.22,1.22.7,3.43,1.71,4.29C54.57,8.86,57.11,11.3,59,11.12v.07l-2.57.31-.31-.31c0,1.1-.88,2.69.58,3.16.25.43-.65.47-.86.59,1.71.52-.59,2.68.71,3.16,1.17-.25-.07-2.83,1.59-2.62.49.83,1.51-1.08,2-1.4-.47-.45-1.33-1.82-.58-2.3V1.17h2.61c0-.24.24-.73.55-.7v.7h1.21c0,.6-.87,1.62,0,2-.46,0-.47,1.48,0,1.44a.84.84,0,0,0-.31.31c0,.45.45.62.31,1.13-.62,1.28-.27,3.18-.31,4.57-1.16,1.47-2.45,1.45-2.19,3.66.75.07.65-.42.82-.89,1-.73,1.37.9,1.25,1.67h1.29c-.86.29-2.3,1.59-1.45,2.46l.28-.58v1.44h-.16c0,.48.6.4.59.86h-.32c.07.46-.48,1.83.2,2l-.31.31v7.72c-.4,0-.39.95-.39,1.13H59.5A40.87,40.87,0,0,1,56.38,21Zm-1.44-7.25c-.25,0-.28.62,0,.58S55.18,13.72,54.94,13.77Zm.27-4.88c-.25,0-.28.63,0,.59S55.51,8.85,55.21,8.89Zm.31,8.31c-.3,0-.33.62,0,.58S55.77,17.16,55.52,17.2Zm0,3.16c.25-.05.28.62,0,.58S55.22,20.32,55.52,20.36Zm.86-11.47h.27V9.2h-.27Zm1,3.47h.2c0,.64-.36,1.64-1.21,1.41C56.78,13.51,57.43,12.91,57.39,12.36Zm-.74,6.56c-.24-.05-.27.62,0,.58S56.9,18.87,56.65,18.92Zm1.13-4.84c.15.4.16,1.3-.54,1.13A.88.88,0,0,1,57.78,14.08Zm1.72,1.71c-.34.13-.94.44-1,.86h1ZM59,22.93c-.21-.08-.21.4,0,.31S59.11,23,59,22.93Zm.28-9.44c.24,0,.27.63,0,.59S59,13.45,59.23,13.49ZM59.81,31a.2.2,0,0,1-.31,0C59.36,30.81,59.9,30.8,59.81,31Zm.55-13.77a.92.92,0,0,0,.31.31h.27l.59-.58A1.15,1.15,0,0,1,60.36,17.2ZM61.53,31a1.27,1.27,0,0,1-.86,0C60.73,30.8,61.46,30.8,61.53,31Zm-.28-16a4.23,4.23,0,0,0,.86,1.13c.58-.28,0-.9-.31-1.13C61.8,14.83,61.35,14.84,61.25,14.94Zm.28-1.72c.14.09.17.22,0,.27S61.3,13.14,61.53,13.22Zm.27,7.45c-.26,0-.26.58,0,.55S62.11,20.63,61.8,20.67Zm.31-8.31v.28H61.8Zm.55,5.42c-.25,0-.28.63,0,.59S63,17.74,62.66,17.78Zm0-5.73a.64.64,0,0,1,.66-.35.74.74,0,0,1-.35.66Zm.86,1.17c.4.07-.14.54-.12.12C63.4,13.23,63.44,13.2,63.52,13.22Zm.31,9.17c.26,0,.26.58,0,.54S63.51,22.35,63.83,22.39Zm.86-11.2c-.07.41-.6-.12-.16-.11C64.66,11.08,64.71,11.12,64.69,11.19Zm0,6.87c-.07.41-.6-.13-.16-.12C64.66,17.94,64.71,18,64.69,18.06Z"/><path class="cls-1" d="M88,26.36c-3.84,2.06-1.49-10.25-2.23-12.53C85.46,8.67,85,.89,92,.78V4.61c-.89.78-1.93,1.38-2,2.77-.19.88-.52,1.81.31,2.38.21.41-.33.43-.27.86.74,1-.24,2.19-.24,3.32.3.35.45-.26.51-.47a.91.91,0,0,1-.55,1.17c1.59,1.69-1.13,4.2.55,6-1.7,4,2.51,6.19,1.72,10-.22.57-1,.2-1.41,0-1.49,1-3.55-1.94-3.51-3.35h1.21Zm-1.25.9c0,.37-.42.37-.39,0S86.75,26.84,86.72,27.26Zm.94.86.58-.31h-.58Zm1-1.6c-.26,0-.15.27,0,.27S88.91,26.5,88.67,26.52Zm.78-3.28c0,.35.46.39.43,0S89.42,22.84,89.45,23.24Zm.66,4.18c-.24,0-.16.22,0,.23S90.37,27.39,90.11,27.42Zm.35-18.76c0,.35-.46.38-.42,0S90.49,8.26,90.46,8.66Zm.28,3.43a.22.22,0,1,1-.43,0C90.28,11.69,90.77,11.65,90.74,12.09Zm.15,14.59a.22.22,0,1,0,.43,0C91.35,26.33,90.86,26.29,90.89,26.68Zm.28-24.61a.22.22,0,1,0,.43,0C91.63,1.63,91.14,1.67,91.17,2.07Zm4,7.08C94.36,1.72,92,8.27,92.53.78c1.65,0,3.16,1,4.8,1,.06,1.1,1,2.57,2.14,2.66a.25.25,0,0,1-.07.19c-.85.58.6.83-.28,1.41-.09.53.73.67,0,1.17v3.31a5.58,5.58,0,0,0-2.3.43c-.62,0-.68-.64-1.4-.31A10.1,10.1,0,0,1,95.18,9.15ZM93.84,27.4c.12.35.53-.17.72-.14a.53.53,0,0,1,.27-.08v.35c-.09.14-1.58.59-1.13.86s.78.2,1.13,0c.49.08.46,1.32,0,1.44.67.08,1-.45,1.72-.31a4.5,4.5,0,0,1-1.44,1.17l.31.28c-.33,0-.66,0-.86-.28-.46.25-1.71.55-2,0V27.53C92.68,27.41,93.69,27.08,93.84,27.4Zm.8-25.33c0,.36.41.36.39,0S94.61,1.65,94.64,2.07ZM95.11,0V.31h-.28V0Zm.23,24.1c0,.35-.46.39-.43,0S95.37,23.7,95.34,24.1Zm2.09,2.58a6.88,6.88,0,0,1-1.74-.86c.11-.52.6-.08.86,0,.6.06,1.18.12,1.44-.59a1.21,1.21,0,0,0-.86.31v-.31h-.46A1.22,1.22,0,0,0,96,24.1l.86-.58H96c.13-.21.79-.55.51-.82-.27-.1-1.08.19-1.36.23V20.67h1.71c-.95.58.76,1.66,1.37,1.56.12.77-.65.65-.67,1.29h1.72c-.07.71.21,1.34-.66,1.36-.19.77.66,1.73,0,2.38L98.26,27c.1.61-.41.68-.85.58l.58-.85A1.06,1.06,0,0,1,97.43,26.68Zm-1.82-1.74.08,0-.27.27a.42.42,0,0,1-.31,0C95.22,25.13,95.43,24.85,95.61,24.94Zm-.06,2.75a.36.36,0,0,1-.44.12l.58-.28Zm.14-5.3V21.8l-.27.27Zm.51-11.16c0,.35-.46.39-.43,0S96.23,10.83,96.2,11.23Zm-.43,9.71c0,.39.46.35.43,0A.22.22,0,1,0,95.77,20.94Zm.35,7.88c0,.14-.3.27-.27,0S96.13,28.68,96.12,28.82ZM96,7.8a.22.22,0,1,0,.43,0C96.5,7.36,96,7.4,96,7.8Zm.31,16.3c0,.37.42.37.39,0S96.32,23.68,96.35,24.1Zm.71,3.43c0,.35-.47.39-.43,0S97.08,27.19,97.06,27.53ZM96.9,24.1c0,.35.46.39.43,0S96.87,23.7,96.9,24.1ZM97.13,29s0-.32,0-.31.21-.25.28-.28Zm.08-4.29c0,.36.42.36.39,0S97.18,24.27,97.21,24.69ZM98,20.47a2,2,0,0,1,.76-.15.76.76,0,0,1-1.32.62A1.25,1.25,0,0,1,98,20.47Zm-.21,5.66a.22.22,0,1,0,.43,0C98.22,25.69,97.73,25.73,97.76,26.13ZM98,8.62h.27V8.35Zm.08,16.07c0,.36.42.36.39,0S98,24.27,98.07,24.69Zm.78-2-.31.27v-.27Zm.27-.86h-.27v-.27Zm.2-.86c0,.37-.42.37-.39,0S99.34,20.58,99.32,20.94Zm.58-.54a.22.22,0,1,1-.43,0C99.45,20,99.94,20,99.9,20.4Zm0,.54c0,.39-.46.35-.43,0A.22.22,0,1,1,99.9,20.94Z"/><path class="cls-1" d="M107.62,2.3c.8-.86,2.22.07,3-.86.25-.67.06-1,1.13-.93V4.33c-3.81,3.73-1.42,10.49-2,15.35a5,5,0,0,0,.74,2.76c.25.5-.63.93-.78,1.35,1.56,3.88,2.31,2.05,2,7.18-3.47-1.06-6-3.3-6-7.18.62-1.91-1.56-20.4,1.52-20A2.3,2.3,0,0,1,107.62,2.3Zm.32,1c0,.15-.12.78.11.74S108.16,2.8,107.94,3.28Zm1.4,9.51c0,.2.28.13.27,0S109.31,12.55,109.34,12.79Zm.23,9.87c0,.36.42.36.39,0S109.55,22.29,109.57,22.66Zm1,1.44c0,.39-.46.35-.43,0S110.58,23.67,110.55,24.1Zm.19-16.46c-.14.41-.48-.25-.11-.15A.14.14,0,0,1,110.74,7.64Zm.39,10.14c0,.35-.46.39-.42,0S111.16,17.44,111.13,17.78Zm.28-.54a.22.22,0,1,1-.43,0C111,16.84,111.44,16.8,111.41,17.24Zm0,4.87c0,.39-.46.35-.43,0S111.44,21.68,111.41,22.11Zm.91,7.57c-.38-2.26,1-3,2.32-4.19.9-.65.24-12.6.43-13.71.54-.1.4-.56.12-.86-.3-1.86.24-6.25-2.57-6l.31-.28-.59-.86V.58c1.27,0,2-.14,1.72,1.45.48-.15.21-1.54.86-1.13a2.49,2.49,0,0,1,.27.85l.31-.58,1.72.27c-.14.78-.81,1.2-.59,2-2.37-1.33-2.66,2,1.17.86.41.69,1.07-.13,1.13-.59-.19,2.14,1.17,4.35.3,6.42-.22.83-.67,2.16.29,2.75l-.31.27V25.82c-1.44,2.45-3.49,5.92-6.87,4.56C112.34,30.28,112.34,30,112.32,29.68Zm2.75-24.06c-.26,0-.14.26,0,.27S115.34,5.59,115.07,5.62Zm.12-.43V4.88h-.27Zm.19,10.08c0,.11-.09.57.12.52S115.61,15,115.38,15.27Zm.55-9.38c0,.26.27.15.27,0S115.91,5.58,115.93,5.89ZM117.2,3c0-.06,0-.11,0-.13.41.11.31.54.27.85C117.14,3.63,117.17,3.33,117.2,3Zm.72,12.62c-.23,0-.12.26,0,.27S118.16,15.61,117.92,15.64Zm0-.59c0,.25.22.17.23,0S117.93,14.8,118,15.05Zm.47-2.14a.22.22,0,1,0,.43,0A.22.22,0,1,0,118.43,12.91Zm0,1.75c0,.35.46.39.43,0S118.4,14.26,118.43,14.66Zm.23,1.13H119a.62.62,0,0,0-.35-.58Zm1-9.75c0,.39-.45.35-.43,0S119.75,5.61,119.71,6Z"/><path class="cls-1" d="M126.15,9.4c.66,0,1.32-.29,1.13-1.05-2.06,2-.81-6.49-1.13-6.91h.27V2.77c.63-.08,1.27.39,1.25-.59h1c.06-.5.76-.67,1.13-.74v14c.67,1.33.5,5.62-1.71,4,.22,1-1.63.62-2,.31Zm.93,11.23a11,11,0,0,1,2.77.31c-.28,1.16.94,2.58.45,3.57-.24.28-.75,1.48-.13,1.58l-.32.27c-.14,1.08.56,4.26-.72,4.39-.53-.17-1-.36-1.54.22v-.2c-.79,0-.65.26-1.44.23V20.94C126.18,20.53,126.81,20.6,127.08,20.63Zm-.66-16.3c-.24,0-.27.62,0,.58S126.72,4.29,126.42,4.33Zm0,24.06c-.24,0-.27.63,0,.59S126.72,28.35,126.42,28.39Zm.31-22.93-.31.58a1.16,1.16,0,0,0,.31-.27Zm-.07-2.18c.07.41.38,1.47.93,1.32l.27-.27A1.29,1.29,0,0,0,126.66,3.28ZM127,5.77c-.26,0-.26.59,0,.55S127.27,5.73,127,5.77Zm.27,3.43c-.26,0-.26.59,0,.55S127.59,9.17,127.28,9.2Zm.58,3.71q0-.12-.15-.12C127.35,12.8,127.81,13.31,127.86,12.91Zm.28-11.47c.3,0,.33.63,0,.59S127.89,1.4,128.14,1.44Zm0,4.88c-.25-.05-.28.62,0,.58S128.44,6.28,128.14,6.32Zm.31,6.32v.85l.27-.27C128.86,13,128.6,12.77,128.45,12.64Zm.27,4.29c-.24-.05-.27.62,0,.58S129,16.88,128.72,16.93Zm0,.85c-.08,0-.11,0-.11.16C128.61,18.3,129.12,17.84,128.72,17.78Zm0-2.57v1.44C128.8,16.39,129.3,15.21,128.72,15.21Zm0,3.43v.28H129ZM129,2.3c-.25,0-.28.62,0,.59S129.29,2.26,129,2.3Zm0,9.2c-.27,0-.27.59,0,.55S129.31,11.47,129,11.5Zm0,2.85c-.25,0-.28.63,0,.59S129.29,14.31,129,14.35Zm.58-9.16c0-.08,0-.12-.16-.12C129.12,5.09,129.46,5.49,129.58,5.19Zm.86,4.56c.29,0,.33.62,0,.58S130.19,9.71,130.44,9.75ZM133.32,21c1.57-.5,2.63-.73,2.58,1.37h.39c-.48-2.27.39-1.65,2.07-1.72-.08-1.1-1.62-.21-2.19-.86l.27-.31v-2c-.31-.61-1.8-.17-1.71.55l.58-.28-.27.59h.55l-.28.27c.5.2.27.67.3,1.13.09.62-2,.2-2.29.31l.28-.27s-.28-.06-.28,0a1.62,1.62,0,0,0-.58.27c-.19-1.56-3.57-5-1.76-5.88-1.33-2.59.86-3.24,0-5.31l-.58.31a1.05,1.05,0,0,0,0-1.44V2.26a1.58,1.58,0,0,1,.86.35l-.28.28c.22,1.22.7,3.43,1.72,4.29-1.23,1.68,1.32,4.12,3.16,3.94v.07l-2.58.31-.31-.31c0,1.1-.87,2.69.59,3.16.25.43-.66.47-.86.59,1.7.52-.59,2.68.7,3.16,1.18-.25-.06-2.83,1.6-2.62.49.83,1.51-1.09,2-1.4-.48-.45-1.33-1.82-.59-2.3V1.17h2.62c0-.24.24-.73.54-.7v.7h1.21c0,.6-.87,1.62,0,2-.45,0-.47,1.48,0,1.44a.92.92,0,0,0-.31.31c0,.45.45.62.31,1.13-.61,1.28-.27,3.18-.31,4.57-1.15,1.47-2.44,1.45-2.18,3.66.75.07.65-.42.82-.89,1-.73,1.36.9,1.24,1.67h1.29c-.85.29-2.3,1.59-1.44,2.46l.27-.58v1.44h-.16c0,.48.61.4.59.86h-.31c.07.46-.48,1.83.19,2l-.31.31v7.72c-.4,0-.38.95-.39,1.13h-3.63A41.36,41.36,0,0,1,133.32,21Zm-1.44-7.25c-.24,0-.27.62,0,.58S132.13,13.72,131.88,13.77Zm.27-4.88c-.24,0-.27.63,0,.59S132.45,8.85,132.15,8.89Zm.32,8.31c-.3,0-.33.62,0,.58S132.71,17.16,132.47,17.2Zm0,3.16c.24-.05.27.62,0,.58S132.17,20.32,132.47,20.36Zm.85-11.47h.28V9.2h-.28Zm1,3.47h.19c0,.64-.36,1.64-1.21,1.41C133.72,13.51,134.37,12.91,134.34,12.36Zm-.74,6.56c-.25-.05-.28.62,0,.58S133.84,18.87,133.6,18.92Zm1.13-4.84c.14.4.15,1.3-.55,1.13A.88.88,0,0,1,134.73,14.08Zm1.71,1.71c-.33.13-.93.44-1,.86h1Zm-.54,7.14c-.21-.08-.21.4,0,.31S136.05,23,135.9,22.93Zm.27-9.44c.25,0,.28.63,0,.59S135.93,13.45,136.17,13.49ZM136.76,31a.21.21,0,0,1-.32,0C136.31,30.82,136.85,30.8,136.76,31Zm.54-13.77a.92.92,0,0,0,.31.31h.28l.58-.58A1.15,1.15,0,0,1,137.3,17.2ZM138.47,31a1.27,1.27,0,0,1-.86,0C137.67,30.8,138.41,30.8,138.47,31Zm-.27-16a4,4,0,0,0,.86,1.13c.57-.28,0-.9-.31-1.13C138.75,14.83,138.3,14.84,138.2,14.94Zm.27-1.72c.14.09.17.22,0,.27S138.25,13.14,138.47,13.22Zm.28,7.45c-.27,0-.27.58,0,.55S139.06,20.63,138.75,20.67Zm.31-8.31v.28h-.31Zm.54,5.42c-.24,0-.27.63,0,.59S139.9,17.74,139.6,17.78Zm0-5.73a.67.67,0,0,1,.67-.35.74.74,0,0,1-.35.66Zm.86,1.17c.41.07-.13.54-.12.12C140.34,13.23,140.38,13.2,140.46,13.22Zm.31,9.17c.26,0,.26.58,0,.54S140.46,22.35,140.77,22.39Zm.86-11.2c-.06.41-.6-.12-.15-.11C141.6,11.08,141.66,11.12,141.63,11.19Zm0,6.87c-.06.41-.6-.13-.15-.12C141.6,17.94,141.66,18,141.63,18.06Z"/><path class="cls-1" d="M147.56,1.23a2.36,2.36,0,0,1,2.34-.06c.72-.08,1.9-.79,2.46,0h2.26c.06-.25.23-.73.58-.7v.7h2c.49-.77,1.56-.09,2.15,0,.16,0,.84-.28,1-.27s.27,0,.31,0a15.74,15.74,0,0,1-.58,4H146.9V1.29A2.85,2.85,0,0,0,147.56,1.23Zm1.4-.06a.22.22,0,1,0,.43,0A.22.22,0,1,0,149,1.17Zm1.45,0a.22.22,0,1,0,.43,0A.22.22,0,1,0,150.41,1.17Zm.58,0a.22.22,0,1,0,.43,0A.22.22,0,1,0,151,1.17Zm.51,4.29a11.51,11.51,0,0,1,4,.27v9.21c.94.41-.77,2,.31,2.57l-.31.27v4.29c.17,0,1.09.21,1,.59h-1V31h-2.26c-.69-.94-2.21,1.21-2-1.14V5.73Zm.08-4.29c0,.37.41.37.39,0S151.55.8,151.58,1.17Zm.27,29.52c0,.39.46.35.43,0S151.82,30.26,151.85,30.69Zm.58-10.29c0,.36.42.36.39,0S152.41,20,152.43,20.4Zm4.41-14.94a.22.22,0,1,1-.43,0A.22.22,0,1,1,156.84,5.46Zm.27,5.73c0,.37-.41.37-.39,0S157.14,10.83,157.11,11.19Zm0,4c0,.37-.41.37-.39,0S157.14,14.84,157.11,15.21Zm0,2.89c0,.36-.41.36-.39,0S157.14,17.68,157.11,18.1Z"/><path class="cls-1" d="M167.25,21.22l.86-.86c-.25.11-.44-.07-.54-.28l.27-.27h-.7c.13-.87-.13-2.13.39-2.88h-.28c0-5.23-.36-10.53-.27-15.76A2.38,2.38,0,0,1,168.42.9c-.94,0-.8,1-.78,1.71h.2l.58-1.17h.16c0,.69.58,1.59,1.25.86H171c.16-.22.28-.74.58-.86V5.19c-.24.19-.49.8,0,.85a51.59,51.59,0,0,0-.31,7.45c-.62.27-.76.28-.78.94,2.19.13.21,2.74,1.09,3.94-.32.19-.55-.34-.58-.59h-2.3a3.28,3.28,0,0,0,2.88,1.14c-.23.24-.49.78,0,.89v2c.32.08.34.58.35.82a4.65,4.65,0,0,0-1.52.62l.59.28c0,.26-.26,1.74.27,1.71v3.44c1.33.3-.12,1.45-.7,1.85-.43.3-2.48.14-3,.17A.61.61,0,0,1,167,31Zm0-.86c.3,0,.33.62,0,.58S167,20.31,167.25,20.36Zm.32-10c-.3,0-.33.63,0,.59S167.81,10.29,167.57,10.33Zm0,2.31c-.3-.05-.33.62,0,.58S167.81,12.59,167.57,12.64Zm.27,2.84c-.25,0-.28.63,0,.59S168.09,15.44,167.84,15.48ZM169,13.77c-.28,0-.45,0-.55.31a1.32,1.32,0,0,0,.86-.31Zm-.27-2.58c-.25,0-.28.63,0,.59S168.94,11.15,168.7,11.19Zm0-.86c-.08,0-.12,0-.12.16C168.58,10.82,169,10.45,168.7,10.33Zm0,5.74q-.12,0-.12.15C168.6,16.53,169,16.19,168.7,16.07Zm0,2.57c-.08,0-.12,0-.12.16C168.58,19.13,169,18.76,168.7,18.64ZM169,17.2q0-.12-.12-.12C168.43,17.06,168.9,17.61,169,17.2Zm0,4.87c-.25,0-.28.63,0,.59S169.27,22,169,22.07Zm.31,2.31c-.07-.18-.49.18-.31.27S169.4,24.54,169.28,24.38Zm0-.86c-.3-.05-.33.62,0,.58S169.53,23.47,169.28,23.52Zm.27-9.75c-.24,0-.27.62,0,.58S169.8,13.72,169.55,13.77Zm.28,2.3c.08-.17-.36-.14-.28,0S169.74,16.21,169.83,16.07Zm0-4.6c-.25-.05-.28.62,0,.58S170.12,11.42,169.83,11.47Zm0,5.46c-.25-.05-.28.62,0,.58S170.12,16.88,169.83,16.93Zm.31,7.45c.09-.17-.45-.16-.31,0S170.05,24.53,170.14,24.38Zm0-8c-.21-.08-.21.4,0,.31S170.3,16.43,170.14,16.34Zm.27-6c-.24,0-.27.63,0,.59S170.66,10.29,170.41,10.33Zm.28,3.44c.29,0,.33.62,0,.58S170.44,13.72,170.69,13.77Zm.31-1.72c-.3,0-.33.62,0,.59S171.24,12,171,12.05Zm0,4.29c-.3,0-.33.62,0,.59S171.24,16.3,171,16.34Zm.27,7.45c.3,0,.33.62,0,.58S171,23.75,171.27,23.79Zm.31.59v.27h-.31Zm.55-10c.3,0,.33.63,0,.59S171.88,14.31,172.13,14.35Zm0,9.75c.31,0,.31.59,0,.55S171.87,24.06,172.13,24.1Zm.31-12.91c-.07.4-.6-.11-.15-.11C172.42,11.08,172.47,11.12,172.44,11.19Zm3.71,18.64c-.81-3.73-1.87-7.43-2.58-11.19h-1.13a1.79,1.79,0,0,0,.86-.58h-1.17c-.39-3.84.54-3.8,4-4.29-2-1.06,3.1-8.09-4-8.86V1.44A7.76,7.76,0,0,0,175,.9v.43c5.66,0,2,3.28,3.71,2.92V3.74h.43a1.25,1.25,0,0,1-.7,1.17c2.42-.6,2,4.2,2.3,5.7l.54.58c-1.95.75-1,3.78-2.63,4.92s-1.75,2.21-.21,3.39c-.24.1-.43.27-.2.57,1.42,2,.59,5.11,2.22,7-.69,1.21.12,1.63,1.14,2.18-1.37-.28-.74,1.78-2,1.75a.66.66,0,0,0-.36-.62C179.1,31.43,175.09,31.26,176.15,29.83ZM172.44,6c.25,0,.28.63,0,.59S172.14,6,172.44,6Zm0,9.44c-.3,0-.33.63,0,.59S172.69,15.44,172.44,15.48Zm2.85,5.74c-.25,0-.28.62,0,.58S175.53,21.17,175.29,21.22Zm.27.58c-.08,0-.12,0-.12.16C175.45,22.32,176,21.86,175.56,21.8Zm.31-5.73c-.3,0-.33.62,0,.58S176.12,16,175.87,16.07Zm0,5.15a1.49,1.49,0,0,0,.28.58.59.59,0,0,0,.58-.27C176.62,21.12,176.19,21.24,175.87,21.22Zm.28,2.88c-.27,0-.26.59,0,.55S176.41,24.06,176.15,24.1Zm.27-.86c-.26,0-.26.59,0,.55S176.73,23.21,176.42,23.24Zm.31-13.18c-.1,0-.15,0-.15.16C176.6,10.52,177.05,10.21,176.73,10.06Zm1-5.18s-.13,0-.12,0c-.16,0-.26.1-.31.28h.31l.27-.28S177.81,4.88,177.71,4.88Zm-.12,8.61c-.3,0-.33.63,0,.59S177.84,13.45,177.59,13.49Zm.27,8c-.26,0-.26.58,0,.54S178.12,21.49,177.86,21.53Zm.27-6.05c-.24,0-.27.63,0,.59S178.43,15.44,178.13,15.48Zm1.45-6.86c-.79.06-.84,1.1-1.45,1.44C179,10.22,179.46,9.28,179.58,8.62Zm-1.45,5.15v.31l.32-.31Zm.32.31c-.32,0-.32.58,0,.54S178.71,14,178.45,14.08Zm0,16.3c-.3,0-.33.62,0,.59S178.69,30.34,178.45,30.38Zm.27-17.47c-.25,0-.28.62,0,.58S179,12.87,178.72,12.91ZM179,2.3c.25,0,.28.62,0,.59S178.73,2.26,179,2.3Zm.27,11.19c-.24,0-.27.63,0,.59S179.55,13.45,179.3,13.49Zm0,8.58c.25,0,.28.63,0,.59S179.06,22,179.3,22.07ZM181,25c.26,0,.26.58,0,.55S180.76,24.92,181,25Zm.59-17.78c0,.19-.56.22-.59,0S181.63,7,181.61,7.18Z"/><path class="cls-1" d="M189.52,2.3c.8-.86,2.22.07,3-.86.25-.67.06-1,1.13-.93V4.33c-3.82,3.73-1.42,10.49-1.95,15.35a5,5,0,0,0,.74,2.76c.25.5-.63.93-.78,1.35,1.56,3.88,2.31,2.05,2,7.18-3.47-1.06-6-3.3-6-7.18.62-1.91-1.57-20.4,1.52-20A2.3,2.3,0,0,1,189.52,2.3Zm.32,1c0,.15-.12.78.11.74S190.06,2.8,189.84,3.28Zm1.4,9.51c0,.2.27.13.27,0S191.21,12.55,191.24,12.79Zm.23,9.87c0,.36.42.36.39,0S191.44,22.29,191.47,22.66Zm1,1.44c0,.39-.46.35-.43,0S192.48,23.67,192.45,24.1Zm.19-16.46c-.14.41-.48-.25-.11-.15A.15.15,0,0,1,192.64,7.64ZM193,17.78c0,.35-.46.39-.43,0A.22.22,0,1,1,193,17.78Zm.28-.54a.22.22,0,1,1-.43,0C192.85,16.84,193.34,16.8,193.31,17.24Zm0,4.87c0,.39-.46.35-.43,0S193.34,21.68,193.31,22.11Zm.91,7.57c-.38-2.26.95-3,2.32-4.19.9-.65.24-12.6.43-13.71.54-.1.4-.56.12-.86-.3-1.86.24-6.25-2.58-6l.32-.28-.59-.86V.58C195.51.53,196.19.44,196,2c.47-.15.21-1.54.86-1.13a2.49,2.49,0,0,1,.27.85l.31-.58,1.72.27c-.14.78-.81,1.2-.59,2-2.37-1.33-2.66,2,1.17.86.41.69,1.07-.13,1.13-.59-.19,2.14,1.17,4.35.3,6.42-.23.83-.67,2.16.29,2.75l-.31.27V25.82c-1.44,2.45-3.49,5.92-6.87,4.56C194.24,30.28,194.24,30,194.22,29.68ZM197,5.62c-.26,0-.14.26,0,.27S197.24,5.59,197,5.62Zm.12-.43V4.88h-.27Zm.19,10.08c0,.11-.09.56.12.52S197.5,15,197.28,15.27Zm.55-9.38c0,.26.26.15.27,0S197.81,5.58,197.83,5.89ZM199.1,3c0-.06,0-.11,0-.13.4.12.31.54.27.85C199,3.63,199.06,3.33,199.1,3Zm.72,12.62c-.23,0-.12.26,0,.27S200.06,15.61,199.82,15.64Zm0-.59c0,.25.22.17.23,0S199.83,14.8,199.86,15.05Zm.47-2.14a.22.22,0,1,0,.43,0A.22.22,0,1,0,200.33,12.91Zm0,1.75c0,.35.46.39.43,0S200.3,14.26,200.33,14.66Zm.23,1.13h.35a.64.64,0,0,0-.35-.58ZM201.61,6c0,.39-.45.35-.43,0S201.65,5.61,201.61,6Z"/><path class="cls-1" d="M208.17,24.65c.29-.57-.8-7.46.85-6.59-1.08-.92-1.35-1-1.13-2.58.11-.24.49-.74,0-.86.15-.57.49-.14.86-.19V13c-.26-.11-.63.13-.86.23.61-1.06,1.46-2.17.33-3.25-.44-2,1.16-.45,2-.45l-.58-.86h.7c.15-1.69-1.93-1.16-1.76-2.89h-.42A5.86,5.86,0,0,1,209,3.16c-.68-.27.42-1.27-.27-1.72h1.52a.63.63,0,0,1-.39.59,1,1,0,0,0,1.17-.86,1.35,1.35,0,0,1,1.09,1.44h-.82v.55h.32c0,.51,0,1.48-.59,1.72.51-.76-.64-.82-1.09-.79-.05.5-.17.69.23,1.1a1.28,1.28,0,0,0-1.17.27c.24.57,1,1.63,1.72.86,0,0,.06.27,0,.27a2.24,2.24,0,0,1-.27.59,2.51,2.51,0,0,0,0,.27h.23l.58,1.17.59-.27c.1,2.09.12,5.68-1.17,7.44h.9c-1.09,1.47,1.66,2.91,0,4.29l.27.28c0,.74-.11,4.91.31,5.46h-4.41c0-.32.45-.75.67-.86Zm0,6.43c-.6-.08,0-.35.25-.19S208.32,31.09,208.17,31.08Zm.11-29.91c0,.18,0,1.12-.39,1.13V1.17Zm-.39,10c.18.14.4.35.28.59A.61.61,0,0,1,207.89,11.19Zm.28,15.49a12.29,12.29,0,0,1,4.32-.32l.28.32a.64.64,0,0,1,1.13,0c1.41-.73,5-.4,6,1.13-.75.59-.53,1.94-.87,2.75-.06.82-4.13.24-4.59.41-.58-.77-.89.1-1.71,0-1.15,0-2.41-.83-3.43,0h.27c-.24-.72-1-.44-1.5-.63s-.12-3.63-.22-4Zm.27-23.56c-.14.16-.49,0-.22-.2S208.61,3,208.44,3.12Zm-.12,13.1c-.27,0-.14.28,0,.28S208.59,16.19,208.32,16.22Zm.27-7.87c-.07.6-.4,0-.23-.26S208.61,8.17,208.59,8.35Zm-.11,10.88.27-.31-.27-.28Zm.07,5.15c0,.36.42.36.39,0S208.53,24,208.55,24.38Zm.08-3.87c0,.25.23.11.24,0S208.61,20.26,208.63,20.51Zm.24-12.9c-.06,0-.09-.06-.12-.16C208.79,7.11,209.26,7.54,208.87,7.61Zm.23-2.7c0,.35.46.39.43,0S209.07,4.51,209.1,4.91Zm.39,7.14a2.26,2.26,0,0,0-.19.94c.73,0,1.36-1.8.39-1.87A2.22,2.22,0,0,1,209.49,12.05Zm0,4.76c-.1,0-.14,0-.11.12C209.42,17.25,209.84,16.8,209.45,16.81Zm-.11-3,.27-.28h-.27Zm.27,2,.58-.31h-.58Zm.08-5.46c0,.39.45.35.42,0S209.65,10,209.69,10.33Zm.25,8.35c-.28.21.07.36.21.2S210.15,18.46,209.94,18.68Zm.17-15.48c-.1,0-.18.12-.23.27a1.21,1.21,0,0,0,.86-.31A2.6,2.6,0,0,0,210.11,3.2Zm.28,2.57a.22.22,0,1,1-.43,0C209.93,5.37,210.42,5.34,210.39,5.77ZM210,13.22a.22.22,0,1,0,.43,0C210.42,12.79,209.93,12.82,210,13.22Zm.31.86c0,.37.42.37.39,0S210.24,13.66,210.27,14.08Zm.08-4.17c0,.27.28.14.27,0S210.32,9.63,210.35,9.91Zm0,14.89c0,.28.28.15.27,0S210.32,24.53,210.35,24.8Zm.19-15.6c0,.39.46.35.43,0S210.51,8.77,210.54,9.2Zm0,14.9c0,.39.46.35.43,0S210.51,23.67,210.54,24.1Zm.35-21.92c0,.2.28.13.28,0S210.87,1.94,210.89,2.18Zm.16,23.05h.27V25h-.27Zm.51-18.6a.22.22,0,1,1-.43,0C211.09,6.19,211.59,6.23,211.56,6.63Zm-.43,6.28a.22.22,0,1,0,.43,0A.22.22,0,1,0,211.13,12.91Zm.1-3.34c0,.18-.12.74.09.77S211.46,9.15,211.23,9.57Zm.6-2.69a.12.12,0,0,0,.08,0,2,2,0,0,0-.59.86C211.31,7.42,211.29,6.75,211.83,6.88Zm.27-.56c0,.36-.41.36-.39,0S212.13,6,212.1,6.32Zm0,7.76c0,.37-.41.37-.39,0S212.13,13.66,212.1,14.08ZM212,4.49c-.1,1-.52-.35-.12-.47A.65.65,0,0,1,212,4.49Zm.39,3.27a.22.22,0,1,1-.43,0C212,7.33,212.44,7.36,212.42,7.76Zm.07,16.62h-.31V24.1Zm.12-21.92s0,.1-.12.15C212.11,2.64,212.51,2,212.61,2.46Zm0,18.05q0,.09-.12.12C212.11,20.72,212.51,20,212.61,20.51Zm.51,10.18c0,.35.46.39.43,0S213.09,30.29,213.12,30.69Zm2.22-3.86c-.48,0-.25.28,0,.28S215.82,26.8,215.34,26.83Zm-.19,3.86c0,.37.41.37.39,0S215.12,30.28,215.15,30.69Zm1.4,0c0,.35.46.39.43,0S216.52,30.29,216.55,30.69Zm1.17,0c0,.39.46.35.43,0S217.69,30.26,217.72,30.69Zm2.34-1.56c-.14.41-.48-.26-.12-.15A.14.14,0,0,1,220.06,29.13Zm.74-3h-.58a.57.57,0,0,1,.58-.35Z"/></g></g></svg>