<svg xmlns="http://www.w3.org/2000/svg" viewBox="0 0 270.42 35.39"><defs><style>.cls-1{fill:#1d1d1b;}.cls-2{fill:#fff;}</style></defs><g id="Capa_2" data-name="Capa 2"><g id="Capa_7" data-name="Capa 7"><path class="cls-1" d="M2.05,4.45c.8-.85,2.22.07,3-.85.25-.68.06-1,1.13-.94V6.48C2.37,10.22,4.77,17,4.24,21.83A5,5,0,0,0,5,24.6c.25.49-.63.92-.78,1.34,1.56,3.88,2.31,2,2,7.18-3.47-1.06-6-3.3-6-7.18C.8,24-1.39,5.54,1.7,6A2.3,2.3,0,0,1,2.05,4.45Zm.31,1c0,.16-.11.78.12.74S2.59,5,2.36,5.43Zm1.41,9.51c0,.2.27.14.27,0S3.74,14.7,3.77,14.94ZM4,24.81c0,.37.42.37.39,0S4,24.45,4,24.81Zm1,1.44c0,.39-.46.35-.43,0S5,25.82,5,26.25ZM5.17,9.8c-.14.4-.48-.26-.11-.16A.16.16,0,0,1,5.17,9.8Zm.39,10.14a.22.22,0,1,1-.43,0C5.1,19.55,5.59,19.59,5.56,19.94Zm.28-.55a.22.22,0,1,1-.43,0C5.38,19,5.87,19,5.84,19.39Zm0,4.88a.22.22,0,1,1-.43,0C5.38,23.86,5.87,23.83,5.84,24.27Zm.91,7.56c-.38-2.26,1-3,2.32-4.19.9-.64.24-12.59.43-13.71.54-.1.4-.56.12-.86-.3-1.85.24-6.25-2.58-6l.32-.28L6.77,5.9V2.74c1.27-.06,2-.15,1.72,1.44C9,4,8.7,2.65,9.35,3.05a2.54,2.54,0,0,1,.27.86l.31-.59,1.72.28c-.14.77-.81,1.19-.59,2-2.37-1.33-2.66,2,1.17.86.41.69,1.07-.12,1.13-.58-.19,2.13,1.17,4.34.29,6.41-.22.83-.66,2.17.3,2.75l-.31.27V28c-1.44,2.45-3.49,5.92-6.87,4.56C6.77,32.43,6.76,32.2,6.75,31.83ZM9.5,7.77c-.26,0-.15.26,0,.27S9.77,7.74,9.5,7.77Zm.12-.43V7H9.35Zm.19,10.08c0,.11-.1.57.12.53S10,17.14,9.81,17.42ZM10.36,8c0,.26.26.15.27,0S10.34,7.74,10.36,8Zm1.27-2.87c0-.06,0-.11,0-.13.4.12.31.54.27.86C11.57,5.79,11.59,5.48,11.63,5.17Zm.72,12.62c-.23,0-.12.27,0,.27S12.59,17.77,12.35,17.79Zm0-.58c0,.24.22.16.23,0S12.36,17,12.39,17.21Zm.47-2.15c0,.35.46.38.42,0S12.83,14.71,12.86,15.06Zm0,1.76c0,.35.46.38.42,0S12.83,16.42,12.86,16.82ZM13.09,18h.35a.64.64,0,0,0-.35-.59ZM14.14,8.2a.22.22,0,1,1-.43,0C13.69,7.8,14.18,7.76,14.14,8.2Z"/><path class="cls-1" d="M20.38,3.46a3.19,3.19,0,0,0,1.95-.41v.43h1.76c.06.5-.42,1.1-.35,1.6a1.31,1.31,0,0,1,.85-.31,14.46,14.46,0,0,0-.27,1.71l.59.59v4c.31.21.71.78.54,1.13a3.13,3.13,0,0,0,0,2.31c.33-.87,1.68,0,2-.86.75-3.55,1.06-6.78,1.72-10.34C31,3.38,33,2.73,33.56,5.08H33c.19,1.64.12,3.54,1.64,4.4h-.86c1.14,1.46-.28,4.28,2,4.72-.43.12-1.25.25-1.17.86,0,.08.53.26.58.31a11.38,11.38,0,0,1-.27,1.72c.75.23-.26,1.62.86,1.44.47-.11.21-2,.27-2.3,1-.2-.38-1.79.59-2L38.09,3.32C39,3.65,39.35,3,40.23,3s1.29.73,1.84-.23c0,.41-.2,1.51.31,1.71v.28a.92.92,0,0,1-.31.31,4.71,4.71,0,0,1-1.13,4.29,1.22,1.22,0,0,0,.13.27c.5.55-.32,1.07-.45,1.56.12.44.19,1.31.59,1.6.16.28-.41.92-.55,1.13l.28.27c-1.38,1.18-.71,3.8-1.14,5.46h.35c-1.16,2.75-.71,5.65-1.79,8.43.65,1.65-.2,2.93-.86,4.44-.25-.1-.78,0-.85.32l.27.27c-3.2.17-2.8.07-3.38-3.08-.71-1.73-.6-9.59-2.35-8.82.1-.29.68-.93.58-1.28,0,0-.57-.53-.58-.55v-.31s.27-.53.31-.55v-.31a5.12,5.12,0,0,0-.59-.55c-2,1.92-.8,5.23-1.87,7.57-.16.42-.15.52.16.7a23.25,23.25,0,0,1-1.45,6c-.15-.64.32-.9.32-1.45-1.67-3.34-1.42-7.8-1.45-11.46-2.56-.5,1.27,10.9.63,13.3-.35,0-1.54,0-1.49.58h1.45l-3.16.16c-.52-9.93-3.16-19.76-4.1-29.68Zm2.23.72V3.91h-.28Zm-.2,10.61c0,.36.42.36.39,0S22.38,14.42,22.41,14.79ZM22.72,3.2c-.38-.13.21-.46.16-.15C22.85,3.15,22.8,3.2,22.72,3.2Zm.82,23.64a.22.22,0,1,0,.43,0C24,26.44,23.51,26.4,23.54,26.84Zm.27-15.76c0,.35.47.39.43,0S23.79,10.68,23.81,11.08Zm.59,21.77a.22.22,0,1,0,.43,0C24.86,32.44,24.36,32.41,24.4,32.85Zm1-17.87c-.31-.17-.75.16-.21.24C25.3,15.23,25.58,15.07,25.39,15ZM25,30c0,.36.42.36.39,0S25,29.58,25,30Zm0,2.85c0,.36.42.36.39,0S25,32.43,25,32.85Zm.74-22.51c-.6-.08,0-.4.26-.23S25.9,10.36,25.72,10.34Zm-.19,15.91c0,.35.46.39.43,0S25.5,25.85,25.53,26.25Zm.23-8.3c1.47,1.1,1.59-2.57,1.56-3.43H26.15c0,.17,0,1.12-.39,1.13Zm.71,12.75c-.26,0-.09.27,0,.27S26.74,30.67,26.47,30.7Zm.35-14.47c0,.37-.42.37-.39,0S26.84,15.81,26.82,16.23Zm1-1.13a.22.22,0,1,0,.43,0C28.29,14.66,27.8,14.7,27.83,15.1Zm2.5-4v-.7a.56.56,0,0,0-.55.35A.51.51,0,0,0,30.33,11.12Zm-.08,11.43c0,.36-.42.36-.39,0S30.28,22.13,30.25,22.55Zm-.08-7.61c-.22,0-.09.29,0,.28S30.44,14.91,30.17,14.94Zm0,2.15a.22.22,0,1,0,.43,0A.22.22,0,1,0,30.13,17.09Zm.35-9c0,.19.28.13.28,0S30.46,7.84,30.48,8.08Zm.28,8c-.2,0-.13.27,0,.27S31,16.05,30.76,16.08Zm.15-9.6s-.29.22-.27.31h.27s.29-.21.28-.31ZM31,15.1a.22.22,0,1,0,.43,0C31.45,14.7,31,14.66,31,15.1Zm.58,5.73c0,.37.42.37.4,0S31.55,20.42,31.57,20.83Zm1.72-5.73c0,.37.42.37.39,0S33.26,14.68,33.29,15.1Zm0,12c0,.37.42.37.39,0S33.26,26.69,33.29,27.11Zm.47-.86v-.31h-.27ZM33.56,28A.22.22,0,1,0,34,28,.22.22,0,1,0,33.56,28Zm.36,2.42c0,.23.26.18.27,0S33.89,30.14,33.92,30.39Zm.23-1.83c0,.36.42.36.39,0S34.12,28.14,34.15,28.56Zm0,2.3c0,.36.42.36.39,0S34.12,30.44,34.15,30.86Zm.31-23.64c-.13.37-.4-.17-.12-.15A.14.14,0,0,1,34.46,7.22Zm1.17,12c-.26,0-.15.28,0,.28S35.87,19.21,35.63,19.23Zm0,1.17c0,.2.28.13.27,0S35.61,20.16,35.63,20.4ZM37,15.1a.22.22,0,1,0,.43,0C37.46,14.66,37,14.7,37,15.1Zm.31-3.74c0,.36.42.36.39,0S37.28,11,37.31,11.36Zm.27,15.17a.22.22,0,1,0,.43,0C38,26.18,37.55,26.14,37.58,26.53ZM38.09,30h.27v-.55h-.27Zm.43-11.31c0,.26.26.15.27,0S38.49,18.38,38.52,18.65Zm.11-7.29H39l-.32-.28Zm.78,16.06c0,.37-.41.37-.39,0S39.44,27,39.41,27.42Zm-.11-12.9a.22.22,0,1,0,.43,0C39.75,14.11,39.26,14.08,39.3,14.52ZM39.92,3.2c-.25,0-.08.28,0,.28S40.19,3.17,39.92,3.2Zm.16,7.88v-.31H39.8Zm1.21-4.29c0,.35.46.39.43,0S41.26,6.39,41.29,6.79Z"/><path class="cls-1" d="M49.2,11.55c.67,0,1.32-.28,1.13-1.05-2.06,2-.81-6.49-1.13-6.9h.28V4.92c.62-.08,1.26.39,1.24-.58h1.06c0-.51.76-.68,1.13-.74v14c.67,1.33.49,5.61-1.72,4,.22,1-1.63.62-2,.31Zm.94,11.23a10.53,10.53,0,0,1,2.77.32c-.29,1.15.93,2.57.45,3.56-.25.28-.76,1.48-.14,1.58l-.31.28c-.14,1.07.56,4.26-.72,4.38-.54-.16-1-.36-1.54.22v-.2c-.8,0-.65.26-1.45.24V23.1C49.23,22.68,49.87,22.75,50.14,22.78Zm-.66-16.3c-.25,0-.28.62,0,.59S49.77,6.44,49.48,6.48Zm0,24.06c-.25,0-.28.63,0,.59S49.77,30.5,49.48,30.54Zm.31-22.93-.31.59a2.06,2.06,0,0,0,.31-.28Zm-.08-2.18c.08.41.39,1.47.94,1.32l.27-.27A1.3,1.3,0,0,0,49.71,5.43Zm.35,2.49c-.26,0-.26.59,0,.55S50.32,7.89,50.06,7.92Zm.27,3.44c-.26,0-.26.58,0,.54S50.65,11.32,50.33,11.36Zm.59,3.7c0-.08,0-.12-.16-.12C50.41,15,50.86,15.46,50.92,15.06ZM51.19,3.6c.3-.05.33.62,0,.58S51,3.55,51.19,3.6Zm0,4.87c-.24,0-.27.62,0,.59S51.49,8.43,51.19,8.47Zm.31,6.32v.86l.28-.28C51.91,15.16,51.66,14.92,51.5,14.79Zm.28,4.29c-.25,0-.28.62,0,.58S52,19,51.78,19.08Zm0,.86q-.12,0-.12.15C51.67,20.45,52.17,20,51.78,19.94Zm0-2.58v1.45C51.86,18.54,52.36,17.36,51.78,17.36Zm0,3.43v.28h.27Zm.27-16.34c-.25,0-.28.63,0,.59S52.35,4.41,52.05,4.45Zm0,9.21c-.26,0-.26.58,0,.54S52.36,13.62,52.05,13.66Zm0,2.84c-.25,0-.28.63,0,.59S52.35,16.46,52.05,16.5Zm.58-9.16q0-.12-.15-.12C52.17,7.25,52.51,7.64,52.63,7.34Zm.86,4.56c.3,0,.33.63,0,.59S53.25,11.86,53.49,11.9Zm2.89,11.27c1.47-.53,2.7-.61,2.57,1.37h.39c-.47-2.26.39-1.65,2.07-1.72-.07-1.1-1.61-.21-2.18-.86l.27-.31v-2c-.32-.61-1.81-.17-1.72.55l.59-.27-.28.58h.55l-.27.27c.5.2.26.67.29,1.14s-2,.19-2.28.31l.27-.28s-.27-.06-.27,0a1.53,1.53,0,0,0-.59.28c-.19-1.57-3.56-5-1.75-5.89-1.34-2.59.85-3.24,0-5.31l-.59.32a1,1,0,0,0,0-1.45V4.41a1.61,1.61,0,0,1,.86.36L54.08,5c.22,1.23.7,3.43,1.71,4.29C54.57,11,57.11,13.45,59,13.27v.08l-2.57.31-.31-.31c0,1.09-.88,2.68.58,3.15.25.43-.65.48-.86.59,1.71.52-.59,2.68.71,3.16,1.17-.25-.07-2.82,1.59-2.61.49.82,1.51-1.09,2-1.41-.47-.45-1.33-1.82-.58-2.3V3.32h2.61c0-.24.24-.73.55-.7v.7h1.21c0,.6-.87,1.63,0,2-.46,0-.47,1.48,0,1.44a.86.86,0,0,0-.31.32c0,.44.45.62.31,1.13-.62,1.28-.27,3.17-.31,4.56-1.16,1.47-2.45,1.45-2.19,3.67.75.06.65-.43.82-.9,1-.73,1.37.9,1.25,1.68h1.29c-.86.28-2.3,1.59-1.45,2.45l.28-.58v1.44h-.16c0,.48.6.4.59.86h-.32c.07.46-.48,1.83.2,2l-.31.31V31.4c-.4,0-.39,1-.39,1.13H59.5A40.87,40.87,0,0,1,56.38,23.17Zm-1.44-7.25c-.25,0-.28.62,0,.58S55.18,15.88,54.94,15.92ZM55.21,11c-.25,0-.28.63,0,.59S55.51,11,55.21,11Zm.31,8.31c-.3,0-.33.63,0,.59S55.77,19.31,55.52,19.35Zm0,3.16c.25,0,.28.62,0,.59S55.22,22.47,55.52,22.51ZM56.38,11h.27v.32h-.27Zm1,3.48h.2c0,.63-.36,1.64-1.21,1.4C56.78,15.66,57.43,15.06,57.39,14.52Zm-.74,6.55c-.24-.05-.27.62,0,.58S56.9,21,56.65,21.07Zm1.13-4.84c.15.4.16,1.3-.54,1.13A.88.88,0,0,1,57.78,16.23ZM59.5,18c-.34.12-.94.44-1,.86h1ZM59,25.08c-.21-.08-.21.4,0,.32S59.11,25.17,59,25.08Zm.28-9.43c.24-.05.27.62,0,.58S59,15.6,59.23,15.65Zm.58,17.47a.2.2,0,0,1-.31,0C59.36,33,59.9,33,59.81,33.12Zm.55-13.77a.92.92,0,0,0,.31.31h.27l.59-.58A1.15,1.15,0,0,1,60.36,19.35Zm1.17,13.77a1.27,1.27,0,0,1-.86,0C60.73,33,61.46,33,61.53,33.12Zm-.28-16a4.08,4.08,0,0,0,.86,1.13c.58-.28,0-.9-.31-1.13C61.8,17,61.35,17,61.25,17.09Zm.28-1.72c.14.09.17.22,0,.28S61.3,15.29,61.53,15.37Zm.27,7.45c-.26,0-.26.59,0,.55S62.11,22.78,61.8,22.82Zm.31-8.3v.27H61.8Zm.55,5.42c-.25-.05-.28.62,0,.58S63,19.89,62.66,19.94Zm0-5.74a.64.64,0,0,1,.66-.35.77.77,0,0,1-.35.67Zm.86,1.17c.4.07-.14.54-.12.12Q63.4,15.34,63.52,15.37Zm.31,9.17c.26,0,.26.58,0,.54S63.51,24.5,63.83,24.54Zm.86-11.19c-.07.4-.6-.13-.16-.12C64.66,13.23,64.71,13.27,64.69,13.35Zm0,6.86c-.07.41-.6-.13-.16-.12C64.66,20.09,64.71,20.13,64.69,20.21Z"/><path class="cls-1" d="M88,28.52C84.13,30.58,86.48,18.26,85.74,16,85.46,10.82,85,3,92,2.93V6.76c-.89.78-1.93,1.39-2,2.77-.19.88-.52,1.81.31,2.38.21.41-.33.44-.27.86.74,1-.24,2.19-.24,3.32.3.35.45-.25.51-.47a.9.9,0,0,1-.55,1.17c1.59,1.7-1.13,4.21.55,6-1.7,4,2.51,6.19,1.72,10-.22.57-1,.21-1.41,0-1.49,1-3.55-2-3.51-3.36h1.21Zm-1.25.89c0,.37-.42.37-.39,0S86.75,29,86.72,29.41Zm.94.86.58-.31h-.58Zm1-1.6c-.26,0-.15.28,0,.28S88.91,28.65,88.67,28.67Zm.78-3.27a.22.22,0,1,0,.43,0C89.91,25,89.42,25,89.45,25.4Zm.66,4.17c-.24,0-.16.22,0,.23S90.37,29.55,90.11,29.57Zm.35-18.76c0,.35-.46.38-.42,0S90.49,10.41,90.46,10.81Zm.28,3.43c0,.39-.46.35-.43,0S90.77,13.81,90.74,14.24Zm.15,14.59a.22.22,0,1,0,.43,0A.22.22,0,1,0,90.89,28.83Zm.28-24.61a.22.22,0,1,0,.43,0C91.63,3.78,91.14,3.82,91.17,4.22Zm4,7.08c-.82-7.43-3.2-.88-2.65-8.37,1.65,0,3.16.95,4.8,1,.06,1.09,1,2.56,2.14,2.65a.25.25,0,0,1-.07.19c-.85.58.6.83-.28,1.41-.09.54.73.67,0,1.17v3.31a5.58,5.58,0,0,0-2.3.43c-.62,0-.68-.64-1.4-.31A10.1,10.1,0,0,1,95.18,11.3ZM93.84,29.55c.12.35.53-.16.72-.14a.65.65,0,0,1,.27-.08v.36c-.09.13-1.58.58-1.13.85s.78.21,1.13,0c.49.08.46,1.32,0,1.45.67.07,1-.46,1.72-.31a4.79,4.79,0,0,1-1.44,1.17l.31.27c-.33,0-.66,0-.86-.27-.46.24-1.71.54-2,0V29.69C92.68,29.56,93.69,29.23,93.84,29.55Zm.8-25.33c0,.36.41.36.39,0S94.61,3.8,94.64,4.22Zm.47-2.07v.31h-.28V2.15Zm.23,24.1c0,.35-.46.39-.43,0S95.37,25.85,95.34,26.25Zm2.09,2.58A6.88,6.88,0,0,1,95.69,28c.11-.52.6-.07.86,0,.6.07,1.18.12,1.44-.58a1.16,1.16,0,0,0-.86.31v-.31h-.46A1.23,1.23,0,0,0,96,26.25l.86-.58H96c.13-.21.79-.54.51-.82-.27-.1-1.08.19-1.36.23V22.82h1.71c-.95.59.76,1.66,1.37,1.56.12.77-.65.65-.67,1.29h1.72c-.07.72.21,1.35-.66,1.36-.19.77.66,1.73,0,2.38l-.28-.31c.1.61-.41.68-.85.59l.58-.86A1.06,1.06,0,0,1,97.43,28.83Zm-1.82-1.74a.12.12,0,0,0,.08,0l-.27.28a.42.42,0,0,1-.31,0C95.22,27.28,95.43,27,95.61,27.09Zm-.06,2.75a.34.34,0,0,1-.44.12l.58-.27A1.12,1.12,0,0,0,95.55,29.84Zm.14-5.3V24l-.27.28Zm.51-11.16c0,.35-.46.39-.43,0S96.23,13,96.2,13.38Zm-.43,9.72a.22.22,0,1,0,.43,0C96.23,22.75,95.74,22.71,95.77,23.1ZM96.12,31c0,.15-.3.28-.27,0S96.13,30.83,96.12,31ZM96,10c0,.35.46.39.43,0S96,9.55,96,10Zm.31,16.3c0,.37.42.37.39,0S96.32,25.84,96.35,26.25Zm.71,3.44c0,.34-.47.38-.43,0S97.08,29.34,97.06,29.69Zm-.16-3.44c0,.35.46.39.43,0S96.87,25.85,96.9,26.25Zm.23,4.88s0-.32,0-.31.21-.25.28-.28Zm.08-4.29c0,.36.42.37.39,0S97.18,26.42,97.21,26.84ZM98,22.63a1.85,1.85,0,0,1,.76-.16.76.76,0,0,1-1.32.63A1.13,1.13,0,0,1,98,22.63Zm-.21,5.65c0,.35.46.39.43,0S97.73,27.88,97.76,28.28ZM98,10.77h.27V10.5Zm.08,16.07c0,.36.42.37.39,0S98,26.42,98.07,26.84Zm.78-2-.31.27v-.27Zm.27-.86h-.27v-.27Zm.2-.85c0,.36-.42.36-.39,0S99.34,22.73,99.32,23.1Zm.58-.55a.22.22,0,1,1-.43,0C99.45,22.15,99.94,22.11,99.9,22.55Zm0,.55a.22.22,0,1,1-.43,0C99.44,22.75,99.93,22.71,99.9,23.1Z"/><path class="cls-1" d="M107.62,4.45c.8-.85,2.22.07,3-.85.25-.68.06-1,1.13-.94V6.48c-3.81,3.74-1.42,10.5-2,15.35a5,5,0,0,0,.74,2.77c.25.49-.63.92-.78,1.34,1.56,3.88,2.31,2,2,7.18-3.47-1.06-6-3.3-6-7.18.62-1.9-1.56-20.4,1.52-20A2.3,2.3,0,0,1,107.62,4.45Zm.32,1c0,.16-.12.78.11.74S108.16,5,107.94,5.43Zm1.4,9.51c0,.2.28.14.27,0S109.31,14.7,109.34,14.94Zm.23,9.87c0,.37.42.37.39,0S109.55,24.45,109.57,24.81Zm1,1.44c0,.39-.46.35-.43,0S110.58,25.82,110.55,26.25Zm.19-16.45c-.14.4-.48-.26-.11-.16A.15.15,0,0,1,110.74,9.8Zm.39,10.14c0,.34-.46.38-.42,0S111.16,19.59,111.13,19.94Zm.28-.55a.22.22,0,1,1-.43,0C111,19,111.44,19,111.41,19.39Zm0,4.88a.22.22,0,1,1-.43,0C111,23.86,111.44,23.83,111.41,24.27Zm.91,7.56c-.38-2.26,1-3,2.32-4.19.9-.64.24-12.59.43-13.71.54-.1.4-.56.12-.86-.3-1.85.24-6.25-2.57-6l.31-.28-.59-.85V2.74c1.27-.06,2-.15,1.72,1.44.48-.15.21-1.53.86-1.13a2.54,2.54,0,0,1,.27.86l.31-.59,1.72.28c-.14.77-.81,1.19-.59,2-2.37-1.33-2.66,2,1.17.86.41.69,1.07-.12,1.13-.58-.19,2.13,1.17,4.34.3,6.41-.22.83-.67,2.17.29,2.75l-.31.27V28c-1.44,2.45-3.49,5.92-6.87,4.56C112.34,32.43,112.34,32.2,112.32,31.83Zm2.75-24.06c-.26,0-.14.26,0,.27S115.34,7.74,115.07,7.77Zm.12-.43V7h-.27Zm.19,10.08c0,.11-.09.57.12.53S115.61,17.14,115.38,17.42ZM115.93,8c0,.26.27.15.27,0S115.91,7.74,115.93,8Zm1.27-2.87c0-.06,0-.11,0-.13.41.12.31.54.27.86C117.14,5.79,117.17,5.48,117.2,5.17Zm.72,12.62c-.23,0-.12.27,0,.27S118.16,17.77,117.92,17.79Zm0-.58c0,.24.22.16.23,0S117.93,17,118,17.21Zm.47-2.15a.22.22,0,1,0,.43,0A.22.22,0,1,0,118.43,15.06Zm0,1.76a.22.22,0,1,0,.43,0C118.89,16.38,118.4,16.42,118.43,16.82Zm.23,1.13H119a.63.63,0,0,0-.35-.59Zm1-9.75c0,.38-.45.35-.43,0S119.75,7.76,119.71,8.2Z"/><path class="cls-1" d="M126.15,11.55c.66,0,1.32-.28,1.13-1.05-2.06,2-.81-6.49-1.13-6.9h.27V4.92c.63-.08,1.27.39,1.25-.58h1c.06-.51.76-.68,1.13-.74v14c.67,1.33.5,5.61-1.71,4,.22,1-1.63.62-2,.31Zm.93,11.23a10.53,10.53,0,0,1,2.77.32c-.28,1.15.94,2.57.45,3.56-.24.28-.75,1.48-.13,1.58l-.32.28c-.14,1.07.56,4.26-.72,4.38-.53-.16-1-.36-1.54.22v-.2c-.79,0-.65.26-1.44.24V23.1C126.18,22.68,126.81,22.75,127.08,22.78Zm-.66-16.3c-.24,0-.27.62,0,.59S126.72,6.44,126.42,6.48Zm0,24.06c-.24,0-.27.63,0,.59S126.72,30.5,126.42,30.54Zm.31-22.93-.31.59a1.4,1.4,0,0,0,.31-.28Zm-.07-2.18c.07.41.38,1.47.93,1.32l.27-.27A1.29,1.29,0,0,0,126.66,5.43ZM127,7.92c-.26,0-.26.59,0,.55S127.27,7.89,127,7.92Zm.27,3.44c-.26,0-.26.58,0,.54S127.59,11.32,127.28,11.36Zm.58,3.7q0-.12-.15-.12C127.35,15,127.81,15.46,127.86,15.06Zm.28-11.46c.3-.05.33.62,0,.58S127.89,3.55,128.14,3.6Zm0,4.87c-.25,0-.28.62,0,.59S128.44,8.43,128.14,8.47Zm.31,6.32v.86l.27-.28C128.86,15.16,128.6,14.92,128.45,14.79Zm.27,4.29c-.24,0-.27.62,0,.58S129,19,128.72,19.08Zm0,.86c-.08,0-.11,0-.11.15C128.61,20.45,129.12,20,128.72,19.94Zm0-2.58v1.45C128.8,18.54,129.3,17.36,128.72,17.36Zm0,3.43v.28H129ZM129,4.45c-.25,0-.28.63,0,.59S129.29,4.41,129,4.45Zm0,9.21c-.27,0-.27.58,0,.54S129.31,13.62,129,13.66Zm0,2.84c-.25,0-.28.63,0,.59S129.29,16.46,129,16.5Zm.58-9.16c0-.08,0-.12-.16-.12C129.12,7.25,129.46,7.64,129.58,7.34Zm.86,4.56c.29,0,.33.63,0,.59S130.19,11.86,130.44,11.9Zm2.88,11.27c1.57-.5,2.63-.72,2.58,1.37h.39c-.48-2.26.39-1.65,2.07-1.72-.08-1.1-1.62-.21-2.19-.86l.27-.31v-2c-.31-.61-1.8-.17-1.71.55l.58-.27-.27.58h.55l-.28.27c.5.2.27.67.3,1.14s-2,.19-2.29.31l.28-.28s-.28-.06-.28,0a1.49,1.49,0,0,0-.58.28c-.19-1.57-3.57-5-1.76-5.89-1.33-2.59.86-3.24,0-5.31l-.58.32a1.06,1.06,0,0,0,0-1.45V4.41a1.6,1.6,0,0,1,.86.36L131,5c.22,1.23.7,3.43,1.72,4.29-1.23,1.68,1.32,4.12,3.16,3.94v.08l-2.58.31-.31-.31c0,1.09-.87,2.68.59,3.15.25.43-.66.48-.86.59,1.7.52-.59,2.68.7,3.16,1.18-.25-.06-2.82,1.6-2.61.49.82,1.51-1.09,2-1.41-.48-.45-1.33-1.82-.59-2.3V3.32h2.62c0-.24.24-.73.54-.7v.7h1.21c0,.6-.87,1.63,0,2-.45,0-.47,1.48,0,1.44a1,1,0,0,0-.31.32c0,.44.45.62.31,1.13-.61,1.28-.27,3.17-.31,4.56-1.15,1.47-2.44,1.45-2.18,3.67.75.06.65-.43.82-.9,1-.73,1.36.9,1.24,1.68h1.29c-.85.28-2.3,1.59-1.44,2.45l.27-.58v1.44h-.16c0,.48.61.4.59.86h-.31c.07.46-.48,1.83.19,2l-.31.31V31.4c-.4,0-.38,1-.39,1.13h-3.63A41.36,41.36,0,0,1,133.32,23.17Zm-1.44-7.25c-.24,0-.27.62,0,.58S132.13,15.88,131.88,15.92Zm.27-4.88c-.24,0-.27.63,0,.59S132.45,11,132.15,11Zm.32,8.31c-.3,0-.33.63,0,.59S132.71,19.31,132.47,19.35Zm0,3.16c.24,0,.27.62,0,.59S132.17,22.47,132.47,22.51ZM133.32,11h.28v.32h-.28Zm1,3.48h.19c0,.63-.36,1.64-1.21,1.4C133.72,15.67,134.37,15.06,134.34,14.52Zm-.74,6.55c-.25-.05-.28.62,0,.58S133.84,21,133.6,21.07Zm1.13-4.84c.14.4.15,1.3-.55,1.13A.88.88,0,0,1,134.73,16.23ZM136.44,18c-.33.12-.93.44-1,.86h1Zm-.54,7.13c-.21-.08-.21.4,0,.32S136.05,25.17,135.9,25.08Zm.27-9.43c.25-.05.28.62,0,.58S135.93,15.6,136.17,15.65Zm.59,17.47a.21.21,0,0,1-.32,0C136.31,33,136.85,33,136.76,33.12Zm.54-13.77a.92.92,0,0,0,.31.31h.28l.58-.58A1.15,1.15,0,0,1,137.3,19.35Zm1.17,13.77a1.27,1.27,0,0,1-.86,0C137.67,33,138.41,33,138.47,33.12Zm-.27-16a3.9,3.9,0,0,0,.86,1.13c.57-.28,0-.9-.31-1.13C138.75,17,138.3,17,138.2,17.09Zm.27-1.72c.14.09.17.22,0,.28S138.25,15.29,138.47,15.37Zm.28,7.45c-.27,0-.27.59,0,.55S139.06,22.78,138.75,22.82Zm.31-8.3v.27h-.31Zm.54,5.42c-.24-.05-.27.62,0,.58S139.9,19.89,139.6,19.94Zm0-5.74a.67.67,0,0,1,.67-.35.77.77,0,0,1-.35.67Zm.86,1.17c.41.07-.13.54-.12.12Q140.34,15.34,140.46,15.37Zm.31,9.17c.26,0,.26.58,0,.54S140.46,24.5,140.77,24.54Zm.86-11.19c-.06.4-.6-.13-.15-.12C141.6,13.23,141.66,13.27,141.63,13.35Zm0,6.86c-.06.41-.6-.13-.15-.12C141.6,20.09,141.66,20.13,141.63,20.21Z"/><path class="cls-1" d="M147.56,3.38a2.38,2.38,0,0,1,2.34-.06c.72-.08,1.9-.79,2.46,0h2.26c.06-.25.23-.73.58-.7v.7h2c.49-.76,1.56-.08,2.15,0,.16,0,.84-.28,1-.27s.27,0,.31,0a15.74,15.74,0,0,1-.58,4H146.9V3.44A2.85,2.85,0,0,0,147.56,3.38Zm1.4-.06c0,.35.47.39.43,0A.22.22,0,1,0,149,3.32Zm1.45,0c0,.35.46.39.43,0A.22.22,0,1,0,150.41,3.32Zm.58,0c0,.39.46.35.43,0A.22.22,0,1,0,151,3.32Zm.51,4.29a11.27,11.27,0,0,1,4,.28v9.2c.94.42-.77,2,.31,2.57l-.31.28v4.29c.17,0,1.09.2,1,.58h-1v8.31h-2.26c-.69-.94-2.21,1.21-2-1.13V7.89Zm.08-4.29c0,.37.41.37.39,0S151.55,3,151.58,3.32Zm.27,29.53a.22.22,0,1,0,.43,0C152.31,32.44,151.82,32.41,151.85,32.85Zm.58-10.3c0,.36.42.37.39,0S152.41,22.13,152.43,22.55Zm4.41-14.94c0,.39-.46.35-.43,0A.22.22,0,1,1,156.84,7.61Zm.27,5.74c0,.36-.41.36-.39,0S157.14,13,157.11,13.35Zm0,4c0,.37-.41.37-.39,0S157.14,17,157.11,17.36Zm0,2.89c0,.37-.41.36-.39,0S157.14,19.83,157.11,20.25Z"/><path class="cls-1" d="M167.25,23.37l.86-.86c-.25.11-.44-.07-.54-.27l.27-.28h-.7c.13-.86-.13-2.13.39-2.88h-.28c0-5.22-.36-10.52-.27-15.76a2.45,2.45,0,0,1,1.44-.27c-.94.05-.8,1-.78,1.72h.2l.58-1.17h.16c0,.68.58,1.58,1.25.85H171c.16-.22.28-.74.58-.85V7.34c-.24.19-.49.8,0,.86a51.47,51.47,0,0,0-.31,7.45c-.62.27-.76.27-.78.93,2.19.13.21,2.74,1.09,3.94-.32.2-.55-.34-.58-.58h-2.3a3.3,3.3,0,0,0,2.88,1.13c-.23.24-.49.79,0,.89v2c.32.08.34.58.35.82a4.67,4.67,0,0,0-1.52.63l.59.27c0,.26-.26,1.75.27,1.72v3.43c1.33.31-.12,1.45-.7,1.85-.43.3-2.48.14-3,.18a.63.63,0,0,1-.59.27Zm0-.86c.3,0,.33.62,0,.59S167,22.47,167.25,22.51Zm.32-10c-.3,0-.33.62,0,.58S167.81,12.44,167.57,12.49Zm0,2.3c-.3,0-.33.62,0,.58S167.81,14.74,167.57,14.79Zm.27,2.85c-.25-.05-.28.62,0,.58S168.09,17.59,167.84,17.64ZM169,15.92c-.28,0-.45,0-.55.31a1.32,1.32,0,0,0,.86-.31Zm-.27-2.57c-.25,0-.28.62,0,.58S168.94,13.3,168.7,13.35Zm0-.86q-.12,0-.12.15C168.58,13,169,12.61,168.7,12.49Zm0,5.73c-.08,0-.12,0-.12.16C168.6,18.68,169,18.34,168.7,18.22Zm0,2.57c-.08,0-.12,0-.12.16C168.58,21.28,169,20.91,168.7,20.79Zm.27-1.44q0-.12-.12-.12C168.43,19.22,168.9,19.76,169,19.35Zm0,4.88c-.25-.05-.28.62,0,.58S169.27,24.18,169,24.23Zm.31,2.3c-.07-.18-.49.18-.31.27S169.4,26.7,169.28,26.53Zm0-.86c-.3,0-.33.62,0,.58S169.53,25.63,169.28,25.67Zm.27-9.75c-.24,0-.27.62,0,.58S169.8,15.88,169.55,15.92Zm.28,2.3c.08-.17-.36-.14-.28,0S169.74,18.36,169.83,18.22Zm0-4.6c-.25,0-.28.62,0,.58S170.12,13.58,169.83,13.62Zm0,5.46c-.25,0-.28.62,0,.58S170.12,19,169.83,19.08Zm.31,7.45c.09-.17-.45-.15-.31,0S170.05,26.68,170.14,26.53Zm0-8c-.21-.08-.21.4,0,.32S170.3,18.58,170.14,18.49Zm.27-6c-.24-.05-.27.62,0,.58S170.66,12.44,170.41,12.49Zm.28,3.43c.29,0,.33.62,0,.58S170.44,15.88,170.69,15.92ZM171,14.2c-.3,0-.33.63,0,.59S171.24,14.16,171,14.2Zm0,4.29c-.3,0-.33.63,0,.59S171.24,18.45,171,18.49Zm.27,7.45c.3,0,.33.63,0,.59S171,25.9,171.27,25.94Zm.31.59v.27h-.31Zm.55-10c.3,0,.33.63,0,.59S171.88,16.46,172.13,16.5Zm0,9.75c.31,0,.31.59,0,.55S171.87,26.22,172.13,26.25Zm.31-12.9c-.07.39-.6-.12-.15-.12Q172.49,13.23,172.44,13.35ZM176.15,32c-.81-3.74-1.87-7.44-2.58-11.2h-1.13a1.79,1.79,0,0,0,.86-.58h-1.17c-.39-3.84.54-3.8,4-4.29-2-1.06,3.1-8.09-4-8.85V3.6A8,8,0,0,0,175,3.05v.43c5.66,0,2,3.29,3.71,2.92V5.9h.43a1.25,1.25,0,0,1-.7,1.17c2.42-.61,2,4.19,2.3,5.69l.54.59c-1.95.75-1,3.78-2.63,4.91s-1.75,2.21-.21,3.39c-.24.1-.43.27-.2.57,1.42,2,.59,5.12,2.22,7-.69,1.21.12,1.63,1.14,2.18-1.37-.28-.74,1.78-2,1.76a.66.66,0,0,0-.36-.63C179.1,33.59,175.09,33.41,176.15,32ZM172.44,8.2c.25,0,.28.62,0,.58S172.14,8.15,172.44,8.2Zm0,9.44c-.3-.05-.33.62,0,.58S172.69,17.59,172.44,17.64Zm2.85,5.73c-.25-.05-.28.62,0,.58S175.53,23.32,175.29,23.37Zm.27.58c-.08,0-.12,0-.12.16C175.45,24.47,176,24,175.56,24Zm.31-5.73c-.3,0-.33.62,0,.59S176.12,18.18,175.87,18.22Zm0,5.15a1.42,1.42,0,0,0,.28.58.57.57,0,0,0,.58-.27C176.62,23.27,176.19,23.39,175.87,23.37Zm.28,2.88c-.27,0-.26.59,0,.55S176.41,26.22,176.15,26.25Zm.27-.85c-.26,0-.26.58,0,.54S176.73,25.36,176.42,25.4Zm.31-13.19c-.1,0-.15,0-.15.16C176.6,12.67,177.05,12.36,176.73,12.21Zm1-5.18s-.13,0-.12,0a.31.31,0,0,0-.31.27h.31l.27-.27S177.81,7,177.71,7Zm-.12,8.62c-.3-.05-.33.62,0,.58S177.84,15.6,177.59,15.65Zm.27,8c-.26,0-.26.58,0,.55S178.12,23.64,177.86,23.68Zm.27-6c-.24-.05-.27.62,0,.58S178.43,17.59,178.13,17.64Zm1.45-6.87c-.79.07-.84,1.1-1.45,1.44C179,12.37,179.46,11.43,179.58,10.77Zm-1.45,5.15v.31l.32-.31Zm.32.31c-.32,0-.32.58,0,.55S178.71,16.19,178.45,16.23Zm0,16.3c-.3,0-.33.63,0,.59S178.69,32.49,178.45,32.53Zm.27-17.47c-.25,0-.28.62,0,.59S179,15,178.72,15.06ZM179,4.45c.25,0,.28.63,0,.59S178.73,4.41,179,4.45Zm.27,11.2c-.24-.05-.27.62,0,.58S179.55,15.6,179.3,15.65Zm0,8.58c.25-.05.28.62,0,.58S179.06,24.18,179.3,24.23ZM181,27.11c.26,0,.26.59,0,.55S180.76,27.07,181,27.11Zm.59-17.78c0,.19-.56.22-.59,0S181.63,9.17,181.61,9.33Z"/><path class="cls-1" d="M189.52,4.45c.8-.85,2.22.07,3-.85.25-.68.06-1,1.13-.94V6.48c-3.82,3.74-1.42,10.5-1.95,15.35a5,5,0,0,0,.74,2.77c.25.49-.63.92-.78,1.34,1.56,3.88,2.31,2,2,7.18-3.47-1.06-6-3.3-6-7.18.62-1.9-1.57-20.4,1.52-20A2.3,2.3,0,0,1,189.52,4.45Zm.32,1c0,.16-.12.78.11.74S190.06,5,189.84,5.43Zm1.4,9.51c0,.2.27.13.27,0S191.21,14.7,191.24,14.94Zm.23,9.87c0,.37.42.37.39,0S191.44,24.45,191.47,24.81Zm1,1.44c0,.39-.46.35-.43,0S192.48,25.82,192.45,26.25Zm.19-16.45c-.14.4-.48-.26-.11-.16A.16.16,0,0,1,192.64,9.8ZM193,19.94a.22.22,0,1,1-.43,0C192.57,19.55,193.06,19.59,193,19.94Zm.28-.55a.22.22,0,1,1-.43,0C192.85,19,193.34,19,193.31,19.39Zm0,4.88a.22.22,0,1,1-.43,0C192.85,23.86,193.34,23.83,193.31,24.27Zm.91,7.56c-.38-2.26.95-3,2.32-4.19.9-.64.24-12.59.43-13.71.54-.1.4-.56.12-.86-.3-1.85.24-6.25-2.58-6l.32-.28-.59-.85V2.74c1.27-.06,1.95-.15,1.72,1.44.47-.15.21-1.53.86-1.13a2.54,2.54,0,0,1,.27.86l.31-.59,1.72.28c-.14.77-.81,1.19-.59,2-2.37-1.33-2.66,2,1.17.86.41.69,1.07-.12,1.13-.58-.19,2.13,1.17,4.34.3,6.41-.23.83-.67,2.17.29,2.75l-.31.27V28c-1.44,2.45-3.49,5.92-6.87,4.56C194.24,32.43,194.24,32.2,194.22,31.83ZM197,7.77c-.26,0-.14.26,0,.27S197.24,7.74,197,7.77Zm.12-.43V7h-.27Zm.19,10.08c0,.11-.09.57.12.53S197.5,17.14,197.28,17.42ZM197.83,8c0,.26.26.15.27,0S197.81,7.74,197.83,8Zm1.27-2.87c0-.06,0-.11,0-.13.4.12.31.54.27.86C199,5.79,199.06,5.48,199.1,5.17Zm.72,12.62c-.23,0-.12.27,0,.27S200.06,17.77,199.82,17.79Zm0-.58c0,.24.22.16.23,0S199.83,17,199.86,17.21Zm.47-2.15a.22.22,0,1,0,.43,0A.22.22,0,1,0,200.33,15.06Zm0,1.76a.22.22,0,1,0,.43,0C200.79,16.38,200.3,16.42,200.33,16.82Zm.23,1.13h.35a.64.64,0,0,0-.35-.59Zm1.05-9.75c0,.38-.45.35-.43,0S201.65,7.76,201.61,8.2Z"/><path class="cls-1" d="M208.17,26.8c.29-.57-.8-7.46.85-6.59-1.08-.92-1.35-1-1.13-2.57.11-.25.49-.75,0-.86.15-.57.49-.15.86-.2V15.1c-.26-.11-.63.13-.86.23.61-1.06,1.46-2.17.33-3.25-.44-2,1.16-.45,2-.45l-.58-.86h.7c.15-1.69-1.93-1.16-1.76-2.88h-.42A5.9,5.9,0,0,1,209,5.31c-.68-.27.42-1.26-.27-1.71h1.52a.62.62,0,0,1-.39.58,1,1,0,0,0,1.17-.86,1.35,1.35,0,0,1,1.09,1.45h-.82v.54h.32c0,.51,0,1.48-.59,1.72.51-.76-.64-.82-1.09-.78-.05.5-.17.68.23,1.09a1.34,1.34,0,0,0-1.17.27c.24.57,1,1.63,1.72.86,0,0,.06.27,0,.27a2.11,2.11,0,0,1-.27.59,2.51,2.51,0,0,0,0,.27h.23l.58,1.17.59-.27c.1,2.09.12,5.68-1.17,7.45h.9c-1.09,1.46,1.66,2.9,0,4.29l.27.27c0,.74-.11,4.91.31,5.46h-4.41c0-.31.45-.74.67-.86Zm0,6.44c-.6-.08,0-.35.25-.2S208.32,33.25,208.17,33.24Zm.11-29.92c0,.18,0,1.12-.39,1.13V3.32Zm-.39,10c.18.13.4.34.28.58A.61.61,0,0,1,207.89,13.35Zm.28,15.48a12.29,12.29,0,0,1,4.32-.31l.28.31c.13-.44,1-.46,1.13,0,1.41-.72,5-.4,6,1.13-.75.59-.53,1.94-.87,2.75-.06.83-4.13.24-4.59.41-.58-.76-.89.1-1.71,0-1.15,0-2.41-.82-3.43,0h.27c-.24-.72-1-.44-1.5-.63s-.12-3.63-.22-4Zm.27-23.56c-.14.16-.49,0-.22-.19S208.61,5.11,208.44,5.27Zm-.12,13.11c-.27,0-.14.28,0,.27S208.59,18.35,208.32,18.38Zm.27-7.88c-.07.61-.4,0-.23-.26S208.61,10.32,208.59,10.5Zm-.11,10.88.27-.31-.27-.28Zm.07,5.15c0,.36.42.36.39,0S208.53,26.16,208.55,26.53Zm.08-3.86c0,.24.23.1.24,0S208.61,22.41,208.63,22.67Zm.24-12.91c-.06,0-.09,0-.12-.16C208.79,9.26,209.26,9.69,208.87,9.76Zm.23-2.69a.22.22,0,1,0,.43,0C209.56,6.63,209.07,6.67,209.1,7.07Zm.39,7.13a2.26,2.26,0,0,0-.19.94c.73,0,1.36-1.8.39-1.87A2.18,2.18,0,0,1,209.49,14.2Zm0,4.76c-.1,0-.14,0-.11.12C209.42,19.4,209.84,19,209.45,19Zm-.11-3,.27-.27h-.27Zm.27,2,.58-.31h-.58Zm.08-5.46c0,.38.45.35.42,0S209.65,12.11,209.69,12.49Zm.25,8.34c-.28.21.07.36.21.2S210.15,20.61,209.94,20.83Zm.17-15.48a.38.38,0,0,0-.23.27,1.21,1.21,0,0,0,.86-.31A2.6,2.6,0,0,0,210.11,5.35Zm.28,2.57c0,.39-.46.35-.43,0S210.42,7.49,210.39,7.92ZM210,15.37c0,.35.46.39.43,0S209.93,15,210,15.37Zm.31.86c0,.37.42.37.39,0S210.24,15.81,210.27,16.23Zm.08-4.17c0,.27.28.14.27,0S210.32,11.79,210.35,12.06Zm0,14.9c0,.27.28.14.27,0S210.32,26.68,210.35,27Zm.19-15.6a.22.22,0,1,0,.43,0C211,11,210.51,10.92,210.54,11.36Zm0,14.89c0,.39.46.35.43,0S210.51,25.82,210.54,26.25Zm.35-21.91c0,.19.28.13.28,0S210.87,4.09,210.89,4.34Zm.16,23.05h.27v-.28h-.27Zm.51-18.61c0,.35-.46.39-.43,0S211.59,8.38,211.56,8.78Zm-.43,6.28a.22.22,0,1,0,.43,0A.22.22,0,1,0,211.13,15.06Zm.1-3.33c0,.17-.12.73.09.76S211.46,11.3,211.23,11.73Zm.6-2.69.08,0a1.93,1.93,0,0,0-.59.85C211.31,9.57,211.29,8.9,211.83,9Zm.27-.57c0,.37-.41.37-.39,0S212.13,8.1,212.1,8.47Zm0,7.76c0,.37-.41.37-.39,0S212.13,15.81,212.1,16.23ZM212,6.64c-.1,1.05-.52-.35-.12-.47A.66.66,0,0,1,212,6.64Zm.39,3.27c0,.35-.47.39-.43,0S212.44,9.51,212.42,9.91Zm.07,16.62h-.31v-.28Zm.12-21.92s0,.1-.12.16C212.11,4.79,212.51,4.14,212.61,4.61Zm0,18.06s0,.09-.12.11C212.11,22.88,212.51,22.19,212.61,22.67Zm.51,10.18a.22.22,0,1,0,.43,0C213.58,32.41,213.09,32.44,213.12,32.85ZM215.34,29c-.48,0-.25.28,0,.28S215.82,29,215.34,29Zm-.19,3.87c0,.36.41.36.39,0S215.12,32.43,215.15,32.85Zm1.4,0a.22.22,0,1,0,.43,0C217,32.41,216.52,32.44,216.55,32.85Zm1.17,0a.22.22,0,1,0,.43,0C218.18,32.44,217.69,32.41,217.72,32.85Zm2.34-1.56c-.14.4-.48-.26-.12-.16A.16.16,0,0,1,220.06,31.29Zm.74-3.05h-.58a.57.57,0,0,1,.58-.35Z"/><path d="M252.93,35.39c-23.07-.1-23-35.66.42-35.39C276.27.23,276.07,35.57,252.93,35.39Zm.08-1.23c21.41-.55,21.73-32,.25-32.93C231.69,1.54,231.33,33.44,253,34.16Z"/><path class="cls-2" d="M253,34.16c-21.69-.73-21.32-32.62.25-32.93C274.74,2.14,274.42,33.61,253,34.16Zm-8.89-6.69c-8.77-9.85-1.25-24.13,12-22.63C243.53-1.28,232,20.22,244.12,27.47Zm9.32-17.55-1,0v7l-7.2.35v.85l7,.32.33,7,1,0v-7l7.21-.34,0-1h-7.37Zm8.74,17.68c7.14-5,6.66-17-1.32-20.83C267.1,13.39,267.62,20.24,262.18,27.6Z"/><path d="M244.12,27.47c-12.11-7.26-.58-28.75,12-22.63C242.86,3.34,235.36,17.62,244.12,27.47Z"/><path d="M253.44,9.92v7.14h7.37l0,1-7.21.34v7l-1,0-.33-7-7-.32v-.85l7.2-.35V10Z"/><path d="M262.18,27.6c5.44-7.36,4.92-14.21-1.32-20.83C268.84,10.56,269.32,22.65,262.18,27.6Z"/></g></g></svg>