<svg xmlns="http://www.w3.org/2000/svg" viewBox="0 0 293.57 51.43"><defs><style>.cls-1{fill:#fff;}.cls-2{fill:#1d1d1b;}</style></defs><g id="Capa_2" data-name="Capa 2"><g id="Capa_5" data-name="Capa 5"><path d="M268.16,51.43c-33.53-.14-33.43-51.83.6-51.43C302.08.34,301.79,51.69,268.16,51.43Zm.11-1.79c31.12-.8,31.58-46.53.37-47.85C237.29,2.24,236.76,48.59,268.27,49.64Z"/><path class="cls-1" d="M268.27,49.64c-31.51-1-31-47.4.37-47.85C299.86,3.11,299.39,48.85,268.27,49.64Zm-12.91-9.71C242.61,25.6,253.54,4.85,272.8,7,254.5-1.86,237.77,29.39,255.36,39.93Zm13.55-25.51-1.41,0V24.61l-10.45.51v1.23l10.21.46L267.75,37l1.42,0V26.8l10.49-.5-.06-1.51H268.91Zm12.69,25.7c10.37-7.2,9.68-24.77-1.92-30.28C288.75,19.46,289.5,29.41,281.6,40.12Z"/><path d="M255.36,39.93C237.76,29.38,254.51-1.86,272.8,7,253.53,4.85,242.62,25.61,255.36,39.93Z"/><path d="M268.91,14.42V24.79H279.6l.06,1.51-10.49.5V37l-1.42,0-.48-10.22-10.21-.46V25.12l10.45-.51V14.45Z"/><path d="M281.6,40.12c7.9-10.71,7.15-20.66-1.92-30.28C291.28,15.35,292,32.91,281.6,40.12Z"/><path class="cls-2" d="M2.05,2.35c.8-.85,2.22.07,3-.85.25-.68.06-1,1.13-.94V4.38C2.37,8.12,4.77,14.88,4.24,19.73A5,5,0,0,0,5,22.5c.25.49-.63.92-.78,1.34,1.56,3.88,2.31,2.05,2,7.18-3.47-1.06-6-3.29-6-7.18.62-1.9-1.57-20.39,1.52-20A2.3,2.3,0,0,1,2.05,2.35Zm.31,1c0,.16-.11.78.12.74S2.59,2.85,2.36,3.33Zm1.41,9.51c0,.2.27.14.27,0S3.74,12.6,3.77,12.84ZM4,22.71c0,.37.42.37.39,0S4,22.35,4,22.71Zm1,1.45a.22.22,0,1,1-.43,0C4.52,23.75,5,23.72,5,24.16ZM5.17,7.7c-.14.4-.48-.26-.11-.16A.16.16,0,0,1,5.17,7.7Zm.39,10.14a.22.22,0,1,1-.43,0C5.1,17.45,5.59,17.49,5.56,17.84Zm.28-.55a.22.22,0,1,1-.43,0C5.38,16.89,5.87,16.85,5.84,17.29Zm0,4.88a.22.22,0,1,1-.43,0C5.38,21.77,5.87,21.73,5.84,22.17Zm.91,7.56c-.38-2.26,1-3,2.32-4.19.9-.64.24-12.59.43-13.71.54-.1.4-.56.12-.86-.3-1.85.24-6.25-2.58-6l.32-.27L6.77,3.8V.64C8,.58,8.72.49,8.49,2.08,9,1.93,8.7.55,9.35,1a2.54,2.54,0,0,1,.27.86l.31-.59,1.72.28c-.14.77-.81,1.19-.59,2-2.37-1.33-2.66,2,1.17.86.41.69,1.07-.12,1.13-.58-.19,2.13,1.17,4.34.29,6.41C13.43,11,13,12.38,14,13l-.31.27V25.87c-1.44,2.45-3.49,5.92-6.87,4.56C6.77,30.33,6.76,30.1,6.75,29.73ZM9.5,5.67c-.26,0-.15.26,0,.27S9.77,5.64,9.5,5.67Zm.12-.43V4.93H9.35Zm.19,10.08c0,.11-.1.57.12.53S10,15,9.81,15.32Zm.55-9.38c0,.26.26.15.27,0S10.34,5.64,10.36,5.94Zm1.27-2.86c0-.07,0-.12,0-.14.4.12.31.54.27.86C11.57,3.69,11.59,3.38,11.63,3.08Zm.72,12.61c-.23,0-.12.27,0,.27S12.59,15.67,12.35,15.69Zm0-.58c0,.24.22.16.23,0S12.36,14.85,12.39,15.11ZM12.86,13c0,.35.46.38.42,0S12.83,12.61,12.86,13Zm0,1.76c0,.35.46.38.42,0S12.83,14.32,12.86,14.72Zm.23,1.13h.35a.64.64,0,0,0-.35-.59ZM14.14,6.1a.22.22,0,1,1-.43,0C13.69,5.7,14.18,5.66,14.14,6.1Z"/><path class="cls-2" d="M20.38,1.36A3.19,3.19,0,0,0,22.33,1v.43h1.76c.06.5-.42,1.1-.35,1.6a1.31,1.31,0,0,1,.85-.31,14.46,14.46,0,0,0-.27,1.71l.59.59V9c.31.21.71.78.54,1.14a3.1,3.1,0,0,0,0,2.3c.33-.87,1.68,0,2-.86C28.23,8,28.54,4.78,29.2,1.22,31,1.28,33,.63,33.56,3H33c.19,1.64.12,3.54,1.64,4.4h-.86c1.14,1.46-.28,4.28,2,4.72-.43.12-1.25.25-1.17.86,0,.08.53.26.58.31A11.38,11.38,0,0,1,34.93,15c.75.23-.26,1.62.86,1.44.47-.11.21-2,.27-2.3,1-.2-.38-1.79.59-2L38.09,1.22c.91.33,1.26-.34,2.14-.31s1.29.73,1.84-.23c0,.41-.2,1.51.31,1.71v.28a.92.92,0,0,1-.31.31,4.71,4.71,0,0,1-1.13,4.29,1.22,1.22,0,0,0,.13.27c.5.55-.32,1.08-.45,1.56.12.44.19,1.32.59,1.6.16.28-.41.92-.55,1.13l.28.27c-1.38,1.18-.71,3.8-1.14,5.46h.35C39,20.31,39.44,23.22,38.36,26c.65,1.65-.2,2.93-.86,4.44-.25-.1-.78,0-.85.32l.27.27c-3.2.17-2.8.07-3.38-3.08-.71-1.73-.6-9.59-2.35-8.82.1-.29.68-.93.58-1.28,0,0-.57-.53-.58-.55V17s.27-.53.31-.55v-.31a4.29,4.29,0,0,0-.59-.54c-2,1.91-.8,5.22-1.87,7.56-.16.42-.15.53.16.7a23.25,23.25,0,0,1-1.45,6.05c-.15-.64.32-.9.32-1.45C26.4,25.1,26.65,20.64,26.62,17c-2.56-.5,1.27,10.9.63,13.3-.35,0-1.54,0-1.49.58h1.45L24.05,31C23.53,21.1,20.89,11.26,20,1.34Zm2.23.72V1.81h-.28Zm-.2,10.61c0,.36.42.37.39,0S22.38,12.32,22.41,12.69Zm.31-11.58c-.38-.14.21-.47.16-.16C22.85,1.05,22.8,1.11,22.72,1.11Zm.82,23.63a.22.22,0,1,0,.43,0C24,24.34,23.51,24.3,23.54,24.74ZM23.81,9c0,.35.47.39.43,0S23.79,8.58,23.81,9Zm.59,21.77a.22.22,0,1,0,.43,0C24.86,30.35,24.36,30.31,24.4,30.75Zm1-17.87c-.31-.17-.75.16-.21.24C25.3,13.14,25.58,13,25.39,12.88ZM25,27.9c0,.37.42.36.39,0S25,27.48,25,27.9Zm0,2.85c0,.36.42.36.39,0S25,30.33,25,30.75Zm.74-22.51c-.6-.08,0-.4.26-.23S25.9,8.26,25.72,8.24Zm-.19,15.92a.22.22,0,1,0,.43,0C26,23.72,25.5,23.75,25.53,24.16Zm.23-8.31c1.47,1.11,1.59-2.57,1.56-3.43H26.15c0,.17,0,1.12-.39,1.13Zm.71,12.75c-.26,0-.09.27,0,.27S26.74,28.57,26.47,28.6Zm.35-14.47c0,.37-.42.37-.39,0S26.84,13.71,26.82,14.13Zm1-1.13a.22.22,0,1,0,.43,0C28.29,12.56,27.8,12.6,27.83,13Zm2.5-4v-.7a.56.56,0,0,0-.55.35A.51.51,0,0,0,30.33,9Zm-.08,11.43c0,.37-.42.37-.39,0S30.28,20,30.25,20.45Zm-.08-7.61c-.22,0-.09.29,0,.28S30.44,12.81,30.17,12.84Zm0,2.15a.22.22,0,1,0,.43,0A.22.22,0,1,0,30.13,15Zm.35-9c0,.19.28.13.28,0S30.46,5.74,30.48,6Zm.28,8c-.2,0-.13.27,0,.27S31,14,30.76,14Zm.15-9.6s-.29.22-.27.31h.27c0-.05.29-.21.28-.31ZM31,13a.22.22,0,1,0,.43,0C31.45,12.6,31,12.57,31,13Zm.58,5.73c0,.37.42.37.4,0S31.55,18.32,31.57,18.73ZM33.29,13c0,.37.42.37.39,0S33.26,12.58,33.29,13Zm0,12c0,.37.42.37.39,0S33.26,24.6,33.29,25Zm.47-.85v-.32h-.27Zm-.2,1.71a.22.22,0,1,0,.43,0A.22.22,0,1,0,33.56,25.87Zm.36,2.42c0,.23.26.18.27,0S33.89,28.05,33.92,28.29Zm.23-1.83c0,.36.42.36.39,0S34.12,26,34.15,26.46Zm0,2.3c0,.36.42.36.39,0S34.12,28.34,34.15,28.76Zm.31-23.64c-.13.37-.4-.17-.12-.15A.14.14,0,0,1,34.46,5.12Zm1.17,12c-.26,0-.15.28,0,.28S35.87,17.11,35.63,17.13Zm0,1.17c0,.2.28.13.27,0S35.61,18.06,35.63,18.3ZM37,13a.22.22,0,1,0,.43,0C37.46,12.56,37,12.6,37,13Zm.31-3.74c0,.36.42.36.39,0S37.28,8.89,37.31,9.26Zm.27,15.17a.22.22,0,1,0,.43,0A.22.22,0,1,0,37.58,24.43Zm.51,3.43h.27v-.55h-.27Zm.43-11.31c0,.26.26.15.27,0S38.49,16.29,38.52,16.55Zm.11-7.29H39L38.63,9Zm.78,16.07c0,.36-.41.36-.39,0S39.44,24.91,39.41,25.33ZM39.3,12.42a.22.22,0,1,0,.43,0C39.75,12,39.26,12,39.3,12.42Zm.62-11.31c-.25,0-.08.27,0,.27S40.19,1.08,39.92,1.11ZM40.08,9V8.67H39.8Zm1.21-4.29c0,.35.46.39.43,0S41.26,4.29,41.29,4.69Z"/><path class="cls-2" d="M49.2,9.45c.67,0,1.32-.28,1.13-1-2.06,2-.81-6.49-1.13-6.9h.28V2.82c.62-.08,1.26.39,1.24-.58h1.06c0-.51.76-.68,1.13-.74v14c.67,1.33.49,5.61-1.72,4,.22,1-1.63.63-2,.32Zm.94,11.23a10.53,10.53,0,0,1,2.77.32c-.29,1.15.93,2.57.45,3.56-.25.28-.76,1.48-.14,1.58l-.31.28c-.14,1.07.56,4.26-.72,4.38-.54-.16-1-.36-1.54.22v-.2c-.8,0-.65.26-1.45.24V21C49.23,20.58,49.87,20.65,50.14,20.68Zm-.66-16.3c-.25,0-.28.62,0,.59S49.77,4.34,49.48,4.38Zm0,24.06c-.25,0-.28.63,0,.59S49.77,28.4,49.48,28.44Zm.31-22.93-.31.59a2,2,0,0,0,.31-.27Zm-.08-2.18c.08.41.39,1.47.94,1.33l.27-.28A1.3,1.3,0,0,0,49.71,3.33Zm.35,2.5c-.26,0-.26.58,0,.54S50.32,5.79,50.06,5.83Zm.27,3.43c-.26,0-.26.58,0,.54S50.65,9.22,50.33,9.26Zm.59,3.7c0-.08,0-.12-.16-.12C50.41,12.85,50.86,13.36,50.92,13ZM51.19,1.5c.3-.05.33.62,0,.58S51,1.45,51.19,1.5Zm0,4.87c-.24,0-.27.62,0,.59S51.49,6.33,51.19,6.37Zm.31,6.32v.86l.28-.28C51.91,13.06,51.66,12.82,51.5,12.69ZM51.78,17c-.25-.05-.28.62,0,.58S52,16.93,51.78,17Zm0,.86q-.12,0-.12.15C51.67,18.35,52.17,17.9,51.78,17.84Zm0-2.58v1.45C51.86,16.44,52.36,15.26,51.78,15.26Zm0,3.43V19h.27Zm.27-16.34c-.25,0-.28.63,0,.59S52.35,2.31,52.05,2.35Zm0,9.21c-.26,0-.26.58,0,.54S52.36,11.52,52.05,11.56Zm0,2.85c-.25-.05-.28.62,0,.58S52.35,14.36,52.05,14.41Zm.58-9.17q0-.12-.15-.12C52.17,5.15,52.51,5.54,52.63,5.24Zm.86,4.56c.3,0,.33.63,0,.59S53.25,9.76,53.49,9.8Zm2.89,11.27c1.47-.53,2.7-.61,2.57,1.37h.39c-.47-2.26.39-1.64,2.07-1.72-.07-1.1-1.61-.21-2.18-.85l.27-.32v-2c-.32-.61-1.81-.17-1.72.55l.59-.27-.28.58h.55l-.27.27c.5.2.26.67.29,1.14s-2,.19-2.28.31l.27-.27c0-.05-.27-.07-.27,0a1.51,1.51,0,0,0-.59.27c-.19-1.57-3.56-5-1.75-5.89-1.34-2.59.85-3.24,0-5.31l-.59.32a1,1,0,0,0,0-1.45V2.31a1.61,1.61,0,0,1,.86.36l-.27.27c.22,1.23.7,3.43,1.71,4.29-1.22,1.69,1.32,4.12,3.16,3.94v.08l-2.57.31-.31-.31c0,1.09-.88,2.68.58,3.16.25.42-.65.47-.86.58,1.71.52-.59,2.68.71,3.16,1.17-.24-.07-2.82,1.59-2.61.49.82,1.51-1.09,2-1.41-.47-.45-1.33-1.82-.58-2.3V1.22h2.61c0-.24.24-.72.55-.7v.7h1.21c0,.6-.87,1.63,0,2-.46,0-.47,1.48,0,1.45a.77.77,0,0,0-.31.31c0,.44.45.62.31,1.13-.62,1.28-.27,3.17-.31,4.56-1.16,1.47-2.45,1.45-2.19,3.67.75.06.65-.43.82-.9,1-.73,1.37.9,1.25,1.68h1.29c-.86.28-2.3,1.59-1.45,2.45l.28-.58v1.44h-.16c0,.48.6.4.59.86h-.32c.07.46-.48,1.83.2,2l-.31.31V29.3c-.4,0-.39,1-.39,1.13H59.5A40.87,40.87,0,0,1,56.38,21.07Zm-1.44-7.25c-.25,0-.28.62,0,.59S55.18,13.78,54.94,13.82Zm.27-4.88c-.25,0-.28.63,0,.59S55.51,8.9,55.21,8.94Zm.31,8.31c-.3,0-.33.63,0,.59S55.77,17.21,55.52,17.25Zm0,3.16c.25,0,.28.62,0,.59S55.22,20.37,55.52,20.41Zm.86-11.47h.27v.32h-.27Zm1,3.48h.2c0,.63-.36,1.64-1.21,1.4C56.78,13.57,57.43,13,57.39,12.42ZM56.65,19c-.24,0-.27.62,0,.58S56.9,18.92,56.65,19Zm1.13-4.84c.15.4.16,1.3-.54,1.13A.88.88,0,0,1,57.78,14.13Zm1.72,1.72c-.34.12-.94.44-1,.86h1ZM59,23c-.21-.08-.21.4,0,.32S59.11,23.07,59,23Zm.28-9.43c.24-.05.27.62,0,.58S59,13.5,59.23,13.55ZM59.81,31a.2.2,0,0,1-.31,0C59.36,30.87,59.9,30.85,59.81,31Zm.55-13.77a.84.84,0,0,0,.31.31h.27l.59-.58A1.15,1.15,0,0,1,60.36,17.25ZM61.53,31a1.27,1.27,0,0,1-.86,0C60.73,30.85,61.46,30.85,61.53,31Zm-.28-16a4.08,4.08,0,0,0,.86,1.13c.58-.28,0-.9-.31-1.13C61.8,14.89,61.35,14.89,61.25,15Zm.28-1.72c.14.09.17.22,0,.28S61.3,13.19,61.53,13.27Zm.27,7.45c-.26,0-.26.59,0,.55S62.11,20.69,61.8,20.72Zm.31-8.3v.27H61.8Zm.55,5.42c-.25-.05-.28.62,0,.58S63,17.79,62.66,17.84Zm0-5.74a.64.64,0,0,1,.66-.35.77.77,0,0,1-.35.67Zm.86,1.17c.4.07-.14.54-.12.12Q63.4,13.24,63.52,13.27Zm.31,9.17c.26,0,.26.58,0,.54S63.51,22.4,63.83,22.44Zm.86-11.19c-.07.4-.6-.13-.16-.12C64.66,11.13,64.71,11.17,64.69,11.25Zm0,6.86c-.07.41-.6-.13-.16-.12C64.66,18,64.71,18,64.69,18.11Z"/><path class="cls-2" d="M88,26.42c-3.84,2.06-1.49-10.26-2.23-12.54C85.46,8.72,85,.94,92,.83V4.66c-.89.78-1.93,1.39-2,2.77-.19.88-.52,1.81.31,2.38.21.41-.33.44-.27.86.74,1-.24,2.2-.24,3.32.3.35.45-.25.51-.47a.92.92,0,0,1-.55,1.18c1.59,1.69-1.13,4.2.55,6-1.7,4,2.51,6.19,1.72,10-.22.56-1,.2-1.41,0-1.49,1-3.55-1.95-3.51-3.36h1.21Zm-1.25.89c0,.37-.42.37-.39,0S86.75,26.9,86.72,27.31Zm.94.86.58-.31h-.58Zm1-1.6c-.26,0-.15.28,0,.28S88.91,26.55,88.67,26.57Zm.78-3.27a.22.22,0,1,0,.43,0C89.91,22.86,89.42,22.9,89.45,23.3Zm.66,4.17c-.24,0-.16.22,0,.23S90.37,27.45,90.11,27.47Zm.35-18.76c0,.35-.46.38-.42,0S90.49,8.31,90.46,8.71Zm.28,3.43c0,.39-.46.35-.43,0S90.77,11.71,90.74,12.14Zm.15,14.59a.22.22,0,1,0,.43,0A.22.22,0,1,0,90.89,26.73Zm.28-24.61a.22.22,0,1,0,.43,0C91.63,1.68,91.14,1.72,91.17,2.12Zm4,7.08C94.36,1.77,92,8.32,92.53.83c1.65,0,3.16,1,4.8,1,.06,1.09,1,2.56,2.14,2.65a.29.29,0,0,1-.07.2c-.85.57.6.82-.28,1.4-.09.54.73.67,0,1.17v3.31a5.58,5.58,0,0,0-2.3.43c-.62,0-.68-.64-1.4-.31A9.87,9.87,0,0,1,95.18,9.2ZM93.84,27.45c.12.35.53-.16.72-.14a.64.64,0,0,1,.27-.07v.35c-.09.13-1.58.58-1.13.85s.78.21,1.13,0c.49.08.46,1.32,0,1.45.67.07,1-.46,1.72-.31a4.64,4.64,0,0,1-1.44,1.17l.31.27c-.33,0-.66,0-.86-.27-.46.24-1.71.54-2,0V27.59C92.68,27.46,93.69,27.13,93.84,27.45Zm.8-25.33c0,.37.41.37.39,0S94.61,1.7,94.64,2.12ZM95.11.05V.37h-.28V.05Zm.23,24.11a.22.22,0,1,1-.43,0C94.88,23.72,95.37,23.75,95.34,24.16Zm2.09,2.57a6.88,6.88,0,0,1-1.74-.86c.11-.52.6-.07.86,0,.6.07,1.18.12,1.44-.58a1.21,1.21,0,0,0-.86.31v-.31h-.46A1.21,1.21,0,0,0,96,24.16l.86-.59H96c.13-.21.79-.54.51-.82-.27-.1-1.08.2-1.36.23V20.72h1.71c-.95.59.76,1.66,1.37,1.56.12.77-.65.65-.67,1.29h1.72c-.07.72.21,1.35-.66,1.36-.19.77.66,1.73,0,2.38L98.26,27c.1.61-.41.68-.85.59l.58-.86A1.06,1.06,0,0,1,97.43,26.73ZM95.61,25a.12.12,0,0,0,.08,0l-.27.28a.42.42,0,0,1-.31,0C95.22,25.18,95.43,24.9,95.61,25Zm-.06,2.75a.34.34,0,0,1-.44.12l.58-.27S95.62,27.67,95.55,27.74Zm.14-5.3v-.59l-.27.28Zm.51-11.15a.22.22,0,1,1-.43,0C95.73,10.85,96.23,10.88,96.2,11.29ZM95.77,21a.22.22,0,1,0,.43,0C96.23,20.65,95.74,20.61,95.77,21Zm.35,7.87c0,.15-.3.28-.27,0S96.13,28.73,96.12,28.87ZM96,7.85c0,.35.46.39.43,0S96,7.45,96,7.85Zm.31,16.31c0,.36.42.36.39,0S96.32,23.74,96.35,24.16Zm.71,3.43c0,.34-.47.38-.43,0S97.08,27.24,97.06,27.59Zm-.16-3.43a.22.22,0,1,0,.43,0C97.36,23.72,96.87,23.75,96.9,24.16ZM97.13,29s0-.32,0-.31.21-.25.28-.28Zm.08-4.29c0,.37.42.37.39,0S97.18,24.32,97.21,24.74ZM98,20.53a1.85,1.85,0,0,1,.76-.16.76.76,0,0,1-1.32.63A1.13,1.13,0,0,1,98,20.53Zm-.21,5.65c0,.35.46.39.43,0S97.73,25.78,97.76,26.18ZM98,8.67h.27V8.4Zm.08,16.07c0,.37.42.37.39,0S98,24.32,98.07,24.74Zm.78-2-.31.27v-.27Zm.27-.86h-.27v-.27Zm.2-.85c0,.36-.42.36-.39,0S99.34,20.63,99.32,21Zm.58-.55a.22.22,0,1,1-.43,0C99.45,20.05,99.94,20,99.9,20.45Zm0,.55a.22.22,0,1,1-.43,0C99.44,20.65,99.93,20.61,99.9,21Z"/><path class="cls-2" d="M107.62,2.35c.8-.85,2.22.07,3-.85.25-.68.06-1,1.13-.94V4.38c-3.81,3.74-1.42,10.5-2,15.35a5,5,0,0,0,.74,2.77c.25.49-.63.92-.78,1.34,1.56,3.88,2.31,2.05,2,7.18-3.47-1.06-6-3.29-6-7.18.62-1.9-1.56-20.39,1.52-20A2.3,2.3,0,0,1,107.62,2.35Zm.32,1c0,.16-.12.78.11.74S108.16,2.85,107.94,3.33Zm1.4,9.51c0,.2.28.14.27,0S109.31,12.6,109.34,12.84Zm.23,9.87c0,.37.42.37.39,0S109.55,22.35,109.57,22.71Zm1,1.45a.22.22,0,1,1-.43,0C110.09,23.75,110.58,23.72,110.55,24.16Zm.19-16.46c-.14.4-.48-.26-.11-.16A.15.15,0,0,1,110.74,7.7Zm.39,10.14c0,.34-.46.38-.42,0S111.16,17.49,111.13,17.84Zm.28-.55a.22.22,0,1,1-.43,0C111,16.89,111.44,16.85,111.41,17.29Zm0,4.88a.22.22,0,1,1-.43,0C111,21.77,111.44,21.73,111.41,22.17Zm.91,7.56c-.38-2.26,1-3,2.32-4.19.9-.64.24-12.59.43-13.71.54-.1.4-.56.12-.86-.3-1.85.24-6.25-2.57-6l.31-.27-.59-.86V.64c1.27-.06,2-.15,1.72,1.44.48-.15.21-1.53.86-1.13a2.54,2.54,0,0,1,.27.86l.31-.59,1.72.28c-.14.77-.81,1.19-.59,2-2.37-1.33-2.66,2,1.17.86.41.69,1.07-.12,1.13-.58-.19,2.13,1.17,4.34.3,6.41-.22.83-.67,2.17.29,2.75l-.31.27V25.87c-1.44,2.45-3.49,5.92-6.87,4.56C112.34,30.33,112.34,30.1,112.32,29.73Zm2.75-24.06c-.26,0-.14.26,0,.27S115.34,5.64,115.07,5.67Zm.12-.43V4.93h-.27Zm.19,10.08c0,.11-.09.57.12.53S115.61,15,115.38,15.32Zm.55-9.38c0,.26.27.15.27,0S115.91,5.64,115.93,5.94Zm1.27-2.86c0-.07,0-.12,0-.14.41.12.31.54.27.86C117.14,3.69,117.17,3.38,117.2,3.08Zm.72,12.61c-.23,0-.12.27,0,.27S118.16,15.67,117.92,15.69Zm0-.58c0,.24.22.17.23,0S117.93,14.85,118,15.11Zm.47-2.15a.22.22,0,1,0,.43,0A.22.22,0,1,0,118.43,13Zm0,1.76a.22.22,0,1,0,.43,0C118.89,14.28,118.4,14.32,118.43,14.72Zm.23,1.13H119a.63.63,0,0,0-.35-.59Zm1-9.75c0,.38-.45.35-.43,0S119.75,5.66,119.71,6.1Z"/><path class="cls-2" d="M126.15,9.45c.66,0,1.32-.28,1.13-1-2.06,2-.81-6.49-1.13-6.9h.27V2.82c.63-.08,1.27.39,1.25-.58h1c.06-.51.76-.68,1.13-.74v14c.67,1.33.5,5.61-1.71,4,.22,1-1.63.63-2,.32Zm.93,11.23a10.53,10.53,0,0,1,2.77.32c-.28,1.15.94,2.57.45,3.56-.24.28-.75,1.48-.13,1.58l-.32.28c-.14,1.07.56,4.26-.72,4.38-.53-.16-1-.36-1.54.22v-.2c-.79,0-.65.26-1.44.24V21C126.18,20.58,126.81,20.65,127.08,20.68Zm-.66-16.3c-.24,0-.27.62,0,.59S126.72,4.34,126.42,4.38Zm0,24.06c-.24,0-.27.63,0,.59S126.72,28.4,126.42,28.44Zm.31-22.93-.31.59a1.37,1.37,0,0,0,.31-.27Zm-.07-2.18c.07.41.38,1.47.93,1.33l.27-.28A1.29,1.29,0,0,0,126.66,3.33Zm.35,2.5c-.26,0-.26.58,0,.54S127.27,5.79,127,5.83Zm.27,3.43c-.26,0-.26.58,0,.54S127.59,9.22,127.28,9.26Zm.58,3.7q0-.12-.15-.12C127.35,12.85,127.81,13.36,127.86,13Zm.28-11.46c.3-.05.33.62,0,.58S127.89,1.45,128.14,1.5Zm0,4.87c-.25,0-.28.62,0,.59S128.44,6.33,128.14,6.37Zm.31,6.32v.86l.27-.28C128.86,13.06,128.6,12.82,128.45,12.69Zm.27,4.29c-.24-.05-.27.62,0,.58S129,16.93,128.72,17Zm0,.86c-.08,0-.11,0-.11.15C128.61,18.35,129.12,17.89,128.72,17.84Zm0-2.58v1.45C128.8,16.44,129.3,15.26,128.72,15.26Zm0,3.43V19H129ZM129,2.35c-.25,0-.28.63,0,.59S129.29,2.31,129,2.35Zm0,9.21c-.27,0-.27.58,0,.54S129.31,11.52,129,11.56Zm0,2.85c-.25-.05-.28.62,0,.58S129.29,14.36,129,14.41Zm.58-9.17c0-.08,0-.12-.16-.12C129.12,5.15,129.46,5.54,129.58,5.24Zm.86,4.56c.29,0,.33.63,0,.59S130.19,9.76,130.44,9.8Zm2.88,11.27c1.57-.5,2.63-.72,2.58,1.37h.39c-.48-2.26.39-1.64,2.07-1.72-.08-1.1-1.62-.21-2.19-.85l.27-.32v-2c-.31-.61-1.8-.17-1.71.55l.58-.27-.27.58h.55l-.28.27c.5.2.27.67.3,1.14s-2,.19-2.29.31l.28-.27c0-.05-.28-.07-.28,0a1.34,1.34,0,0,0-.58.27c-.19-1.57-3.57-5-1.76-5.89-1.33-2.59.86-3.24,0-5.31l-.58.32a1.06,1.06,0,0,0,0-1.45V2.31a1.68,1.68,0,0,1,.86.36l-.28.27c.22,1.23.7,3.43,1.72,4.29-1.23,1.68,1.32,4.12,3.16,3.94v.08l-2.58.31-.31-.31c0,1.09-.87,2.68.59,3.16.25.42-.66.47-.86.58,1.7.52-.59,2.68.7,3.16,1.18-.25-.06-2.82,1.6-2.61.49.82,1.51-1.09,2-1.41-.48-.45-1.33-1.82-.59-2.3V1.22h2.62c0-.24.24-.73.54-.7v.7h1.21c0,.6-.87,1.63,0,2-.45,0-.47,1.48,0,1.45a.84.84,0,0,0-.31.31c0,.44.45.62.31,1.13-.61,1.28-.27,3.18-.31,4.56-1.15,1.47-2.44,1.45-2.18,3.67.75.06.65-.43.82-.9,1-.73,1.36.9,1.24,1.68h1.29c-.85.28-2.3,1.59-1.44,2.45l.27-.58v1.44h-.16c0,.48.61.4.59.86h-.31c.07.46-.48,1.83.19,2l-.31.31V29.3c-.4,0-.38,1-.39,1.13h-3.63A41.36,41.36,0,0,1,133.32,21.07Zm-1.44-7.25c-.24,0-.27.62,0,.59S132.13,13.78,131.88,13.82Zm.27-4.88c-.24,0-.27.63,0,.59S132.45,8.9,132.15,8.94Zm.32,8.31c-.3,0-.33.63,0,.59S132.71,17.21,132.47,17.25Zm0,3.16c.24,0,.27.62,0,.59S132.17,20.37,132.47,20.41Zm.85-11.47h.28v.32h-.28Zm1,3.48h.19c0,.63-.36,1.64-1.21,1.4C133.72,13.57,134.37,13,134.34,12.42ZM133.6,19c-.25,0-.28.62,0,.58S133.84,18.92,133.6,19Zm1.13-4.84c.14.4.15,1.3-.55,1.13A.88.88,0,0,1,134.73,14.13Zm1.71,1.72c-.33.12-.93.44-1,.86h1ZM135.9,23c-.21-.08-.21.4,0,.32S136.05,23.07,135.9,23Zm.27-9.43c.25-.05.28.62,0,.58S135.93,13.5,136.17,13.55ZM136.76,31a.21.21,0,0,1-.32,0C136.31,30.87,136.85,30.85,136.76,31Zm.54-13.77a.84.84,0,0,0,.31.31h.28l.58-.58A1.15,1.15,0,0,1,137.3,17.25ZM138.47,31a1.27,1.27,0,0,1-.86,0C137.67,30.85,138.41,30.85,138.47,31Zm-.27-16a3.9,3.9,0,0,0,.86,1.13c.57-.28,0-.9-.31-1.13C138.75,14.89,138.3,14.89,138.2,15Zm.27-1.72c.14.09.17.22,0,.28S138.25,13.19,138.47,13.27Zm.28,7.45c-.27,0-.27.59,0,.55S139.06,20.69,138.75,20.72Zm.31-8.3v.27h-.31Zm.54,5.42c-.24-.05-.27.62,0,.58S139.9,17.8,139.6,17.84Zm0-5.74a.67.67,0,0,1,.67-.35.77.77,0,0,1-.35.67Zm.86,1.17c.41.07-.13.54-.12.12Q140.34,13.24,140.46,13.27Zm.31,9.17c.26,0,.26.58,0,.54S140.46,22.4,140.77,22.44Zm.86-11.19c-.06.4-.6-.13-.15-.12C141.6,11.13,141.66,11.17,141.63,11.25Zm0,6.86c-.06.41-.6-.13-.15-.12C141.6,18,141.66,18,141.63,18.11Z"/><path class="cls-2" d="M147.56,1.28a2.38,2.38,0,0,1,2.34-.06c.72-.08,1.9-.79,2.46,0h2.26c.06-.25.23-.73.58-.7v.7h2c.49-.76,1.56-.08,2.15,0,.16,0,.84-.28,1-.27s.27,0,.31,0a15.74,15.74,0,0,1-.58,4H146.9V1.34A2.85,2.85,0,0,0,147.56,1.28Zm1.4-.06c0,.35.47.39.43,0A.22.22,0,1,0,149,1.22Zm1.45,0c0,.35.46.39.43,0A.22.22,0,1,0,150.41,1.22Zm.58,0c0,.39.46.35.43,0A.22.22,0,1,0,151,1.22Zm.51,4.29a11.27,11.27,0,0,1,4,.28V15c.94.42-.77,2,.31,2.57l-.31.28v4.29c.17,0,1.09.2,1,.58h-1V31h-2.26c-.69-.94-2.21,1.21-2-1.13V5.79Zm.08-4.29c0,.37.41.37.39,0S151.55.86,151.58,1.22Zm.27,29.53a.22.22,0,1,0,.43,0C152.31,30.34,151.82,30.31,151.85,30.75Zm.58-10.3c0,.36.42.37.39,0S152.41,20,152.43,20.45Zm4.41-14.94c0,.39-.46.35-.43,0A.22.22,0,1,1,156.84,5.51Zm.27,5.74c0,.36-.41.36-.39,0S157.14,10.88,157.11,11.25Zm0,4c0,.37-.41.37-.39,0S157.14,14.9,157.11,15.26Zm0,2.89c0,.37-.41.36-.39,0S157.14,17.73,157.11,18.15Z"/><path class="cls-2" d="M167.25,21.27l.86-.86c-.25.11-.44-.07-.54-.27l.27-.27h-.7c.13-.87-.13-2.14.39-2.89h-.28c0-5.22-.36-10.52-.27-15.76A2.45,2.45,0,0,1,168.42,1c-.94.05-.8,1.05-.78,1.72h.2l.58-1.17h.16c0,.68.58,1.58,1.25.85H171c.16-.22.28-.74.58-.85V5.24c-.24.2-.49.8,0,.86a51.47,51.47,0,0,0-.31,7.45c-.62.27-.76.27-.78.93,2.19.13.21,2.74,1.09,3.94-.32.2-.55-.34-.58-.58h-2.3A3.3,3.3,0,0,0,171.58,19c-.23.24-.49.79,0,.9v2c.32.09.34.58.35.82a4.67,4.67,0,0,0-1.52.63l.59.27c0,.26-.26,1.75.27,1.72v3.43c1.33.31-.12,1.45-.7,1.85-.43.3-2.48.14-3,.18A.63.63,0,0,1,167,31Zm0-.86c.3,0,.33.63,0,.59S167,20.37,167.25,20.41Zm.32-10c-.3,0-.33.62,0,.58S167.81,10.34,167.57,10.39Zm0,2.3c-.3,0-.33.62,0,.58S167.81,12.64,167.57,12.69Zm.27,2.85c-.25,0-.28.62,0,.58S168.09,15.49,167.84,15.54ZM169,13.82c-.28,0-.45,0-.55.31a1.32,1.32,0,0,0,.86-.31Zm-.27-2.57c-.25-.05-.28.62,0,.58S168.94,11.2,168.7,11.25Zm0-.86q-.12,0-.12.15C168.58,10.88,169,10.51,168.7,10.39Zm0,5.73c-.08,0-.12,0-.12.16C168.6,16.58,169,16.24,168.7,16.12Zm0,2.57c-.08,0-.12,0-.12.16C168.58,19.18,169,18.81,168.7,18.69Zm.27-1.44q0-.12-.12-.12C168.43,17.12,168.9,17.66,169,17.25Zm0,4.88c-.25-.05-.28.62,0,.58S169.27,22.09,169,22.13Zm.31,2.3c-.07-.18-.49.18-.31.27S169.4,24.6,169.28,24.43Zm0-.86c-.3,0-.33.62,0,.59S169.53,23.53,169.28,23.57Zm.27-9.75c-.24,0-.27.62,0,.59S169.8,13.78,169.55,13.82Zm.28,2.3c.08-.17-.36-.14-.28,0S169.74,16.26,169.83,16.12Zm0-4.6c-.25,0-.28.62,0,.58S170.12,11.48,169.83,11.52Zm0,5.46c-.25-.05-.28.62,0,.58S170.12,16.94,169.83,17Zm.31,7.45c.09-.17-.45-.15-.31,0S170.05,24.58,170.14,24.43Zm0-8c-.21-.08-.21.4,0,.32S170.3,16.48,170.14,16.39Zm.27-6c-.24-.05-.27.62,0,.58S170.66,10.34,170.41,10.39Zm.28,3.43c.29,0,.33.62,0,.59S170.44,13.78,170.69,13.82ZM171,12.1c-.3,0-.33.63,0,.59S171.24,12.06,171,12.1Zm0,4.29c-.3,0-.33.63,0,.59S171.24,16.35,171,16.39Zm.27,7.45c.3,0,.33.63,0,.59S171,23.8,171.27,23.84Zm.31.59v.27h-.31Zm.55-10c.3-.05.33.62,0,.58S171.88,14.36,172.13,14.41Zm0,9.75c.31,0,.31.58,0,.54S171.87,24.12,172.13,24.16Zm.31-12.91c-.07.39-.6-.12-.15-.12Q172.49,11.13,172.44,11.25Zm3.71,18.64c-.81-3.74-1.87-7.44-2.58-11.2h-1.13a1.79,1.79,0,0,0,.86-.58h-1.17c-.39-3.84.54-3.8,4-4.29-2-1.06,3.1-8.09-4-8.85V1.5A8,8,0,0,0,175,1v.43c5.66,0,2,3.29,3.71,2.92V3.8h.43a1.25,1.25,0,0,1-.7,1.17c2.42-.61,2,4.19,2.3,5.69l.54.59c-1.95.75-1,3.78-2.63,4.91s-1.75,2.21-.21,3.39c-.24.1-.43.27-.2.57,1.42,2,.59,5.12,2.22,7-.69,1.21.12,1.63,1.14,2.18-1.37-.28-.74,1.78-2,1.76a.66.66,0,0,0-.36-.63C179.1,31.49,175.09,31.31,176.15,29.89ZM172.44,6.1c.25,0,.28.62,0,.58S172.14,6.06,172.44,6.1Zm0,9.44c-.3,0-.33.62,0,.58S172.69,15.49,172.44,15.54Zm2.85,5.73c-.25-.05-.28.62,0,.58S175.53,21.22,175.29,21.27Zm.27.58c-.08,0-.12,0-.12.16C175.45,22.37,176,21.91,175.56,21.85Zm.31-5.73c-.3,0-.33.63,0,.59S176.12,16.08,175.87,16.12Zm0,5.15a1.42,1.42,0,0,0,.28.58.57.57,0,0,0,.58-.27C176.62,21.17,176.19,21.29,175.87,21.27Zm.28,2.89c-.27,0-.26.58,0,.54S176.41,24.12,176.15,24.16Zm.27-.86c-.26,0-.26.58,0,.54S176.73,23.26,176.42,23.3Zm.31-13.18q-.15,0-.15.15C176.6,10.57,177.05,10.26,176.73,10.12Zm1-5.19s-.13,0-.12,0a.31.31,0,0,0-.31.27h.31l.27-.27S177.81,4.93,177.71,4.93Zm-.12,8.62c-.3-.05-.33.62,0,.58S177.84,13.5,177.59,13.55Zm.27,8c-.26,0-.26.59,0,.55S178.12,21.54,177.86,21.58Zm.27-6c-.24,0-.27.62,0,.58S178.43,15.49,178.13,15.54Zm1.45-6.87c-.79.07-.84,1.1-1.45,1.45C179,10.27,179.46,9.34,179.58,8.67Zm-1.45,5.15v.31l.32-.31Zm.32.31c-.32,0-.32.59,0,.55S178.71,14.09,178.45,14.13Zm0,16.3c-.3,0-.33.63,0,.59S178.69,30.39,178.45,30.43ZM178.72,13c-.25,0-.28.62,0,.59S179,12.92,178.72,13ZM179,2.35c.25,0,.28.63,0,.59S178.73,2.31,179,2.35Zm.27,11.2c-.24-.05-.27.62,0,.58S179.55,13.5,179.3,13.55Zm0,8.58c.25-.05.28.62,0,.58S179.06,22.08,179.3,22.13ZM181,25c.26,0,.26.59,0,.55S180.76,25,181,25Zm.59-17.78c0,.19-.56.22-.59,0S181.63,7.07,181.61,7.23Z"/><path class="cls-2" d="M189.52,2.35c.8-.85,2.22.07,3-.85.25-.68.06-1,1.13-.94V4.38c-3.82,3.74-1.42,10.5-1.95,15.35a5,5,0,0,0,.74,2.77c.25.49-.63.92-.78,1.34,1.56,3.88,2.31,2.05,2,7.18-3.47-1.06-6-3.29-6-7.18.62-1.9-1.57-20.39,1.52-20A2.3,2.3,0,0,1,189.52,2.35Zm.32,1c0,.16-.12.79.11.74S190.06,2.85,189.84,3.33Zm1.4,9.51c0,.2.27.13.27,0S191.21,12.6,191.24,12.84Zm.23,9.87c0,.37.42.37.39,0S191.44,22.35,191.47,22.71Zm1,1.45a.22.22,0,1,1-.43,0C192,23.75,192.48,23.72,192.45,24.16Zm.19-16.46c-.14.4-.48-.26-.11-.16A.16.16,0,0,1,192.64,7.7ZM193,17.84a.22.22,0,1,1-.43,0C192.57,17.45,193.06,17.49,193,17.84Zm.28-.55a.22.22,0,1,1-.43,0C192.85,16.89,193.34,16.86,193.31,17.29Zm0,4.88a.22.22,0,1,1-.43,0C192.85,21.76,193.34,21.73,193.31,22.17Zm.91,7.56c-.38-2.26.95-3,2.32-4.19.9-.64.24-12.59.43-13.71.54-.1.4-.56.12-.86-.3-1.85.24-6.25-2.58-6l.32-.27-.59-.86V.64c1.27-.06,1.95-.15,1.72,1.44.47-.15.21-1.53.86-1.13a2.54,2.54,0,0,1,.27.86l.31-.59,1.72.28c-.14.77-.81,1.19-.59,2-2.37-1.33-2.66,2,1.17.86.41.69,1.07-.12,1.13-.58-.19,2.13,1.17,4.34.3,6.41-.23.83-.67,2.17.29,2.75l-.31.27V25.87c-1.44,2.45-3.49,5.92-6.87,4.56C194.24,30.33,194.24,30.1,194.22,29.73ZM197,5.67c-.26,0-.14.26,0,.27S197.24,5.64,197,5.67Zm.12-.43V4.93h-.27Zm.19,10.08c0,.11-.09.57.12.53S197.5,15,197.28,15.32Zm.55-9.38c0,.26.26.15.27,0S197.81,5.64,197.83,5.94Zm1.27-2.86c0-.07,0-.12,0-.14.4.12.31.54.27.86C199,3.69,199.06,3.38,199.1,3.08Zm.72,12.61c-.23,0-.12.27,0,.27S200.06,15.67,199.82,15.69Zm0-.58c0,.24.22.17.23,0S199.83,14.85,199.86,15.11Zm.47-2.15a.22.22,0,1,0,.43,0A.22.22,0,1,0,200.33,13Zm0,1.76a.22.22,0,1,0,.43,0C200.79,14.28,200.3,14.32,200.33,14.72Zm.23,1.13h.35a.64.64,0,0,0-.35-.59Zm1.05-9.75c0,.38-.45.35-.43,0S201.65,5.66,201.61,6.1Z"/><path class="cls-2" d="M208.17,24.7c.29-.57-.8-7.46.85-6.59-1.08-.92-1.35-1-1.13-2.57.11-.25.49-.75,0-.86.15-.57.49-.15.86-.2V13c-.26-.11-.63.13-.86.23.61-1.06,1.46-2.16.33-3.25-.44-2,1.16-.45,2-.45l-.58-.86h.7c.15-1.69-1.93-1.16-1.76-2.88h-.42A5.9,5.9,0,0,1,209,3.21c-.68-.27.42-1.26-.27-1.71h1.52a.62.62,0,0,1-.39.58,1,1,0,0,0,1.17-.86,1.35,1.35,0,0,1,1.09,1.45h-.82v.54h.32c0,.51,0,1.48-.59,1.72.51-.76-.64-.82-1.09-.78-.05.5-.17.68.23,1.09a1.34,1.34,0,0,0-1.17.27c.24.57,1,1.63,1.72.86,0,0,.06.27,0,.27a2,2,0,0,1-.27.59,2.51,2.51,0,0,0,0,.27h.23l.58,1.17.59-.27c.1,2.09.12,5.68-1.17,7.45h.9c-1.09,1.46,1.66,2.9,0,4.29l.27.27c0,.74-.11,4.91.31,5.46h-4.41c0-.31.45-.74.67-.86Zm0,6.44c-.6-.08,0-.35.25-.2S208.32,31.15,208.17,31.14Zm.11-29.92c0,.18,0,1.12-.39,1.13V1.22Zm-.39,10c.18.13.4.34.28.58A.6.6,0,0,1,207.89,11.25Zm.28,15.48a12.29,12.29,0,0,1,4.32-.31l.28.31c.13-.44,1-.46,1.13,0,1.41-.72,5-.4,6,1.13-.75.59-.53,1.94-.87,2.75-.06.83-4.13.24-4.59.41-.58-.76-.89.1-1.71,0-1.15,0-2.41-.82-3.43,0h.27c-.24-.72-1-.44-1.5-.63s-.12-3.63-.22-4Zm.27-23.56c-.14.17-.49,0-.22-.19S208.61,3,208.44,3.17Zm-.12,13.11c-.27,0-.14.28,0,.27S208.59,16.25,208.32,16.28Zm.27-7.88c-.07.61-.4,0-.23-.25S208.61,8.22,208.59,8.4Zm-.11,10.88.27-.31-.27-.28Zm.07,5.15c0,.36.42.36.39,0S208.53,24.06,208.55,24.43Zm.08-3.86c0,.24.23.1.24,0S208.61,20.31,208.63,20.57Zm.24-12.91c-.06,0-.09,0-.12-.16C208.79,7.16,209.26,7.59,208.87,7.66ZM209.1,5a.22.22,0,1,0,.43,0C209.56,4.53,209.07,4.57,209.1,5Zm.39,7.13a2.26,2.26,0,0,0-.19.94c.73,0,1.36-1.8.39-1.87A2.18,2.18,0,0,1,209.49,12.1Zm0,4.76c-.1,0-.14,0-.11.12C209.42,17.31,209.84,16.85,209.45,16.86Zm-.11-3,.27-.27h-.27Zm.27,2,.58-.31h-.58Zm.08-5.46c0,.38.45.35.42,0S209.65,10,209.69,10.39Zm.25,8.34c-.28.21.07.36.21.2S210.15,18.51,209.94,18.73Zm.17-15.48a.38.38,0,0,0-.23.27,1.21,1.21,0,0,0,.86-.31A2.6,2.6,0,0,0,210.11,3.25Zm.28,2.58a.22.22,0,1,1-.43,0C209.93,5.42,210.42,5.39,210.39,5.83ZM210,13.27c0,.35.46.39.43,0S209.93,12.87,210,13.27Zm.31.86c0,.37.42.37.39,0S210.24,13.71,210.27,14.13Zm.08-4.17c0,.27.28.14.27,0S210.32,9.69,210.35,10Zm0,14.9c0,.27.28.14.27,0S210.32,24.58,210.35,24.86Zm.19-15.6a.22.22,0,1,0,.43,0C211,8.86,210.51,8.82,210.54,9.26Zm0,14.9a.22.22,0,1,0,.43,0C211,23.75,210.51,23.72,210.54,24.16Zm.35-21.92c0,.19.28.13.28,0S210.87,2,210.89,2.24Zm.16,23h.27V25h-.27Zm.51-18.61c0,.35-.46.39-.43,0S211.59,6.28,211.56,6.68ZM211.13,13a.22.22,0,1,0,.43,0A.22.22,0,1,0,211.13,13Zm.1-3.33c0,.17-.12.73.09.76S211.46,9.2,211.23,9.63Zm.6-2.69.08,0a1.93,1.93,0,0,0-.59.85C211.31,7.47,211.29,6.8,211.83,6.94Zm.27-.57c0,.37-.41.37-.39,0S212.13,6,212.1,6.37Zm0,7.76c0,.37-.41.37-.39,0S212.13,13.71,212.1,14.13ZM212,4.54c-.1,1-.52-.35-.12-.47A.66.66,0,0,1,212,4.54Zm.39,3.27c0,.35-.47.39-.43,0S212.44,7.41,212.42,7.81Zm.07,16.62h-.31v-.27Zm.12-21.92c0,.05,0,.1-.12.16C212.11,2.69,212.51,2,212.61,2.51Zm0,18.06c0,.05,0,.09-.12.11C212.11,20.78,212.51,20.09,212.61,20.57Zm.51,10.18a.22.22,0,1,0,.43,0C213.58,30.31,213.09,30.35,213.12,30.75Zm2.22-3.87c-.48,0-.25.28,0,.28S215.82,26.85,215.34,26.88Zm-.19,3.87c0,.36.41.36.39,0S215.12,30.33,215.15,30.75Zm1.4,0a.22.22,0,1,0,.43,0C217,30.31,216.52,30.34,216.55,30.75Zm1.17,0a.22.22,0,1,0,.43,0C218.18,30.34,217.69,30.31,217.72,30.75Zm2.34-1.56c-.14.4-.48-.26-.12-.16A.16.16,0,0,1,220.06,29.19Zm.74-3.05h-.58a.57.57,0,0,1,.58-.35Z"/><path class="cls-2" d="M61.37,42.61c.14.32.26.61.37.89-1,.84-2.27.83-3.53,1-1.42.92-3.46,2.68-4.93,1.45.68-1.28,2.1-1.22,3.16-2.08,3.92-3.07,4.75-7.36-.59-9.41C55,37.3,54.54,40.84,54,43.68c-.42,1.11-1.48,2-1.1.28-.18-1.87.56-4,.4-5.77.39-1.33.09-2.91,1.28-3.87,1.53-.47-2.66-.57-1.81-1.79-.7-1.13,1.62-.74,2.15-.36,6.63.93,8.39,7.13,3.18,11.6C59.07,43.3,60.51,43.37,61.37,42.61Z"/><path class="cls-2" d="M62.17,42.62a2.93,2.93,0,0,1,.77-.85c-.23-1.77,3.13-6.48,3.88-3-.16,1.38-1.54,2.31-2.29,3.58.11,1.27,1.89.77,2.56.24.14.31.28.61.38.89a3.14,3.14,0,0,1-1.85,1.11c-2.22,1.18-2.18-2.21-3.06-1.11A7.13,7.13,0,0,0,62.17,42.62Zm3.12-3.18c-.25,0-1.27,1.41-.81,1.5C64.78,40.66,65.76,39.85,65.29,39.44Z"/><path class="cls-2" d="M67.94,42.62c1.21-.62,3.57-14.45,5-8.88-.07,3.54-2.75,7-3,10.76-.46,2.52-.45,7.1,1.06,1.87.61-1.34.62-2.7,1.6-3.75.16.32.26.61.39.89-2.27,8.94-5.62,11.69-4.48.23l-.25-.23A7.84,7.84,0,0,0,67.94,42.62Zm3.85-6.57a5.77,5.77,0,0,0-.55,1.61l.07.07.14-.14C71.42,37.14,72.22,36.39,71.79,36.05Z"/><path class="cls-2" d="M73.52,42.62c5.45-6.84,1.66,3.51,5.59,0l.39.89c-4.56,4.41-3.24-2.91-5.59,0A6.88,6.88,0,0,0,73.52,42.62Zm4.08-7.71c1,.15.06,2.1-.52,2.4-1.66,1.17-1.94-1.36-.49-1.77C76.82,35.22,77.12,34.85,77.6,34.91Z"/><path class="cls-2" d="M80,42.62c2.75-3.36,6.25-6.69,3.91.5,5.16-6.13,3.26.14,5.44-.5l.39.89c-1.64,1.89-2.38.41-3.41-1.09l-.09,0c-1.76.65-2.31,2.88-4.09,3.36-1.37-.65.65-2.89.42-4.11-.84.09-1.57,1.29-2.18,1.87A5.9,5.9,0,0,0,80,42.62Z"/><path class="cls-2" d="M90.16,42.62a2.93,2.93,0,0,1,.77-.85c-.23-1.77,3.13-6.48,3.89-3-.17,1.38-1.55,2.31-2.3,3.58.11,1.27,1.89.77,2.56.24.14.31.28.61.38.89a3.14,3.14,0,0,1-1.85,1.11c-2.22,1.18-2.18-2.21-3.06-1.11A7.13,7.13,0,0,0,90.16,42.62Zm3.12-3.18c-.25,0-1.27,1.41-.81,1.5C92.77,40.66,93.75,39.85,93.28,39.44Z"/><path class="cls-2" d="M101.79,42.62c.77-1.18,3.79-3.89,3.14-4.95a4.43,4.43,0,0,1-2.46-.24c-.15-.52,0-1.38.47-1.44,1,.12,1.89-.05,2.79.08.48.06,1-2,1.55-1.87.9,0,.28,1.23.21,1.72.47.6.46,2-.63,1.91-.17,1.42-3,8.16.36,4.79l.38.89c-4.17,4.51-4.08,1.68-3.09-2.45-.67.87-1.66,1.55-2.33,2.45A5.35,5.35,0,0,0,101.79,42.62Z"/><path class="cls-2" d="M108.06,42.62a.24.24,0,0,0,.09-.17c.91-.49,3.12-5.12,3.83-3.15-.36,1.31-1.27,3.23-.62,4.45,1.32-.28,3.45-5.77,3.86-2.06,0,.67.22,1.28,1,.93l.4.89c-1.36,1.06-2.54.87-3-.76-5.65,7.07-2.81-3.08-5.1.76A7.13,7.13,0,0,0,108.06,42.62Z"/><path class="cls-2" d="M122.9,42.62l.09-.08c.61-.72,5.76-5.42,5.6-2.87-.28,1.43-6.18,3.32-2.76,4.89a6.86,6.86,0,0,0,3.25-1.94c.26.56.39.86.39.89C126.68,45.9,123.45,47.59,122.9,42.62Z"/><path class="cls-2" d="M129.93,42.62a.2.2,0,0,0,.08-.17c.92-.49,3.12-5.12,3.83-3.15-.35,1.31-1.26,3.23-.61,4.45,1.45-.44,3.56-6,3.9-1.76a.59.59,0,0,0,.92.63l.39.89c-1.35,1.06-2.53.87-3-.76-5.65,7.07-2.81-3.08-5.1.76A7.13,7.13,0,0,0,129.93,42.62Z"/><path class="cls-2" d="M138.91,42.62a2.93,2.93,0,0,1,.77-.85c-.23-1.77,3.14-6.48,3.89-3-.17,1.38-1.54,2.31-2.3,3.58.11,1.27,1.9.77,2.56.24.14.31.28.61.38.89a3.15,3.15,0,0,1-1.84,1.11c-2.23,1.18-2.18-2.21-3.07-1.11A5.9,5.9,0,0,0,138.91,42.62ZM142,39.44c-.26,0-1.28,1.41-.81,1.5C141.52,40.66,142.51,39.85,142,39.44Z"/><path class="cls-2" d="M144.68,42.62c.68-.91,1.76-1.58,2.14-2.57l-.1-.47c1.31-2,3.6,0,3.39,1.87-.46,1.93-1.32,3.3,1.1,1.17.11.28.27.58.39.89-1,.66-2.35,2.26-3.67,1.9-.67-1.18,1.89-3.83,0-4.67-.72.34-1.23,1.34-1.87,1.75a2.72,2.72,0,0,1-.8.73.8.8,0,0,1-.19.29A6.33,6.33,0,0,0,144.68,42.62Z"/><path class="cls-2" d="M152.06,42.62c1.85-1.67,2.53-4.53,4.08-6.28.74.36.3.88,0,1.95a43.35,43.35,0,0,0-2.31,9c1.06-2.46,1.93-10.78,5-4.64l.41.89a8.73,8.73,0,0,1-.86.2c-.68-.06-1.31-.86-1.81-1.2-1.39,1.81-1.71,4.47-2.56,6.64-2.67,4.49-.85-5.19-.7-6.54a3.49,3.49,0,0,0-.91.9A7.13,7.13,0,0,0,152.06,42.62Z"/><path class="cls-2" d="M159.74,42.62c.39-.31,5.47-5.77,4.62-3.21l.06.09c2.21-1.31,3.11,1.62,1.83,3.08.07.36.37.23.57,0,.14.29.26.6.38.89-.53.49-1.59,1.52-2.11.53-.93,1.37-3.87,2.14-4.05-.15.4-1.51.07-1.54-.91-.38A5,5,0,0,0,159.74,42.62Zm4.7-1.79c-3.76,3-.42,5.08,1,.81C165.32,41,165.08,40.86,164.44,40.83Z"/></g></g></svg>