<svg xmlns="http://www.w3.org/2000/svg" viewBox="0 0 99.12 101.05"><g id="Capa_2" data-name="Capa 2"><g id="Capa_10" data-name="Capa 10"><path d="M49.19,101C-16.69,100.77-16.5-.78,50.38,0,115.84.66,115.28,101.57,49.19,101Zm.22-3.51c61.15-1.57,62.05-91.42.73-94C-11.47,4.4-12.5,95.48,49.41,97.53Z"/><path d="M24.05,78.45c-34.58-20.73-1.67-82.1,34.27-64.64C20.45,9.53-1,50.32,24.05,78.45Z"/><path d="M75.6,78.82c15.53-21,14-40.59-3.76-59.49C94.62,30.16,96,64.67,75.6,78.82Z"/></g><g id="Capa_11" data-name="Capa 11"><path d="M28.36,77.36a35.54,35.54,0,0,1,9.36-24.75,38.56,38.56,0,0,1,18.9-10.2q.33,3.69.67,7.36L71.67,35.89,55.36,23.69l.42,6.94A39.2,39.2,0,0,0,33,48.35a40.6,40.6,0,0,0-4.6,29Z"/></g></g></svg>