<svg xmlns="http://www.w3.org/2000/svg" viewBox="0 0 246.59 36.39"><defs><style>.cls-1{fill:#1d1d1b;}</style></defs><g id="Capa_2" data-name="Capa 2"><g id="Capa_9" data-name="Capa 9"><path class="cls-1" d="M0,27.22c0-.08.07-.26.14-.56s.11-.49.13-.57L.9,26l1-.17.94-.16.64-.11.24,0a1.11,1.11,0,0,1,.23,0,3.2,3.2,0,0,0,.49,1.83,12.18,12.18,0,0,0,1.09,1.42,12.28,12.28,0,0,1,1.09,1.43,3.14,3.14,0,0,1,.49,1.79s0,.14,0,.27a3.12,3.12,0,0,1-.06.41q0,.23-.06.39a.38.38,0,0,1-.06.22l-.54.58c0-.1-.2-.2-.53-.29L4.6,33.19a10.41,10.41,0,0,1-1.52-.57,5.28,5.28,0,0,1-1.5-1A5,5,0,0,1,.45,29.93,6.4,6.4,0,0,1,0,27.38ZM7.41,33v-.15c0-.13,0-.27,0-.41a.84.84,0,0,1,.1-.37c0-.11.11-.16.19-.16h3.36a.59.59,0,0,1,.07-.29.45.45,0,0,0,.08-.25.37.37,0,0,0-.11-.24,1.05,1.05,0,0,0-.51-.19,1.2,1.2,0,0,0-.49,0c-.27,0-.58.07-.92.13l-.93.2a1.31,1.31,0,0,0-.55.21c.11-.18.08-.32-.08-.41a.49.49,0,0,1-.23-.45,1,1,0,0,1,.41-.72l.9-.83A7.68,7.68,0,0,0,9.61,28,2.34,2.34,0,0,0,10,26.6a3.36,3.36,0,0,0-.23-1.21,7.69,7.69,0,0,0-.59-1.23A13.31,13.31,0,0,0,8.46,23c-.26-.36-.5-.69-.74-1,.26-.13.37-.23.31-.28S8,21.58,8,21.37a4.07,4.07,0,0,1-2.17-.89,14.84,14.84,0,0,1-2.42-2.19,16.83,16.83,0,0,1-2-2.71,5.19,5.19,0,0,1-.82-2.44V8.27a3.38,3.38,0,0,1,.57-1.91,5.93,5.93,0,0,1,1.4-1.47A6.75,6.75,0,0,1,4.41,4a6.14,6.14,0,0,1,1.91-.33v4a.86.86,0,0,0-.53.28,4.5,4.5,0,0,0-.56.64,5.66,5.66,0,0,0-.47.74,1.43,1.43,0,0,0-.2.57,4.6,4.6,0,0,0,.59,2.24A21.81,21.81,0,0,0,6.32,14v.27c.1.13.34.4.72.8s.8.82,1.27,1.25a13.14,13.14,0,0,0,1.34,1.09c.43.3.75.41,1,.34L10.3,18a1.06,1.06,0,0,0,.6.41.86.86,0,0,1,.57.45,7.89,7.89,0,0,0,.56,1c.22.34.43.68.63,1a9,9,0,0,1,.5,1,2.78,2.78,0,0,1,.22,1.11c.31,0,.5.06.56.17a1,1,0,0,1,.1.49,3.75,3.75,0,0,0,.08.67,1.65,1.65,0,0,0,.5.81v.28l-.15.13-.16.14v.16a.36.36,0,0,0,.16.33.41.41,0,0,1,.15.37,5.45,5.45,0,0,1-.19.56c-.13.35-.29.74-.47,1.15l-.5,1.17a4.15,4.15,0,0,1-.28.59,1.14,1.14,0,0,1-.52.29,3.1,3.1,0,0,0-.61.24.8.8,0,0,0-.39.4,1.09,1.09,0,0,0,.08.79l-2,2H8.66a2.74,2.74,0,0,1-.59-.06.91.91,0,0,1-.47-.23A.67.67,0,0,1,7.41,33Zm-6-.89q0,.27-.24.27c-.13,0-.19-.09-.19-.27s.06-.28.19-.28S1.37,31.92,1.37,32.1Zm3.08.43q0,.19.15.15a.15.15,0,0,0,.12-.15.16.16,0,0,0-.12-.16C4.5,32.34,4.45,32.4,4.45,32.53Zm.27,1.4s-.09,0-.12-.12,0-.11.12-.11.18,0,.16.11A.16.16,0,0,1,4.72,33.93Zm.82-1.25c0,.18.06.28.19.28s.2-.1.2-.28-.07-.31-.2-.31S5.54,32.47,5.54,32.68Zm1-3.43c0,.18-.06.27-.19.27s-.24-.09-.24-.27.08-.31.24-.31S6.51,29,6.51,29.25ZM7.14,7.41a.77.77,0,0,0-.28-.23V4s0-.11.12-.18a.37.37,0,0,1,.2-.1,1,1,0,0,1,.35,0H8c.39,0,.74,0,1,0A5.24,5.24,0,0,1,10,3.9l.93.29,1.17.41-.31.28a2.39,2.39,0,0,1,.8.79,7,7,0,0,1,.64,1.25,9,9,0,0,1,.43,1.37,5.67,5.67,0,0,1,.16,1.19,1.27,1.27,0,0,1-.06.43,2.79,2.79,0,0,1-.25.42l-.57.12-.86.18-.86.17a2.86,2.86,0,0,1-.56.08s-.11,0-.24,0H10.1c-.21,0-.37-.16-.49-.49s-.25-.68-.41-1.07a3.61,3.61,0,0,0-.68-1.09,1.7,1.7,0,0,0-1.34-.51A.34.34,0,0,0,7.14,7.41Zm.5,24.41c0,.19-.06.28-.19.28s-.2-.09-.2-.28.07-.31.2-.31S7.64,31.62,7.64,31.82Zm0-10.76c0,.13,0,.18.12.16s.16-.07.16-.12,0-.14-.16-.2S7.6,20.93,7.6,21.06ZM8,14.2A.29.29,0,0,1,7.72,14s0,0,.06-.08a.78.78,0,0,1,.22,0,.87.87,0,0,1,.25,0c.06,0,.08,0,.06.08A.33.33,0,0,1,8,14.2ZM9,33.54c0,.18.06.27.2.27s.19-.09.19-.27-.07-.31-.19-.31S9,33.33,9,33.54ZM10.14,3.28q-.08,0-.12-.12c0-.08,0-.12.16-.12s.17,0,.12.12A.16.16,0,0,1,10.14,3.28ZM14,20.9h-.27l.27-.54Zm-.19,4.61c0,.18.06.27.19.27s.2-.09.2-.27-.07-.28-.2-.28S13.85,25.32,13.85,25.51Zm.77-18.33v.35A.63.63,0,0,1,14,7.18Z"/><path class="cls-1" d="M21,20a5,5,0,0,0-1.17.33,3,3,0,0,1-1.17.25h-.31a.88.88,0,0,1,.1-.23c.06-.13.14-.27.23-.43s.18-.23.25-.23H21Zm-.08,10.74c.16-.79.33-1.58.53-2.38s.37-1.58.53-2.38a12.56,12.56,0,0,0,.23-2.35,6.68,6.68,0,0,0-.06-.73c0-.32-.1-.65-.17-1a4.77,4.77,0,0,0-.3-.88.86.86,0,0,0-.37-.47,1,1,0,0,0,.41-.58,4.55,4.55,0,0,0,.18-1c0-.35,0-.69,0-1s0-.57,0-.72a.92.92,0,0,1,.45-.2l.48-.08a.76.76,0,0,0,.39-.15.49.49,0,0,0,.16-.43,1.18,1.18,0,0,0-.08-.43.34.34,0,0,0-.35-.2,4.78,4.78,0,0,0-1.13.18,3.4,3.4,0,0,0-1.09.45,4.42,4.42,0,0,1-.65-.57c-.29-.3-.48-.5-.56-.6v-.31a2,2,0,0,1,.31-.35,1.33,1.33,0,0,1,.27-.24,1.13,1.13,0,0,1,.55.08,3.26,3.26,0,0,1,.62.31l.59.35a.94.94,0,0,0,.47.16h.15a4,4,0,0,1,.43-.16l.47-.15h-1a.78.78,0,0,1,.23-.59c.16-.15.32-.3.51-.45s.35-.29.52-.44a1.12,1.12,0,0,0,.33-.59l1.76-10,.35,0a2.81,2.81,0,0,1,.59.06,1.46,1.46,0,0,1,.54.25c.05.29.14.78.26,1.48s.23,1.44.35,2.23.22,1.52.33,2.22.18,1.18.23,1.44v.31a.74.74,0,0,1-.13.31.9.9,0,0,0-.14.28s0,.08.14.15.13.13.13.16v.12a6.33,6.33,0,0,1-.15,1.4,5.94,5.94,0,0,0-.16,1.44,3.32,3.32,0,0,0,.16,1.17,3.13,3.13,0,0,1,.15,1V17l-.13.16c-.07.08-.12.12-.14.12s-.07-.15-.14-.3a1,1,0,0,0-.17-.29s0,0-.06,0,0,.08-.06.08a.79.79,0,0,0,.12.45,2.6,2.6,0,0,0,.25.33,2,2,0,0,1,.25.33.71.71,0,0,1,.12.41.5.5,0,0,1,0,.16,1.09,1.09,0,0,1-.43.17,1.94,1.94,0,0,1-.47.1c0,.08-.06.23-.11.47s-.11.47-.18.72-.12.49-.17.72-.09.39-.12.47v.27a.84.84,0,0,0,.31.31h.16l.35-.11.7-.26c.26-.09.5-.19.72-.29a1.73,1.73,0,0,0,.41-.23q-.07.23.24.6a3.21,3.21,0,0,1,.39.57s.07,0,.13-.12l.14-.16v-.31a1.31,1.31,0,0,0-.14-.27.85.85,0,0,1-.13-.31V19.66c0-.13-.08-.39-.14-.78s-.14-.86-.22-1.39-.16-1.09-.25-1.68-.17-1.14-.25-1.67-.15-1-.22-1.39S29,12.1,29,12v-.15a.26.26,0,0,1,.13-.24l.3-.17a1.61,1.61,0,0,0,.29-.24.61.61,0,0,0,.17-.37c-.44.06-.73,0-.87-.29a2.54,2.54,0,0,1-.3-.88c-.05-.2-.11-.57-.19-1.09s-.17-1.08-.27-1.68S28,5.7,28,5.17s-.13-.92-.15-1.15V3.55a3.85,3.85,0,0,1,.06-.66c0-.24.2-.35.48-.35h.35l.28.17a.88.88,0,0,0,.31.14,3.78,3.78,0,0,1,.41,0l.6,0,.65,0a3.69,3.69,0,0,1,.41,0,3,3,0,0,0,.37.74c.14.21.26.41.37.6a2.32,2.32,0,0,1,.21.66,2.08,2.08,0,0,1-.1.92c.16.05.37.12.65.19a.84.84,0,0,1,.56.43H32.6a1.91,1.91,0,0,1-.05.29.46.46,0,0,0,0,.3,1.36,1.36,0,0,0,.15.27.72.72,0,0,1,.16.31.64.64,0,0,1-.16.29.76.76,0,0,0-.15.29,1.94,1.94,0,0,0,0,.22c0,.12.06.24.1.37l.12.37a1.25,1.25,0,0,1,.06.21,4.81,4.81,0,0,0,.06.61q.06.4.09.87c0,.32.06.61.08.9s0,.48,0,.58a1,1,0,0,0,.39.35,3.56,3.56,0,0,0,.59.28l.81.27v.19a1.48,1.48,0,0,0-.79.26.79.79,0,0,0-.41.72,1.39,1.39,0,0,0,.33.93,4.77,4.77,0,0,1,.56.82v.31l-.13.29a1.36,1.36,0,0,1-.18.3l.9,1.75a1.09,1.09,0,0,0-.28.51,4.16,4.16,0,0,0,0,.54c0,.39.07.6.23.64a2.79,2.79,0,0,0,.55.08,1,1,0,0,1,.6.27A2,2,0,0,1,36.66,22a1.07,1.07,0,0,0-1.09.68,1.71,1.71,0,0,0-.12.65V24a1.35,1.35,0,0,0,.14.66,1.84,1.84,0,0,0,.31.41,3.8,3.8,0,0,1,.33.37.81.81,0,0,1,.16.5,1.17,1.17,0,0,1,0,.16s0,.1,0,.22-.06.24-.1.38l-.1.39c0,.12,0,.19,0,.22s.08.15.24.31a.92.92,0,0,0,.35.27v2.92c.08.06.23.2.47.43s.37.39.43.47a.27.27,0,0,0,0,.12.36.36,0,0,1,0,.11.71.71,0,0,0-.72.41,4.25,4.25,0,0,0-.25.84H32.53l-.32-.31a3.57,3.57,0,0,0-.15-2.36,2.16,2.16,0,0,0-1.87-1.15v-.54a5.73,5.73,0,0,0-1.1.13,2.26,2.26,0,0,0-1,.41v-.31a3.9,3.9,0,0,1-.18-.49,3.68,3.68,0,0,0-.13-.4h-.12a1.55,1.55,0,0,0-1.17.4,2.53,2.53,0,0,0-.58,1.06A9,9,0,0,0,25.62,31a10.84,10.84,0,0,1-.31,1.36,2.39,2.39,0,0,1-.62,1,1.73,1.73,0,0,1-1.25.41,2.32,2.32,0,0,1-.9-.15,1.78,1.78,0,0,0-.78-.16h-.15a1.68,1.68,0,0,1-.28.18.79.79,0,0,1-.31.13c-.18,0-.28-.09-.29-.29a3.69,3.69,0,0,1,0-.41A13,13,0,0,1,20.94,30.71Zm-.89-10.16c0,.19-.07.28-.2.28s-.23-.09-.23-.28.07-.31.23-.31S20.05,20.35,20.05,20.55Zm1-5h.31v-.27H21Zm.31,2.38H21l.31-.31ZM26.4,27c0,.21.08.31.24.31s.19-.1.19-.31-.06-.32-.19-.32S26.4,26.82,26.4,27Zm1.8-5.58c0,.18.06.27.19.27s.24-.09.24-.27-.08-.31-.24-.31S28.2,21.24,28.2,21.45Zm.5.27a1.08,1.08,0,0,0-.17.3c-.07.14-.11.24-.14.29a.12.12,0,0,1,.08,0l.08,0,.15,0a1,1,0,0,0,.18-.29,1.11,1.11,0,0,0,.1-.3l-.16,0Zm.51-5.89c0,.19-.08.28-.23.28s-.2-.09-.2-.28.07-.31.2-.31S29.21,15.63,29.21,15.83Zm0,4.72c0,.19-.08.28-.23.28s-.2-.09-.2-.28.07-.31.2-.31S29.21,20.35,29.21,20.55ZM29.29,30H29v-.31Zm.19-13.57c0,.18-.06.27-.19.27s-.24-.09-.24-.27.08-.31.24-.31S29.48,16.21,29.48,16.42ZM29.37,27c0,.21.06.31.19.31s.24-.1.24-.31-.08-.32-.24-.32S29.37,26.82,29.37,27Zm.89-13.85c0,.18.07.28.2.28s.23-.1.23-.28-.08-.31-.23-.31S30.26,13,30.26,13.18ZM31.55,2.26c0,.18-.06.28-.19.28s-.24-.1-.24-.28S31.2,2,31.36,2,31.55,2.05,31.55,2.26Zm4.37,19.31c-.13,0-.18.05-.16.15a.16.16,0,0,0,.16.12.14.14,0,0,0,.15-.12Q36.12,21.57,35.92,21.57Zm1.17,5a.21.21,0,0,1-.16-.12c0-.1,0-.15.16-.15s.18.05.15.15A.14.14,0,0,1,37.09,26.56Zm.66-.7c0,.18-.06.27-.19.27s-.24-.09-.24-.27.08-.32.24-.32S37.75,25.65,37.75,25.86Zm-.08-3.08s0,.09-.11.11-.16,0-.16-.15.05-.17.16-.12A.16.16,0,0,1,37.67,22.78ZM39,22v.31h-.58V22Z"/><path class="cls-1" d="M47.46,28.94l.28-.59H44.5v-.43c0-.28,0-.78,0-1.48s.06-1.44.09-2.22.08-1.52.1-2.2.05-1.18.08-1.47c0-.05,0-.11.12-.17a1.12,1.12,0,0,0,.15-.14,0,0,0,0,1,.08,0s.05.06.08.06a.4.4,0,0,1,.1-.18q.09-.13.06-.21a1.44,1.44,0,0,0-.43-.18,2.47,2.47,0,0,0-.47-.09v-3a.25.25,0,0,1,.12-.25.42.42,0,0,1,.25,0,1.31,1.31,0,0,1,.27.06l.18,0a1.21,1.21,0,0,0-.16-.63,3,3,0,0,0-.35-.5l-.37-.47a1.46,1.46,0,0,1-.25-.55,3.68,3.68,0,0,1,0-.45,3.21,3.21,0,0,0,0-.62.69.69,0,0,0-.24-.45c-.13-.1-.35-.09-.66,0V11.43l-.16,0-.15,0-.45.17a2.46,2.46,0,0,1-.45.14,2,2,0,0,1-.43-.14l-.43-.17a.54.54,0,0,0-.15,0l-.16,0v.62l-.29,0a.81.81,0,0,1-.3-.06.75.75,0,0,1-.29-.13.77.77,0,0,0-.29-.14,2,2,0,0,0-1,.31,2.07,2.07,0,0,1-1.08.31c0-.2,0-.43,0-.68a3.78,3.78,0,0,1,.12-.7,1.41,1.41,0,0,1,.31-.55.91.91,0,0,1,.65-.21,1.84,1.84,0,0,1,.68.1,1.94,1.94,0,0,1,.64.52,1,1,0,0,1,.61-.48,2.73,2.73,0,0,1,.76-.1,5.59,5.59,0,0,1,.8.06,1.61,1.61,0,0,0,.76-.06s.08-.05.17-.14l.27-.29.28-.29.17-.18a1.08,1.08,0,0,1,.3-.17.8.8,0,0,1,.29-.1.79.79,0,0,1-.18-.16,1.34,1.34,0,0,0-.13-.15V8.42l.17-.13c.09-.07.14-.11.14-.14s0-.08,0-.15a.46.46,0,0,1-.06-.16h-.27a.45.45,0,0,1,0-.14c0-.06,0-.11,0-.13s.13-.27.25-.49.23-.46.35-.72.23-.5.35-.72a4.74,4.74,0,0,1,.26-.45l-.59-.28a.87.87,0,0,0,.43-.35,1.75,1.75,0,0,0,.23-.5,2.2,2.2,0,0,0,.1-.57c0-.19,0-.36,0-.49.16,0,.42,0,.78,0a8,8,0,0,1,1.09,0,2.73,2.73,0,0,1,1,.28.75.75,0,0,1,.43.72h.43s0,.07,0,.13a.48.48,0,0,1-.06.14,2.87,2.87,0,0,0-.35.68l-.33.82a7.26,7.26,0,0,1-.38.74,1.15,1.15,0,0,1-.42.45.85.85,0,0,0-.14-.82.89.89,0,0,0-.72-.39.34.34,0,0,0-.2.12.29.29,0,0,0-.11.19c0,.08.14.27.29.57s.24.5.29.6v.32s-.07.15-.14.29l-.13.29h.7v.9a1.53,1.53,0,0,1,1.05-.9s0,.12,0,.22,0,.16,0,.21a.58.58,0,0,1-.15.45l-.34.25-.33.22a.29.29,0,0,0-.15.25.5.5,0,0,0,0,.16l.29.15a1.37,1.37,0,0,1,.29.16l.47.27v3.78a2.84,2.84,0,0,0,.88-.13,2.74,2.74,0,0,1,.87-.14,1,1,0,0,1-.39.8l-.85.72a6.35,6.35,0,0,0-.86.86,1.83,1.83,0,0,0-.39,1.21A3.62,3.62,0,0,0,48.44,19a5.51,5.51,0,0,1,.47,1.52,1.27,1.27,0,0,1,0,.41c0,.2,0,.41-.05.65s-.06.44-.08.64a2.83,2.83,0,0,0,0,.41,1.21,1.21,0,0,0,.45-.06c.09,0,.2.06.33.29l-.62.32V25h.62c0,.23.1.43.14.58a3.86,3.86,0,0,1,.09.49,2.41,2.41,0,0,1,0,.41V28.2a.51.51,0,0,0,.33.43,2.58,2.58,0,0,0,.65.15,3.7,3.7,0,0,0,.66,0l.43,0,.82.12,1.25.17,1.24.2.82.14a.91.91,0,0,1,.53.33,1.28,1.28,0,0,1,.37.52,4.64,4.64,0,0,1-.19.59c-.13.36-.29.77-.47,1.21s-.35.84-.51,1.21-.26.54-.31.54H51.6l-.32-.15L51,33.5h-.15a.6.6,0,0,0-.49.16c-.09.1-.32.15-.68.15a1.85,1.85,0,0,1-1.13-.31,1.81,1.81,0,0,0-1.1-.31,2.84,2.84,0,0,0-.66.08.81.81,0,0,0-.51.54c0-.26,0-.43-.13-.5a.79.79,0,0,0-.45-.12c-.18,0-.3,0-.35.14l-.16.27a2.22,2.22,0,0,1-.19.27.63.63,0,0,1-.47.14V28.94ZM38.1,11.7c0,.18.07.27.2.27s.23-.09.23-.27-.08-.31-.23-.31S38.1,11.49,38.1,11.7Zm1.91.9c0,.18-.07.27-.23.27s-.23-.09-.23-.27.07-.31.23-.31S40,12.39,40,12.6Zm2.5-5,.23,0a1.39,1.39,0,0,1-.25.46,3.49,3.49,0,0,0-.25.32.83.83,0,0,0-.16.37,1.65,1.65,0,0,0,0,.6,1.36,1.36,0,0,0-.41-.25A1.44,1.44,0,0,0,41.26,9a.68.68,0,0,0-.58.21.79.79,0,0,1-.67.22,1.64,1.64,0,0,1,.76-1.39,2.65,2.65,0,0,1,1.51-.52A1.11,1.11,0,0,1,42.51,7.55ZM41,8.15c0,.18.08.27.23.27s.2-.09.2-.27-.07-.31-.2-.31S41,7.94,41,8.15Zm1.83,1.33a.14.14,0,0,1-.12.15q-.15,0-.15-.15c0-.13,0-.18.15-.16A.16.16,0,0,1,42.86,9.48Zm1,1.6a.94.94,0,0,0,.45-.16.49.49,0,0,0,.26-.43h-.71Zm.9-8.23V4H44.5V2.85ZM45.24,21c-.13,0-.18.05-.16.16a.17.17,0,0,0,.32,0C45.42,21,45.37,21,45.24,21Zm-.08-7.52c0,.2.08.31.24.31s.19-.11.19-.31-.06-.32-.19-.32S45.16,13.25,45.16,13.46Zm.31-2.93c0,.18.07.27.2.27s.23-.09.23-.27-.08-.31-.23-.31S45.47,10.32,45.47,10.53Zm.28.27c0,.19.07.28.23.28s.2-.09.2-.28-.07-.31-.2-.31S45.75,10.6,45.75,10.8Zm.82-.37a1.82,1.82,0,0,0,.66.14.69.69,0,0,0-.33-.63,5.44,5.44,0,0,0-.65-.31.42.42,0,0,1,0,.14,1.15,1.15,0,0,0,0,.14A.51.51,0,0,0,46.57,10.43Zm-.24,7.16q0,.27.24.27c.15,0,.23-.09.23-.27s-.08-.31-.23-.31S46.33,17.38,46.33,17.59Zm.31-12.36q0,.27.24.27c.13,0,.19-.09.19-.27s-.06-.32-.19-.32S46.64,5,46.64,5.23Zm.74,1.17c0,.18-.07.27-.23.27S47,6.58,47,6.4s.06-.32.19-.32S47.38,6.19,47.38,6.4ZM47.54,4c0,.18.06.27.2.27S48,4.2,48,4s-.08-.31-.23-.31S47.54,3.81,47.54,4Zm0,12.71c0,.18.06.27.2.27s.23-.09.23-.27-.08-.31-.23-.31S47.54,16.52,47.54,16.73ZM48.13,4.6c0,.21.06.31.19.31s.23-.1.23-.31-.07-.31-.23-.31S48.13,4.39,48.13,4.6Zm0,23.91c0,.18.06.27.19.27s.23-.09.23-.27-.07-.31-.23-.31S48.13,28.3,48.13,28.51ZM49,6.16a2.86,2.86,0,0,1,.06.51h-.39v-.9A.45.45,0,0,1,49,6.16Zm.18,3.47c0,.19-.08.28-.23.28s-.2-.09-.2-.28.06-.31.2-.31S49.14,9.43,49.14,9.63Zm-.35,17.83q0,.2.12.15c.1,0,.15-.06.15-.11s-.05-.13-.15-.16S48.79,27.33,48.79,27.46Zm2.3-19.21c.16.22.22.38.19.49a1.74,1.74,0,0,1-.37.72c-.22.3-.39.45-.52.45h-.31V9.79a.3.3,0,0,1,0-.16c0-.07.07-.2.12-.37s.1-.34.16-.52.11-.36.17-.53.11-.29.14-.37A1.39,1.39,0,0,1,51.09,8.25Zm-.08,2v.15c0,.06,0,.1,0,.12a2.15,2.15,0,0,1-.11.47,4,4,0,0,1-.16.43V10.22Zm6.16,21.53H56.9v-.32Zm.59-3.63v.74a.6.6,0,0,1-.59-.35A.63.63,0,0,1,57.76,28.12Z"/><path class="cls-1" d="M67.62,32.66c-.36-.22-.76-.45-1.18-.68l-1.21-.66c-.38-.21-.58-.37-.61-.47s.08,0,.16-.12l.15-.15v-.16c0-.42-.13-.68-.41-.8a2.33,2.33,0,0,0-.95-.18V27.92a3.82,3.82,0,0,1-.49.16,2.52,2.52,0,0,1-.53.12,1.51,1.51,0,0,1-.44,0l-.45,0a3.39,3.39,0,0,0-.43.31,1.33,1.33,0,0,1-.43.27s-.15-.09-.29-.27-.24-.29-.3-.31a.71.71,0,0,0-.44.06l-.55.21-.55.23a1,1,0,0,1-.41.12c-.07,0-.11,0-.11,0a1.08,1.08,0,0,1-.2-.13c-.07-.07-.11-.11-.11-.14a3,3,0,0,1,.35-1.35,11.39,11.39,0,0,0,.54-1.3.72.72,0,0,0,.22.41,4.25,4.25,0,0,0,.47.48,2.84,2.84,0,0,0,.52.41.88.88,0,0,0,.39.18l.51-.08,1-.19,1-.22a2.53,2.53,0,0,0,.54-.14s.07-.08.14-.25a2.08,2.08,0,0,1,.14-.33l.58-.59c0-.23,0-.59.08-1.09s0-1,.06-1.65,0-1.27,0-1.95,0-1.35.06-2,0-1.19,0-1.68,0-.86,0-1.09,0-.65,0-1.23,0-1.21-.08-1.87,0-1.29-.09-1.88-.07-1-.1-1.22a2.19,2.19,0,0,0-.2.46,4.35,4.35,0,0,1-.17.51,1.46,1.46,0,0,1-.27.41.72.72,0,0,1-.53.18V8.58a1.83,1.83,0,0,0,.78-.21.69.69,0,0,0,.43-.65c0-.1,0-.15,0-.15A5.74,5.74,0,0,0,64,6.83h-1.8l2.07-.75a1.23,1.23,0,0,1-.18-.29A.94.94,0,0,1,64,5.5s0-.08.13-.16.14-.13.14-.15,0-.09,0-.28V4.1a1,1,0,0,0,0-.39l-1.17.62a1.55,1.55,0,0,1,.62-1.11,2.51,2.51,0,0,1,1.12-.35,7.71,7.71,0,0,1,1.36,0,6.7,6.7,0,0,0,1.35,0l.21-.1.37-.21a2.72,2.72,0,0,1,.37-.2,1,1,0,0,1,.22-.08s.15.07.31.22a.88.88,0,0,1,.27.37,1.05,1.05,0,0,1-.14.27c-.09.16-.15.26-.17.31a3.07,3.07,0,0,1-.06.45c0,.22-.07.46-.1.72s-.05.5-.08.72,0,.37,0,.45l.62.2a.84.84,0,0,1,.55.43.86.86,0,0,0-.82.62,4.48,4.48,0,0,0-.35,1.44,10.85,10.85,0,0,0-.06,1.6c0,.52,0,.87,0,1a8.37,8.37,0,0,0,.17,1.7,7.71,7.71,0,0,1,.18,1.7v.23a.37.37,0,0,1,0,.2.77.77,0,0,1-.14.29.69.69,0,0,0-.13.29q0,.08,0,.33c0,.17.06.35.1.55s.07.38.1.56a3,3,0,0,1,0,.32.37.37,0,0,0,0,.09.58.58,0,0,1,0,.1.74.74,0,0,1-.18.49.84.84,0,0,0-.17.53,1.37,1.37,0,0,0,.17.68,1.33,1.33,0,0,1,.18.72v.35a.9.9,0,0,1,0,.31c0,.13,0,.37,0,.7s0,.69-.08,1.06-.06.71-.1,1.05,0,.57,0,.7a1.09,1.09,0,0,0,.58.47,1.24,1.24,0,0,1,.59.43.35.35,0,0,1-.1.19q-.1.12-.18.12a1,1,0,0,1-.31-.12A1.21,1.21,0,0,1,69,25v.58a6.33,6.33,0,0,0,.35,2.19,3.63,3.63,0,0,0,1.44,1.68.78.78,0,0,1,.18.13c.06.07.1.11.1.14v3.55l-.28.27H68.76l-.32.16a2,2,0,0,0-.27.15h-.31a1.19,1.19,0,0,0,.19-.29.78.78,0,0,0,.12-.29C68.17,33.07,68,32.88,67.62,32.66Zm-9.39-4.42c0,.18.06.27.19.27s.23-.09.23-.27-.07-.32-.23-.32S58.23,28,58.23,28.24Zm4.71-4.1a1.88,1.88,0,0,1-.07.37c-.06.2-.12.39-.2.59s-.15.37-.23.52-.14.24-.2.24a1.67,1.67,0,0,1-.27-.14l-.31-.18H61.5a.89.89,0,0,0-.5.26,2.1,2.1,0,0,1-.51.33V26a1.22,1.22,0,0,1,.27-.91,2,2,0,0,1,.61-.39,4.2,4.2,0,0,0,.6-.3.65.65,0,0,0,.27-.62A.74.74,0,0,0,62.94,24.14Zm-2.37,3.78c0,.19.07.28.23.28s.2-.09.2-.28-.07-.31-.2-.31S60.57,27.72,60.57,27.92Zm1-3.08c-.13,0-.18,0-.16.12s.08.16.16.16.09-.06.12-.16S61.65,24.84,61.54,24.84Zm.94,4.88q0,.27-.24.27c-.13,0-.19-.09-.19-.27s.06-.31.19-.31S62.48,29.51,62.48,29.72Zm.66-3.59h-.27l.27-.27Zm.08-15.91c0,.18.08.27.23.27s.2-.09.2-.27-.07-.31-.2-.31S63.22,10,63.22,10.22ZM64,27.61a.47.47,0,0,0,.15,0,.24.24,0,0,0,.12,0,.78.78,0,0,0,.18-.13l.13-.14L64.31,27Zm.07-18.25c0,.18.07.27.2.27s.23-.09.23-.27-.07-.31-.23-.31S64.11,9.15,64.11,9.36ZM65.6,25.58c0,.19.06.28.19.28s.24-.09.24-.28-.08-.31-.24-.31S65.6,25.38,65.6,25.58Zm.86.86c0,.18.07.27.23.27s.19-.09.19-.27-.06-.31-.19-.31S66.46,26.23,66.46,26.44Zm4.05-13.26-.27.28v-.28Zm0,4.1-.27.31v-.31Zm0,3-.27.31v-.31Zm.06,5.34a3.45,3.45,0,0,1,.25-.62.87.87,0,0,1,.3.12,1.19,1.19,0,0,1,.29.19v.12a3.26,3.26,0,0,1-.2,1.17A3.89,3.89,0,0,0,71,27.92H70.9a1.92,1.92,0,0,0-.19-.91,1.8,1.8,0,0,1-.2-.84A2.49,2.49,0,0,1,70.57,25.58Zm.68-1.32s0,.09-.15.12-.12,0-.12-.16,0-.18.12-.16S71.25,24.18,71.25,24.26Zm1.15,4.85.72-.8a9.31,9.31,0,0,1,.71-.7,1,1,0,0,1,.62-.31,1.4,1.4,0,0,1,.58.1c.16.06.24.23.24.48a1.85,1.85,0,0,1-.08.65.26.26,0,0,1-.27.17,2.5,2.5,0,0,1-.41-.05,2.68,2.68,0,0,0-.61-.06q0,.54.24.66a1.48,1.48,0,0,0,.56.14,3.51,3.51,0,0,1,.65.09.74.74,0,0,1,.46.51,4.71,4.71,0,0,0-.74,0,4.46,4.46,0,0,0-.7,0,.29.29,0,0,0-.19.1c-.08.06-.12.12-.12.17l.31.32H77.1a1.59,1.59,0,0,1-.39,1.17,4.13,4.13,0,0,1-.93.68L74.66,33a2.61,2.61,0,0,0-.91.8,2.09,2.09,0,0,1-.33,0l-.53-.09c-.18,0-.36-.08-.53-.1A2.44,2.44,0,0,1,72,33.5s-.11,0-.17-.12a.32.32,0,0,1-.1-.15V29.68A2.32,2.32,0,0,0,72.4,29.11Zm3.88-2.53a1.58,1.58,0,0,1-.74.17h-.19a.15.15,0,0,1-.12,0,3,3,0,0,1-.58-.11l-.59-.16V24.69c0-.55,0-1.39,0-2.54s0-2.43.06-3.86,0-2.94.06-4.52,0-3.1,0-4.53,0-2.71.06-3.86,0-2,.06-2.53l.33,0,.53,0,.53,0a2.93,2.93,0,0,1,.37,0,.64.64,0,0,0,.29-.16.7.7,0,0,1,.29-.15s.08,0,.16.13l.15.18h.28a.65.65,0,0,0,.54-.2.79.79,0,0,1,.63-.19v7.76a.32.32,0,0,1,.19.1c.08.06.12.12.12.17a.72.72,0,0,1-.16.31.86.86,0,0,0-.15.31,1.08,1.08,0,0,0,.15.28.72.72,0,0,1,.16.31c0,.23,0,.38,0,.43a3.83,3.83,0,0,1,0,.53,1.29,1.29,0,0,1-.31.52V17a.4.4,0,0,1,.33.37c0,.2,0,.36,0,.49a10,10,0,0,1-.18,1.93,10.91,10.91,0,0,0-.17,1.93,7.7,7.7,0,0,0,.15,1.6,6.46,6.46,0,0,1,.16,1.48,3.77,3.77,0,0,1-.1.65c-.06.32-.15.67-.25,1s-.2.69-.29,1-.18.44-.26.46-.31-.15-.31-.31V27.1a1.42,1.42,0,0,0-.08-.48c0-.14-.21-.22-.47-.22A1.62,1.62,0,0,0,76.28,26.58ZM76,20.08c0,.14,0,.19.16.16s.11-.06.11-.12a.22.22,0,0,0-.11-.19C76,19.9,76,20,76,20.08Zm.74,8.43-.27.27v-.27Zm1.91.16s-.05.09-.15.11-.12,0-.12-.11,0-.19.12-.16S78.62,28.59,78.62,28.67ZM79,16.15c0,.18-.07.27-.23.27s-.24-.09-.24-.27.08-.32.24-.32S79,15.94,79,16.15Zm1.25-3-.31.28v-.28Zm5.07.88a1.55,1.55,0,0,1,0,.29,1.6,1.6,0,0,1,0,.33.64.64,0,0,1-.08.26c0,.1-.23.19-.52.25a1.2,1.2,0,0,1-.65,0,1.91,1.91,0,0,1,.49-.82,5.17,5.17,0,0,1,.68-.62A1.21,1.21,0,0,1,85.33,14.06Zm-.93,2h-.32l.32-.59Zm.5-2.34c0,.18-.08.27-.23.27s-.2-.09-.2-.27.07-.31.2-.31S84.9,13.56,84.9,13.77Zm.59,2.06c0,.19-.08.28-.24.28s-.19-.09-.19-.28.06-.31.19-.31S85.49,15.63,85.49,15.83Z"/><path class="cls-1" d="M89.45,27.05a2.81,2.81,0,0,1,.66.91,5.15,5.15,0,0,1,.37,1.17c.08.42.13.8.16,1.13a1,1,0,0,1,0-.6,1.42,1.42,0,0,1,.24-.57q.07-.07.45,0l.45,0L92.1,29a1.23,1.23,0,0,0,.29-.18.22.22,0,0,0,0,.16c0,.08,0,.13,0,.15a1.18,1.18,0,0,0,.31.2c.16.08.25.1.28.08l2.65-1.64V10.22s0-.07-.1-.14l-.18-.17a1,1,0,0,1-.46-.49,2.36,2.36,0,0,1-.12-.51,2.42,2.42,0,0,0-.14-.51,1.6,1.6,0,0,0-.48-.56,1.87,1.87,0,0,0-.9-.31l-1.17-.16a3.52,3.52,0,0,1-1-.29,1,1,0,0,1-.56-.72V17.59a4.42,4.42,0,0,0-.37.27l-.37.31,0,.12a.62.62,0,0,0,.17.49q.18.13.18.6v.31c0,.16,0,.24,0,.24a.62.62,0,0,1-.08.23c-.05.11-.11.23-.19.37s-.15.28-.22.39a.78.78,0,0,0-.09.22,4.67,4.67,0,0,0-.08.7c0,.34-.06.69-.1,1.05s-.06.72-.08,1.06,0,.57,0,.7a9.06,9.06,0,0,1-1.23,1,5.75,5.75,0,0,1-1.42.76V24.38a1.78,1.78,0,0,1,.14-.14.62.62,0,0,0,.13-.18.54.54,0,0,0,0-.15l0-.12a2.13,2.13,0,0,0-.19-.29,2.86,2.86,0,0,0-.23-.29v-7.1a2.58,2.58,0,0,1-1.1-.26,1.27,1.27,0,0,1-.56-.54,1.87,1.87,0,0,1-.2-.78c0-.3,0-.63,0-1a7.09,7.09,0,0,0-1.38.12,6.71,6.71,0,0,1-1.31.12h-.15a.28.28,0,0,1-.16,0,.77.77,0,0,1,.1-.24,4.49,4.49,0,0,1,.23-.41c.09-.14.18-.21.26-.21h2.76a.37.37,0,0,0-.07-.16c-.06-.07-.07-.13,0-.15a1.25,1.25,0,0,1,.31-.29c.18-.15.27-.24.27-.3a.42.42,0,0,0-.12-.45,1.6,1.6,0,0,0-.46-.27,3.7,3.7,0,0,0-.55-.14l-.31,0a6.3,6.3,0,0,1,.56-.3l.61-.29.21,0,.39-.08L86,10.3a.71.71,0,0,0,.2-.08c0-.08,0-.22-.14-.43a1.22,1.22,0,0,1-.21-.39,2.07,2.07,0,0,1-.43-.06.9.9,0,0,0-.39,0l-.22,0-.37.1-.37.1-.21,0a1.83,1.83,0,0,1-1.07-.68,1.85,1.85,0,0,1-.41-1.19A3.5,3.5,0,0,1,84,8.09a3.2,3.2,0,0,0,1.5.37.47.47,0,0,0,.15,0l.16-.13.16-.14c-.06,0-.12,0-.2-.12a.3.3,0,0,1-.12-.19.88.88,0,0,1,.14-.31,1.68,1.68,0,0,1,.18-.28,7.1,7.1,0,0,0,.33-1.07q.09-.48.15-1a9,9,0,0,0,.06-1.06c0-.39,0-.83,0-1.32a2.83,2.83,0,0,0,.41,0l.62-.1.63-.1.41,0h.15a2.19,2.19,0,0,1,.71.11,2.35,2.35,0,0,1,.64.35,2,2,0,0,1,.47.57,1.1,1.1,0,0,1,.1.72,1.26,1.26,0,0,1,.17-.84A2.25,2.25,0,0,1,91.26,3a3.68,3.68,0,0,0,.41-.33.45.45,0,0,0,.14-.43,1.63,1.63,0,0,0-.3-.29,1.45,1.45,0,0,1-.29-.29,1.35,1.35,0,0,1-.1-.28,1,1,0,0,1-.06-.27A2.38,2.38,0,0,0,92,.9a2.39,2.39,0,0,1,1-.2v.66h-.43s0,.08-.12.14-.09.11,0,.14a2.52,2.52,0,0,0,.47.19,1.92,1.92,0,0,0,.43.12.93.93,0,0,0,.21-.14l.37-.29.37-.29.22-.18.15,0a.5.5,0,0,0,.16,0c0,.08-.16.27-.31.57l-.31.6a.81.81,0,0,0,0,.26.86.86,0,0,1,.06.25s.06,0,.1.06.07,0,.1,0a1.83,1.83,0,0,0,.29-.27L95,2.22c.42.29.92.61,1.52,1a3.42,3.42,0,0,0,1.72.53,1.25,1.25,0,0,0,.31-.1q.24-.1.27-.18a4.94,4.94,0,0,0,.43,1.74,12.28,12.28,0,0,0,.84,1.58c.3.46.57.85.8,1.17a3.23,3.23,0,0,1,.35.5.52.52,0,0,1-.15.43,1.58,1.58,0,0,1-.36.2l-.38.17a.7.7,0,0,0-.32.37,1,1,0,0,0,.12.47c.1.26.16.41.16.43a1,1,0,0,0,0,.2c0,.1,0,.18,0,.23a7.61,7.61,0,0,1-.18,1.66,7.45,7.45,0,0,0-.18,1.65,3.37,3.37,0,0,0,.18,1.16,3.27,3.27,0,0,1,.18,1.15c0,.1,0,.24,0,.42a3,3,0,0,0,0,.32,2.46,2.46,0,0,1-.14.45,2.24,2.24,0,0,0-.14.44.79.79,0,0,0,.14.3.77.77,0,0,1,.14.29,1.69,1.69,0,0,1,0,.51v.66a2.38,2.38,0,0,1-.18,1,2.13,2.13,0,0,0-.18.92,1.8,1.8,0,0,0,.18.82,2,2,0,0,1,.18.93v.86a1.06,1.06,0,0,1-.32.78v3.24a.57.57,0,0,0-.23.25c-.08.15-.11.26-.08.33a1.79,1.79,0,0,0,.88.88,2.22,2.22,0,0,0,1.19.29c-.34-.05-.56,0-.66.08a.82.82,0,0,0-.22.41,5.35,5.35,0,0,1-.16.55.77.77,0,0,1-.44.45,1.53,1.53,0,0,0-.3-.73.78.78,0,0,0-.56-.17,1.4,1.4,0,0,0-.78.23,6.78,6.78,0,0,0-.7.53l-.71.58a2.34,2.34,0,0,1-.78.45.32.32,0,0,0,0-.35.67.67,0,0,0-.27-.23,1.16,1.16,0,0,1-.27.29l-.31.29h-.12a2,2,0,0,1-1.11-.31A2.08,2.08,0,0,0,93.25,32c-.83,0-1.59,0-2.28.08s-1.49.13-2.4.23l.13.14a.66.66,0,0,1,.14.17.5.5,0,0,1,0,.16.54.54,0,0,1-.25.43,2.66,2.66,0,0,1-.57.33,2.47,2.47,0,0,1-.64.19,3.12,3.12,0,0,1-.49.06h-.16a.59.59,0,0,1-.17-.13.28.28,0,0,1-.1-.18V27.34a.41.41,0,0,1,.27-.37,2.43,2.43,0,0,1,.61-.2A4.9,4.9,0,0,1,88,26.7l.37,0A1.56,1.56,0,0,1,89.45,27.05ZM84.12,9V8.42l-.27.32ZM86,13.88c-.13,0-.17.06-.11.16s.06.16.11.16.13-.06.16-.16S86.16,13.88,86,13.88ZM86.58,22c0,.18.06.27.19.27S87,22.22,87,22s-.08-.32-.24-.32S86.58,21.83,86.58,22Zm.78,8.22-.14.14a.62.62,0,0,0-.13.18l.58-.32h-.31Zm.16-29c-.08,0-.14-.05-.16-.16s0-.15.16-.15.18,0,.15.15S87.59,1.21,87.52,1.21ZM88,33q0,.27.24.27c.15,0,.23-.09.23-.27s-.08-.32-.23-.32S88,32.75,88,33ZM89.48.16a2.92,2.92,0,0,1,.57.37,4.22,4.22,0,0,1,.49.45.64.64,0,0,1,.21.38,2.31,2.31,0,0,1-1.25-.29A1.15,1.15,0,0,1,89,0,1,1,0,0,1,89.48.16Zm.45,32.48c0,.19-.06.28-.19.28s-.24-.09-.24-.28.08-.31.24-.31S89.93,32.44,89.93,32.64ZM91.14,17c0,.19-.08.28-.23.28s-.2-.09-.2-.28.07-.31.2-.31S91.14,16.8,91.14,17Zm0,7.1c0,.18-.08.28-.23.28s-.2-.1-.2-.28.07-.31.2-.31S91.14,23.89,91.14,24.1Zm.35-14.51v.63a.63.63,0,0,1-.35-.63Zm0,23.05v.28l-.27-.28ZM92,25.27c0,.18-.06.27-.19.27s-.24-.09-.24-.27.08-.31.24-.31S92,25.06,92,25.27Zm1,7.37v.67a.75.75,0,0,1-.53-.26,3.75,3.75,0,0,1-.37-.41Zm.74-24.22a.36.36,0,0,1-.14.3,2.27,2.27,0,0,1-.31.17,1.24,1.24,0,0,1-.35.1L92.7,9V8.42Zm.35,24.22c0,.19-.07.28-.2.28s-.23-.09-.23-.28.08-.31.23-.31S94.07,32.44,94.07,32.64Zm2-6.78c0,.18.06.27.19.27s.24-.09.24-.27-.08-.32-.24-.32S96,25.65,96,25.86Zm3.58-8.7c-.13,0-.16,0-.11.12s.06.15.11.15.13-.05.16-.15S99.73,17.16,99.6,17.16Zm1.25,9.59c0,.19-.06.28-.19.28s-.24-.09-.24-.28.08-.31.24-.31S100.85,26.55,100.85,26.75Zm.63,0c0,.19-.08.28-.24.28s-.23-.09-.23-.28.08-.31.23-.31S101.48,26.55,101.48,26.75Zm.58,4.41c0,.18-.08.27-.23.27s-.2-.09-.2-.27.07-.31.2-.31S102.06,31,102.06,31.16Zm.63-.74a.28.28,0,0,1-.28-.16s0-.05.08-.07a.67.67,0,0,1,.24,0,.52.52,0,0,1,.21,0c.06,0,.08,0,.06.07A.31.31,0,0,1,102.69,30.42Z"/><path class="cls-1" d="M126.61,27.05a2.69,2.69,0,0,1,.67.91,5.7,5.7,0,0,1,.37,1.17c.07.42.13.8.15,1.13a1,1,0,0,1,0-.6,1.42,1.42,0,0,1,.24-.57c0-.05.2-.06.44,0l.45,0,.29-.13a1.36,1.36,0,0,0,.3-.18.22.22,0,0,0,0,.16c0,.08,0,.13,0,.15a1,1,0,0,0,.31.2c.16.08.25.1.27.08l2.65-1.64V10.22s0-.07-.09-.14l-.18-.17a1,1,0,0,1-.47-.49,3.1,3.1,0,0,1-.11-.51,3.23,3.23,0,0,0-.14-.51,1.65,1.65,0,0,0-.49-.56,1.87,1.87,0,0,0-.89-.31l-1.17-.16a3.52,3.52,0,0,1-1-.29,1,1,0,0,1-.56-.72V17.59a3.16,3.16,0,0,0-.37.27l-.37.31,0,.12a.58.58,0,0,0,.17.49q.18.13.18.6v.31c0,.16,0,.24,0,.24a.62.62,0,0,1-.08.23c0,.11-.12.23-.19.37l-.22.39a.65.65,0,0,0-.1.22c0,.13,0,.36-.08.7s-.05.69-.09,1.05-.07.72-.08,1.06,0,.57,0,.7a9.06,9.06,0,0,1-1.23,1,5.75,5.75,0,0,1-1.42.76V24.38l.13-.14a.52.52,0,0,0,.14-.18.54.54,0,0,0,0-.15l0-.12a2.13,2.13,0,0,0-.19-.29,2.56,2.56,0,0,0-.24-.29v-7.1a2.53,2.53,0,0,1-1.09-.26,1.36,1.36,0,0,1-.57-.54,1.87,1.87,0,0,1-.19-.78c0-.3,0-.63,0-1a7.09,7.09,0,0,0-1.38.12,6.79,6.79,0,0,1-1.31.12h-.16a.22.22,0,0,1-.15,0,.93.93,0,0,1,.09-.24c.07-.13.15-.26.24-.41s.17-.21.25-.21H122a.44.44,0,0,0-.08-.16c0-.07-.06-.13,0-.15a1.39,1.39,0,0,1,.32-.29c.18-.15.27-.24.27-.3a.42.42,0,0,0-.12-.45,1.53,1.53,0,0,0-.47-.27,3.58,3.58,0,0,0-.54-.14l-.31,0a4.22,4.22,0,0,1,.56-.3l.61-.29.21,0,.39-.08.37-.07a.88.88,0,0,0,.2-.08c0-.08,0-.22-.14-.43A1.37,1.37,0,0,1,123,9.4a2.08,2.08,0,0,1-.42-.06.9.9,0,0,0-.39,0l-.22,0-.37.1-.37.1-.21,0a1.85,1.85,0,0,1-1.08-.68,1.91,1.91,0,0,1-.41-1.19,3.47,3.47,0,0,1,1.58.37,3.21,3.21,0,0,0,1.51.37l.15,0,.16-.13c.07-.07.13-.11.15-.14s-.11,0-.19-.12a.3.3,0,0,1-.12-.19.88.88,0,0,1,.14-.31c.09-.16.15-.25.17-.28a5.36,5.36,0,0,0,.33-1.07c.07-.32.12-.65.16-1a9,9,0,0,0,.06-1.06c0-.39,0-.83,0-1.32a3,3,0,0,0,.41,0l.62-.1.63-.1.41,0h.15a2.13,2.13,0,0,1,.7.11,2.27,2.27,0,0,1,.65.35,1.81,1.81,0,0,1,.46.57,1,1,0,0,1,.1.72,1.26,1.26,0,0,1,.18-.84,2.25,2.25,0,0,1,.45-.47,4.91,4.91,0,0,0,.41-.33.45.45,0,0,0,.13-.43,1.2,1.2,0,0,0-.29-.29,1.2,1.2,0,0,1-.29-.29,1.35,1.35,0,0,1-.1-.28,1,1,0,0,1-.06-.27,2.38,2.38,0,0,0,1-.19,2.34,2.34,0,0,1,.95-.2v.66h-.43s0,.08-.11.14-.1.11,0,.14a2.24,2.24,0,0,0,.47.19,2.06,2.06,0,0,0,.42.12.72.72,0,0,0,.22-.14l.37-.29.37-.29a1.18,1.18,0,0,0,.21-.18l.16,0,.16,0a6.42,6.42,0,0,0-.32.57l-.31.6a.9.9,0,0,0,.06.26.86.86,0,0,1,.06.25s.06,0,.1.06.07,0,.09,0a1.74,1.74,0,0,0,.3-.27l.29-.32c.41.29.92.61,1.52,1a3.42,3.42,0,0,0,1.72.53,1.4,1.4,0,0,0,.31-.1.67.67,0,0,0,.27-.18,4.94,4.94,0,0,0,.43,1.74,12.28,12.28,0,0,0,.84,1.58c.3.46.56.85.8,1.17a4.46,4.46,0,0,1,.35.5.49.49,0,0,1-.16.43,1.33,1.33,0,0,1-.35.2l-.39.17a.73.73,0,0,0-.31.37c0,.06,0,.21.12.47a3.68,3.68,0,0,1,.15.43s0,.09,0,.2,0,.18,0,.23a8.27,8.27,0,0,1-.17,1.66,7.45,7.45,0,0,0-.18,1.65,3.37,3.37,0,0,0,.18,1.16,3.53,3.53,0,0,1,.17,1.15c0,.1,0,.24,0,.42s0,.29,0,.32a2.08,2.08,0,0,1-.13.45,2.24,2.24,0,0,0-.14.44.79.79,0,0,0,.14.3.69.69,0,0,1,.13.29,1.38,1.38,0,0,1,0,.51v.66a2.56,2.56,0,0,1-.17,1,2.13,2.13,0,0,0-.18.92,1.8,1.8,0,0,0,.18.82,2.18,2.18,0,0,1,.17.93v.86a1.06,1.06,0,0,1-.31.78v3.24a.47.47,0,0,0-.23.25c-.08.15-.11.26-.08.33a1.75,1.75,0,0,0,.88.88,2.2,2.2,0,0,0,1.19.29.85.85,0,0,0-.67.08.89.89,0,0,0-.21.41,5.35,5.35,0,0,1-.16.55.76.76,0,0,1-.45.45,1.55,1.55,0,0,0-.29-.73.8.8,0,0,0-.56-.17,1.4,1.4,0,0,0-.78.23,8.17,8.17,0,0,0-.71.53l-.7.58a2.34,2.34,0,0,1-.78.45.34.34,0,0,0,0-.35.83.83,0,0,0-.27-.23,1.83,1.83,0,0,1-.27.29l-.32.29h-.11a2,2,0,0,1-1.11-.31,2.08,2.08,0,0,0-1.15-.31c-.84,0-1.6,0-2.29.08s-1.49.13-2.39.23l.13.14a.66.66,0,0,1,.14.17,1.17,1.17,0,0,1,0,.16.55.55,0,0,1-.26.43,2.58,2.58,0,0,1-.56.33,2.54,2.54,0,0,1-.65.19,3,3,0,0,1-.48.06h-.16a.59.59,0,0,1-.17-.13.28.28,0,0,1-.1-.18V27.34a.41.41,0,0,1,.27-.37,2.19,2.19,0,0,1,.61-.2,4.71,4.71,0,0,1,.62-.07l.37,0A1.52,1.52,0,0,1,126.61,27.05ZM121.29,9V8.42l-.27.32Zm1.91,4.87c-.13,0-.17.06-.12.16s.07.16.12.16.13-.06.16-.16S123.33,13.88,123.2,13.88Zm.55,8.16c0,.18.06.27.19.27s.23-.09.23-.27-.07-.32-.23-.32S123.75,21.83,123.75,22Zm.78,8.22-.14.14a.68.68,0,0,0-.14.18l.59-.32h-.31Zm.15-29c-.08,0-.13-.05-.15-.16s0-.15.15-.15.18,0,.16.15S124.76,1.21,124.68,1.21ZM125.19,33c0,.18.08.27.23.27s.24-.09.24-.27-.08-.32-.24-.32S125.19,32.75,125.19,33ZM126.65.16a2.92,2.92,0,0,1,.57.37,3.45,3.45,0,0,1,.48.45.61.61,0,0,1,.22.38,2.29,2.29,0,0,1-1.25-.29A1.16,1.16,0,0,1,126.2,0,1,1,0,0,1,126.65.16Zm.45,32.48c0,.19-.06.28-.19.28s-.24-.09-.24-.28.08-.31.24-.31S127.1,32.44,127.1,32.64ZM128.31,17c0,.19-.08.28-.23.28s-.2-.09-.2-.28.06-.31.2-.31S128.31,16.8,128.31,17Zm0,7.1c0,.18-.08.28-.23.28s-.2-.1-.2-.28.06-.31.2-.31S128.31,23.89,128.31,24.1Zm.35-14.51v.63a.63.63,0,0,1-.35-.63Zm0,23.05v.28l-.27-.28Zm.51-7.37c0,.18-.07.27-.2.27s-.23-.09-.23-.27.08-.31.23-.31S129.17,25.06,129.17,25.27Zm1,7.37v.67a.73.73,0,0,1-.52-.26,2.92,2.92,0,0,1-.37-.41Zm.74-24.22a.35.35,0,0,1-.13.3,1.91,1.91,0,0,1-.32.17,1.08,1.08,0,0,1-.35.1l-.21,0V8.42Zm.35,24.22c0,.19-.06.28-.19.28s-.24-.09-.24-.28.08-.31.24-.31S131.23,32.44,131.23,32.64Zm2-6.78c0,.18.07.27.2.27s.23-.09.23-.27-.07-.32-.23-.32S133.18,25.65,133.18,25.86Zm3.59-8.7c-.13,0-.17,0-.11.12s.06.15.11.15.13-.05.16-.15S136.9,17.16,136.77,17.16ZM138,26.75c0,.19-.06.28-.19.28s-.24-.09-.24-.28.08-.31.24-.31S138,26.55,138,26.75Zm.62,0c0,.19-.07.28-.23.28s-.23-.09-.23-.28.07-.31.23-.31S138.64,26.55,138.64,26.75Zm.59,4.41c0,.18-.08.27-.23.27s-.2-.09-.2-.27.06-.31.2-.31S139.23,31,139.23,31.16Zm.62-.74a.27.27,0,0,1-.27-.16s0-.05.08-.07a.62.62,0,0,1,.23,0,.54.54,0,0,1,.22,0c.06,0,.08,0,.06.07A.32.32,0,0,1,139.85,30.42Z"/><path class="cls-1" d="M144.92,3h2.65c0-.26.09-.4.26-.43l.45,0h.45a.31.31,0,0,1,.33.34v7a4.22,4.22,0,0,1,.27,1,8.5,8.5,0,0,1,0,1,12.91,12.91,0,0,1-.06,1.34,13.57,13.57,0,0,1-.25,1.46.7.7,0,0,0,.15.14c.08.07.12.11.12.14a.31.31,0,0,0,0,.08.19.19,0,0,1,0,.07.5.5,0,0,1,0,.16.78.78,0,0,1-.12.29,2.8,2.8,0,0,0-.15.29V28.51a3.58,3.58,0,0,1,.29,1.25c0,.39,0,.82,0,1.28,0,.29,0,.59,0,.9a3.84,3.84,0,0,1-.14.9,1.41,1.41,0,0,1-.43.7,1.3,1.3,0,0,1-.89.27,1.09,1.09,0,0,1-.47-.09L147,33.5a2.46,2.46,0,0,0-.43-.21,1.25,1.25,0,0,0-.51-.1,3,3,0,0,0-.7.08c-.21,0-.36.23-.47.54Zm.31,1.64a4.13,4.13,0,0,0,.22.49,1.12,1.12,0,0,0,.37.41V5.23l-.16-.32a2,2,0,0,0-.15-.27l-.16,0Zm4.69,8.54c.1,0,.15.08.15.16s0,.13-.15.15-.12,0-.12-.15S149.84,13.16,149.92,13.18Z"/><path class="cls-1" d="M152.8,31.28h-1.17a3.5,3.5,0,0,1,.43-.14l.47-.14h.13a.45.45,0,0,1,.14,0Zm4,3.25c-.07.17-.15.35-.24.53a2.11,2.11,0,0,1-.33.49.55.55,0,0,1-.39.21.31.31,0,0,1-.12,0,1.53,1.53,0,0,1-.13-.37c-.07-.22-.13-.39-.18-.52v-.28l.18-.15c.09-.08.13-.13.13-.16a2.72,2.72,0,0,0-.11-.6,2.54,2.54,0,0,0-.2-.57,3,3,0,0,0,.88-.31.79.79,0,0,0,.33-.74c0-.08,0-.22,0-.43s-.11-.31-.29-.31h-2.07a.52.52,0,0,1,.49-.39,6.69,6.69,0,0,1,.8,0,3.41,3.41,0,0,0,.76-.08q.33-.07.33-.51v-.15c0-.13-.06-.32-.12-.57s-.09-.45-.13-.62a2.82,2.82,0,0,1-.06-.29h-.62a1.34,1.34,0,0,1,.17-.65,1.53,1.53,0,0,1,.45-.52V8.27a4.52,4.52,0,0,1,.57-2.21,6.28,6.28,0,0,1,1.46-1.79,7.37,7.37,0,0,1,2-1.21,5.64,5.64,0,0,1,2.18-.45v3.9a.76.76,0,0,1-.17.43,5.63,5.63,0,0,1-.38.45q-.19.21-.39.39l-.23.22a2.78,2.78,0,0,0-.41.91,11.17,11.17,0,0,0-.29,1.29c-.08.45-.13.88-.16,1.27s0,.66,0,.82v.11a1.83,1.83,0,0,0,.3.31,2,2,0,0,1,.29.32v.11a1.63,1.63,0,0,1-.31,1,6,6,0,0,0-.59.89c0,.06,0,.1,0,.12a.1.1,0,0,1,0,.08s.06,0,.12.08.09.06.11,0a1.43,1.43,0,0,0,.14-.3.92.92,0,0,1,.14-.29l.07,0,.08,0a.43.43,0,0,1,.37.18,2.94,2.94,0,0,1,.26.39,3.45,3.45,0,0,0,.25.41.58.58,0,0,0,.45.23.34.34,0,0,1-.1.2.26.26,0,0,1-.17.11,1.81,1.81,0,0,1-.45-.13l-.45-.18h-.31l-.14.14a.66.66,0,0,0-.14.17c.06,0,.11,0,.18.1s.1.12.1.18a1.4,1.4,0,0,1-.1.31c-.07.15-.12.25-.18.27v4.45a4.13,4.13,0,0,1,.26.66,2.85,2.85,0,0,1,.06.66,4.71,4.71,0,0,1-.16,1.17,4.9,4.9,0,0,0-.16,1.21,3.66,3.66,0,0,0,.37,1.58,13.74,13.74,0,0,0,.82,1.46c.3.47.57.93.8,1.37a2.72,2.72,0,0,1,.35,1.32,2.59,2.59,0,0,1,.35-.95,2.71,2.71,0,0,1,.55-.57l.64-.46a2.32,2.32,0,0,0,.61-.69,5.71,5.71,0,0,0,.51-1.19,9,9,0,0,0,.31-2V23.83a2.57,2.57,0,0,0-.08-.62,1.72,1.72,0,0,0-.23-.55.5.5,0,0,0-.43-.24.28.28,0,0,0-.16,0,.78.78,0,0,0-.29.12l-.29.16c.07-.16,0-.3-.24-.41l-.84-.43a3.74,3.74,0,0,1-.89-.66,1.36,1.36,0,0,1-.2-1.72,5.37,5.37,0,0,1,.51-.8,4.48,4.48,0,0,1,.6-.68.86.86,0,0,1,.47-.29,1.46,1.46,0,0,0-.55-.79.85.85,0,0,1-.39-.74.41.41,0,0,1,.24-.39,2.45,2.45,0,0,1,.54-.17,3.36,3.36,0,0,1,.63-.06h.51q0,.44-.18.51a1.28,1.28,0,0,1-.49.08v.93a.89.89,0,0,1,.33-.31c.2-.13.42-.26.67-.39a5.76,5.76,0,0,1,.72-.33,1.73,1.73,0,0,1,.47-.14h.15a7.91,7.91,0,0,0-.86.78,3.63,3.63,0,0,1-.89.7c-.05.06-.16.15-.31.3A1.61,1.61,0,0,0,164,18l.59.58a1.22,1.22,0,0,1,.48-.5l.59-.3a4.18,4.18,0,0,0,.57-.33,1.26,1.26,0,0,0,.42-.62,2.83,2.83,0,0,1,.22.39.67.67,0,0,1,.06.51,3.53,3.53,0,0,0,.72.23,2.55,2.55,0,0,0,.9,0,4.84,4.84,0,0,1,.76,0v-.86a1,1,0,0,1,.91.51,2.72,2.72,0,0,1,.35,1.15,7.16,7.16,0,0,1,0,1.31q-.06.66-.09.93a2.71,2.71,0,0,1,.41.33l.8.73c.28.26.67.59,1.17,1a2.12,2.12,0,0,1,0,.27.8.8,0,0,1-.56.76c-.38.17-.7.31-1,.41.11-.1.12-.19,0-.27a.75.75,0,0,0-.33-.18,3,3,0,0,0-.45-.09,1.81,1.81,0,0,0-.31,0h-.43a3.88,3.88,0,0,0,.24.78,4.16,4.16,0,0,0,.35.7c0,.26-.06.58-.1,1s-.07.81-.1,1.25-.05.89-.08,1.33,0,.83,0,1.17H169.1a.59.59,0,0,0,.28.56A4.61,4.61,0,0,0,170,31a3.7,3.7,0,0,1,.59.38.76.76,0,0,1,.27.64.89.89,0,0,1-.39.64,1.59,1.59,0,0,0-.51.69,1.45,1.45,0,0,1-.39,0h-.35a1,1,0,0,1-.8-.29,3.27,3.27,0,0,1-.43-.62,6.65,6.65,0,0,0-.39-.63.8.8,0,0,0-.68-.29.82.82,0,0,0-.72.31,4,4,0,0,0-.39.67,2.16,2.16,0,0,1-.47.62,1.25,1.25,0,0,1-1,.2v.58a1.26,1.26,0,0,1-1.23-.64,1.84,1.84,0,0,1-.26-1.39,11.42,11.42,0,0,1-.15,1.25.53.53,0,0,1-.31.43,2,2,0,0,1-.69,0,5.6,5.6,0,0,0-1.19,0,.86.86,0,0,0-.31.15c-.15.11-.25.15-.27.12s-.16-.08-.31-.25a2.64,2.64,0,0,1-.28-.33,1.54,1.54,0,0,0-.27,0l-.27.06a1.45,1.45,0,0,0,.15.39c.11.21.13.34.08.39a2.85,2.85,0,0,1-.56.7c-.17.13-.32.24-.43.34a1,1,0,0,0-.3.35,1.86,1.86,0,0,0-.11.76c-.24,0-.36-.11-.37-.31a3.46,3.46,0,0,1,0-.71c0-.26,0-.5,0-.74s-.12-.34-.36-.39A1.44,1.44,0,0,1,156.84,34.53Zm2.59-15.77c-.1,0-.14,0-.12.16s.07.11.12.11a.16.16,0,0,0,.16-.11C159.61,18.81,159.56,18.76,159.43,18.76Zm0-9.28c0,.18.07.27.2.27s.23-.09.23-.27-.08-.31-.23-.31S159.39,9.27,159.39,9.48Zm2.26,8.85v.27l-.27-.27Zm4.2-7.78A7.34,7.34,0,0,0,165.32,9a7.63,7.63,0,0,0-.88-1.4,9,9,0,0,0-1.3-1.33V2.69h2.06a6.65,6.65,0,0,1,.33-.64.68.68,0,0,1,.61-.37,1.31,1.31,0,0,1-.06.41.58.58,0,0,1-.29.29,1.1,1.1,0,0,0,.43.43,7.32,7.32,0,0,0,.7.39l.74.35a1.89,1.89,0,0,1,.51.31,8.84,8.84,0,0,1,.58.88c.26.43.52.9.78,1.4s.49,1,.68,1.45a2.87,2.87,0,0,1,.3.95v.35c0,.13,0,.37,0,.7s-.06.69-.1,1.06-.07.71-.1,1a4.67,4.67,0,0,1-.08.7,1.37,1.37,0,0,0-.42.47,2.63,2.63,0,0,1-.26.41.86.86,0,0,1-.33.27,1.51,1.51,0,0,1-.66.1,1.68,1.68,0,0,1-.59-.16c-.26-.1-.52-.22-.8-.35a4.17,4.17,0,0,1-.7-.41c-.19-.14-.31-.25-.33-.33A15.65,15.65,0,0,0,165.85,10.55Zm-2.64,21c0,.21.08.31.24.31s.19-.1.19-.31-.06-.31-.19-.31S163.21,31.38,163.21,31.59ZM164.54,24c0,.18-.08.27-.23.27s-.2-.09-.2-.27.06-.32.2-.32S164.54,23.74,164.54,24Zm.66-.9v.62a.54.54,0,0,1-.15,0l-.16,0-.29-.13a1.23,1.23,0,0,1-.29-.18Zm2.34-21.26-.27.32V1.79Zm1,24.5c0,.18.08.27.23.27s.2-.09.2-.27-.07-.32-.2-.32S168.52,26.08,168.52,26.29Zm2-19.46h-.32V6.51Zm1.4,1.48c0,.18-.08.27-.23.27s-.2-.09-.2-.27.07-.31.2-.31S171.91,8.1,171.91,8.31Zm-.43,15.32c0,.19.07.28.2.28s.23-.09.23-.28-.08-.31-.23-.31S171.48,23.43,171.48,23.63Zm5.62-6.2v.35a4.22,4.22,0,0,1,0,.49,1.27,1.27,0,0,1-.16.45.38.38,0,0,1-.35.2h-.15l.31-1.49Zm0-.74c0,.08-.06.13-.16.16s-.12,0-.12-.16,0-.18.12-.15S177.14,16.61,177.14,16.69Z"/><path class="cls-1" d="M177.84,3h2.65c0-.26.08-.4.25-.43l.45,0h.45a.31.31,0,0,1,.33.34v7a3.85,3.85,0,0,1,.28,1q0,.38,0,1c0,.52,0,1-.05,1.34a14,14,0,0,1-.26,1.46l.16.14c.08.07.12.11.12.14a.25.25,0,0,0,0,.08.1.1,0,0,1,0,.07.8.8,0,0,1,0,.16.78.78,0,0,1-.12.29l-.16.29V28.51a3.58,3.58,0,0,1,.29,1.25c0,.39,0,.82,0,1.28,0,.29,0,.59,0,.9a3.83,3.83,0,0,1-.13.9,1.41,1.41,0,0,1-.43.7,1.34,1.34,0,0,1-.9.27,1.13,1.13,0,0,1-.47-.09l-.39-.22a2.46,2.46,0,0,0-.43-.21,1.18,1.18,0,0,0-.5-.1,2.93,2.93,0,0,0-.7.08.71.71,0,0,0-.47.54Zm.31,1.64a2.89,2.89,0,0,0,.21.49,1.33,1.33,0,0,0,.37.41V5.23a3.29,3.29,0,0,0-.15-.32,1.64,1.64,0,0,0-.16-.27l-.15,0Zm4.68,8.54c.1,0,.16.08.16.16s-.06.13-.16.15-.12,0-.12-.15S182.75,13.16,182.83,13.18Z"/><path class="cls-1" d="M191.45,25v-.58H193a6,6,0,0,0-.24-1.76,2,2,0,0,0-1.32-1.21,1.15,1.15,0,0,0,.37-.39,2.42,2.42,0,0,0,.21-.47c.21.34.38.61.51.8a.77.77,0,0,0,.7.3V19.34s0-.07-.12-.13a.9.9,0,0,0-.19-.14,2.08,2.08,0,0,0-.56-.17l-.61-.14a.94.94,0,0,1-.1.84,4.24,4.24,0,0,1-.48.64V17.86a.42.42,0,0,0,.31-.47v-.54a2.15,2.15,0,0,0-.08-.63,2.39,2.39,0,0,0-.2-.43,2.5,2.5,0,0,1-.21-.46,2.86,2.86,0,0,1-.14-.71h-.27c-.1.06-.31.15-.6.3l-.61.29a.75.75,0,0,0,0-.57,2.05,2.05,0,0,0-.31-.58,3.42,3.42,0,0,0-.47-.53c-.17-.15-.3-.28-.41-.39a.51.51,0,0,1,0-.11.26.26,0,0,1,.12-.24l.23-.12a.86.86,0,0,0,.24-.11c.08-.05.11-.16.11-.31,0-.5-.31-.68-.93-.55.26-.13.36-.22.29-.27a.47.47,0,0,1-.1-.35H187v.74c-.21,0-.34-.07-.39-.22l-.15-.41a.49.49,0,0,0-.26-.27c-.12-.05-.34,0-.68.16a1.65,1.65,0,0,1,.62-.45c.34-.17.71-.33,1.11-.49a11.31,11.31,0,0,1,1.16-.39,3.52,3.52,0,0,1,.78-.16,3.11,3.11,0,0,1,1,.16,5.33,5.33,0,0,1,.84.37c.26.14.49.28.7.41a2.18,2.18,0,0,0,.59.27c.2.06.4-.05.58-.31a1.74,1.74,0,0,0,.31-.58c0-.11,0-.28,0-.53s0-.51,0-.8,0-.55,0-.8,0-.42,0-.53l4.72.32v10a1.05,1.05,0,0,0-.27.49,2.62,2.62,0,0,0,0,.52v.47l.18.27a.81.81,0,0,1,.13.32.78.78,0,0,1-.12.29,1.19,1.19,0,0,1-.19.29l.31,4.14a2.42,2.42,0,0,1,.47.21,1.15,1.15,0,0,1,.39.37H198a27.7,27.7,0,0,0-.35,4c0,1.42,0,2.73,0,4l-.27.89h-.71a2.34,2.34,0,0,1-.95-.17,2,2,0,0,0-.88-.18.34.34,0,0,0-.33.18.44.44,0,0,1-.41.17.68.68,0,0,1-.64-.37,1.48,1.48,0,0,1-.22-.8V25ZM189,10.39a2.29,2.29,0,0,0,.43.1.34.34,0,0,0,.2-.1.26.26,0,0,0,.11-.17c-.05-.18-.13-.28-.23-.29a3.07,3.07,0,0,0-.7,0c-.11,0-.18.11-.24.29A1.26,1.26,0,0,0,189,10.39Zm-.15-3.45v-4a3.2,3.2,0,0,0,.68,0,1.83,1.83,0,0,0,.45-.16,3.2,3.2,0,0,1,.39-.16,2.47,2.47,0,0,1,.54,0l.59,0a.86.86,0,0,1,.31.15,1.17,1.17,0,0,0,.27.16,2.58,2.58,0,0,0,.59-.1l.76-.21.8-.22a3.18,3.18,0,0,1,.7-.1h1.29l.31.18a1,1,0,0,0,.31.14s.07,0,.14-.14l.13-.18h.32a1.11,1.11,0,0,1,.17.32.92.92,0,0,1,.1.31h.9a2.12,2.12,0,0,0,.56-.06l.39-.12.39-.12a2.79,2.79,0,0,1,.57,0,3.82,3.82,0,0,1,.43,0l.31,0a.7.7,0,0,1,.29.15.64.64,0,0,0,.29.16,2.46,2.46,0,0,0,.45-.14l.45-.17.25,0,.26,0c0,.1,0,.3,0,.58s0,.59-.06.9-.05.62-.08.91a4.57,4.57,0,0,1-.08.61,2.46,2.46,0,0,1-.21.53,3.91,3.91,0,0,1-.37.64.66.66,0,0,1-.14.17c-.06.07-.11.1-.13.1h-2.38c-.06.18-.13.29-.24.31a1.55,1.55,0,0,1-.7,0c-.1,0-.18-.13-.23-.31Zm.58,4.45v-.31h-.27Zm.39,3c0,.18.07.27.2.27s.23-.09.23-.27S190.12,14,190,14,189.77,14.14,189.77,14.35Zm.74,1.76c0,.21-.08.31-.23.31s-.24-.1-.24-.31.08-.32.24-.32S190.51,15.9,190.51,16.11Zm-.08-5.46q-.19,0-.15.15t.12.12a.23.23,0,0,0,.19-.12C190.62,10.7,190.56,10.65,190.43,10.65Zm0,6.47a1.82,1.82,0,0,1,.12.47c0,.05,0,.11-.12.17a.29.29,0,0,1-.19.1V16.69A1.26,1.26,0,0,1,190.47,17.12Zm.32-1.87c0,.18-.07.27-.2.27s-.23-.09-.23-.27.07-.31.23-.31S190.79,15,190.79,15.25Zm-.12-4.14c0,.19.06.28.19.28s.24-.09.24-.28-.08-.31-.24-.31S190.67,10.91,190.67,11.11Zm1.44,5.31q0,.27.24.27c.15,0,.23-.09.23-.27s-.08-.31-.23-.31S192.11,16.21,192.11,16.42Zm.47,3.24c0,.18-.08.27-.23.27s-.24-.09-.24-.27.08-.32.24-.32S192.58,19.45,192.58,19.66Zm.16-3.24c0,.18.06.27.19.27s.23-.09.23-.27-.07-.31-.23-.31S192.74,16.21,192.74,16.42Zm.27,5.89c0,.18.08.27.23.27s.2-.09.2-.27-.07-.31-.2-.31S193,22.1,193,22.31Zm6.36-9.13c0,.18-.08.28-.24.28s-.23-.1-.23-.28.08-.31.23-.31S199.37,13,199.37,13.18Zm0,4.14q0,.27-.24.27c-.15,0-.23-.09-.23-.27s.08-.32.23-.32S199.37,17.11,199.37,17.32Zm0,2.92c0,.21-.08.31-.24.31s-.23-.1-.23-.31.08-.31.23-.31S199.37,20,199.37,20.24Z"/><path class="cls-1" d="M209.86,20a4.72,4.72,0,0,0-1.17.33,3.12,3.12,0,0,1-1.17.25h-.32a1.62,1.62,0,0,1,.1-.23l.24-.43c.09-.16.17-.23.25-.23h2.07Zm-.08,10.74c.15-.79.33-1.58.52-2.38s.37-1.58.53-2.38a11.79,11.79,0,0,0,.24-2.35,6.68,6.68,0,0,0-.06-.73,8.26,8.26,0,0,0-.18-1,4.78,4.78,0,0,0-.29-.88.9.9,0,0,0-.37-.47,1,1,0,0,0,.41-.58,4,4,0,0,0,.17-1,6.89,6.89,0,0,0,0-1c0-.33,0-.57,0-.72a.92.92,0,0,1,.45-.2l.49-.08a.8.8,0,0,0,.39-.15.52.52,0,0,0,.16-.43,1.18,1.18,0,0,0-.08-.43.35.35,0,0,0-.35-.2,4.85,4.85,0,0,0-1.14.18,3.51,3.51,0,0,0-1.09.45,4.52,4.52,0,0,1-.64-.57q-.45-.45-.57-.6v-.31a2.73,2.73,0,0,1,.32-.35q.23-.24.27-.24a1.08,1.08,0,0,1,.54.08,3.67,3.67,0,0,1,.63.31l.58.35a1,1,0,0,0,.47.16h.16a3.25,3.25,0,0,1,.43-.16l.47-.15h-1a.79.79,0,0,1,.24-.59c.15-.15.32-.3.5-.45l.53-.44a1.12,1.12,0,0,0,.33-.59l1.76-10,.35,0a2.72,2.72,0,0,1,.58.06,1.5,1.5,0,0,1,.55.25c.05.29.13.78.25,1.48s.23,1.44.35,2.23.23,1.52.33,2.22.18,1.18.24,1.44v.31a.81.81,0,0,1-.14.31,1.26,1.26,0,0,0-.14.28s.05.08.14.15.14.13.14.16v.12a6.32,6.32,0,0,1-.16,1.4,6.5,6.5,0,0,0-.15,1.44,3.61,3.61,0,0,0,.15,1.17,3.12,3.12,0,0,1,.16,1V17l-.14.16c-.06.08-.11.12-.14.12s-.07-.15-.13-.3a1.23,1.23,0,0,0-.18-.29s0,0-.06,0,0,.08-.05.08a.79.79,0,0,0,.11.45,2.69,2.69,0,0,0,.26.33,2.85,2.85,0,0,1,.25.33.71.71,0,0,1,.12.41,1.17,1.17,0,0,1,0,.16,1.26,1.26,0,0,1-.43.17,2,2,0,0,1-.47.1,3.65,3.65,0,0,0-.12.47c-.05.23-.11.47-.17.72s-.13.49-.18.72-.09.39-.11.47v.27a.77.77,0,0,0,.31.31h.15l.35-.11.71-.26c.26-.09.5-.19.72-.29a2,2,0,0,0,.41-.23c-.06.15,0,.35.23.6A2.38,2.38,0,0,1,219,22s.07,0,.14-.12l.13-.16v-.31a1,1,0,0,0-.13-.27,1,1,0,0,1-.14-.31V19.66c0-.13-.07-.39-.14-.78l-.21-1.39c-.08-.53-.16-1.09-.25-1.68s-.18-1.14-.26-1.67-.15-1-.21-1.39-.11-.65-.14-.78v-.15a.27.27,0,0,1,.14-.24l.29-.17a1.61,1.61,0,0,0,.29-.24.68.68,0,0,0,.18-.37c-.44.06-.74,0-.88-.29a2.53,2.53,0,0,1-.29-.88c0-.2-.12-.57-.2-1.09s-.17-1.08-.27-1.68-.19-1.16-.27-1.69-.13-.92-.16-1.15V3.55a3.85,3.85,0,0,1,.06-.66c0-.24.2-.35.49-.35h.35l.27.17a1,1,0,0,0,.31.14,3.69,3.69,0,0,1,.41,0l.61,0,.64,0a3.78,3.78,0,0,1,.41,0,3.41,3.41,0,0,0,.37.74,7,7,0,0,1,.37.6,2.05,2.05,0,0,1,.22.66,2.24,2.24,0,0,1-.1.92c.16.05.37.12.64.19a.86.86,0,0,1,.57.43h-.82a1.32,1.32,0,0,1-.06.29.46.46,0,0,0,0,.3,1.17,1.17,0,0,0,.16.27.79.79,0,0,1,.15.31.7.7,0,0,1-.15.29.7.7,0,0,0-.16.29,1.12,1.12,0,0,0,0,.22c0,.12.06.24.1.37l.12.37c0,.12,0,.19,0,.21a4.81,4.81,0,0,0,.06.61c0,.27.07.56.1.87s0,.61.08.9,0,.48,0,.58a.9.9,0,0,0,.39.35,3.46,3.46,0,0,0,.58.28c.21.07.48.17.82.27v.19a1.51,1.51,0,0,0-.8.26.81.81,0,0,0-.41.72,1.39,1.39,0,0,0,.33.93,5.49,5.49,0,0,1,.57.82v.31c0,.05-.07.15-.14.29a1.08,1.08,0,0,1-.17.3l.89,1.75a1.16,1.16,0,0,0-.27.51,2.83,2.83,0,0,0,0,.54c0,.39.08.6.24.64a2.57,2.57,0,0,0,.54.08,1.07,1.07,0,0,1,.61.27A2,2,0,0,1,225.5,22a1.18,1.18,0,0,0-.73.2,1.15,1.15,0,0,0-.37.48,1.93,1.93,0,0,0-.11.65V24a1.36,1.36,0,0,0,.13.66,2.2,2.2,0,0,0,.31.41c.12.12.23.24.34.37a.8.8,0,0,1,.15.5.5.5,0,0,1,0,.16,1.12,1.12,0,0,1,0,.22c0,.11,0,.24-.09.38s-.08.28-.1.39a1.12,1.12,0,0,0,0,.22c0,.05.08.15.23.31a1,1,0,0,0,.36.27v2.92c.07.06.23.2.46.43a3.86,3.86,0,0,1,.43.47.54.54,0,0,0,0,.12.24.24,0,0,1,0,.11.71.71,0,0,0-.72.41,3.67,3.67,0,0,0-.25.84h-4.14l-.31-.31a3.51,3.51,0,0,0-.16-2.36A2.15,2.15,0,0,0,219,29.37v-.54a5.64,5.64,0,0,0-1.09.13,2.31,2.31,0,0,0-1,.41v-.31a2.92,2.92,0,0,1-.17-.49,3,3,0,0,0-.14-.4h-.11a1.54,1.54,0,0,0-1.17.4,2.55,2.55,0,0,0-.59,1.06,10.45,10.45,0,0,0-.31,1.36,10.84,10.84,0,0,1-.31,1.36,2.32,2.32,0,0,1-.63,1,1.7,1.7,0,0,1-1.25.41,2.26,2.26,0,0,1-.89-.15,1.85,1.85,0,0,0-.78-.16h-.16a1.42,1.42,0,0,1-.27.18.85.85,0,0,1-.31.13c-.19,0-.28-.09-.3-.29s0-.33,0-.41A12.21,12.21,0,0,1,209.78,30.71Zm-.9-10.16c0,.19-.06.28-.19.28s-.24-.09-.24-.28.08-.31.24-.31S208.88,20.35,208.88,20.55Zm1-5h.31v-.27h-.31Zm.31,2.38h-.31l.31-.31ZM215.24,27c0,.21.08.31.23.31s.2-.1.2-.31-.07-.32-.2-.32S215.24,26.82,215.24,27ZM217,21.45c0,.18.07.27.2.27s.23-.09.23-.27-.08-.31-.23-.31S217,21.24,217,21.45Zm.51.27a1.36,1.36,0,0,0-.18.3l-.13.29a.13.13,0,0,1,.08,0l.07,0,.16,0a1,1,0,0,0,.17-.29.83.83,0,0,0,.1-.3l-.15,0Zm.51-5.89c0,.19-.08.28-.24.28s-.19-.09-.19-.28.06-.31.19-.31S218.05,15.63,218.05,15.83Zm0,4.72c0,.19-.08.28-.24.28s-.19-.09-.19-.28.06-.31.19-.31S218.05,20.35,218.05,20.55Zm.07,9.44h-.31v-.31Zm.2-13.57c0,.18-.07.27-.2.27s-.23-.09-.23-.27.08-.31.23-.31S218.32,16.21,218.32,16.42ZM218.2,27c0,.21.07.31.2.31s.23-.1.23-.31-.08-.32-.23-.32S218.2,26.82,218.2,27Zm.9-13.85c0,.18.06.28.19.28s.24-.1.24-.28-.08-.31-.24-.31S219.1,13,219.1,13.18Zm1.29-10.92c0,.18-.07.28-.2.28s-.23-.1-.23-.28S220,2,220.19,2,220.39,2.05,220.39,2.26Zm4.36,19.31q-.19,0-.15.15a.15.15,0,0,0,.15.12.16.16,0,0,0,.16-.12C224.94,21.62,224.88,21.57,224.75,21.57Zm1.17,5s-.1,0-.15-.12,0-.15.15-.15.19.05.16.15A.16.16,0,0,1,225.92,26.56Zm.67-.7c0,.18-.07.27-.2.27s-.23-.09-.23-.27.08-.32.23-.32S226.59,25.65,226.59,25.86Zm-.08-3.08s0,.09-.12.11-.15,0-.15-.15,0-.17.15-.12A.16.16,0,0,1,226.51,22.78Zm1.32-.78v.31h-.58V22Z"/><path class="cls-1" d="M236.3,28.94l.27-.59h-3.24v-.43c0-.28,0-.78,0-1.48s.06-1.44.1-2.22.07-1.52.1-2.2.05-1.18.08-1.47a.26.26,0,0,1,.11-.17l.16-.14s.05,0,.08,0a.09.09,0,0,0,.08.06.46.46,0,0,1,.09-.18q.11-.13.06-.21a1.22,1.22,0,0,0-.43-.18,2.34,2.34,0,0,0-.47-.09v-3a.25.25,0,0,1,.12-.25.45.45,0,0,1,.26,0,1.31,1.31,0,0,1,.27.06l.17,0a1.3,1.3,0,0,0-.15-.63,3.7,3.7,0,0,0-.35-.5c-.13-.16-.26-.32-.37-.47a1.47,1.47,0,0,1-.26-.55c0-.08,0-.23,0-.45a2.14,2.14,0,0,0,0-.62.64.64,0,0,0-.23-.45c-.13-.1-.35-.09-.67,0V11.43l-.15,0a.6.6,0,0,0-.16,0l-.45.17a2.24,2.24,0,0,1-.44.14,1.87,1.87,0,0,1-.43-.14l-.43-.17-.16,0-.15,0v.62l-.3,0a.75.75,0,0,1-.29-.06.69.69,0,0,1-.29-.13.77.77,0,0,0-.29-.14,2,2,0,0,0-1,.31,2.06,2.06,0,0,1-1.07.31c0-.2,0-.43,0-.68a2.63,2.63,0,0,1,.12-.7,1.3,1.3,0,0,1,.31-.55.88.88,0,0,1,.64-.21,1.77,1.77,0,0,1,.68.1,2,2,0,0,1,.65.52,1,1,0,0,1,.6-.48,2.78,2.78,0,0,1,.76-.1,5.49,5.49,0,0,1,.8.06,1.59,1.59,0,0,0,.76-.06s.09-.05.18-.14l.27-.29.27-.29.18-.18a1,1,0,0,1,.29-.17.8.8,0,0,1,.29-.1.61.61,0,0,1-.17-.16,1.12,1.12,0,0,0-.14-.15V8.42l.18-.13c.09-.07.13-.11.13-.14s0-.08,0-.15a.64.64,0,0,1-.05-.16H233s0-.07,0-.14a.4.4,0,0,0,0-.13c0-.11.14-.27.26-.49s.23-.46.35-.72.23-.5.35-.72.2-.37.25-.45l-.58-.28a.92.92,0,0,0,.43-.35,1.75,1.75,0,0,0,.23-.5,3.57,3.57,0,0,0,.1-.57c0-.19,0-.36,0-.49.15,0,.41,0,.78,0a8,8,0,0,1,1.09,0,2.68,2.68,0,0,1,1,.28.73.73,0,0,1,.43.72h.43s0,.07,0,.13a.23.23,0,0,1-.06.14,3.3,3.3,0,0,0-.35.68c-.1.28-.21.55-.33.82a7.28,7.28,0,0,1-.37.74,1.1,1.1,0,0,1-.43.45.83.83,0,0,0-.14-.82.86.86,0,0,0-.72-.39c-.05,0-.11,0-.19.12s-.12.14-.12.19.15.27.29.57.24.5.3.6v.32a2.72,2.72,0,0,0-.14.29,2.72,2.72,0,0,1-.14.29h.71v.9a1.49,1.49,0,0,1,1.05-.9,1,1,0,0,0,0,.22c0,.09,0,.16,0,.21a.55.55,0,0,1-.16.45,2.85,2.85,0,0,1-.33.25l-.33.22a.28.28,0,0,0-.16.25.5.5,0,0,0,0,.16l.29.15a1.59,1.59,0,0,1,.3.16l.46.27v3.78a2.75,2.75,0,0,0,.88-.13,2.84,2.84,0,0,1,.88-.14,1,1,0,0,1-.39.8l-.86.72a7,7,0,0,0-.86.86,1.83,1.83,0,0,0-.39,1.21,3.62,3.62,0,0,0,.39,1.44,5.19,5.19,0,0,1,.47,1.52,1.2,1.2,0,0,1,0,.41c0,.2,0,.41-.06.65s0,.44-.08.64,0,.33,0,.41a1.21,1.21,0,0,0,.45-.06c.09,0,.21.06.34.29l-.63.32V25h.63c0,.23.09.43.13.58s.07.32.1.49,0,.31,0,.41V28.2a.5.5,0,0,0,.33.43,2.6,2.6,0,0,0,.64.15,3.83,3.83,0,0,0,.67,0l.43,0,.81.12,1.25.17,1.25.2.82.14c.13,0,.3.11.53.33a1.28,1.28,0,0,1,.37.52,6.17,6.17,0,0,1-.2.59c-.13.36-.29.77-.47,1.21l-.5,1.21c-.16.36-.26.54-.32.54h-3.82l-.31-.15-.31-.16h-.16a.59.59,0,0,0-.48.16,1,1,0,0,1-.69.15,1.87,1.87,0,0,1-1.13-.31,1.78,1.78,0,0,0-1.09-.31,2.78,2.78,0,0,0-.66.08.81.81,0,0,0-.51.54c0-.26,0-.43-.14-.5a.75.75,0,0,0-.45-.12c-.18,0-.29,0-.35.14l-.15.27a1.56,1.56,0,0,1-.2.27.61.61,0,0,1-.47.14V28.94ZM226.94,11.7c0,.18.06.27.19.27s.24-.09.24-.27-.08-.31-.24-.31S226.94,11.49,226.94,11.7Zm1.91.9c0,.18-.08.27-.23.27s-.24-.09-.24-.27.08-.31.24-.31S228.85,12.39,228.85,12.6Zm2.5-5,.23,0a1.6,1.6,0,0,1-.25.46c-.09.11-.18.21-.26.32a.73.73,0,0,0-.15.37,1.45,1.45,0,0,0,0,.6,1.49,1.49,0,0,0-.41-.25A1.44,1.44,0,0,0,230.1,9a.7.7,0,0,0-.59.21c-.1.15-.32.22-.66.22a1.62,1.62,0,0,1,.76-1.39,2.64,2.64,0,0,1,1.5-.52A1.25,1.25,0,0,1,231.35,7.55Zm-1.49.6q0,.27.24.27c.13,0,.19-.09.19-.27s-.06-.31-.19-.31S229.86,7.94,229.86,8.15Zm1.84,1.33a.14.14,0,0,1-.12.15c-.1,0-.16,0-.16-.15s.06-.18.16-.16A.16.16,0,0,1,231.7,9.48Zm1.05,1.6a.94.94,0,0,0,.45-.16.48.48,0,0,0,.25-.43h-.7Zm.9-8.23V4h-.32V2.85ZM234.08,21c-.13,0-.19.05-.16.16a.15.15,0,0,0,.16.11.14.14,0,0,0,.15-.11C234.26,21,234.21,21,234.08,21ZM234,13.46c0,.2.08.31.23.31s.2-.11.2-.31-.07-.32-.2-.32S234,13.25,234,13.46Zm.31-2.93c0,.18.06.27.19.27s.24-.09.24-.27-.08-.31-.24-.31S234.31,10.32,234.31,10.53Zm.27.27c0,.19.08.28.24.28s.19-.09.19-.28-.06-.31-.19-.31S234.58,10.6,234.58,10.8Zm.82-.37a1.91,1.91,0,0,0,.66.14.69.69,0,0,0-.33-.63,5.33,5.33,0,0,0-.64-.31,1.15,1.15,0,0,1,0,.14,1.15,1.15,0,0,0,0,.14A.51.51,0,0,0,235.4,10.43Zm-.23,7.16c0,.18.08.27.23.27s.24-.09.24-.27-.08-.31-.24-.31S235.17,17.38,235.17,17.59Zm.31-12.36c0,.18.08.27.23.27s.2-.09.2-.27-.07-.32-.2-.32S235.48,5,235.48,5.23Zm.74,1.17c0,.18-.08.27-.23.27s-.2-.09-.2-.27.07-.32.2-.32S236.22,6.19,236.22,6.4ZM236.38,4c0,.18.06.27.19.27s.24-.09.24-.27-.08-.31-.24-.31S236.38,3.81,236.38,4Zm0,12.71c0,.18.06.27.19.27s.24-.09.24-.27-.08-.31-.24-.31S236.38,16.52,236.38,16.73ZM237,4.6c0,.21.07.31.2.31s.23-.1.23-.31-.08-.31-.23-.31S237,4.39,237,4.6Zm0,23.91c0,.18.07.27.2.27s.23-.09.23-.27-.08-.31-.23-.31S237,28.3,237,28.51Zm.84-22.35a2.86,2.86,0,0,1,.06.51h-.39v-.9A.45.45,0,0,1,237.8,6.16ZM238,9.63c0,.19-.08.28-.24.28s-.19-.09-.19-.28.06-.31.19-.31S238,9.43,238,9.63Zm-.36,17.83q0,.2.12.15c.1,0,.16-.06.16-.11s-.06-.13-.16-.16S237.62,27.33,237.62,27.46Zm2.31-19.21c.15.22.22.38.19.49a1.87,1.87,0,0,1-.37.72c-.22.3-.4.45-.53.45h-.31V9.79a.22.22,0,0,1,0-.16c0-.07.06-.2.12-.37l.15-.52c.06-.19.11-.36.18-.53s.11-.29.14-.37A1.39,1.39,0,0,1,239.93,8.25Zm-.08,2v.15a.17.17,0,0,1,0,.12,1.82,1.82,0,0,1-.12.47l-.15.43V10.22ZM246,31.75h-.27v-.32Zm.58-3.63v.74a.58.58,0,0,1-.58-.35A.62.62,0,0,1,246.59,28.12Z"/></g></g></svg>