<svg xmlns="http://www.w3.org/2000/svg" viewBox="0 0 158.07 23.32"><defs><style>.cls-1{fill:#51ae32;}</style></defs><g id="Capa_2" data-name="Capa 2"><g id="Capa_9" data-name="Capa 9"><path class="cls-1" d="M0,17.45c0-.05,0-.17.09-.36l.08-.37.4-.08.62-.12.6-.1.41-.07h.15l.15,0a2.1,2.1,0,0,0,.31,1.18,7.6,7.6,0,0,0,.7.91,8.49,8.49,0,0,1,.7.91,2,2,0,0,1,.31,1.15,1.36,1.36,0,0,1,0,.18c0,.08,0,.17,0,.26s0,.18,0,.25,0,.12,0,.14l-.35.37c0-.06-.13-.12-.34-.18L3,21.27a6.27,6.27,0,0,1-1-.36,3.39,3.39,0,0,1-1-.65,3.14,3.14,0,0,1-.72-1.07A4.15,4.15,0,0,1,0,17.55Zm4.75,3.7v-.1a2.35,2.35,0,0,1,0-.26.84.84,0,0,1,.06-.24c0-.07.08-.1.13-.1H7.1a.41.41,0,0,1,.05-.19.37.37,0,0,0,0-.16A.22.22,0,0,0,7.12,20a.7.7,0,0,0-.32-.13,1.42,1.42,0,0,0-.31,0l-.59.09L5.3,20a.81.81,0,0,0-.35.13.17.17,0,0,0,0-.26.31.31,0,0,1-.15-.29A.67.67,0,0,1,5,19.16l.58-.54A4.68,4.68,0,0,0,6.16,18a1.49,1.49,0,0,0,.26-.9,2,2,0,0,0-.15-.78,5.51,5.51,0,0,0-.37-.78,7.84,7.84,0,0,0-.48-.74c-.16-.23-.32-.44-.47-.63.17-.08.23-.14.2-.17a.42.42,0,0,1-.05-.25,2.54,2.54,0,0,1-1.39-.58,9.13,9.13,0,0,1-1.55-1.4A10.31,10.31,0,0,1,.9,10,3.27,3.27,0,0,1,.38,8.42V5.3A2.21,2.21,0,0,1,.74,4.07a3.61,3.61,0,0,1,.9-.93,4.24,4.24,0,0,1,1.18-.6,4.1,4.1,0,0,1,1.23-.22V4.88a.52.52,0,0,0-.34.17,3.76,3.76,0,0,0-.36.41,3.15,3.15,0,0,0-.3.48,1,1,0,0,0-.13.36A3,3,0,0,0,3.3,7.74,13.27,13.27,0,0,0,4.05,9v.18l.46.51c.24.26.51.53.81.8a7.21,7.21,0,0,0,.87.7c.27.19.48.26.61.22l-.2.17a.7.7,0,0,0,.39.26.55.55,0,0,1,.36.29,5.26,5.26,0,0,0,.36.65c.14.22.28.43.4.65a5.08,5.08,0,0,1,.33.66,1.9,1.9,0,0,1,.13.71c.2,0,.33,0,.37.12A.66.66,0,0,1,9,15.2a2.37,2.37,0,0,0,.05.42,1,1,0,0,0,.33.53v.17l-.11.09-.1.09v.1a.24.24,0,0,0,.1.21.25.25,0,0,1,.11.24s-.05.14-.13.36-.18.47-.3.74l-.33.75a2.36,2.36,0,0,1-.17.37.71.71,0,0,1-.34.19,2.26,2.26,0,0,0-.39.15.55.55,0,0,0-.25.27.71.71,0,0,0,0,.5L6.25,21.67h-.7a2.34,2.34,0,0,1-.38,0,.73.73,0,0,1-.29-.15A.42.42,0,0,1,4.75,21.15ZM.88,20.57c0,.12-.06.18-.16.18S.6,20.69.6,20.57s0-.17.12-.17A.15.15,0,0,1,.88,20.57Zm2,.28c0,.08,0,.12.1.1a.11.11,0,0,0,0-.2C2.88,20.73,2.85,20.77,2.85,20.85Zm.17.9s0,0-.07-.08,0-.07.07-.07.12,0,.1.07A.1.1,0,0,1,3,21.75Zm.53-.8c0,.12,0,.17.12.17s.13-.05.13-.17,0-.2-.13-.2S3.55,20.82,3.55,21Zm.62-2.2c0,.12,0,.17-.12.17s-.15-.05-.15-.17.05-.2.15-.2S4.17,18.62,4.17,18.75Zm.4-14A.4.4,0,0,0,4.4,4.6v-2a.16.16,0,0,1,.07-.11A.24.24,0,0,1,4.6,2.4s.09,0,.22,0h.33c.25,0,.47,0,.66,0a3.78,3.78,0,0,1,.57.1c.18,0,.38.11.59.19L7.72,3l-.2.17A1.51,1.51,0,0,1,8,3.64a4.62,4.62,0,0,1,.41.8,4.84,4.84,0,0,1,.27.87,3.31,3.31,0,0,1,.1.76,1,1,0,0,1,0,.28,1.13,1.13,0,0,1-.17.27l-.36.08-.55.11-.55.11A1.63,1.63,0,0,1,6.8,7a.24.24,0,0,1-.15,0H6.47c-.13,0-.23-.1-.31-.31S6,6.25,5.9,6a2.49,2.49,0,0,0-.44-.7A1.08,1.08,0,0,0,4.6,5,.22.22,0,0,0,4.57,4.75ZM4.9,20.4c0,.12,0,.17-.13.17s-.12-.05-.12-.17,0-.2.12-.2S4.9,20.27,4.9,20.4Zm0-6.9c0,.08,0,.12.07.1s.1,0,.1-.08,0-.09-.1-.12S4.88,13.42,4.88,13.5Zm.24-4.4A.17.17,0,0,1,5,9S5,9,5,9a.28.28,0,0,1,.13,0,.4.4,0,0,1,.17,0s0,0,0,.05S5.22,9.1,5.12,9.1Zm.63,12.4c0,.12,0,.17.13.17S6,21.62,6,21.5s0-.2-.12-.2S5.75,21.37,5.75,21.5ZM6.5,2.1s-.06,0-.08-.08,0-.07.1-.07S6.63,2,6.6,2A.11.11,0,0,1,6.5,2.1ZM9,13.4H8.82L9,13.05Zm-.12,3c0,.12,0,.17.12.17s.12-.05.12-.17,0-.18-.12-.18S8.88,16.23,8.88,16.35ZM9.38,4.6v.22A.4.4,0,0,1,9,4.6Z"/><path class="cls-1" d="M13.47,12.8a3.05,3.05,0,0,0-.75.21,1.91,1.91,0,0,1-.75.16h-.2a.66.66,0,0,1,.07-.15l.15-.27c0-.1.11-.15.16-.15h1.32Zm-.05,6.89c.1-.51.22-1,.34-1.53s.24-1,.34-1.52a7.91,7.91,0,0,0,.15-1.52,3.38,3.38,0,0,0,0-.46A4.48,4.48,0,0,0,14.1,14a2.93,2.93,0,0,0-.19-.57.55.55,0,0,0-.24-.3.6.6,0,0,0,.27-.37,2.76,2.76,0,0,0,.11-.61,4.75,4.75,0,0,0,0-.65c0-.21,0-.37,0-.47a.69.69,0,0,1,.29-.12l.31,0a.63.63,0,0,0,.25-.1.32.32,0,0,0,.1-.28.76.76,0,0,0-.05-.27.22.22,0,0,0-.23-.13,3,3,0,0,0-.72.12,2.21,2.21,0,0,0-.7.28,2.87,2.87,0,0,1-.41-.36,4.75,4.75,0,0,1-.37-.39v-.2a2.64,2.64,0,0,1,.2-.22q.15-.15.18-.15a.65.65,0,0,1,.35.05,2.49,2.49,0,0,1,.4.2l.37.22a.62.62,0,0,0,.3.1h.1l.28-.1.3-.1h-.65a.5.5,0,0,1,.15-.37l.32-.29c.12-.09.23-.19.34-.29a.66.66,0,0,0,.21-.37L16.5,1.82l.22,0a1.53,1.53,0,0,1,.38,0,.91.91,0,0,1,.35.16c0,.18.09.5.16,1s.15.93.23,1.43.14,1,.21,1.42.12.76.15.92v.2a.5.5,0,0,1-.09.2A.66.66,0,0,0,18,7.3s0,0,.09.1.09.08.09.1v.07a3.71,3.71,0,0,1-.1.9,4,4,0,0,0-.1.93,2.15,2.15,0,0,0,.1.75,1.81,1.81,0,0,1,.1.65v.1l-.09.1c0,.05-.07.07-.09.07l-.08-.18a.69.69,0,0,0-.12-.19s0,0,0,0,0,0,0,0a.5.5,0,0,0,.07.29,1.2,1.2,0,0,0,.17.21c.05.07.11.14.16.22a.44.44,0,0,1,.07.26.24.24,0,0,1,0,.1.81.81,0,0,1-.28.11l-.3.06c0,.05,0,.15-.07.3s-.07.31-.11.47-.08.31-.12.46a2.3,2.3,0,0,1-.07.3v.17a.48.48,0,0,0,.2.2h.1l.22-.07.45-.16.47-.19a1.36,1.36,0,0,0,.26-.15q0,.15.15.39a1.68,1.68,0,0,1,.25.36s0,0,.09-.08l.08-.1v-.2a.61.61,0,0,0-.08-.17.57.57,0,0,1-.09-.2V12.6c0-.08-.05-.25-.09-.5s-.09-.55-.14-.89-.1-.7-.16-1.07-.11-.74-.16-1.08-.1-.64-.14-.89-.07-.41-.09-.5v-.1a.18.18,0,0,1,.09-.15l.19-.11A.9.9,0,0,0,19,7.16a.53.53,0,0,0,.11-.24c-.28,0-.47,0-.56-.18a1.6,1.6,0,0,1-.19-.57c0-.13-.08-.36-.13-.7s-.1-.69-.17-1.07-.13-.75-.18-1.09-.08-.59-.1-.74v-.3a3.29,3.29,0,0,1,0-.42.28.28,0,0,1,.31-.23h.23a1,1,0,0,0,.17.12.48.48,0,0,0,.2.08l.27,0h.8l.26,0a2.15,2.15,0,0,0,.24.48,2.65,2.65,0,0,1,.23.39,1.1,1.1,0,0,1,.14.42,1.28,1.28,0,0,1-.06.59l.41.12a.5.5,0,0,1,.36.28H20.9a.65.65,0,0,1,0,.18c0,.1,0,.16,0,.19a.55.55,0,0,0,.1.18.44.44,0,0,1,.1.2A.4.4,0,0,1,21,5a.42.42,0,0,0-.1.19s0,.06,0,.14,0,.15.07.24,0,.16.07.23a.51.51,0,0,1,0,.14,2.51,2.51,0,0,0,0,.39c0,.17,0,.36.06.56s0,.39.05.57a3.33,3.33,0,0,1,0,.38.68.68,0,0,0,.25.22,2.64,2.64,0,0,0,.38.18l.52.17v.13a1,1,0,0,0-.51.16.52.52,0,0,0-.26.46.91.91,0,0,0,.21.6,3.46,3.46,0,0,1,.36.52v.2a1.64,1.64,0,0,1-.08.19.69.69,0,0,1-.12.19L22.55,12a.78.78,0,0,0-.18.33,3.32,3.32,0,0,0,0,.35c0,.25,0,.38.15.41l.35.05a.67.67,0,0,1,.39.17,1.33,1.33,0,0,1,.26.76.74.74,0,0,0-.46.13.73.73,0,0,0-.24.31,1.11,1.11,0,0,0-.08.41v.45a.83.83,0,0,0,.09.43,1.79,1.79,0,0,0,.2.26,1.21,1.21,0,0,1,.21.24.47.47,0,0,1,.1.32.24.24,0,0,1,0,.1.87.87,0,0,1,0,.14,1.49,1.49,0,0,1-.06.25l-.06.25a.87.87,0,0,0,0,.13s.05.1.15.21a1,1,0,0,0,.23.17v1.87c.05,0,.15.13.3.28a2.24,2.24,0,0,1,.27.3.17.17,0,0,0,0,.07.15.15,0,0,1,0,.08.45.45,0,0,0-.46.26,2.41,2.41,0,0,0-.16.54H20.85l-.2-.2a2.33,2.33,0,0,0-.1-1.52,1.38,1.38,0,0,0-1.2-.73v-.35a3.51,3.51,0,0,0-.7.09,1.32,1.32,0,0,0-.63.26v-.2a2.52,2.52,0,0,1-.11-.31,2,2,0,0,0-.09-.27h-.07a1,1,0,0,0-.75.27,1.68,1.68,0,0,0-.38.67,7.88,7.88,0,0,0-.2.87,6,6,0,0,1-.2.88,1.42,1.42,0,0,1-.4.67,1.09,1.09,0,0,1-.8.26,1.35,1.35,0,0,1-.57-.1,1.35,1.35,0,0,0-.5-.1h-.1l-.18.12a.44.44,0,0,1-.2.08.16.16,0,0,1-.18-.18c0-.13,0-.22,0-.27A7.93,7.93,0,0,1,13.42,19.69Zm-.57-6.52c0,.12,0,.18-.13.18s-.15-.06-.15-.18,0-.2.15-.2S12.85,13,12.85,13.17ZM13.47,10h.2V9.77h-.2Zm.2,1.52h-.2l.2-.2Zm3.25,5.85c0,.14,0,.2.15.2s.13-.06.13-.2,0-.2-.13-.2S16.92,17.19,16.92,17.32Zm1.15-3.57c0,.12.05.17.13.17s.15-.05.15-.17-.05-.2-.15-.2S18.07,13.62,18.07,13.75Zm.33.17a1,1,0,0,0-.11.19,1.84,1.84,0,0,1-.09.19h.1l.1,0a.73.73,0,0,0,.11-.19.55.55,0,0,0,.06-.19l-.1,0Zm.32-3.77c0,.12,0,.17-.15.17s-.12-.05-.12-.17,0-.2.12-.2S18.72,10,18.72,10.15Zm0,3q0,.18-.15.18t-.12-.18c0-.13,0-.2.12-.2S18.72,13,18.72,13.17Zm.05,6h-.2V19Zm.13-8.7c0,.12,0,.18-.13.18s-.15-.06-.15-.18.05-.2.15-.2S18.9,10.39,18.9,10.52Zm-.08,6.8c0,.14.05.2.13.2s.15-.06.15-.2-.05-.2-.15-.2S18.82,17.19,18.82,17.32Zm.58-8.87c0,.12,0,.17.12.17s.15,0,.15-.17-.05-.2-.15-.2S19.4,8.32,19.4,8.45Zm.82-7c0,.12,0,.17-.12.17S20,1.57,20,1.45s.05-.2.15-.2S20.22,1.32,20.22,1.45ZM23,13.82c-.08,0-.11,0-.1.1A.11.11,0,0,0,23,14a.1.1,0,0,0,.1-.08C23.14,13.86,23.11,13.82,23,13.82Zm.75,3.2s-.06,0-.1-.07,0-.1.1-.1.12,0,.1.1A.09.09,0,0,1,23.77,17Zm.43-.45c0,.12,0,.18-.13.18s-.15-.06-.15-.18,0-.19.15-.19S24.2,16.44,24.2,16.57Zm-.05-2s0,.06-.08.07-.1,0-.1-.1,0-.1.1-.07A.11.11,0,0,1,24.15,14.6Zm.85-.5v.2h-.38v-.2Z"/><path class="cls-1" d="M30.42,18.55l.18-.38H28.52V17.9c0-.18,0-.5,0-.95s0-.93.06-1.43.05-1,.06-1.41,0-.75,0-.94c0,0,0-.07.08-.11l.1-.09s0,0,.05,0,0,0,.05,0a.4.4,0,0,1,.06-.11c0-.06.06-.1,0-.14a.81.81,0,0,0-.28-.11,1.49,1.49,0,0,0-.3-.06V10.7a.16.16,0,0,1,.08-.16.22.22,0,0,1,.16,0l.18,0,.11,0a.77.77,0,0,0-.1-.4,2.35,2.35,0,0,0-.23-.32l-.23-.3a1,1,0,0,1-.17-.35,2.52,2.52,0,0,1,0-.29,1.34,1.34,0,0,0,0-.4.48.48,0,0,0-.15-.29c-.08-.06-.23-.05-.43,0V7.32h-.2l-.28.11A1.44,1.44,0,0,1,27,7.5a1.26,1.26,0,0,1-.28-.09l-.27-.11h-.2v.4h-.19a.61.61,0,0,1-.19,0,.39.39,0,0,1-.18-.08.48.48,0,0,0-.19-.09,1.3,1.3,0,0,0-.66.2,1.4,1.4,0,0,1-.69.2c0-.13,0-.28,0-.44A2.11,2.11,0,0,1,24.24,7a.81.81,0,0,1,.2-.35.56.56,0,0,1,.41-.14,1.31,1.31,0,0,1,.44.07,1.26,1.26,0,0,1,.41.33.65.65,0,0,1,.39-.31,2,2,0,0,1,.48-.06,3.12,3.12,0,0,1,.52,0,1.1,1.1,0,0,0,.48,0s.06,0,.12-.09l.17-.19L28,6.09,28.15,6a.73.73,0,0,1,.19-.11.59.59,0,0,1,.18-.06.47.47,0,0,1-.11-.1l-.09-.1V5.4l.12-.09c.06,0,.08-.07.08-.09s0,0,0-.1a.49.49,0,0,1,0-.1H28.3a.32.32,0,0,1,0-.08.34.34,0,0,0,0-.09l.17-.31c.07-.14.15-.3.22-.47s.15-.32.23-.46.13-.23.16-.29l-.38-.17A.63.63,0,0,0,29,2.92a.94.94,0,0,0,.15-.32,2.25,2.25,0,0,0,.06-.36c0-.13,0-.23,0-.32h.5a4.06,4.06,0,0,1,.7,0,1.72,1.72,0,0,1,.63.17.48.48,0,0,1,.27.46h.28s0,.05,0,.09a.19.19,0,0,1,0,.09,2.24,2.24,0,0,0-.23.44c-.06.17-.13.35-.21.52a2.69,2.69,0,0,1-.24.48.66.66,0,0,1-.27.28A.5.5,0,0,0,30.51,4a.55.55,0,0,0-.46-.25.26.26,0,0,0-.2.2c0,.05.1.17.19.36l.18.39v.2L30.14,5c-.05.09-.07.15-.09.18h.45V5.8a1,1,0,0,1,.67-.58.93.93,0,0,0,0,.14.82.82,0,0,1,0,.14.37.37,0,0,1-.1.29L30.89,6l-.22.14a.19.19,0,0,0-.1.16.33.33,0,0,0,0,.1l.19.1a.72.72,0,0,1,.18.1l.3.17V9.15a1.79,1.79,0,0,0,.57-.09A1.69,1.69,0,0,1,32.4,9a.65.65,0,0,1-.25.52L31.6,10a4.76,4.76,0,0,0-.55.55,1.15,1.15,0,0,0-.25.77,2.31,2.31,0,0,0,.25.93,3.2,3.2,0,0,1,.3,1,.71.71,0,0,1,0,.27c0,.12,0,.26,0,.41s0,.29-.05.41,0,.21,0,.26a1,1,0,0,0,.29,0c.05,0,.13,0,.21.18l-.4.21V16h.4c0,.15.06.27.09.38s0,.2.06.31a1.33,1.33,0,0,1,0,.26v1.12a.32.32,0,0,0,.22.28,1.64,1.64,0,0,0,.41.1,2,2,0,0,0,.42,0h.28l.52.07.8.12.8.12.53.09c.08,0,.19.07.34.21a.74.74,0,0,1,.23.34,3.63,3.63,0,0,1-.12.37q-.12.36-.3.78l-.33.77c-.1.24-.16.35-.2.35H33.07l-.2-.1-.2-.1h-.1a.42.42,0,0,0-.31.1c-.06.07-.2.1-.44.1a1.14,1.14,0,0,1-.72-.2,1.18,1.18,0,0,0-.7-.2,2,2,0,0,0-.43.05.54.54,0,0,0-.32.35c0-.16,0-.27-.09-.32a.5.5,0,0,0-.29-.08c-.11,0-.19,0-.22.09l-.1.18a1,1,0,0,1-.13.17.38.38,0,0,1-.3.09V18.55Zm-6-11c0,.12,0,.17.13.17s.15,0,.15-.17-.05-.2-.15-.2S24.42,7.37,24.42,7.5Zm1.23.57q0,.18-.15.18t-.15-.18c0-.13,0-.19.15-.19S25.65,7.94,25.65,8.07Zm1.6-3.23h.15a1.35,1.35,0,0,1-.16.3c-.06.07-.12.13-.17.2a.64.64,0,0,0-.1.24A1.39,1.39,0,0,0,27,6a1.14,1.14,0,0,0-.26-.16,1.12,1.12,0,0,0-.29,0,.46.46,0,0,0-.38.14c-.06.09-.2.14-.42.14a1,1,0,0,1,.49-.89,1.7,1.7,0,0,1,1-.34Zm-.95.38q0,.18.15.18t.12-.18c0-.13,0-.2-.12-.2S26.3,5.09,26.3,5.22Zm1.17.85a.09.09,0,0,1-.07.1c-.07,0-.1,0-.1-.1s0-.11.1-.1A.1.1,0,0,1,27.47,6.07Zm.68,1a.56.56,0,0,0,.29-.1.33.33,0,0,0,.16-.28h-.45Zm.57-5.28v.75h-.2V1.82ZM29,13.45c-.08,0-.12,0-.1.1a.11.11,0,0,0,.2,0C29.12,13.48,29.08,13.45,29,13.45ZM29,8.62c0,.14.05.2.15.2s.12-.06.12-.2,0-.2-.12-.2S29,8.49,29,8.62Zm.2-1.87c0,.12,0,.17.12.17s.15,0,.15-.17-.05-.2-.15-.2S29.15,6.62,29.15,6.75Zm.17.17q0,.18.15.18c.09,0,.13-.06.13-.18s0-.2-.13-.2S29.32,6.79,29.32,6.92Zm.53-.23a1.11,1.11,0,0,0,.42.08.41.41,0,0,0-.21-.39,2.28,2.28,0,0,0-.41-.21s0,0,0,.09a.51.51,0,0,0,0,.09A.34.34,0,0,0,29.85,6.69Zm-.15,4.58q0,.18.15.18t.15-.18c0-.13-.05-.2-.15-.2S29.7,11.14,29.7,11.27Zm.2-7.92c0,.12.05.17.15.17s.12,0,.12-.17,0-.2-.12-.2S29.9,3.22,29.9,3.35Zm.47.75c0,.12-.05.17-.15.17s-.12,0-.12-.17,0-.2.12-.2S30.37,4,30.37,4.1Zm.1-1.53c0,.12.05.18.13.18s.15-.06.15-.18-.05-.19-.15-.19S30.47,2.44,30.47,2.57Zm0,8.15c0,.12.05.18.13.18s.15-.06.15-.18-.05-.2-.15-.2S30.47,10.59,30.47,10.72ZM30.85,3c0,.13,0,.2.12.2s.15-.07.15-.2-.05-.2-.15-.2S30.85,2.82,30.85,3Zm0,15.32q0,.18.12.18t.15-.18c0-.13-.05-.2-.15-.2S30.85,18.14,30.85,18.27ZM31.39,4a2.23,2.23,0,0,1,0,.32h-.25V3.7A.3.3,0,0,1,31.39,4Zm.11,2.22q0,.18-.15.18c-.08,0-.13-.06-.13-.18s.05-.2.13-.2S31.5,6,31.5,6.17ZM31.27,17.6c0,.08,0,.12.08.1s.1,0,.1-.08,0-.08-.1-.1S31.27,17.52,31.27,17.6ZM32.75,5.29c.1.14.14.24.12.31a1,1,0,0,1-.23.46c-.14.19-.26.29-.34.29h-.2V6.27a.22.22,0,0,1,0-.1,1.86,1.86,0,0,0,.08-.23c0-.11.07-.22.1-.34a3.38,3.38,0,0,1,.11-.34L32.5,5A1,1,0,0,1,32.75,5.29Zm0,1.26v.1a.08.08,0,0,1,0,.07,1.06,1.06,0,0,1-.07.3,2.2,2.2,0,0,1-.1.28V6.55Zm3.95,13.8h-.18v-.2ZM37,18v.48a.38.38,0,0,1-.37-.23A.41.41,0,0,1,37,18Z"/><path class="cls-1" d="M43.35,20.94l-.76-.44-.78-.43q-.36-.2-.39-.3s0,0,.1-.07a.88.88,0,0,0,.1-.1v-.1c0-.27-.08-.44-.26-.51a1.45,1.45,0,0,0-.61-.11v-1l-.31.1a1.61,1.61,0,0,1-.34.07.66.66,0,0,1-.29,0l-.29,0-.27.2c-.15.12-.24.18-.28.18s-.09-.06-.18-.18a2,2,0,0,0-.19-.2.63.63,0,0,0-.29,0l-.35.14-.35.15a.63.63,0,0,1-.26.07c-.05,0-.08,0-.08,0l-.12-.09s-.08-.07-.08-.09a2,2,0,0,1,.23-.86,6.62,6.62,0,0,0,.35-.84.43.43,0,0,0,.14.27,2.91,2.91,0,0,0,.3.31,2,2,0,0,0,.33.26.52.52,0,0,0,.25.11l.33-.05.66-.12.66-.14a1.67,1.67,0,0,0,.35-.09s0-.05.09-.16a1.23,1.23,0,0,1,.09-.21l.37-.37c0-.16,0-.39.05-.71s0-.67,0-1.06,0-.81,0-1.25,0-.86,0-1.26,0-.76,0-1.08,0-.55,0-.7,0-.41,0-.78,0-.78,0-1.2,0-.83-.06-1.2,0-.64-.07-.79a1,1,0,0,0-.12.3A2,2,0,0,1,41,7a1,1,0,0,1-.18.27.48.48,0,0,1-.34.11V5.5a1.15,1.15,0,0,0,.5-.14A.43.43,0,0,0,41.25,5c0-.07,0-.1,0-.1a2.32,2.32,0,0,0-.17-.47H39.9l1.32-.48a.73.73,0,0,1-.11-.19.55.55,0,0,1-.06-.19.29.29,0,0,1,.09-.1s.08-.08.08-.1,0,0,0-.17V2.62a.56.56,0,0,0,0-.24l-.75.39a1,1,0,0,1,.4-.71,1.61,1.61,0,0,1,.72-.22,4.21,4.21,0,0,1,.87,0,4,4,0,0,0,.86,0,.42.42,0,0,0,.14-.06l.24-.14a1.34,1.34,0,0,1,.24-.12l.13-.05s.1.05.2.14a.63.63,0,0,1,.18.23.66.66,0,0,1-.09.18,1.59,1.59,0,0,0-.11.2,1.55,1.55,0,0,1,0,.29c0,.14,0,.29-.06.46s0,.32,0,.46a2.52,2.52,0,0,0,0,.29l.4.12a.56.56,0,0,1,.35.28.56.56,0,0,0-.52.4,3.1,3.1,0,0,0-.23.92,9,9,0,0,0,0,1c0,.33,0,.56,0,.67a5.37,5.37,0,0,0,.11,1.09,4.8,4.8,0,0,1,.11,1.09v.15a.22.22,0,0,1,0,.12.43.43,0,0,1-.09.19.48.48,0,0,0-.09.19,1.62,1.62,0,0,0,0,.21l.06.35a2.58,2.58,0,0,1,.06.37c0,.11,0,.18,0,.19a.2.2,0,0,0,0,.07.13.13,0,0,1,0,.06.44.44,0,0,1-.11.31.55.55,0,0,0-.11.34.9.9,0,0,0,.11.44.83.83,0,0,1,.11.46V13a.75.75,0,0,1,0,.2q0,.13,0,.45c0,.22,0,.45,0,.68s0,.46-.06.67,0,.37,0,.45a.73.73,0,0,0,.38.3.78.78,0,0,1,.37.28.22.22,0,0,1-.06.12c0,.05-.08.08-.11.08a.7.7,0,0,1-.2-.08.92.92,0,0,1-.2-.12v.38a3.9,3.9,0,0,0,.22,1.39,2.34,2.34,0,0,0,.93,1.08l.11.09a.21.21,0,0,1,.06.08V21.3l-.17.17H44.07l-.2.1-.17.1h-.2a.9.9,0,0,0,.12-.18.58.58,0,0,0,.08-.19C43.7,21.2,43.58,21.08,43.35,20.94Zm-6-2.84c0,.12,0,.17.13.17s.15-.05.15-.17-.05-.2-.15-.2S37.32,18,37.32,18.1Zm3-2.63a1.44,1.44,0,0,1-.05.24c0,.13-.08.25-.13.38l-.15.33q-.08.15-.12.15a.5.5,0,0,1-.18-.08,1.1,1.1,0,0,0-.2-.11h-.1a.55.55,0,0,0-.32.16,1.09,1.09,0,0,1-.33.21v-.08a.76.76,0,0,1,.18-.58,1.24,1.24,0,0,1,.39-.25,2.69,2.69,0,0,0,.38-.19.42.42,0,0,0,.18-.4A.46.46,0,0,0,40.35,15.47ZM38.82,17.9c0,.12,0,.17.15.17s.13-.05.13-.17,0-.2-.13-.2S38.82,17.77,38.82,17.9Zm.63-2c-.08,0-.12,0-.1.08s0,.1.1.1.06,0,.07-.1S39.52,15.92,39.45,15.92Zm.6,3.13c0,.12,0,.17-.15.17s-.13,0-.13-.17,0-.2.13-.2S40.05,18.92,40.05,19.05Zm.42-2.3H40.3l.17-.18Zm.05-10.2c0,.12,0,.17.15.17s.13,0,.13-.17,0-.2-.13-.2S40.52,6.42,40.52,6.55Zm.53,11.15.1,0a.11.11,0,0,0,.07,0l.12-.09.08-.09-.2-.2ZM41.1,6c0,.12,0,.17.12.17s.15,0,.15-.17,0-.2-.15-.2S41.1,5.87,41.1,6Zm.95,10.4c0,.12,0,.17.12.17s.15-.05.15-.17,0-.2-.15-.2S42.05,16.27,42.05,16.4Zm.55.55c0,.12,0,.17.15.17s.12-.05.12-.17,0-.2-.12-.2S42.6,16.82,42.6,17Zm2.6-8.5L45,8.62V8.45Zm0,2.62-.18.2v-.2Zm0,1.9-.18.2V13Zm0,3.43a2,2,0,0,1,.16-.4.55.55,0,0,1,.19.07.84.84,0,0,1,.18.13v.07a2.11,2.11,0,0,1-.12.75,2.59,2.59,0,0,0-.13.88h-.07a1.2,1.2,0,0,0-.13-.59,1.19,1.19,0,0,1-.12-.54A1.31,1.31,0,0,1,45.24,16.4Zm.43-.85s0,.06-.1.07-.07,0-.07-.1,0-.11.07-.1S45.67,15.5,45.67,15.55Zm.74,3.11.46-.51a4.77,4.77,0,0,1,.45-.45.68.68,0,0,1,.4-.2,1,1,0,0,1,.38.06c.1,0,.15.15.15.32a1.28,1.28,0,0,1,0,.41.18.18,0,0,1-.18.11,1,1,0,0,1-.26,0,2.13,2.13,0,0,0-.39,0c0,.24.05.38.15.43a1,1,0,0,0,.37.09,2.7,2.7,0,0,1,.41.06.46.46,0,0,1,.3.32,4.06,4.06,0,0,0-.48,0,3.68,3.68,0,0,0-.45,0,.26.26,0,0,0-.12.07s-.08.08-.08.11l.2.2h1.75a1,1,0,0,1-.25.75,2.33,2.33,0,0,1-.6.44l-.71.37a1.72,1.72,0,0,0-.59.51l-.21,0-.34-.06-.33-.07a.89.89,0,0,1-.24-.05A.16.16,0,0,1,46,21.4s-.07-.08-.07-.1V19A1.34,1.34,0,0,0,46.41,18.66ZM48.9,17a1.13,1.13,0,0,1-.48.11H48.3a.1.1,0,0,1-.08,0,2,2,0,0,1-.37-.07l-.38-.1V15.82c0-.35,0-.89,0-1.62s0-1.56,0-2.48,0-1.88,0-2.9,0-2,0-2.9,0-1.74,0-2.47,0-1.28,0-1.63l.22,0h.67l.24,0a.47.47,0,0,0,.19-.1.56.56,0,0,1,.18-.1s0,0,.1.09l.1.11h.18a.45.45,0,0,0,.35-.12.5.5,0,0,1,.4-.13v5a.22.22,0,0,1,.12.06s.08.08.08.11a.58.58,0,0,1-.1.2.49.49,0,0,0-.1.2.55.55,0,0,0,.1.18.68.68,0,0,1,.1.2c0,.15,0,.24,0,.27a3,3,0,0,1,0,.34.78.78,0,0,1-.2.34V10.9a.25.25,0,0,1,.21.24c0,.12,0,.23,0,.31a6.22,6.22,0,0,1-.11,1.24,7,7,0,0,0-.11,1.23,4.55,4.55,0,0,0,.1,1,4.85,4.85,0,0,1,.1,1,2.77,2.77,0,0,1-.06.41c0,.21-.1.43-.17.66s-.13.45-.18.63-.12.28-.17.3-.2-.1-.2-.2v-.32a.8.8,0,0,0,0-.32c0-.09-.13-.14-.3-.14A1,1,0,0,0,48.9,17Zm-.2-4.16c0,.08,0,.11.1.09s.07,0,.07-.07a.16.16,0,0,0-.07-.13C48.73,12.76,48.7,12.79,48.7,12.88Zm.47,5.39-.17.18v-.18Zm1.23.11s0,.05-.1.07-.08,0-.08-.07,0-.12.08-.11S50.4,18.32,50.4,18.38Zm.25-8c0,.12,0,.17-.15.17s-.15,0-.15-.17,0-.2.15-.2S50.65,10.22,50.65,10.35Zm.8-1.9-.2.17V8.45ZM54.7,9c0,.09,0,.16,0,.19s0,.12,0,.21,0,.15-.05.16-.15.13-.34.17a.81.81,0,0,1-.41,0,1.27,1.27,0,0,1,.31-.53,3.8,3.8,0,0,1,.44-.4A1,1,0,0,1,54.7,9Zm-.6,1.31h-.2l.2-.37Zm.32-1.5q0,.18-.15.18t-.12-.18c0-.13,0-.2.12-.2S54.42,8.69,54.42,8.82Zm.38,1.33c0,.12,0,.17-.15.17s-.13-.05-.13-.17,0-.2.13-.2S54.8,10,54.8,10.15Z"/><path class="cls-1" d="M57.34,17.34a1.92,1.92,0,0,1,.42.58,3.28,3.28,0,0,1,.24.75c0,.27.08.51.1.73a.67.67,0,0,1,0-.39.89.89,0,0,1,.15-.36.51.51,0,0,1,.29,0l.29,0,.19-.09a.63.63,0,0,0,.18-.11.26.26,0,0,0,0,.2l.2.12c.1.05.16.07.18.05l1.7-1.05V6.55s0,0-.06-.09l-.12-.11a.67.67,0,0,1-.3-.31,1.94,1.94,0,0,1-.07-.33,1.92,1.92,0,0,0-.09-.32A1.06,1.06,0,0,0,60.35,5a1.36,1.36,0,0,0-.58-.2L59,4.72a2.13,2.13,0,0,1-.66-.18A.65.65,0,0,1,58,4.07v7.2l-.24.18-.24.2,0,.07a.4.4,0,0,0,.11.32c.08.06.11.18.11.38v.2c0,.1,0,.15,0,.15a.37.37,0,0,1-.05.15c0,.07-.08.15-.13.24l-.13.25a.4.4,0,0,0-.07.14c0,.08,0,.23,0,.45s0,.44-.06.67,0,.46-.05.68,0,.37,0,.45a6.57,6.57,0,0,1-.79.66,4,4,0,0,1-.91.49V15.62l.09-.08a.28.28,0,0,0,.08-.12.26.26,0,0,0,0-.1l0-.07a.84.84,0,0,0-.12-.19l-.15-.18V10.32a1.61,1.61,0,0,1-.7-.16.81.81,0,0,1-.36-.35,1.12,1.12,0,0,1-.13-.5c0-.19,0-.4,0-.64a4.74,4.74,0,0,0-.89.08,4.46,4.46,0,0,1-.84.07h-.1s-.08,0-.1,0a.75.75,0,0,1,.07-.15,2.43,2.43,0,0,1,.15-.26c.06-.09.11-.14.16-.14h1.77a.17.17,0,0,0,0-.1c0-.05,0-.08,0-.1a.91.91,0,0,1,.2-.19c.12-.09.17-.15.17-.19a.24.24,0,0,0-.07-.28.83.83,0,0,0-.3-.18A2.25,2.25,0,0,0,54,7.12l-.2,0s.17-.1.36-.19l.39-.19.14,0,.25,0,.23-.05a.34.34,0,0,0,.13,0s0-.14-.09-.28A.72.72,0,0,1,55,6l-.27,0a.59.59,0,0,0-.25,0l-.14,0-.24.06-.23.06-.14,0a1.23,1.23,0,0,1-1-1.2,2.15,2.15,0,0,1,1,.24,2.06,2.06,0,0,0,1,.23l.1,0,.1-.09a.48.48,0,0,0,.1-.09A.19.19,0,0,1,55,5.15c-.05-.05-.08-.09-.08-.13a.57.57,0,0,1,.09-.2l.11-.17A4.92,4.92,0,0,0,55.29,4c0-.21.07-.42.1-.64s0-.44,0-.67,0-.53,0-.85l.26,0,.4-.06.4-.06.26,0h.1a1.42,1.42,0,0,1,.45.08,1.41,1.41,0,0,1,.42.22,1.35,1.35,0,0,1,.3.37.72.72,0,0,1,.06.46.81.81,0,0,1,.11-.54,1.66,1.66,0,0,1,.29-.3,2,2,0,0,0,.26-.21.28.28,0,0,0,.09-.28,1.13,1.13,0,0,0-.19-.18,1,1,0,0,1-.19-.19L58.41.88a1.63,1.63,0,0,1,0-.18A1.47,1.47,0,0,0,59,.57,1.54,1.54,0,0,1,59.6.45V.88h-.28s0,0-.07.08-.06.07,0,.09a1.78,1.78,0,0,0,.3.12,1.44,1.44,0,0,0,.28.08s.06,0,.14-.09L60.17,1l.24-.18.14-.12.1,0,.1,0a4,4,0,0,0-.2.37l-.2.38a.49.49,0,0,0,0,.17.69.69,0,0,1,0,.16s0,0,.07,0,0,0,.06,0l.19-.18.18-.2c.27.19.59.39,1,.62a2.22,2.22,0,0,0,1.1.34,1,1,0,0,0,.2-.07c.1,0,.16-.08.17-.11a3,3,0,0,0,.28,1.11,6.82,6.82,0,0,0,.54,1c.19.3.36.56.51.75a1.7,1.7,0,0,1,.22.33.31.31,0,0,1-.1.27.8.8,0,0,1-.22.13l-.25.11a.41.41,0,0,0-.2.24s0,.13.07.3a2.18,2.18,0,0,1,.1.27s0,.06,0,.13,0,.12,0,.15a5.22,5.22,0,0,1-.11,1.06,4.66,4.66,0,0,0-.12,1.06,2,2,0,0,0,.12.74,2.35,2.35,0,0,1,.11.74c0,.07,0,.16,0,.28s0,.18,0,.19a1.66,1.66,0,0,1-.08.29,1.44,1.44,0,0,0-.09.29.48.48,0,0,0,.09.19.56.56,0,0,1,.08.18.86.86,0,0,1,0,.33v.42a1.69,1.69,0,0,1-.11.67,1.28,1.28,0,0,0-.12.58,1.12,1.12,0,0,0,.12.53,1.43,1.43,0,0,1,.11.6v.55a.69.69,0,0,1-.2.5v2.07a.37.37,0,0,0-.15.17.27.27,0,0,0,0,.21,1.17,1.17,0,0,0,.56.56,1.45,1.45,0,0,0,.76.19c-.21,0-.35,0-.42.05a.55.55,0,0,0-.14.26,2.68,2.68,0,0,1-.1.35.49.49,0,0,1-.29.29,1,1,0,0,0-.18-.46.5.5,0,0,0-.37-.12.89.89,0,0,0-.5.15c-.15.1-.3.22-.45.34l-.45.38a1.54,1.54,0,0,1-.5.28.2.2,0,0,0,0-.22.43.43,0,0,0-.18-.15.73.73,0,0,1-.17.19l-.2.18h-.08a1.25,1.25,0,0,1-.71-.2,1.36,1.36,0,0,0-.74-.2c-.53,0-1,0-1.46.05l-1.54.15.09.09.09.11,0,.1a.35.35,0,0,1-.16.28,2.12,2.12,0,0,1-.36.21,2,2,0,0,1-.41.13l-.32,0h-.1a.33.33,0,0,1-.11-.08.17.17,0,0,1-.06-.12V17.52a.26.26,0,0,1,.17-.23,1.63,1.63,0,0,1,.39-.13l.4-.05h.24A1,1,0,0,1,57.34,17.34ZM53.92,5.77V5.4l-.17.2ZM55.15,8.9c-.08,0-.11,0-.08.1s0,.1.08.1.08,0,.1-.1S55.23,8.9,55.15,8.9Zm.35,5.22q0,.18.12.18t.15-.18c0-.13-.05-.2-.15-.2S55.5,14,55.5,14.12ZM56,19.4l-.09.09-.09.11.38-.2H56ZM56.1.77c-.05,0-.09,0-.1-.1s0-.1.1-.1.11,0,.1.1S56.15.77,56.1.77Zm.32,20.35q0,.18.15.18t.15-.18c0-.13,0-.2-.15-.2S56.42,21,56.42,21.12Zm.94-21a2.25,2.25,0,0,1,.36.24A2.92,2.92,0,0,1,58,.62a.42.42,0,0,1,.13.26,1.55,1.55,0,0,1-.8-.19.76.76,0,0,1-.3-.69A.62.62,0,0,1,57.36.1Zm.29,20.82c0,.12,0,.18-.13.18s-.15-.06-.15-.18.05-.2.15-.2S57.65,20.79,57.65,20.92Zm.77-10c0,.12-.05.17-.15.17s-.12-.05-.12-.17,0-.2.12-.2S58.42,10.77,58.42,10.9Zm0,4.55c0,.12-.05.17-.15.17s-.12,0-.12-.17,0-.2.12-.2S58.42,15.32,58.42,15.45Zm.23-9.3v.4a.4.4,0,0,1-.23-.4Zm0,14.77v.18l-.18-.18ZM59,16.2q0,.18-.12.18t-.15-.18c0-.13,0-.2.15-.2S59,16.07,59,16.2Zm.63,4.72v.43a.47.47,0,0,1-.34-.16,2.33,2.33,0,0,1-.24-.27ZM60.07,5.4a.24.24,0,0,1-.08.19l-.2.11a1,1,0,0,1-.23.06h-.14V5.4Zm.23,15.52c0,.12,0,.18-.13.18S60,21,60,20.92s0-.2.15-.2S60.3,20.79,60.3,20.92Zm1.25-4.35q0,.18.12.18t.15-.18c0-.13,0-.19-.15-.19S61.55,16.44,61.55,16.57ZM63.85,11c-.09,0-.11,0-.08.07s0,.1.08.1.08,0,.1-.1S63.93,11,63.85,11Zm.8,6.15c0,.12,0,.17-.13.17s-.15-.05-.15-.17,0-.2.15-.2S64.65,17,64.65,17.15Zm.4,0c0,.12,0,.17-.15.17s-.15-.05-.15-.17,0-.2.15-.2S65.05,17,65.05,17.15ZM65.42,20q0,.18-.15.18T65.15,20c0-.13,0-.2.12-.2S65.42,19.84,65.42,20Zm.4-.47a.17.17,0,0,1-.17-.1s0,0,0,0a.4.4,0,0,1,.15,0,.35.35,0,0,1,.14,0s.05,0,0,0S65.92,19.5,65.82,19.5Z"/><path class="cls-1" d="M81.16,17.34a1.79,1.79,0,0,1,.43.58,3.83,3.83,0,0,1,.23.75,5.5,5.5,0,0,1,.1.73A.7.7,0,0,1,82,19a.89.89,0,0,1,.15-.36s.13,0,.29,0l.28,0,.19-.09a.73.73,0,0,0,.19-.11.18.18,0,0,0,0,.2.92.92,0,0,0,.2.12c.1.05.16.07.17.05l1.7-1.05V6.55s0,0-.06-.09L85,6.35a.58.58,0,0,1-.3-.31c0-.11-.06-.22-.08-.33a1.25,1.25,0,0,0-.08-.32A1.11,1.11,0,0,0,84.17,5a1.26,1.26,0,0,0-.57-.2l-.75-.1a2.13,2.13,0,0,1-.66-.18.64.64,0,0,1-.37-.47v7.2l-.23.18-.24.2,0,.07a.37.37,0,0,0,.12.32.49.49,0,0,1,.11.38v.2q0,.15,0,.15a.26.26,0,0,1,0,.15,2.67,2.67,0,0,1-.12.24l-.14.25a.52.52,0,0,0-.06.14,4.19,4.19,0,0,0-.05.45l-.06.67a5.45,5.45,0,0,0-.05.68c0,.22,0,.37,0,.45a6.45,6.45,0,0,1-.78.66,4.09,4.09,0,0,1-.92.49V15.62l.09-.08a.47.47,0,0,0,.09-.12.58.58,0,0,0,0-.1l0-.07a2.24,2.24,0,0,0-.13-.19.77.77,0,0,0-.15-.18V10.32a1.61,1.61,0,0,1-.7-.16.93.93,0,0,1-.36-.35,1.27,1.27,0,0,1-.12-.5c0-.19,0-.4,0-.64a4.56,4.56,0,0,0-.88.08,4.46,4.46,0,0,1-.84.07h-.1c-.05,0-.08,0-.1,0a.53.53,0,0,1,.06-.15,2.43,2.43,0,0,1,.15-.26c.06-.09.11-.14.16-.14H78.2a.29.29,0,0,0,0-.1c0-.05,0-.08,0-.1a1.26,1.26,0,0,1,.2-.19c.12-.09.18-.15.18-.19a.25.25,0,0,0-.08-.28.75.75,0,0,0-.3-.18,2,2,0,0,0-.35-.09l-.2,0,.37-.19a4.22,4.22,0,0,0,.38-.19.49.49,0,0,0,.14,0l.25,0L79,6.6c.07,0,.11,0,.12,0s0-.14-.08-.28A.57.57,0,0,1,78.85,6l-.28,0a.58.58,0,0,0-.25,0l-.13,0L78,6.06a1.05,1.05,0,0,1-.24.06l-.14,0a1.16,1.16,0,0,1-.68-.44A1.18,1.18,0,0,1,76.62,5a2.19,2.19,0,0,1,1,.24,2.06,2.06,0,0,0,1,.23.24.24,0,0,0,.1,0,.48.48,0,0,1,.1-.09l.1-.09a.21.21,0,0,1-.13-.07A.19.19,0,0,1,78.7,5a.57.57,0,0,1,.09-.2.68.68,0,0,1,.11-.17A3.79,3.79,0,0,0,79.11,4c0-.21.08-.42.1-.64a4.83,4.83,0,0,0,0-.67c0-.25,0-.53,0-.85l.27,0,.4-.06.4-.06.26,0h.1a1.42,1.42,0,0,1,.45.08,1.25,1.25,0,0,1,.41.22,1.07,1.07,0,0,1,.3.37.61.61,0,0,1,.06.46A.81.81,0,0,1,82,2.21a1.63,1.63,0,0,1,.28-.3l.27-.21a.3.3,0,0,0,.08-.28.92.92,0,0,0-.18-.18,1,1,0,0,1-.19-.19.63.63,0,0,1-.06-.17.65.65,0,0,1,0-.18,1.39,1.39,0,0,0,.61-.13,1.58,1.58,0,0,1,.61-.12V.88h-.27s0,0-.08.08,0,.07,0,.09a1.78,1.78,0,0,0,.3.12l.27.08a.36.36,0,0,0,.14-.09L84,1l.24-.18a.84.84,0,0,0,.13-.12l.1,0a.27.27,0,0,0,.1,0l-.2.37c-.1.19-.16.32-.2.38a1,1,0,0,0,0,.17.45.45,0,0,1,0,.16.07.07,0,0,1,.06,0s0,0,.06,0a.9.9,0,0,0,.19-.18l.19-.2c.27.19.59.39,1,.62a2.25,2.25,0,0,0,1.1.34.79.79,0,0,0,.2-.07.42.42,0,0,0,.18-.11,3,3,0,0,0,.27,1.11,7.9,7.9,0,0,0,.54,1c.19.3.36.56.51.75a2.18,2.18,0,0,1,.23.33.34.34,0,0,1-.1.27.86.86,0,0,1-.23.13l-.25.11a.45.45,0,0,0-.2.24.68.68,0,0,0,.08.3,2.18,2.18,0,0,1,.1.27.85.85,0,0,0,0,.13,1,1,0,0,1,0,.15,4.59,4.59,0,0,1-.11,1.06A5.29,5.29,0,0,0,88,9.12a2.31,2.31,0,0,0,.11.74,2.1,2.1,0,0,1,.11.74c0,.07,0,.16,0,.28s0,.18,0,.19a1.27,1.27,0,0,1-.09.29,1.44,1.44,0,0,0-.09.29.48.48,0,0,0,.09.19.46.46,0,0,1,.09.18,1,1,0,0,1,0,.33v.42a1.53,1.53,0,0,1-.11.67A1.43,1.43,0,0,0,88,14a1.25,1.25,0,0,0,.11.53,1.29,1.29,0,0,1,.11.6v.55a.65.65,0,0,1-.2.5v2.07a.37.37,0,0,0-.15.17.32.32,0,0,0,0,.21,1.15,1.15,0,0,0,.57.56,1.43,1.43,0,0,0,.76.19c-.22,0-.36,0-.43.05a.53.53,0,0,0-.13.26c0,.11-.06.23-.1.35a.52.52,0,0,1-.29.29.91.91,0,0,0-.19-.46.46.46,0,0,0-.36-.12.89.89,0,0,0-.5.15c-.15.1-.3.22-.45.34l-.45.38a1.65,1.65,0,0,1-.5.28.22.22,0,0,0,0-.22.4.4,0,0,0-.17-.15,1.25,1.25,0,0,1-.18.19l-.2.18h-.07a1.21,1.21,0,0,1-.71-.2,1.39,1.39,0,0,0-.74-.2c-.53,0-1,0-1.46.05l-1.54.15.09.09a.33.33,0,0,1,.08.11.43.43,0,0,1,0,.1.37.37,0,0,1-.16.28,1.88,1.88,0,0,1-.37.21,2,2,0,0,1-.41.13l-.31,0h-.1a.33.33,0,0,1-.11-.08.15.15,0,0,1-.07-.12V17.52c0-.1.06-.17.18-.23a1.49,1.49,0,0,1,.39-.13l.4-.05h.23A1,1,0,0,1,81.16,17.34ZM77.75,5.77V5.4l-.18.2ZM79,8.9c-.08,0-.1,0-.07.1s0,.1.07.1.09,0,.1-.1S79.06,8.9,79,8.9Zm.35,5.22c0,.12.05.18.13.18s.15-.06.15-.18,0-.2-.15-.2S79.32,14,79.32,14.12Zm.5,5.28-.08.09a.39.39,0,0,0-.09.11l.37-.2h-.2ZM79.92.77s-.08,0-.1-.1,0-.1.1-.1.12,0,.1.1S80,.77,79.92.77Zm.33,20.35q0,.18.15.18t.15-.18c0-.13,0-.2-.15-.2S80.25,21,80.25,21.12Zm.94-21a3.75,3.75,0,0,1,.36.24,2.12,2.12,0,0,1,.31.28A.45.45,0,0,1,82,.88a1.55,1.55,0,0,1-.8-.19A.76.76,0,0,1,80.9,0,.7.7,0,0,1,81.19.1Zm.28,20.82q0,.18-.12.18t-.15-.18c0-.13,0-.2.15-.2S81.47,20.79,81.47,20.92Zm.78-10c0,.12,0,.17-.15.17S82,11,82,10.9s0-.2.13-.2S82.25,10.77,82.25,10.9Zm0,4.55c0,.12,0,.17-.15.17s-.13,0-.13-.17,0-.2.13-.2S82.25,15.32,82.25,15.45Zm.22-9.3v.4a.39.39,0,0,1-.22-.4Zm0,14.77v.18l-.17-.18Zm.33-4.72c0,.12,0,.18-.13.18s-.15-.06-.15-.18,0-.2.15-.2S82.8,16.07,82.8,16.2Zm.62,4.72v.43a.45.45,0,0,1-.33-.16,2.33,2.33,0,0,1-.24-.27ZM83.9,5.4a.22.22,0,0,1-.09.19,1,1,0,0,1-.2.11.9.9,0,0,1-.22.06h-.14V5.4Zm.22,15.52q0,.18-.12.18t-.15-.18c0-.13.05-.2.15-.2S84.12,20.79,84.12,20.92Zm1.25-4.35c0,.12,0,.18.13.18s.15-.06.15-.18-.05-.19-.15-.19S85.37,16.44,85.37,16.57ZM87.67,11c-.08,0-.1,0-.07.07s0,.1.07.1.09,0,.1-.1S87.76,11,87.67,11Zm.8,6.15c0,.12,0,.17-.12.17s-.15-.05-.15-.17,0-.2.15-.2S88.47,17,88.47,17.15Zm.4,0c0,.12-.05.17-.15.17s-.15-.05-.15-.17.05-.2.15-.2S88.87,17,88.87,17.15ZM89.25,20q0,.18-.15.18c-.08,0-.13-.06-.13-.18s0-.2.13-.2S89.25,19.84,89.25,20Zm.4-.47a.19.19,0,0,1-.18-.1s0,0,0,0a.4.4,0,0,1,.15,0,.32.32,0,0,1,.14,0s.06,0,0,0S89.75,19.5,89.65,19.5Z"/><path class="cls-1" d="M92.9,1.92h1.7c0-.16.05-.25.16-.27l.29,0,.29,0q.21,0,.21.21V6.38a2,2,0,0,1,.17.61,5,5,0,0,1,0,.61,7.2,7.2,0,0,1,0,.86,8.39,8.39,0,0,1-.16.94l.1.09s.07.07.07.08a.08.08,0,0,0,0,0,.43.43,0,0,0,0,.05.33.33,0,0,1,0,.1.44.44,0,0,1-.07.19l-.1.19v8.12a2.32,2.32,0,0,1,.19.8c0,.25,0,.53,0,.83s0,.37,0,.57a2.7,2.7,0,0,1-.09.58.89.89,0,0,1-.28.45.81.81,0,0,1-.57.17.67.67,0,0,1-.3-.06l-.25-.14a1.82,1.82,0,0,0-.28-.13.88.88,0,0,0-.32-.07,2,2,0,0,0-.45.05.47.47,0,0,0-.3.35ZM93.1,3a1.73,1.73,0,0,0,.14.32.64.64,0,0,0,.23.26v-.2l-.1-.2a1,1,0,0,0-.1-.18l-.1,0Zm3,5.48c.07,0,.1.05.1.1s0,.08-.1.1-.08,0-.08-.1S96.05,8.43,96.1,8.45Z"/><path class="cls-1" d="M98,20.05H97.2a1.28,1.28,0,0,1,.27-.09l.3-.08.09,0H98Zm2.59,2.09-.15.33a1.21,1.21,0,0,1-.22.32.33.33,0,0,1-.25.13.12.12,0,0,1-.07,0,.83.83,0,0,1-.09-.24c0-.14-.08-.25-.11-.34v-.17a.59.59,0,0,1,.11-.1c.06-.05.09-.08.09-.1a2,2,0,0,0-.08-.39,1.76,1.76,0,0,0-.12-.36,2,2,0,0,0,.56-.2.5.5,0,0,0,.21-.48c0-.05,0-.14,0-.27s-.07-.2-.19-.2H98.9a.34.34,0,0,1,.31-.25,4.12,4.12,0,0,1,.51,0,1.8,1.8,0,0,0,.49-.05c.14,0,.21-.14.21-.32v-.1c0-.08,0-.2-.07-.36s-.06-.29-.09-.4,0-.17,0-.19h-.4a.83.83,0,0,1,.12-.41,1,1,0,0,1,.28-.34V5.3a2.9,2.9,0,0,1,.36-1.41,4.2,4.2,0,0,1,.94-1.15A4.68,4.68,0,0,1,102.8,2a3.66,3.66,0,0,1,1.4-.29v2.5a.45.45,0,0,1-.12.28,3.25,3.25,0,0,1-.23.29L103.6,5l-.15.13a1.82,1.82,0,0,0-.26.59,6.73,6.73,0,0,0-.19.83,6.38,6.38,0,0,0-.1.81c0,.25,0,.42,0,.53V8a1.35,1.35,0,0,0,.19.2,1.35,1.35,0,0,1,.19.2v.07a1,1,0,0,1-.2.65,3.64,3.64,0,0,0-.38.58.08.08,0,0,0,0,.07l0,0s0,0,.08.05.06,0,.07,0a.65.65,0,0,0,.09-.19.65.65,0,0,1,.09-.19h.1a.3.3,0,0,1,.24.11c0,.08.11.16.16.25a2.26,2.26,0,0,0,.16.26.35.35,0,0,0,.29.15.22.22,0,0,1-.06.13c0,.05-.08.07-.12.07a1,1,0,0,1-.28-.08l-.29-.12h-.2l-.09.09-.09.11s.07,0,.12.07a.17.17,0,0,1,.06.11.74.74,0,0,1-.06.2c0,.1-.08.16-.12.17v2.85a3.05,3.05,0,0,1,.17.43,2.26,2.26,0,0,1,0,.42,2.76,2.76,0,0,1-.1.75,3.33,3.33,0,0,0-.1.78,2.24,2.24,0,0,0,.24,1,7.84,7.84,0,0,0,.53.94q.28.45.51.87a1.83,1.83,0,0,1,.22.86,1.58,1.58,0,0,1,.23-.62,1.5,1.5,0,0,1,.35-.36l.41-.3a1.55,1.55,0,0,0,.39-.44,3.77,3.77,0,0,0,.32-.76,5.47,5.47,0,0,0,.2-1.3v-.83a1.31,1.31,0,0,0,0-.39,1,1,0,0,0-.15-.36.3.3,0,0,0-.27-.14s-.09,0-.1,0a.44.44,0,0,0-.19.07,1.21,1.21,0,0,1-.19.1c.05-.1,0-.18-.15-.26l-.53-.27a2.36,2.36,0,0,1-.58-.43,1,1,0,0,1-.26-.71.91.91,0,0,1,.14-.39,4.76,4.76,0,0,1,.32-.51,3.39,3.39,0,0,1,.39-.44.55.55,0,0,1,.3-.18.93.93,0,0,0-.35-.5.56.56,0,0,1-.25-.48.26.26,0,0,1,.15-.25,1.11,1.11,0,0,1,.35-.11,1.75,1.75,0,0,1,.4,0h.32c0,.18,0,.29-.11.32a.66.66,0,0,1-.31.06V11c0-.05.09-.11.21-.2l.43-.25a4.69,4.69,0,0,1,.46-.21,1.06,1.06,0,0,1,.3-.09h.1a4.11,4.11,0,0,0-.55.5,2.38,2.38,0,0,1-.58.45,2,2,0,0,1-.2.19.73.73,0,0,0-.17.19l.37.37a.87.87,0,0,1,.31-.32l.38-.19a2.6,2.6,0,0,0,.36-.21.82.82,0,0,0,.28-.4s.08.13.14.25a.43.43,0,0,1,0,.33,1.89,1.89,0,0,0,.47.14l.28,0,.29,0,.49,0V11a.66.66,0,0,1,.59.32,2,2,0,0,1,.22.74,3.93,3.93,0,0,1,0,.84q0,.42-.06.6a2,2,0,0,1,.26.21l.51.46.75.65a1.05,1.05,0,0,1,0,.18.52.52,0,0,1-.36.49l-.62.26q.1-.1,0-.18a.52.52,0,0,0-.21-.11l-.29-.06-.2,0h-.28a4.13,4.13,0,0,0,.15.5,2.37,2.37,0,0,0,.23.45q0,.26-.06.63c0,.25,0,.52-.07.8l0,.85c0,.28,0,.53,0,.75h-.7a.4.4,0,0,0,.17.36,3.44,3.44,0,0,0,.38.22,1.76,1.76,0,0,1,.37.23.48.48,0,0,1,.18.41.6.6,0,0,1-.25.42,1,1,0,0,0-.33.44,1,1,0,0,1-.25,0h-.22a.6.6,0,0,1-.51-.19,2.21,2.21,0,0,1-.28-.4c-.08-.14-.16-.27-.25-.4a.52.52,0,0,0-.44-.19.53.53,0,0,0-.46.2,3.7,3.7,0,0,0-.25.43,1.45,1.45,0,0,1-.3.4.8.8,0,0,1-.64.13v.37a.79.79,0,0,1-.78-.41,1.2,1.2,0,0,1-.17-.89,5.39,5.39,0,0,1-.1.8.31.31,0,0,1-.2.27.93.93,0,0,1-.43,0,4.17,4.17,0,0,0-.77,0,.68.68,0,0,0-.2.1c-.1.07-.16.1-.17.08s-.1-.05-.2-.16l-.18-.21-.17,0-.18,0a1.17,1.17,0,0,0,.1.25c.07.13.09.22,0,.25a1.52,1.52,0,0,1-.36.45l-.27.21a.71.71,0,0,0-.19.23,1.06,1.06,0,0,0-.08.48c-.15,0-.23-.06-.23-.2a2.32,2.32,0,0,1,0-.45c0-.16,0-.32,0-.47a.24.24,0,0,0-.22-.25A1,1,0,0,1,100.54,22.14ZM102.2,12c-.07,0-.09,0-.08.1s0,.08.08.08a.11.11,0,0,0,.1-.08C102.31,12.06,102.28,12,102.2,12Zm0-5.95c0,.12,0,.18.13.18s.15-.06.15-.18,0-.19-.15-.19S102.17,5.94,102.17,6.07Zm1.45,5.68v.17l-.17-.17Zm2.69-5a4.29,4.29,0,0,0-.34-1,4.22,4.22,0,0,0-.56-.9,5.58,5.58,0,0,0-.84-.85V1.72h1.33c0-.11.12-.25.21-.41a.43.43,0,0,1,.39-.24.77.77,0,0,1,0,.27.34.34,0,0,1-.19.18.68.68,0,0,0,.28.28,4.54,4.54,0,0,0,.45.25c.16.08.32.16.47.22a1.48,1.48,0,0,1,.33.2,4.76,4.76,0,0,1,.37.57,9.32,9.32,0,0,1,.5.9c.17.32.32.63.44.92a1.82,1.82,0,0,1,.19.61V5.7q0,.12,0,.45c0,.22,0,.44-.06.67s0,.46-.06.68,0,.37-.05.45a.86.86,0,0,0-.28.3,1.28,1.28,0,0,1-.16.26.6.6,0,0,1-.21.18,1.12,1.12,0,0,1-.43.06,1,1,0,0,1-.37-.1c-.17-.07-.34-.14-.51-.23a2.32,2.32,0,0,1-.45-.26.62.62,0,0,1-.22-.21A8.16,8.16,0,0,0,106.31,6.76Zm-1.69,13.49c0,.13,0,.2.15.2s.13-.07.13-.2,0-.2-.13-.2S104.62,20.12,104.62,20.25Zm.85-4.9c0,.12,0,.17-.15.17s-.12,0-.12-.17,0-.2.12-.2S105.47,15.22,105.47,15.35Zm.43-.58v.4h-.2l-.19-.09a1,1,0,0,1-.19-.11Zm1.5-13.62-.18.2v-.2Zm.62,15.7c0,.12,0,.17.15.17s.13-.05.13-.17,0-.2-.13-.2S108,16.72,108,16.85ZM109.3,4.38h-.2V4.17Zm.9.94q0,.18-.15.18c-.09,0-.13-.06-.13-.18s0-.2.13-.2S110.2,5.19,110.2,5.32Zm-.28,9.83c0,.12,0,.17.13.17s.15-.05.15-.17,0-.2-.15-.2S109.92,15,109.92,15.15Zm3.6-4v.23c0,.1,0,.2,0,.31a.83.83,0,0,1-.1.29.26.26,0,0,1-.23.12h-.1l.2-.95Zm0-.47c0,.05,0,.08-.1.1s-.08,0-.08-.1,0-.12.08-.1S113.55,10.65,113.55,10.7Z"/><path class="cls-1" d="M114,1.92h1.7c0-.16,0-.25.16-.27l.29,0,.29,0q.21,0,.21.21V6.38a2,2,0,0,1,.17.61,5,5,0,0,1,0,.61c0,.33,0,.62,0,.86a8.39,8.39,0,0,1-.16.94.48.48,0,0,0,.1.09s.07.07.07.08a.43.43,0,0,0,0,0l0,.05a.33.33,0,0,1,0,.1.44.44,0,0,1-.07.19,1.93,1.93,0,0,0-.1.19v8.12a2.29,2.29,0,0,1,.18.8c0,.25,0,.53,0,.83s0,.37,0,.57a2.2,2.2,0,0,1-.08.58.89.89,0,0,1-.28.45.81.81,0,0,1-.57.17.67.67,0,0,1-.3-.06,2,2,0,0,1-.25-.14l-.28-.13a.88.88,0,0,0-.32-.07,2,2,0,0,0-.45.05.46.46,0,0,0-.3.35ZM114.2,3a2.69,2.69,0,0,0,.13.32.75.75,0,0,0,.24.26v-.2s0-.1-.1-.2a1,1,0,0,0-.1-.18l-.1,0Zm3,5.48c.06,0,.1.05.1.1s0,.08-.1.1-.08,0-.08-.1S117.15,8.43,117.2,8.45Z"/><path class="cls-1" d="M122.72,16v-.38h1a3.89,3.89,0,0,0-.15-1.12,1.31,1.31,0,0,0-.85-.78.72.72,0,0,0,.24-.25,1.64,1.64,0,0,0,.14-.3l.32.52a.53.53,0,0,0,.45.19V12.4s0-.05-.07-.09l-.13-.09a1.4,1.4,0,0,0-.36-.11l-.39-.09a.58.58,0,0,1-.06.54,1.89,1.89,0,0,1-.31.41V11.45c.13,0,.2-.13.2-.3V10.8a1.4,1.4,0,0,0,0-.4,2.39,2.39,0,0,0-.13-.28,1.42,1.42,0,0,1-.13-.3,1.26,1.26,0,0,1-.09-.44h-.18l-.38.18-.39.19a.5.5,0,0,0,0-.36,1.4,1.4,0,0,0-.2-.38,2.43,2.43,0,0,0-.3-.34,3.28,3.28,0,0,1-.26-.25.13.13,0,0,1,0-.07.16.16,0,0,1,.08-.15l.15-.08a.51.51,0,0,0,.15-.07s.07-.1.07-.2c0-.32-.2-.43-.6-.35.17-.08.23-.14.19-.18s-.06-.1-.06-.22h-.7v.47c-.14,0-.22,0-.25-.13s-.07-.18-.1-.27a.31.31,0,0,0-.17-.17.65.65,0,0,0-.43.1,1,1,0,0,1,.4-.29,6.85,6.85,0,0,1,.71-.31c.26-.1.5-.18.74-.25a1.93,1.93,0,0,1,.5-.1,1.91,1.91,0,0,1,.64.1,3.69,3.69,0,0,1,.53.24l.45.26a1.54,1.54,0,0,0,.38.17c.13,0,.26,0,.37-.2a1,1,0,0,0,.2-.37c0-.07,0-.18,0-.34s0-.33,0-.51,0-.35,0-.51,0-.27,0-.34l3,.2v6.42a.81.81,0,0,0-.18.32,2.92,2.92,0,0,0,0,.33v.3l.11.18a.57.57,0,0,1,.09.2.58.58,0,0,1-.08.19.9.9,0,0,1-.12.18l.2,2.65a2,2,0,0,1,.3.14.82.82,0,0,1,.25.24h-.55a17,17,0,0,0-.23,2.56c0,.91,0,1.76,0,2.54l-.18.57h-.45a1.36,1.36,0,0,1-.61-.11,1.4,1.4,0,0,0-.56-.11.22.22,0,0,0-.21.11c0,.08-.13.11-.27.11a.44.44,0,0,1-.41-.23,1,1,0,0,1-.14-.52V16Zm-1.6-9.34.28.06a.22.22,0,0,0,.12-.06s.08-.08.08-.11-.09-.18-.15-.19H121c-.07,0-.12.07-.15.19A.73.73,0,0,0,121.12,6.66ZM121,4.45V1.88a2.36,2.36,0,0,0,.44,0l.29-.1a1.17,1.17,0,0,1,.6-.14l.37,0a.58.58,0,0,1,.2.1.55.55,0,0,0,.18.1,1.48,1.48,0,0,0,.37-.06l.49-.14.51-.13a2.07,2.07,0,0,1,.45-.07h.83l.2.12a.44.44,0,0,0,.2.08s0,0,.09-.08l.08-.12h.2a.59.59,0,0,1,.11.2.57.57,0,0,1,.07.2h.57a1.73,1.73,0,0,0,.36,0l.25-.08.25-.07a1.31,1.31,0,0,1,.37,0H129a.49.49,0,0,1,.19.1.38.38,0,0,0,.19.1,1,1,0,0,0,.28-.08l.29-.12h.33c0,.07,0,.19,0,.37s0,.38,0,.58,0,.4,0,.59,0,.32-.05.38a1.52,1.52,0,0,1-.14.34,1.92,1.92,0,0,1-.24.41.24.24,0,0,1-.09.12l-.08.06H128c0,.12-.08.18-.15.2a.75.75,0,0,1-.22,0,.82.82,0,0,1-.23,0c-.06,0-.11-.08-.15-.2Zm.38,2.85V7.1h-.18Zm.25,1.9q0,.18.12.18t.15-.18c0-.13,0-.2-.15-.2S121.65,9.07,121.65,9.2Zm.47,1.12c0,.14-.05.2-.15.2s-.15-.06-.15-.2.05-.2.15-.2S122.12,10.19,122.12,10.32Zm-.05-3.5c-.08,0-.11,0-.1.1s0,.08.08.08a.14.14,0,0,0,.12-.08C122.19,6.86,122.16,6.82,122.07,6.82Zm0,4.15a1.14,1.14,0,0,1,.07.3.15.15,0,0,1-.07.12.22.22,0,0,1-.13.06V10.7A.65.65,0,0,1,122.1,11Zm.2-1.2c0,.12,0,.18-.13.18s-.15-.06-.15-.18,0-.2.15-.2S122.3,9.64,122.3,9.77Zm-.08-2.65c0,.12,0,.18.13.18s.15-.06.15-.18,0-.2-.15-.2S122.22,7,122.22,7.12Zm.93,3.4q0,.18.15.18t.15-.18c0-.13,0-.2-.15-.2S123.15,10.39,123.15,10.52Zm.3,2.08c0,.12,0,.17-.15.17s-.15,0-.15-.17,0-.2.15-.2S123.45,12.47,123.45,12.6Zm.1-2.08q0,.18.12.18t.15-.18c0-.13,0-.2-.15-.2S123.55,10.39,123.55,10.52Zm.17,3.78c0,.12,0,.17.15.17s.13-.05.13-.17,0-.2-.13-.2S123.72,14.17,123.72,14.3Zm4.08-5.85c0,.12,0,.17-.15.17s-.15,0-.15-.17,0-.2.15-.2S127.8,8.32,127.8,8.45Zm0,2.65c0,.12,0,.17-.15.17s-.15,0-.15-.17,0-.2.15-.2S127.8,11,127.8,11.1Zm0,1.87c0,.14,0,.2-.15.2s-.15-.06-.15-.2,0-.2.15-.2S127.8,12.84,127.8,13Z"/><path class="cls-1" d="M134.52,12.8a3.05,3.05,0,0,0-.75.21,1.91,1.91,0,0,1-.75.16h-.2l.06-.15q.08-.12.15-.27c.06-.1.12-.15.17-.15h1.32Zm-.05,6.89c.1-.51.21-1,.34-1.53s.24-1,.34-1.52a7.91,7.91,0,0,0,.15-1.52c0-.1,0-.25,0-.46s-.06-.41-.11-.62a3.81,3.81,0,0,0-.19-.57.65.65,0,0,0-.24-.3.56.56,0,0,0,.26-.37,2.75,2.75,0,0,0,.12-.61c0-.23,0-.44,0-.65s0-.37,0-.47a.7.7,0,0,1,.28-.12l.32,0a.63.63,0,0,0,.25-.1.35.35,0,0,0,.1-.28.76.76,0,0,0-.05-.27.23.23,0,0,0-.23-.13,3,3,0,0,0-.72.12,2.11,2.11,0,0,0-.7.28,2.78,2.78,0,0,1-.42-.36,4.08,4.08,0,0,1-.36-.39v-.2a2.64,2.64,0,0,1,.2-.22q.15-.15.18-.15a.66.66,0,0,1,.35.05,3,3,0,0,1,.4.2l.37.22a.62.62,0,0,0,.3.1h.1l.28-.1.3-.1h-.65a.5.5,0,0,1,.15-.37,3,3,0,0,1,.32-.29c.12-.09.23-.19.34-.29a.66.66,0,0,0,.21-.37l1.13-6.43.22,0a1.53,1.53,0,0,1,.38,0,1,1,0,0,1,.35.16c0,.18.08.5.16,1s.15.93.22,1.43.15,1,.22,1.42.11.76.15.92v.2a.5.5,0,0,1-.09.2.66.66,0,0,0-.09.18s0,0,.09.1.09.08.09.1v.07a4.28,4.28,0,0,1-.1.9,4,4,0,0,0-.1.93,2.15,2.15,0,0,0,.1.75,2.06,2.06,0,0,1,.1.65v.1l-.09.1c0,.05-.07.07-.09.07s0-.09-.09-.18a.52.52,0,0,0-.11-.19s0,0,0,0,0,0,0,0a.5.5,0,0,0,.07.29,1.92,1.92,0,0,0,.16.21,1.84,1.84,0,0,1,.17.22.44.44,0,0,1,.07.26.84.84,0,0,1,0,.1A.91.91,0,0,1,139,12a1.49,1.49,0,0,1-.3.06c0,.05,0,.15-.07.3s-.07.31-.12.47-.07.31-.11.46-.06.25-.07.3v.17a.43.43,0,0,0,.2.2h.1l.22-.07.45-.16a4,4,0,0,0,.46-.19,1.59,1.59,0,0,0,.27-.15q-.06.15.15.39a2.18,2.18,0,0,1,.25.36s0,0,.08-.08l.09-.1v-.2a.93.93,0,0,0-.09-.17.7.7,0,0,1-.08-.2V12.6c0-.08-.05-.25-.09-.5s-.09-.55-.14-.89-.1-.7-.16-1.07-.11-.74-.16-1.08-.1-.64-.14-.89-.07-.41-.09-.5v-.1a.18.18,0,0,1,.09-.15l.19-.11a.84.84,0,0,0,.18-.15.46.46,0,0,0,.12-.24c-.29,0-.47,0-.57-.18a1.59,1.59,0,0,1-.18-.57,5.65,5.65,0,0,1-.13-.7c0-.33-.11-.69-.17-1.07S139,3.65,139,3.31s-.08-.59-.1-.74v-.3a2.12,2.12,0,0,1,0-.42c0-.15.13-.23.31-.23h.23a.66.66,0,0,0,.17.12.48.48,0,0,0,.2.08l.26,0h.8l.27,0a1.79,1.79,0,0,0,.23.48,2.74,2.74,0,0,1,.24.39,1.3,1.3,0,0,1,.14.42,1.63,1.63,0,0,1-.06.59l.41.12a.53.53,0,0,1,.36.28H142a1.63,1.63,0,0,1,0,.18c0,.1,0,.16,0,.19a.55.55,0,0,0,.1.18.58.58,0,0,1,.1.2A.56.56,0,0,1,142,5a.42.42,0,0,0-.1.19s0,.06,0,.14,0,.15.06.24.05.16.08.23,0,.12,0,.14,0,.21,0,.39.05.36.07.56,0,.39.05.57,0,.31,0,.38a.68.68,0,0,0,.25.22,2.22,2.22,0,0,0,.38.18l.52.17v.13a.93.93,0,0,0-.51.16.5.5,0,0,0-.26.46.91.91,0,0,0,.21.6,3.46,3.46,0,0,1,.36.52v.2a1,1,0,0,1-.09.19.73.73,0,0,1-.11.19L143.6,12a.78.78,0,0,0-.18.33,3.32,3.32,0,0,0,0,.35c0,.25,0,.38.15.41a2.66,2.66,0,0,0,.35.05.62.62,0,0,1,.38.17,1.25,1.25,0,0,1,.27.76.67.67,0,0,0-.7.44,1.11,1.11,0,0,0-.08.41v.45a.83.83,0,0,0,.09.43,1.28,1.28,0,0,0,.2.26,1.64,1.64,0,0,1,.21.24.47.47,0,0,1,.1.32.84.84,0,0,1,0,.1.87.87,0,0,1,0,.14c0,.07,0,.16-.06.25a1.29,1.29,0,0,0-.06.25.87.87,0,0,0,0,.13s.05.1.15.21a1,1,0,0,0,.23.17v1.87l.3.28a2.24,2.24,0,0,1,.27.3.17.17,0,0,0,0,.07.45.45,0,0,1,0,.08.44.44,0,0,0-.46.26,2,2,0,0,0-.16.54H141.9l-.2-.2a2.33,2.33,0,0,0-.1-1.52,1.38,1.38,0,0,0-1.2-.73v-.35a3.43,3.43,0,0,0-.7.09,1.27,1.27,0,0,0-.63.26v-.2a2.52,2.52,0,0,1-.11-.31,2,2,0,0,0-.09-.27h-.07a1,1,0,0,0-.75.27,1.57,1.57,0,0,0-.38.67,7.88,7.88,0,0,0-.2.87,6,6,0,0,1-.2.88,1.5,1.5,0,0,1-.4.67,1.09,1.09,0,0,1-.8.26,1.35,1.35,0,0,1-.57-.1,1.35,1.35,0,0,0-.5-.1h-.1l-.18.12a.48.48,0,0,1-.2.08.18.18,0,0,1-.19-.18c0-.13,0-.22,0-.27A7.93,7.93,0,0,1,134.47,19.69Zm-.57-6.52c0,.12,0,.18-.13.18s-.15-.06-.15-.18,0-.2.15-.2S133.9,13,133.9,13.17Zm.62-3.22h.2V9.77h-.2Zm.2,1.52h-.2l.2-.2ZM138,17.32c0,.14.05.2.15.2s.13-.06.13-.2,0-.2-.13-.2S138,17.19,138,17.32Zm1.15-3.57c0,.12,0,.17.13.17s.15-.05.15-.17-.05-.2-.15-.2S139.12,13.62,139.12,13.75Zm.33.17a.9.9,0,0,0-.12.19l-.08.19h.1a.27.27,0,0,0,.1,0,.73.73,0,0,0,.11-.19.55.55,0,0,0,.06-.19l-.1,0Zm.32-3.77c0,.12-.05.17-.15.17s-.12-.05-.12-.17,0-.2.12-.2S139.77,10,139.77,10.15Zm0,3q0,.18-.15.18t-.12-.18c0-.13,0-.2.12-.2S139.77,13,139.77,13.17Zm0,6h-.2V19Zm.13-8.7c0,.12,0,.18-.13.18s-.15-.06-.15-.18.05-.2.15-.2S140,10.39,140,10.52Zm-.08,6.8c0,.14,0,.2.13.2s.15-.06.15-.2-.05-.2-.15-.2S139.87,17.19,139.87,17.32Zm.58-8.87c0,.12,0,.17.12.17s.15,0,.15-.17-.05-.2-.15-.2S140.45,8.32,140.45,8.45Zm.82-7c0,.12,0,.17-.12.17s-.15-.05-.15-.17.05-.2.15-.2S141.27,1.32,141.27,1.45Zm2.8,12.37c-.08,0-.11,0-.1.1a.11.11,0,0,0,.1.08.1.1,0,0,0,.1-.08C144.19,13.86,144.16,13.82,144.07,13.82Zm.75,3.2a.13.13,0,0,1-.1-.07c0-.07,0-.1.1-.1s.12,0,.1.1A.09.09,0,0,1,144.82,17Zm.43-.45c0,.12,0,.18-.13.18s-.15-.06-.15-.18.05-.19.15-.19S145.25,16.44,145.25,16.57Zm-.05-2s0,.06-.08.07-.1,0-.1-.1,0-.1.1-.07A.11.11,0,0,1,145.2,14.6Zm.85-.5v.2h-.38v-.2Z"/><path class="cls-1" d="M151.47,18.55l.18-.38h-2.08V17.9c0-.18,0-.5,0-.95s0-.93.06-1.43.05-1,.06-1.41,0-.75.05-.94c0,0,0-.07.08-.11L150,13s0,0,.05,0a.05.05,0,0,0,.05,0,.4.4,0,0,1,.06-.11.17.17,0,0,0,0-.14.91.91,0,0,0-.28-.11,1.49,1.49,0,0,0-.3-.06V10.7a.16.16,0,0,1,.08-.16.22.22,0,0,1,.16,0l.17,0,.12,0a.88.88,0,0,0-.1-.4,2.35,2.35,0,0,0-.23-.32l-.23-.3a1,1,0,0,1-.17-.35,2.52,2.52,0,0,1,0-.29,2.67,2.67,0,0,0,0-.4.48.48,0,0,0-.15-.29c-.09-.06-.23-.05-.43,0V7.32h-.2l-.29.11a1.26,1.26,0,0,1-.28.09,1.11,1.11,0,0,1-.28-.09l-.27-.11h-.2v.4h-.19a.61.61,0,0,1-.19,0,.46.46,0,0,1-.19-.08.46.46,0,0,0-.18-.09,1.36,1.36,0,0,0-.67.2,1.34,1.34,0,0,1-.68.2c0-.13,0-.28,0-.44a1.63,1.63,0,0,1,.08-.45.79.79,0,0,1,.19-.35.59.59,0,0,1,.42-.14,1.2,1.2,0,0,1,.43.07,1.27,1.27,0,0,1,.42.33.66.66,0,0,1,.38-.31,2.05,2.05,0,0,1,.49-.06,2.92,2.92,0,0,1,.51,0,1.13,1.13,0,0,0,.49,0s.06,0,.11-.09l.18-.19.17-.18L149.2,6a.63.63,0,0,1,.18-.11l.19-.06a.47.47,0,0,1-.11-.1l-.09-.1V5.4l.11-.09q.09-.06.09-.09s0,0,0-.1a.49.49,0,0,1,0-.1h-.17a.32.32,0,0,1,0-.08.34.34,0,0,0,0-.09l.17-.31.22-.47c.07-.16.15-.32.22-.46l.17-.29-.38-.17a.63.63,0,0,0,.28-.23,1.57,1.57,0,0,0,.15-.32,2.25,2.25,0,0,0,.06-.36c0-.13,0-.23,0-.32h.5a4.06,4.06,0,0,1,.7,0,1.77,1.77,0,0,1,.63.17.48.48,0,0,1,.27.46h.28a.51.51,0,0,1,0,.09.19.19,0,0,1,0,.09,1.81,1.81,0,0,0-.23.44c-.06.17-.14.35-.21.52a3.58,3.58,0,0,1-.24.48.66.66,0,0,1-.27.28.55.55,0,0,0-.09-.52.56.56,0,0,0-.46-.25.19.19,0,0,0-.13.07.21.21,0,0,0-.07.13l.18.36c.1.19.16.32.19.39v.2a1.32,1.32,0,0,1-.09.19l-.08.18h.45V5.8a1,1,0,0,1,.67-.58s0,.08,0,.14a1.15,1.15,0,0,1,0,.14.4.4,0,0,1-.1.29l-.22.16-.21.14a.19.19,0,0,0-.1.16.33.33,0,0,0,0,.1.72.72,0,0,0,.18.1.67.67,0,0,1,.19.1l.3.17V9.15a1.69,1.69,0,0,0,.56-.09,1.79,1.79,0,0,1,.57-.09.68.68,0,0,1-.25.52l-.55.46a4.08,4.08,0,0,0-.55.55,1.15,1.15,0,0,0-.25.77,2.31,2.31,0,0,0,.25.93,3.89,3.89,0,0,1,.3,1,1,1,0,0,1,0,.27c0,.12,0,.26,0,.41s0,.29-.05.41,0,.21,0,.26a.9.9,0,0,0,.28,0c.06,0,.13,0,.22.18l-.4.21V16h.4c0,.15.06.27.08.38a2.38,2.38,0,0,1,.07.31c0,.11,0,.19,0,.26v1.12a.33.33,0,0,0,.21.28,1.84,1.84,0,0,0,.42.1,2,2,0,0,0,.42,0h.28l.52.07.8.12.8.12.53.09c.08,0,.19.07.34.21a.74.74,0,0,1,.23.34,3.63,3.63,0,0,1-.12.37l-.3.78-.33.77c-.1.24-.16.35-.2.35h-2.45l-.2-.1-.2-.1h-.1a.42.42,0,0,0-.31.1c-.06.07-.2.1-.44.1a1.14,1.14,0,0,1-.72-.2,1.2,1.2,0,0,0-.7-.2,2,2,0,0,0-.43.05.54.54,0,0,0-.32.35c0-.16,0-.27-.09-.32a.5.5,0,0,0-.29-.08c-.11,0-.19,0-.22.09a1.62,1.62,0,0,0-.1.18l-.13.17a.38.38,0,0,1-.3.09V18.55Zm-6-11c0,.12,0,.17.13.17s.15,0,.15-.17-.05-.2-.15-.2S145.47,7.37,145.47,7.5Zm1.23.57q0,.18-.15.18t-.15-.18c0-.13,0-.19.15-.19S146.7,7.94,146.7,8.07Zm1.6-3.23h.15a1.35,1.35,0,0,1-.16.3c-.06.07-.12.13-.17.2a.64.64,0,0,0-.1.24,1.08,1.08,0,0,0,0,.38,1.14,1.14,0,0,0-.26-.16,1.19,1.19,0,0,0-.29,0,.45.45,0,0,0-.38.14.5.5,0,0,1-.42.14,1,1,0,0,1,.48-.89,1.76,1.76,0,0,1,1-.34Zm-1,.38q0,.18.15.18t.12-.18c0-.13,0-.2-.12-.2S147.35,5.09,147.35,5.22Zm1.17.85a.09.09,0,0,1-.07.1c-.07,0-.1,0-.1-.1s0-.11.1-.1A.1.1,0,0,1,148.52,6.07Zm.68,1a.5.5,0,0,0,.28-.1.32.32,0,0,0,.17-.28h-.45Zm.57-5.28v.75h-.2V1.82Zm.28,11.63c-.09,0-.12,0-.1.1a.09.09,0,0,0,.1.07.1.1,0,0,0,.1-.07C150.16,13.48,150.13,13.45,150.05,13.45ZM150,8.62c0,.14.05.2.15.2s.12-.06.12-.2,0-.2-.12-.2S150,8.49,150,8.62Zm.2-1.87c0,.12,0,.17.12.17s.15,0,.15-.17-.05-.2-.15-.2S150.2,6.62,150.2,6.75Zm.17.17q0,.18.15.18c.09,0,.13-.06.13-.18s0-.2-.13-.2S150.37,6.79,150.37,6.92Zm.53-.23a1.11,1.11,0,0,0,.42.08.41.41,0,0,0-.21-.39,2.28,2.28,0,0,0-.41-.21.51.51,0,0,1,0,.09s0,.07,0,.09A.34.34,0,0,0,150.9,6.69Zm-.15,4.58q0,.18.15.18t.15-.18c0-.13-.05-.2-.15-.2S150.75,11.14,150.75,11.27Zm.2-7.92c0,.12.05.17.15.17s.12,0,.12-.17,0-.2-.12-.2S151,3.22,151,3.35Zm.47.75c0,.12,0,.17-.15.17s-.12,0-.12-.17,0-.2.12-.2S151.42,4,151.42,4.1Zm.1-1.53c0,.12,0,.18.13.18s.15-.06.15-.18-.05-.19-.15-.19S151.52,2.44,151.52,2.57Zm0,8.15c0,.12,0,.18.13.18s.15-.06.15-.18-.05-.2-.15-.2S151.52,10.59,151.52,10.72ZM151.9,3c0,.13,0,.2.12.2s.15-.07.15-.2,0-.2-.15-.2S151.9,2.82,151.9,3Zm0,15.32q0,.18.12.18t.15-.18c0-.13,0-.2-.15-.2S151.9,18.14,151.9,18.27ZM152.43,4a1.45,1.45,0,0,1,0,.32h-.25V3.7A.28.28,0,0,1,152.43,4Zm.12,2.22q0,.18-.15.18c-.09,0-.13-.06-.13-.18s0-.2.13-.2S152.55,6,152.55,6.17Zm-.23,11.43c0,.08,0,.12.08.1s.1,0,.1-.08,0-.08-.1-.1S152.32,17.52,152.32,17.6ZM153.8,5.29c.1.14.14.24.12.31a1,1,0,0,1-.24.46c-.14.19-.25.29-.33.29h-.2V6.27a.22.22,0,0,1,0-.1l.08-.23c0-.11.06-.22.1-.34a3.38,3.38,0,0,1,.11-.34l.09-.24A1.13,1.13,0,0,1,153.8,5.29Zm-.05,1.26v.1a.08.08,0,0,1,0,.07,1.06,1.06,0,0,1-.07.3l-.1.28V6.55Zm3.95,13.8h-.18v-.2Zm.37-2.33v.48a.37.37,0,0,1-.37-.23A.41.41,0,0,1,158.07,18Z"/></g></g></svg>