<svg xmlns="http://www.w3.org/2000/svg" viewBox="0 0 165.94 32.29"><defs><style>.cls-1{fill:#1d1d1b;}</style></defs><g id="Capa_2" data-name="Capa 2"><g id="Capa_9" data-name="Capa 9"><path class="cls-1" d="M0,25.58c0-.07.07-.26.14-.56s.11-.49.13-.57l.63-.13c.31-.07.63-.13,1-.18L2.79,24l.64-.11.24,0,.23,0a3.2,3.2,0,0,0,.49,1.83,12.28,12.28,0,0,0,1.09,1.43,12.18,12.18,0,0,1,1.09,1.42,3.14,3.14,0,0,1,.49,1.79c0,.05,0,.15,0,.28A3.39,3.39,0,0,1,7,31q0,.21-.06.39a.37.37,0,0,1-.06.21l-.54.58c0-.1-.2-.2-.53-.29L4.6,31.55A11.56,11.56,0,0,1,3.08,31a5.54,5.54,0,0,1-1.5-1A5,5,0,0,1,.45,28.29,6.36,6.36,0,0,1,0,25.74Zm7.41,5.78V31.2c0-.13,0-.27,0-.41a.84.84,0,0,1,.1-.37c0-.1.11-.16.19-.16h3.36a.59.59,0,0,1,.07-.29.43.43,0,0,0,.08-.25.37.37,0,0,0-.11-.24,1.17,1.17,0,0,0-.51-.19,1.2,1.2,0,0,0-.49,0,7.4,7.4,0,0,0-.92.14l-.93.19a1.46,1.46,0,0,0-.55.21c.11-.18.08-.31-.08-.4A.5.5,0,0,1,7.41,29a1,1,0,0,1,.41-.72l.9-.84a7.68,7.68,0,0,0,.89-1.06A2.32,2.32,0,0,0,10,25a3.36,3.36,0,0,0-.23-1.21,8.61,8.61,0,0,0-.59-1.23c-.23-.4-.48-.78-.74-1.15s-.5-.69-.74-1c.26-.13.37-.22.31-.28S8,19.94,8,19.73a4,4,0,0,1-2.17-.89,14.84,14.84,0,0,1-2.42-2.19,16.83,16.83,0,0,1-2-2.71A5.19,5.19,0,0,1,.58,11.5V6.63a3.38,3.38,0,0,1,.57-1.91,5.72,5.72,0,0,1,1.4-1.46,6.51,6.51,0,0,1,1.86-.94A6.14,6.14,0,0,1,6.32,2V6a.84.84,0,0,0-.53.27,5.13,5.13,0,0,0-.56.64,5.66,5.66,0,0,0-.47.74,1.43,1.43,0,0,0-.2.57,4.6,4.6,0,0,0,.59,2.24,21.81,21.81,0,0,0,1.17,1.93v.28c.1.13.34.39.72.8s.8.81,1.27,1.24a13.32,13.32,0,0,0,1.34,1.1q.64.44,1,.33l-.31.27a1.06,1.06,0,0,0,.6.41.86.86,0,0,1,.57.45,7.27,7.27,0,0,0,.56,1q.33.51.63,1a8.15,8.15,0,0,1,.5,1,2.78,2.78,0,0,1,.22,1.11c.31,0,.5.06.56.18a.93.93,0,0,1,.1.48,3.65,3.65,0,0,0,.08.67,1.71,1.71,0,0,0,.5.82v.27l-.15.14-.16.13v.16a.36.36,0,0,0,.16.33.41.41,0,0,1,.15.37,5.11,5.11,0,0,1-.19.57c-.13.35-.29.73-.47,1.15s-.35.8-.5,1.17a3.7,3.7,0,0,1-.28.58,1.14,1.14,0,0,1-.52.29,3.88,3.88,0,0,0-.61.24.82.82,0,0,0-.39.41,1.07,1.07,0,0,0,.08.78l-2,2H8.66a2.76,2.76,0,0,1-.59-.05,1,1,0,0,1-.47-.24A.65.65,0,0,1,7.41,31.36Zm-6-.9q0,.27-.24.27c-.13,0-.19-.09-.19-.27s.06-.27.19-.27S1.37,30.28,1.37,30.46Zm3.08.43q0,.2.15.15a.14.14,0,0,0,.12-.15.16.16,0,0,0-.12-.16C4.5,30.71,4.45,30.76,4.45,30.89Zm.27,1.4s-.09,0-.12-.12,0-.11.12-.11.18,0,.16.11A.16.16,0,0,1,4.72,32.29ZM5.54,31c0,.19.06.28.19.28s.2-.09.2-.28-.07-.31-.2-.31S5.54,30.84,5.54,31Zm1-3.43c0,.18-.06.27-.19.27s-.24-.09-.24-.27.08-.31.24-.31S6.51,27.4,6.51,27.61ZM7.14,5.77a.77.77,0,0,0-.28-.23V2.38s0-.11.12-.18a.35.35,0,0,1,.2-.09s.14,0,.35,0H8c.39,0,.74,0,1,0a4.38,4.38,0,0,1,.88.15l.93.29L12.05,3l-.31.28a2.34,2.34,0,0,1,.8.8,6.58,6.58,0,0,1,.64,1.24,9,9,0,0,1,.43,1.37,5.67,5.67,0,0,1,.16,1.19,1.27,1.27,0,0,1-.06.43,2.78,2.78,0,0,1-.25.43l-.57.11L12,9l-.86.18a3.53,3.53,0,0,1-.56.07s-.11,0-.24,0H10.1c-.21,0-.37-.16-.49-.49s-.25-.68-.41-1.07a3.61,3.61,0,0,0-.68-1.09,1.7,1.7,0,0,0-1.34-.51A.34.34,0,0,0,7.14,5.77Zm.5,24.42c0,.18-.06.27-.19.27s-.2-.09-.2-.27.07-.32.2-.32S7.64,30,7.64,30.19Zm0-10.77c0,.13,0,.18.12.16s.16-.07.16-.12,0-.14-.16-.19S7.6,19.29,7.6,19.42ZM8,12.56a.27.27,0,0,1-.28-.16s0-.05.06-.08a.78.78,0,0,1,.22,0,.87.87,0,0,1,.25,0c.06,0,.08.06.06.08A.32.32,0,0,1,8,12.56ZM9,31.9c0,.18.06.27.2.27s.19-.09.19-.27-.07-.31-.19-.31S9,31.69,9,31.9ZM10.14,1.64q-.08,0-.12-.12c0-.08,0-.12.16-.12s.17,0,.12.12A.16.16,0,0,1,10.14,1.64ZM14,19.27h-.27l.27-.55Zm-.19,4.6c0,.18.06.27.19.27s.2-.09.2-.27-.07-.28-.2-.28S13.85,23.69,13.85,23.87Zm.77-18.33v.35A.63.63,0,0,1,14,5.54Z"/><path class="cls-1" d="M22.23,31.59a.88.88,0,0,0-.31.14.85.85,0,0,1-.31.13.32.32,0,0,1-.37-.29,3.16,3.16,0,0,1-.06-.64,3.17,3.17,0,0,0-.08-.69.58.58,0,0,0-.35-.44l.27-.28s0-.15,0-.39v-.58a3.36,3.36,0,0,0-.2-1.37,4.39,4.39,0,0,0-.42-.68,3.34,3.34,0,0,1-.43-.7,3.74,3.74,0,0,1-.2-1.46c0-.11,0-.33,0-.67s0-.56,0-.66.08,0,.16-.12a2,2,0,0,1,.15-.15v-.32a.67.67,0,0,0-.45.22,3.5,3.5,0,0,0-.23.35,1.19,1.19,0,0,1-.23.31.56.56,0,0,1-.41.14c0-.08,0-.29,0-.64a4.27,4.27,0,0,1,.07-.65,1.5,1.5,0,0,1,.14-.19c.07-.08.12-.12.18-.12a.32.32,0,0,0,.09.19q.11.12.18.12A2.08,2.08,0,0,0,20,22l.45-.18.29,0,.29,0V14.74a1.42,1.42,0,0,1-.29-.27l-.29-.31v-.28l.31-.31v-.15a.37.37,0,0,0-.16-.34,1,1,0,0,0-.37-.13l-.41-.1a.46.46,0,0,1-.27-.18,3.61,3.61,0,0,1-.2-.7,2.24,2.24,0,0,1-.07-.74.28.28,0,0,0-.16,0c-.1,0-.16,0-.16,0a2.25,2.25,0,0,0-.43.14,1.75,1.75,0,0,1-.42.13,1.81,1.81,0,0,1-.45-.13,2.46,2.46,0,0,0-.45-.14.24.24,0,0,0-.16,0l-.15,0v.67a.66.66,0,0,1-.57-.2.51.51,0,0,0-.45-.2h-.15l-.32.16a1.64,1.64,0,0,0-.27.16h-.31l-.29-.14a.87.87,0,0,1-.3-.18,1.1,1.1,0,0,1-.17.49.48.48,0,0,1-.45.22c0-.18,0-.41,0-.67a3.26,3.26,0,0,1,.12-.76,2.41,2.41,0,0,1,.27-.66.79.79,0,0,1,.53-.37,5.12,5.12,0,0,1,.58.27,1.44,1.44,0,0,0,.43.33,1.77,1.77,0,0,0,.47.26s.12,0,.27-.12a1,1,0,0,1,.31-.16,6.91,6.91,0,0,1,1.25-.27,5.56,5.56,0,0,0,1.25-.29,2.42,2.42,0,0,0,1-.64,1.94,1.94,0,0,0,.39-1.33l0-.12s-.05-.08-.14-.15-.14-.13-.14-.16c0-.31.05-.49.16-.53a1.23,1.23,0,0,1,.35,0A1,1,0,0,0,21,6.73c.1,0,.16-.22.16-.53V1.48l1.21-.13c.33,0,.68-.08,1-.1l.88-.08h.58v7.1h-.5a.33.33,0,0,1-.06.13c0,.07-.05.12,0,.14l.35.31c.18.16.3.26.35.32v5l.74-.59h5a.25.25,0,0,1,.23.14.63.63,0,0,1,.1.31.91.91,0,0,1,0,.33c0,.11,0,.17,0,.2,0,.23,0,.54,0,.93a7.29,7.29,0,0,1,0,1.15,3.77,3.77,0,0,1-.25,1,1.05,1.05,0,0,1-.62.62,1.79,1.79,0,0,1-.61,0l-1.07-.19-1.13-.24a4,4,0,0,0-.74-.11.72.72,0,0,0-.3.13l-.29.18a.76.76,0,0,1-.27,0h-.16V15.37l-.62.27v16a.66.66,0,0,1-.18.29,2.34,2.34,0,0,1-.25.29h-.16a1,1,0,0,1-.74-.31,1.1,1.1,0,0,0-.82-.31ZM18.58,7.78q-.16.18-.33.33A1.3,1.3,0,0,0,18,8.5a.87.87,0,0,0,.1.67,2.32,2.32,0,0,0-.45-.26,1.44,1.44,0,0,0-.45-.06.57.57,0,0,0-.49.18.57.57,0,0,1-.49.17,1.26,1.26,0,0,1,.26-.74,2.7,2.7,0,0,1,.64-.62A3.34,3.34,0,0,1,18,7.41a2.57,2.57,0,0,1,.8-.16A.71.71,0,0,1,18.58,7.78ZM17.2,22.15v.27l-.31-.27Zm.19-.9c0,.19-.06.28-.19.28s-.24-.09-.24-.28.08-.31.24-.31S17.39,21.05,17.39,21.25Zm.43,4.12a1.5,1.5,0,0,0,.3-.27l.27-.34a.43.43,0,0,1,.33-.15.88.88,0,0,0-.06-.41c0-.07.06-.16.29-.29V26a.35.35,0,0,1-.15.28,3,3,0,0,1-.35.21l-.39.2a.71.71,0,0,0-.28.21,1.44,1.44,0,0,0-.13.29.7.7,0,0,1-.18.3.42.42,0,0,1-.15.07l-.16,0s0-.09,0-.21,0-.19,0-.22a2,2,0,0,1,0-.35c0-.15.06-.33.1-.52s.07-.37.09-.53a1.94,1.94,0,0,0,0-.35A.39.39,0,0,0,17.82,25.37Zm-.11-4.7q0,.27-.24.27c-.13,0-.19-.09-.19-.27s.06-.31.19-.31S17.71,20.46,17.71,20.67Zm.31,8q0,.27-.24.27c-.15,0-.23-.09-.23-.27s.08-.32.23-.32S18,28.46,18,28.67Zm-.16.83.08,0,.08,0a.11.11,0,0,0,.08,0l.27.28s-.05,0-.16,0-.11,0-.11,0-.11,0-.18-.12a1.4,1.4,0,0,0-.14-.16A.11.11,0,0,0,17.86,29.5Zm.2-7a.73.73,0,0,1,0-.31c0,.08.07.27.13.57s.11.5.14.6v.27c-.21-.05-.31-.16-.31-.35v-.78Zm.82-13c0,.18-.07.27-.2.27s-.23-.09-.23-.27.07-.31.23-.31S18.88,9.27,18.88,9.48Zm0,17.39c0,.18-.07.27-.2.27s-.23-.09-.23-.27.07-.31.23-.31S18.88,26.66,18.88,26.87ZM19.11,30C19,30,19,29.9,19,29.8s0-.12.16-.12.18,0,.16.12S19.19,30,19.11,30Zm.16-9v.31H19v-.31Zm.19-12.67c0,.18-.06.27-.19.27S19,8.45,19,8.27s.08-.31.24-.31S19.46,8.06,19.46,8.27Zm.31,19a.92.92,0,0,1,.78-.31c0,.21,0,.54,0,1a1.64,1.64,0,0,1-.35,1,.24.24,0,0,0-.11.08.21.21,0,0,1-.12,0c0-.05,0-.16,0-.35a1,1,0,0,0-.06-.35s-.05-.08-.16-.15-.15-.13-.15-.16A1.37,1.37,0,0,1,19.77,27.22Zm.08-16.3c.47-.08.7-.31.7-.7C20.16,10.22,19.93,10.45,19.85,10.92Zm.51,9.75c0,.18-.07.27-.2.27s-.23-.09-.23-.27.08-.31.23-.31S20.36,20.46,20.36,20.67Zm-.12,4.72c0,.18.07.27.2.27s.23-.09.23-.27-.08-.31-.23-.31S20.24,25.18,20.24,25.39Zm.35-.74c0,.13.05.18.16.15a.13.13,0,0,0,.11-.15.15.15,0,0,0-.11-.16C20.64,24.47,20.59,24.52,20.59,24.65Zm.24.74c0,.18.06.27.19.27s.23-.09.23-.27-.07-.31-.23-.31S20.83,25.18,20.83,25.39ZM25.58,9.91c0,.05,0,.09-.11.11s-.16,0-.16-.11.05-.19.16-.16A.16.16,0,0,1,25.58,9.91Zm0,2.65s0,.09-.11.11-.16,0-.16-.11.05-.18.16-.16A.16.16,0,0,1,25.58,12.56Zm0,7.39c0,.51,0,1.05,0,1.62s0,1.07,0,1.58-.05.86-.07,1.07-.06.07-.08-.18-.05-.59-.06-1,0-.92,0-1.44,0-1,0-1.49,0-.78.06-1,.05-.3.08-.17S25.52,19.44,25.54,20Zm.78-18.76.63,0,.33,0,.25,0A1.26,1.26,0,0,0,27.81,1,.79.79,0,0,1,28.12.9a.26.26,0,0,1,.17.09.28.28,0,0,1,.1.18A.35.35,0,0,1,28.7.88a3.32,3.32,0,0,1,.43,0,1.21,1.21,0,0,1,.63.17,1,1,0,0,0,.58.18A.53.53,0,0,0,30.79,1a.73.73,0,0,1,.57-.17h.35c.15,0,.23,0,.23,0a.79.79,0,0,1,.31.13,1.26,1.26,0,0,0,.28.14s.11,0,.17-.14.11-.13.14-.13a1.39,1.39,0,0,1,.35-.08l.35,0V2a6.24,6.24,0,0,1,0,.78,5.69,5.69,0,0,1-.12.7c-.05.23-.13.55-.23.94,0,.13-.16.43-.31.89l-7.37.16L25.74.9A1,1,0,0,0,26.32,1.19Zm-.85,25.68a2.47,2.47,0,0,0,.85.53,3.79,3.79,0,0,0,.9.09h.51a.41.41,0,0,0,.39-.34h3.55a.62.62,0,0,0,.13.18,1.78,1.78,0,0,1,.14.14h.16a.48.48,0,0,0,.41-.16c.06-.1.22-.16.48-.16h.43a1.08,1.08,0,0,0-.17.3.8.8,0,0,0-.1.29,1.81,1.81,0,0,0,.14.45,1.81,1.81,0,0,1,.13.45s0,.09,0,.21a1.4,1.4,0,0,1,0,.25,3.25,3.25,0,0,1-.13.71c-.1.33-.19.68-.3,1s-.21.66-.31.94a1.18,1.18,0,0,1-.19.4H28.39a1.46,1.46,0,0,0-.68-.52,2.69,2.69,0,0,0-.8-.1,2.78,2.78,0,0,0-.66.08.81.81,0,0,0-.51.54c0-.18,0-.51,0-1s-.06-1-.1-1.52-.07-1-.09-1.5,0-.81,0-1v-.27ZM26.05,6.2l-.31.27V6.2Zm0,5.3-.31.32v-.59Zm0,13.3-.31.28V24.8Zm.82-17.12s0,.07,0,.14A.26.26,0,0,0,27,8a.86.86,0,0,0,.15.31c.11.15.15.25.12.27a1.94,1.94,0,0,1-.23.37,5.16,5.16,0,0,0-.35.53.61.61,0,0,1-.16.17c-.08.07-.12.11-.12.14h-.31a9.49,9.49,0,0,0,.33-1c.09-.35.18-.7.26-1Zm0,4.14c0,.18-.08.27-.23.27s-.2-.09-.2-.27.07-.32.2-.32S26.87,11.61,26.87,11.82ZM27,10a1.93,1.93,0,0,1-.39,1.21V10ZM34.59,0V.58A.62.62,0,0,1,34.24,0Zm3.2,11.23c0,.18-.08.27-.23.27s-.2-.09-.2-.27.07-.31.2-.31S37.79,11,37.79,11.23Zm.78,1s-.09-.06-.12-.16,0-.12.16-.12.17,0,.12.12S38.65,12.25,38.57,12.25Z"/><path class="cls-1" d="M35.94,11.91a2.24,2.24,0,0,1-1,.26.8.8,0,0,1,.47-.84,2.79,2.79,0,0,1,1-.18A.8.8,0,0,1,35.94,11.91ZM38.41,10a5.78,5.78,0,0,1-.6.72A1.08,1.08,0,0,1,37,11a.79.79,0,0,1,.37-.78,2,2,0,0,1,.92-.2ZM40.58,29.7c0-1,.07-2.13.1-3.3s0-2.27.07-3.29,0-1.75,0-2.17c0-.15,0-.57,0-1.25s0-1.39-.09-2.14-.08-1.47-.12-2.15-.06-1.09-.06-1.24a1.49,1.49,0,0,0-.15-.8A2.64,2.64,0,0,0,40,13a1.92,1.92,0,0,1-.31-.47,2.1,2.1,0,0,1-.06-1h-.31l-.29.14a1.23,1.23,0,0,0-.29.18.84.84,0,0,1-.06-.32c0-.15,0-.25,0-.31a1,1,0,0,1,.29-.72c.2-.19.4-.39.62-.58a7.49,7.49,0,0,0,.63-.63,1.24,1.24,0,0,0,.29-.84V8.27a2.07,2.07,0,0,0,0-.28c0-.15-.06-.31-.09-.46s-.08-.31-.1-.45a1.55,1.55,0,0,1,0-.29,1,1,0,0,1,.1-.32.58.58,0,0,1,.17-.27v-5s.12-.07.35-.14a4.73,4.73,0,0,0,.55-.17h.31a.43.43,0,0,1,.43.27,3.24,3.24,0,0,1,.19.62,5.47,5.47,0,0,0,.18.63.36.36,0,0,0,.37.27,3.21,3.21,0,0,0,.92-.1,1.37,1.37,0,0,0,.54-.27,2.4,2.4,0,0,0,.39-.39,2.08,2.08,0,0,1,.49-.41V7.37a2.52,2.52,0,0,1,.33,1,4.28,4.28,0,0,1,0,1.07l.8.23a7.15,7.15,0,0,1,1.06.43,4.41,4.41,0,0,1,.91.62,1.41,1.41,0,0,1,.47.78,1,1,0,0,0-.31,0,.94.94,0,0,0-.28,0,1.87,1.87,0,0,0-.27.16.72.72,0,0,1-.31.16,1,1,0,0,1-.33-.28,1.12,1.12,0,0,1-.26-.35,1,1,0,0,1-.83.53l-1,0a5.84,5.84,0,0,0,0,.64,5.89,5.89,0,0,1,0,.84,2.91,2.91,0,0,1-.14.8.69.69,0,0,1-.46.49l.58.86v6.82l.62,1.17a3.88,3.88,0,0,0-.78.24,4.16,4.16,0,0,0-.7.35l1.48,1.48L45.2,26c0,.06,0,.26-.06.63s-.08.81-.12,1.34-.07,1-.09,1.27v.2a.26.26,0,0,0,.11.25l.28.12a.77.77,0,0,1,.27.17.54.54,0,0,1,.12.39.79.79,0,0,0-.63.22,3.79,3.79,0,0,0-.37.48,2.63,2.63,0,0,1-.43.53,1.22,1.22,0,0,1-.83.29H41.07l-.3.14a1,1,0,0,0-.29.17h.31l-.31-.31C40.51,31.45,40.54,30.73,40.58,29.7ZM39.31,9.44H39l.31-.31Zm.43-1q0,.09-.12.12t-.15-.12q0-.2.15-.15A.15.15,0,0,1,39.74,8.42Zm.55,2.23c0,.18.06.27.19.27s.24-.09.24-.27-.08-.32-.24-.32S40.29,10.44,40.29,10.65Zm.78-8.31a.84.84,0,0,0,.31.31,1.09,1.09,0,0,0,.17-.43c.07-.23.11-.39.14-.47V1.17a1.21,1.21,0,0,0-.45.45,1.12,1.12,0,0,0-.17.6Zm.07,18.91c0,.19.08.28.24.28s.23-.09.23-.28-.08-.31-.23-.31S41.14,21.05,41.14,21.25Zm.9-6.78q0,.27.24.27c.13,0,.19-.09.19-.27s-.06-.31-.19-.31S42,14.26,42,14.47ZM42.76,19a1.53,1.53,0,0,0,.69.18l.81,0a1,1,0,0,1,.67.25v-.27c0-.05-.07-.15-.14-.29a1.08,1.08,0,0,0-.17-.3l-.36-.08-.52-.09-.53-.1a1.85,1.85,0,0,0-.35,0h-.39C42.47,18.66,42.57,18.89,42.76,19Zm1.93-1.28c0,.2.08.31.24.31s.19-.11.19-.31-.06-.32-.19-.32S44.69,17.5,44.69,17.71Zm1.5,1.83a1.9,1.9,0,0,1-.42-1,5.64,5.64,0,0,1-.06-1.3c0-.44,0-.72,0-.82s0-.49,0-.84a1.59,1.59,0,0,1,0-.52l3.24-.9a10.31,10.31,0,0,1,.55-2,5.55,5.55,0,0,0,.35-2,9.42,9.42,0,0,0-.2-2.09,3.33,3.33,0,0,0-.64-1.38,3.13,3.13,0,0,0-1.19-.86A10.42,10.42,0,0,0,46.1,5.3c-.06,0-.11,0-.18-.12a.39.39,0,0,1-.1-.19V1.48a3.68,3.68,0,0,0,.45,0c.22,0,.46-.06.72-.1l.73-.09a2.34,2.34,0,0,0,.44-.08A.74.74,0,0,0,48.48,1a1,1,0,0,1,.27-.15,4.36,4.36,0,0,1,2.61,1,2.88,2.88,0,0,1,.84,1.11,2.27,2.27,0,0,1,.1,1.49c0-.06.07-.15.14-.3a1,1,0,0,1,.17-.29l.16,0,.11,0,.3.43c.11.18.24.37.37.57a4.27,4.27,0,0,1,.33.58c.09.2.16.36.21.49a8.5,8.5,0,0,1,.2,1.32c.05.58.11,1.16.19,1.76s.18,1.14.29,1.62a1.42,1.42,0,0,0,.49.91,2,2,0,0,0-.93,1.12c-.21.53-.43,1.11-.65,1.75a15.94,15.94,0,0,1-.82,2A4.54,4.54,0,0,1,51.4,18v.27a1.72,1.72,0,0,0,.41.94,2.82,2.82,0,0,1,.49.85,4.63,4.63,0,0,1,.19,1.37,2.28,2.28,0,0,0,.39,1.29l.18.13c.09.07.14.11.14.14a.88.88,0,0,1-.14.31,1.12,1.12,0,0,1-.18.27v.32A8.51,8.51,0,0,0,53.39,25a3.35,3.35,0,0,1,.39,1c.1.5.19.91.25,1.25a6.12,6.12,0,0,0,.26.94,4.08,4.08,0,0,0,.45.88c.19.29.46.65.8,1.07a.35.35,0,0,1,.11.19,1.16,1.16,0,0,0-.68.18,1.92,1.92,0,0,0-.45.45,3.5,3.5,0,0,0-.35.6,3,3,0,0,1-.39.64l-.58-.58c-.11.36-.29.55-.55.57h-.78a6.06,6.06,0,0,1-1-.09,1.42,1.42,0,0,1-.88-.53c-.05-.05-.07-.2,0-.45s0-.39,0-.44c-.42-1.87-.88-3.74-1.39-5.59s-.94-3.74-1.3-5.63C46.77,19.75,46.42,19.78,46.19,19.54ZM46.1,6.47v.32l-.28-.32Zm.08,4.18c0,.18.07.27.23.27s.19-.09.19-.27-.06-.32-.19-.32S46.18,10.44,46.18,10.65Zm0,8.27c0,.18.07.27.23.27s.19-.09.19-.27-.06-.32-.19-.32S46.18,18.71,46.18,18.92Zm3,3.82c0,.18.06.27.19.27s.24-.09.24-.27-.08-.32-.24-.32S49.14,22.53,49.14,22.74Zm.82-.59s0,.07.12.14l.15.13a.47.47,0,0,0,0-.15.24.24,0,0,0,0-.12A.59.59,0,0,0,50.1,22a1.74,1.74,0,0,1-.14-.14.22.22,0,0,0,0,.16C49.92,22.07,49.93,22.13,50,22.15ZM51.21,5.3c0,.21.06.32.19.32s.24-.11.24-.32S51.56,5,51.4,5,51.21,5.1,51.21,5.3Zm1.48,4.14c0,.21.06.31.19.31s.24-.1.24-.31-.08-.31-.24-.31S52.69,9.23,52.69,9.44Zm.51-6.79-.32.27V2.65Zm2.34,4.72v.35A.59.59,0,0,1,55,7.37ZM55.26,26l-.31.32V26Z"/><path class="cls-1" d="M70,31.4a3.45,3.45,0,0,0-.41.25,3.63,3.63,0,0,1-.44.25,1.32,1.32,0,0,1-.57.12v-1.6l2-14.47h-.51s-.07.07-.13.2a2.2,2.2,0,0,0-.18.48c0,.2-.1.39-.16.59s-.09.36-.11.49v3c-.06.52-.13,1.15-.22,1.89s-.19,1.52-.29,2.32-.21,1.61-.31,2.4-.2,1.5-.29,2.13-.17,1.13-.24,1.54a3.39,3.39,0,0,1-.13.64l-.28.27a.7.7,0,0,0,0-.39,3.67,3.67,0,0,0-.19-.48c-.08-.17-.16-.34-.24-.49a2.28,2.28,0,0,1-.15-.39l-2.34-13a1.8,1.8,0,0,0-.08-.25l-.16-.47a4.24,4.24,0,0,0-.17-.47,1.23,1.23,0,0,0-.18-.29.92.92,0,0,0-.35-.27.32.32,0,0,0-.21,0l-.24.05a.62.62,0,0,1-.37,0c-.1,0-.37-.14-.82-.34a11.76,11.76,0,0,1-1.36-.7,5.91,5.91,0,0,1-1.17-.86c-.31-.29-.38-.55-.2-.76a1.08,1.08,0,0,0-.29.1c-.14.07-.3.13-.47.2s-.32.13-.46.19a1,1,0,0,1-.26.1.75.75,0,0,0-.29.53.41.41,0,0,1-.45.37h-.16l.32-.59H55.92a1.52,1.52,0,0,1,.3-.62,5.82,5.82,0,0,1,.54-.65c.2-.19.39-.36.57-.5a4.07,4.07,0,0,0,.35-.3.48.48,0,0,0,.66,0c.18-.18.39-.39.61-.64a2.51,2.51,0,0,1,.8-.6,1.45,1.45,0,0,1,1.21.07,2.79,2.79,0,0,1,.46-.89,9,9,0,0,1,.61-.7,7,7,0,0,0,.51-.63,1.23,1.23,0,0,0,.21-.7,7.51,7.51,0,0,0-.16-1.56c-.1-.52-.21-1-.33-1.54s-.23-1-.33-1.54a8.26,8.26,0,0,1-.16-1.56h3.9A1.36,1.36,0,0,1,66,1L66.26.9h.27c0,.41.07.89.12,1.42s.13,1.07.23,1.6a8.85,8.85,0,0,0,.43,1.48A3.08,3.08,0,0,0,68,6.51v.31a1.26,1.26,0,0,1-.14.28.88.88,0,0,0-.14.31,1,1,0,0,0,0,.21c0,.12.06.25.1.37s.07.26.1.38,0,.18,0,.21v2.07a2.07,2.07,0,0,0,.29.66l.52.88c.19.3.36.58.51.86a1.38,1.38,0,0,1,.23.56h-.31a1.83,1.83,0,0,0,.22.74.66.66,0,0,0,.6.47.79.79,0,0,0,.65-.33,2.35,2.35,0,0,0,.37-.78,5.64,5.64,0,0,0,.15-.9c0-.3,0-.53,0-.68s0-.38,0-.68,0-.48,0-.53a.9.9,0,0,0-.13-.27.74.74,0,0,1-.14-.32,3,3,0,0,1,.15-.93c.11-.31.23-.64.36-1s.26-.66.39-1a4.16,4.16,0,0,0,.27-.94c0-.18.08-.52.17-1s.19-1.05.3-1.62.19-1.1.27-1.6.13-.84.16-1h4.13c0,.29.12.59.2.92a1.93,1.93,0,0,0,.39.83.57.57,0,0,0-.53.24,2.56,2.56,0,0,0-.37.68,3.57,3.57,0,0,0-.22.82c0,.27-.07.49-.09.64V7.68a1.56,1.56,0,0,1-.28.45c-.18.25-.28.4-.31.45V9a1.08,1.08,0,0,0,.16.6,1.17,1.17,0,0,1,.15.61v.11a3.29,3.29,0,0,1-.15.32,1.64,1.64,0,0,1-.16.27c0,.08-.07.31-.14.68s-.11.65-.13.8a.44.44,0,0,1,0,.1.44.44,0,0,0,0,.1l0,.11s0,.08.11.16.13.12.16.12a.8.8,0,0,1,.16-.37,5.9,5.9,0,0,1,.37-.55l.41-.55a1.61,1.61,0,0,1,.27-.29l-.31-.31L78,10.65a1.31,1.31,0,0,0,.1.46c0,.08.08.12.13.12a.49.49,0,0,0,.2-.06.66.66,0,0,1,.31-.06.46.46,0,0,0-.1-.23.29.29,0,0,1-.06-.23l.3-.32a1.83,1.83,0,0,1,.29-.27,4.81,4.81,0,0,1,0,.74v.74A6.68,6.68,0,0,1,79.13,13a2.22,2.22,0,0,1-.29.74,1.19,1.19,0,0,1-.39.33,1.49,1.49,0,0,0-.39.23.93.93,0,0,0-.29.43,2.61,2.61,0,0,0-.12.92h-.2v1.21h0a5,5,0,0,0-.21-1.39,1.45,1.45,0,0,0-.92-1,1.34,1.34,0,0,0-.31.37,5.25,5.25,0,0,1-.33.49,1.41,1.41,0,0,1-.39.35.42.42,0,0,1-.45,0,.42.42,0,0,0,.37.35,1.15,1.15,0,0,0,.53,0,2.3,2.3,0,0,0-.18.59c-.06.31-.11.5-.13.58s0,.2,0,.45a1.56,1.56,0,0,1,0,.45s0,.08-.14.17l-.29.28-.3.27-.17.18a3,3,0,0,0-.27.85A10.23,10.23,0,0,0,74,20.92c0,.41-.07.8-.1,1.19s0,.7,0,.94a.48.48,0,0,0,.12.33,2.49,2.49,0,0,0,.23.23l.24.22a.37.37,0,0,1,.12.27,1,1,0,0,0-1.08.61,5.28,5.28,0,0,0-.35,1.3c-.06.47-.13.91-.21,1.31a.64.64,0,0,1-.67.6.57.57,0,0,1-.11.22c-.08.12-.09.19,0,.21a1,1,0,0,0,.43.18,2.63,2.63,0,0,0,.47.1,1.43,1.43,0,0,0-.43.83c-.06.33-.1.66-.14,1a4,4,0,0,1-.23.95,1.57,1.57,0,0,1-.69.76.54.54,0,0,1-.25-.25l-.12-.29a.53.53,0,0,0-.19-.25.83.83,0,0,0-.49-.1A1,1,0,0,0,70,31.4ZM56.24,14.47h-.32l.32-.59Zm.5-2.34c0,.18-.07.27-.23.27s-.2-.09-.2-.27.07-.31.2-.31S56.74,11.92,56.74,12.13Zm3.67.31c0,.18.08.27.23.27s.24-.09.24-.27-.08-.31-.24-.31S60.41,12.23,60.41,12.44Zm.35-1.33c.08.08.14.12.2.12a1.22,1.22,0,0,0,.27-.13c.15-.1.26-.15.31-.18a1.73,1.73,0,0,1,.33-.12l.53-.17.53-.18.37-.12,0-.11s0-.09-.17-.2l-.39-.33a4.92,4.92,0,0,0-.41-.31.68.68,0,0,1-.23-.21,2.68,2.68,0,0,1-.24.48,1.43,1.43,0,0,1-.35.41l.27.27-1.17.59A.3.3,0,0,0,60.76,11.11Zm.27.75c0,.18.07.27.2.27s.23-.09.23-.27-.08-.32-.23-.32S61,11.65,61,11.86Zm.86-3c0,.18.08.28.24.28s.19-.1.19-.28-.06-.31-.19-.31S61.89,8.68,61.89,8.89Zm.49,3.86q.21.24.33.24a1,1,0,0,0,.47-.08,1.21,1.21,0,0,0,.43-.2l-1.21-.58-.27.27A1,1,0,0,0,62.38,12.75Zm6.38-2.84c-.08,0-.13-.06-.16-.16s0-.12.16-.12.18,0,.15.12S68.83,9.91,68.76,9.91Zm1,20.2h.31V29.8Zm.9,1.75v.31l-.28-.31Zm.08-1.44c0,.18.07.27.23.27s.19-.09.19-.27-.06-.31-.19-.31S70.75,30.21,70.75,30.42Zm2.8-2.65c0,.18-.07.27-.23.27s-.2-.09-.2-.27.07-.31.2-.31S73.55,27.56,73.55,27.77Zm.28-2.07c0,.18-.07.27-.2.27s-.23-.09-.23-.27.08-.31.23-.31S73.83,25.49,73.83,25.7ZM75.37,14a4.72,4.72,0,0,0-.06.64.5.5,0,0,0,.52-.35,1.63,1.63,0,0,0,.14-.66s0,0-.16,0A.41.41,0,0,0,75.37,14Zm.84,2.28c0,.18-.08.28-.24.28s-.19-.1-.19-.28S75.84,16,76,16,76.21,16.06,76.21,16.26ZM77.45,18c-.07,0-.27.08-.58.15l-.59.16h-.35s0-.08,0-.16S76,18,76,18s.07-.15.14-.29a1.08,1.08,0,0,1,.17-.3Zm-1.17,3.39v.16l-.13.15q-.11.12-.18.12v-.27a1,1,0,0,1,.31-.32Zm.12-.9q-.08,0-.12-.15c0-.08,0-.12.16-.12s.17,0,.12.12S76.48,20.51,76.4,20.51Zm.58-12c0,.06,0,.09-.11.12s-.16,0-.16-.16.05-.18.16-.15A.21.21,0,0,1,77,8.46Zm.4,1.91c0,.19-.07.28-.2.28s-.23-.09-.23-.28.07-.31.23-.31S77.38,10.17,77.38,10.37ZM77.45,5v.31h-.27V5Zm.24,12.4c0,.19-.08.28-.24.28s-.19-.09-.19-.28.06-.31.19-.31S77.69,17.23,77.69,17.43Zm.58.31c0,.19-.08.28-.23.28s-.2-.09-.2-.28.07-.31.2-.31S78.27,17.54,78.27,17.74ZM78.19,4.6c0,.08,0,.13-.15.16s-.12,0-.12-.16,0-.18.12-.15S78.19,4.52,78.19,4.6Zm-.15,9,.9-.9H78Zm.5,2.65c0,.18-.06.28-.19.28s-.23-.1-.23-.28.07-.31.23-.31S78.54,16.06,78.54,16.26ZM78.19,12c0,.13.06.18.16.16a.16.16,0,0,0,.12-.16.15.15,0,0,0-.12-.15C78.25,11.79,78.19,11.84,78.19,12Zm.28,3.12a.32.32,0,0,1-.12.28s-.09,0-.12-.06a.78.78,0,0,1,0-.22.82.82,0,0,1,0-.25c0-.07.07-.08.12-.06A.35.35,0,0,1,78.47,15.09Z"/><path class="cls-1" d="M84.63,1.36h2.65c0-.26.08-.4.25-.42A2.57,2.57,0,0,1,88,.9c.08,0,.23,0,.45,0a.3.3,0,0,1,.33.33V8.31a3.92,3.92,0,0,1,.28.95q0,.38,0,1a13.07,13.07,0,0,1,0,1.34A14.57,14.57,0,0,1,88.76,13l.16.13c.08.07.12.11.12.14a.12.12,0,0,0,0,.08.17.17,0,0,1,0,.07.8.8,0,0,1,0,.16.78.78,0,0,1-.12.29l-.16.3V26.87a3.85,3.85,0,0,1,.3,1.25c0,.39,0,.82,0,1.29,0,.28,0,.58,0,.89a4.45,4.45,0,0,1-.14.9,1.37,1.37,0,0,1-.43.7,1.34,1.34,0,0,1-.9.27,1.13,1.13,0,0,1-.47-.09l-.39-.22a2.74,2.74,0,0,0-.42-.21,1.25,1.25,0,0,0-.51-.1,2.93,2.93,0,0,0-.7.08.71.71,0,0,0-.47.54ZM84.94,3a2.32,2.32,0,0,0,.22.49,1,1,0,0,0,.37.41V3.59l-.16-.31A1.48,1.48,0,0,0,85.21,3l-.15,0Zm4.68,8.54c.1,0,.16.08.16.16s-.06.13-.16.16-.12,0-.12-.16S89.54,11.52,89.62,11.54Z"/><path class="cls-1" d="M91.73,7.08l.19,0a1.2,1.2,0,0,1-.37.5.87.87,0,0,1-.49.12h-.31c0-.31,0-.5.2-.56a1.47,1.47,0,0,1,.54-.1Zm.7.33c0,.21-.07.31-.2.31S92,7.62,92,7.41s.08-.31.23-.31S92.43,7.2,92.43,7.41ZM93,3.9c0,.18-.06.27-.19.27s-.24-.09-.24-.27.08-.31.24-.31S93,3.69,93,3.9Zm.32,2.65q0,.27-.24.27c-.13,0-.19-.09-.19-.27s.06-.31.19-.31S93.33,6.34,93.33,6.55Zm1-.62H94V5.65Zm3.24,22.42a1.39,1.39,0,0,1,.56-.23,1.61,1.61,0,0,1,.61-.08l-.28-.58a1.6,1.6,0,0,1-.5.09,2.85,2.85,0,0,1-.65,0,1.37,1.37,0,0,1-.58-.19.71.71,0,0,1-.33-.47q0-.61-.06-1.95c0-.88,0-1.88-.06-3s0-2.26-.06-3.47,0-2.37-.06-3.47,0-2.1,0-3,0-1.53,0-1.95a2,2,0,0,0-.14-.74c-.09-.23-.19-.47-.29-.7s-.21-.48-.3-.72a3,3,0,0,1-.17-.8h-.51a.64.64,0,0,0-.35-.59,2.15,2.15,0,0,0,1.19-1,10.72,10.72,0,0,1,.88-1.35,7.38,7.38,0,0,1,1.21-1.3A8.1,8.1,0,0,1,99.1,1.81a8.26,8.26,0,0,1,1.69-.7,6.26,6.26,0,0,1,1.74-.25V5.34c0,.39.1.64.31.74a3.77,3.77,0,0,0,.66.26,1.82,1.82,0,0,1,.63.29c.18.13.25.39.19.78h-3.86V9.79q.08,0,.18.12l.13.15v.31s-.07.12-.15.28l-.16.31v.15a.31.31,0,0,0,.16.32q.15.08.15.39a4.69,4.69,0,0,1-.15,1.17,4.42,4.42,0,0,0-.16,1.21v.27c.08-.47.33-.7.74-.7a1.15,1.15,0,0,1-.11.54,2.45,2.45,0,0,1-.26.35,3.12,3.12,0,0,0-.25.35.91.91,0,0,0-.12.47.85.85,0,0,0,.18.63.79.79,0,0,1,.17.58,3.92,3.92,0,0,1-.17,1.21,3.93,3.93,0,0,0-.18,1.29,3.53,3.53,0,0,0,.16,1.21,3,3,0,0,1,.15,1v.16a2.94,2.94,0,0,1,0,.33l-.12.54c0,.2-.07.39-.1.57s0,.29,0,.31a.88.88,0,0,0,.14.31c.09.16.15.25.17.28v.31l-.15.45c-.08.24-.13.39-.16.45v.15a1,1,0,0,0,.33.78c.22.21.46.41.71.61a8.17,8.17,0,0,1,.7.62,1,1,0,0,1,.33.76v3.55a.8.8,0,0,1-.1.29.87.87,0,0,1-.17.29h-.32l-.27-.15-.31-.16h-.16a.38.38,0,0,0-.33.16c-.06.1-.2.15-.41.15h-.27a7.19,7.19,0,0,0-.86-.79c-.31-.25-.6-.5-.88-.75a3.39,3.39,0,0,1-.68-.83,2.19,2.19,0,0,1-.27-1.1A2.7,2.7,0,0,1,97.54,28.35ZM95.49,3.72c0,.07,0,.12,0,.14a1.81,1.81,0,0,1,0,.31,4.17,4.17,0,0,1-.31.72,2.09,2.09,0,0,1-.27.45h-.32l.9-1.75S95.48,3.66,95.49,3.72Zm.8-1.3c0,.18-.08.27-.23.27s-.2-.09-.2-.27.07-.31.2-.31S96.29,2.21,96.29,2.42Zm.78,25.78a.15.15,0,0,1-.12.15q-.15,0-.15-.15c0-.13,0-.18.15-.16A.16.16,0,0,1,97.07,28.2Zm1.13.47c0,.18.08.27.23.27s.2-.09.2-.27-.07-.32-.2-.32S98.2,28.46,98.2,28.67Zm1-27.42c0,.18-.06.27-.19.27s-.23-.09-.23-.27.07-.31.23-.31S99.21,1,99.21,1.25ZM101,8.89c0,.18-.08.28-.24.28s-.23-.1-.23-.28.08-.31.23-.31S101,8.68,101,8.89Zm.19,3.67s-.09,0-.11-.12,0-.16.11-.16.19.06.16.16A.16.16,0,0,1,101.2,12.56Zm.55-5.42c0,.18.06.27.19.27s.24-.09.24-.27-.08-.32-.24-.32S101.75,6.93,101.75,7.14Zm.19-.63h.32l-.32-.27Zm.75.47c-.13,0-.19,0-.16.12s.08.15.16.15.13,0,.15-.15S102.82,7,102.69,7Zm3.47,3.67A9,9,0,0,1,105.53,9c-.18-.65-.35-1.3-.5-2a7.78,7.78,0,0,0-.43-1.37.61.61,0,0,0-.37-.35l-.49-.13a1.3,1.3,0,0,1-.43-.2.59.59,0,0,1-.2-.52V.86a8.2,8.2,0,0,1,2.58.37,14.34,14.34,0,0,0,2.46.56l1.17,2.38a2.79,2.79,0,0,1,.46.1,1,1,0,0,1,.43.18v.31a2.37,2.37,0,0,1-.17.29.77.77,0,0,0-.14.29s0,.08.16.16.15.13.15.15c0,.37,0,.6,0,.71s0,.46,0,.7a1,1,0,0,1-.33.66v3a2.87,2.87,0,0,0-.64.12l-1,.29-1,.36a2.26,2.26,0,0,0-.65.33v-.28a1,1,0,0,1,.32-.31C106.66,11.31,106.39,11.11,106.16,10.65Zm-.47,17.57a1.56,1.56,0,0,0,.74.17.74.74,0,0,1,0,.12.74.74,0,0,0,0,.12l-.18.19c-.06.08-.11.12-.13.12a1.82,1.82,0,0,1-.45-.16,2.09,2.09,0,0,0-.45-.15,1.55,1.55,0,0,0-.47.05.2.2,0,0,0-.11.18.54.54,0,0,0,.05.19.61.61,0,0,1,.06.28,1.36,1.36,0,0,1,.78.17,3.22,3.22,0,0,1,.43.39,2,2,0,0,0,.47.39,1.39,1.39,0,0,0,.86.14l0,.12s0,.07,0,.15l-.43.45-.43.45a1.37,1.37,0,0,0-.16.29,1.27,1.27,0,0,1-.15.29h-.27a2.76,2.76,0,0,1-.32-.17.88.88,0,0,0-.31-.14,1.42,1.42,0,0,0-.27.16.86.86,0,0,1-.31.15h-.28l-.31,0-.39-.12a1.33,1.33,0,0,1-.35-.2.31.31,0,0,1-.16-.23V28.35c0-.08.08-.13.24-.17a2.68,2.68,0,0,1,.54-.08l.61,0,.41,0A1.55,1.55,0,0,1,105.69,28.22ZM105.81,0V.35h-.32V0ZM106,24.8c0,.21-.06.32-.19.32s-.24-.11-.24-.32.08-.31.24-.31S106,24.6,106,24.8Zm-.08,5.78c-.13,0-.17,0-.11.11s.06.16.11.16.13-.05.16-.16S106.05,30.58,105.92,30.58Zm1.33-4.88a.94.94,0,0,1-.53-.45,1.79,1.79,0,0,1-.1-.6.65.65,0,0,1,.1-.37A1.45,1.45,0,0,1,107,24a1.67,1.67,0,0,0,.23-.23.5.5,0,0,0,.1-.31.24.24,0,0,0,0-.08.12.12,0,0,1,0-.08,2.35,2.35,0,0,1-.57.18l-.6.13-.14,0a.4.4,0,0,1-.13,0V21.25h1.67a1.49,1.49,0,0,0,.22.94,1.24,1.24,0,0,0,.52.39c.21.08.44.16.69.23a1.78,1.78,0,0,1,.72.51,1.7,1.7,0,0,1,.15.47h-1.32v.43h1.44V25.7l-.58.27a4.75,4.75,0,0,1,.25.86,5,5,0,0,1,.06.82,1,1,0,0,1-.28.72,1,1,0,0,1-.78.3c-.18,0-.29-.05-.33-.14a1.36,1.36,0,0,1-.09-.35c0-.15-.06-.28-.08-.41a.46.46,0,0,0-.24-.31.61.61,0,0,0-.19-.12l-.37-.18-.39-.17a.77.77,0,0,1-.22-.12l-.15-.14c-.08-.06-.12-.12-.12-.17Zm-.86.27h-.58a.53.53,0,0,1,.58-.35Zm-.23-3.19c0,.18.07.27.23.27s.2-.09.2-.27-.07-.32-.2-.32S106.16,22.57,106.16,22.78Zm.66,6.9c0,.05,0,.1-.16.15s-.11,0-.11-.15,0-.18.11-.16S106.82,29.6,106.82,29.68Zm-.08-5.15q0,.27.24.27c.13,0,.19-.09.19-.27s-.06-.31-.19-.31S106.74,24.32,106.74,24.53Zm.51,2h.31l-.31-.27Zm.51,1.79c0,.19-.07.28-.2.28s-.23-.09-.23-.28.07-.31.23-.31S107.76,28.15,107.76,28.35Zm.39,1.48h-.36a.66.66,0,0,1,.36-.62Zm-.24-3.23q0,.27.24.27c.15,0,.23-.09.23-.27s-.08-.31-.23-.31S107.91,26.39,107.91,26.6Zm.8-5.5a2,2,0,0,1,.72-.16,1.54,1.54,0,0,1-.13.67.58.58,0,0,1-.57.27,1.25,1.25,0,0,1-.35,0,.38.38,0,0,1-.23-.27A1.13,1.13,0,0,1,108.71,21.1Zm.1-12.21c0,.18.08.28.23.28s.2-.1.2-.28-.07-.31-.2-.31S108.81,8.68,108.81,8.89Zm.8,13.34a.24.24,0,0,0,0-.08s.08.07.15.14.12.12.12.17a.31.31,0,0,1,0,.12.5.5,0,0,1,0,.16l-.27-.28a.19.19,0,0,0,0-.07.13.13,0,0,1,0-.08A.12.12,0,0,1,109.61,22.23Zm.56-.55a.29.29,0,0,1-.27-.11c0-.05,0-.09.08-.12a.62.62,0,0,1,.23,0,.54.54,0,0,1,.22,0q.09,0,.06.12A.37.37,0,0,1,110.17,21.68Zm.55-.7c0,.18-.08.27-.23.27s-.2-.09-.2-.27.06-.31.2-.31S110.72,20.77,110.72,21Z"/><path class="cls-1" d="M117.15,1.36h2.66c0-.26.08-.4.25-.42a2.57,2.57,0,0,1,.45,0c.08,0,.23,0,.45,0a.3.3,0,0,1,.33.33V8.31a3.81,3.81,0,0,1,.27.95,8.5,8.5,0,0,1,0,1,12.77,12.77,0,0,1-.06,1.34,14.11,14.11,0,0,1-.25,1.47l.15.13c.08.07.12.11.12.14a.24.24,0,0,0,0,.08.19.19,0,0,1,0,.07.5.5,0,0,1,0,.16.78.78,0,0,1-.12.29c-.07.15-.13.24-.15.3V26.87a3.58,3.58,0,0,1,.29,1.25c0,.39,0,.82,0,1.29,0,.28,0,.58,0,.89a3.84,3.84,0,0,1-.14.9,1.23,1.23,0,0,1-1.32,1,1.13,1.13,0,0,1-.47-.09l-.39-.22a2.46,2.46,0,0,0-.43-.21,1.22,1.22,0,0,0-.51-.1,3,3,0,0,0-.7.08c-.21.05-.36.23-.47.54ZM117.47,3a2.89,2.89,0,0,0,.21.49,1.13,1.13,0,0,0,.37.41V3.59s-.08-.16-.15-.31a2.49,2.49,0,0,0-.16-.28l-.16,0Zm4.68,8.54c.1,0,.15.08.15.16s0,.13-.15.16-.12,0-.12-.16S122.07,11.52,122.15,11.54Z"/><path class="cls-1" d="M123.24,23.36q0,.27-.24.27c-.15,0-.23-.09-.23-.27s.08-.31.23-.31S123.24,23.15,123.24,23.36Zm2-12.91a.37.37,0,0,1,.11.2,1.35,1.35,0,0,1-1.28.74,1.12,1.12,0,0,1,.27-.7.85.85,0,0,1,.7-.36A.34.34,0,0,1,125.27,10.45Zm.62.51c0,.18-.08.27-.23.27s-.2-.09-.2-.27.07-.31.2-.31S125.89,10.75,125.89,11Zm3.32,16.81a4.37,4.37,0,0,0-.06-.51q-.06-.39-.12-.84c0-.3-.07-.58-.1-.84s0-.43,0-.5q0-.55-.06-1.68c0-.75,0-1.61,0-2.55s0-2,0-3-.05-2-.06-3,0-1.8,0-2.56,0-1.31,0-1.67h-.74a1.08,1.08,0,0,1,.1-.51,3.69,3.69,0,0,1,.19-.35c.07-.1.13-.22.2-.33a1.1,1.1,0,0,0,.09-.49.1.1,0,0,1-.07-.06s-.06,0-.08,0l-.37.24-.53.33-.53.35-.33.25V9.52a1.59,1.59,0,0,0,1.15-.39,2.71,2.71,0,0,0,.65-1,6.73,6.73,0,0,0,.35-1.27A10.63,10.63,0,0,1,129,5.62a2.76,2.76,0,0,1,.51-1,1.18,1.18,0,0,1,.95-.39,2.36,2.36,0,0,1,.33-1.52,1.35,1.35,0,0,1,.82-.41c.33,0,.67-.06,1-.08a1.38,1.38,0,0,0,1-.45,1.5,1.5,0,0,0,.35-.46,1.9,1.9,0,0,1,.16-.32.4.4,0,0,1,.27-.15,3.79,3.79,0,0,1,.7,0V5a8.23,8.23,0,0,0-.76.7,1.38,1.38,0,0,0-.45.94.31.31,0,0,0,0,.08.1.1,0,0,1,0,.07,1,1,0,0,0,.3.14,1.53,1.53,0,0,1,.29.14V8.27a.89.89,0,0,0,.54.58,8.68,8.68,0,0,0,1,.43,7.56,7.56,0,0,1,1,.43.71.71,0,0,1,.45.62.53.53,0,0,1-.45.55,3.11,3.11,0,0,1-.8.12v-.35h-1.95c0-.24,0-.54,0-.9a1.28,1.28,0,0,0-.35-.86,4.26,4.26,0,0,0-.62,1.78,19.3,19.3,0,0,0-.25,2.47c0,.86-.06,1.69,0,2.5s0,1.42,0,1.83v2.34a8.43,8.43,0,0,0,.31,2.34.65.65,0,0,0,.1.22c.06.11.13.24.19.37l.2.37a.78.78,0,0,1,.09.21v.31a1,1,0,0,1-.27.73,1,1,0,0,0-.27.72h.54a.44.44,0,0,0-.17.15l-.14.16v.31l.14.14a.59.59,0,0,0,.17.13,1.27,1.27,0,0,0,.3.2l.45.27a3.08,3.08,0,0,0,.44.27c.15.08.24.14.3.16a.34.34,0,0,0,0,.35.69.69,0,0,0,.29.27,2.4,2.4,0,0,0,.39.2.94.94,0,0,0,.31.08,1.15,1.15,0,0,0,.82-.35,3.2,3.2,0,0,0,.58-.82,4.82,4.82,0,0,0,.37-1,2.91,2.91,0,0,0,.14-.82c0-.31,0-.8.08-1.46s0-1.41.06-2.24,0-1.71.06-2.63,0-1.8.05-2.64,0-1.58,0-2.24,0-1.15,0-1.46c0-.08,0-.29,0-.63s0-.71-.07-1.13-.06-.82-.1-1.2-.07-.69-.1-.9a9.69,9.69,0,0,0-.19-1.11,2,2,0,0,0-.34-.74,1.36,1.36,0,0,0-.58-.47,5.3,5.3,0,0,0-1-.33c-.15-.06-.27-.24-.35-.55a1.91,1.91,0,0,0-.23-.62V.82a8.16,8.16,0,0,1,2.53.39,15.94,15.94,0,0,0,2.5.58v.32a3.51,3.51,0,0,0-.16.42,4,4,0,0,1-.15.43.6.6,0,0,0,0,.16c0,.08,0,.13,0,.16H141v.85a5.46,5.46,0,0,0-.89-.25,5.62,5.62,0,0,0-.9-.06h-.51a.35.35,0,0,0-.35.31l.59.63h3.27l.27-.63a.52.52,0,0,1,.18.16l.14.16v.31a1.42,1.42,0,0,0-.18.27,1,1,0,0,0-.14.31,1,1,0,0,0,.1.22l.22.37c.07.13.14.25.19.37a1.31,1.31,0,0,1,.08.21,1.62,1.62,0,0,1,0,.3c0,.14-.06.29-.1.44a4.3,4.3,0,0,0-.09.47,2.3,2.3,0,0,0,0,.27,1,1,0,0,0,.13.28.88.88,0,0,1,.14.31,4.24,4.24,0,0,1,0,.43,5.32,5.32,0,0,1-.18,1.4,5.79,5.79,0,0,0-.17,1.41c0,.1,0,.3,0,.6s0,.49,0,.57l.15.13q.12.11.12.18a.54.54,0,0,1,0,.15.19.19,0,0,1,0,.08.31.31,0,0,0,0,.08,1.09,1.09,0,0,1-.14.27.81.81,0,0,0-.13.32,3.05,3.05,0,0,0,0,.37c0,.19.05.41.09.64s.07.46.1.66a3.43,3.43,0,0,1,0,.39v1.09c0,.5,0,1,0,1.66s0,1.26,0,1.93,0,1.33,0,1.95,0,1.19,0,1.68,0,.86,0,1.09a13.32,13.32,0,0,0,1.91-.13,4.11,4.11,0,0,0,1.76-.73v.28c0,.05-.07.15-.14.31a1,1,0,0,1-.17.31h2.06a1.92,1.92,0,0,1-.74.31l-.72.16a1.35,1.35,0,0,0-.54.25.73.73,0,0,0-.22.61s.05,0,.08-.12,0-.09.08,0a1.51,1.51,0,0,1,.19.43,1.82,1.82,0,0,1,.12.47h-.9l.59.58h.31l.31-.17a1.67,1.67,0,0,1,.27-.14c.06,0,.12,0,.2.12s.12.14.12.19l-.32.28a1,1,0,0,1-.39,0h-.54l-1.31,0a3.76,3.76,0,0,1-1.31-.3l.32-.58h-1.17l-.39.52c-.18.25-.39.52-.61.8s-.43.56-.64.8l-.43.53a4.39,4.39,0,0,1-.53.37c-.3.2-.62.39-1,.59l-1,.54a1.83,1.83,0,0,1-.5.25l-.37,0a6.83,6.83,0,0,1-.71-.14l-.68-.2c-.21-.06-.31-.13-.31-.21V28.94l-.27-.31v3.54h-.32a1.92,1.92,0,0,0-.27-.17.88.88,0,0,0-.31-.14.78.78,0,0,0-.29.12,1.78,1.78,0,0,0-.3.19q-.73-.47-1.32-.87c-.39-.28-.77-.55-1.13-.84l-1.09-.88-1.17-.95Zm4.48-20.36c0,.18.08.27.23.27s.2-.09.2-.27-.07-.31-.2-.31S133.69,7.2,133.69,7.41Zm.74,11.23c0,.18-.08.28-.23.28s-.2-.1-.2-.28.07-.31.2-.31S134.43,18.43,134.43,18.64Zm.31-.62c0,.21-.07.31-.23.31s-.24-.1-.24-.31.08-.31.24-.31S134.74,17.81,134.74,18Zm0,5c0,.18-.07.27-.23.27s-.24-.09-.24-.27.08-.31.24-.31S134.74,22.84,134.74,23.05Zm.16,4.72c0,.18.06.27.19.27s.24-.09.24-.27-.08-.31-.24-.31S134.9,27.56,134.9,27.77Zm.27-18q0,.27.24.27c.13,0,.19-.09.19-.27s-.06-.31-.19-.31S135.17,9.58,135.17,9.79Zm.31.27c0,.18.07.27.2.27s.23-.09.23-.27-.08-.31-.23-.31S135.48,9.85,135.48,10.06Zm2.5.9c0,.18-.08.27-.23.27s-.2-.09-.2-.27.07-.31.2-.31S138,10.75,138,11Zm.43-4.72c0,.18.08.27.23.27s.2-.09.2-.27-.07-.31-.2-.31S138.41,6,138.41,6.24Zm3,9.71c0,.21.07.31.2.31s.23-.1.23-.31-.08-.31-.23-.31S141.37,15.74,141.37,16Zm1.09.59v-.28h-.27Zm.43,11.93s-.09,0-.11-.12,0-.15.11-.15.19.05.16.15A.16.16,0,0,1,142.89,28.47Z"/><path class="cls-1" d="M157.66,30.17c0-.22,0-.35,0-.37s.06-.08.16-.14.16-.11.16-.14a1,1,0,0,0-.14-.31c-.09-.16-.15-.23-.18-.23v-.31a1.08,1.08,0,0,1,.43-.77c.29-.24.59-.51.92-.8a6.47,6.47,0,0,0,.92-1,2.27,2.27,0,0,0,.43-1.36,3.05,3.05,0,0,0-.39-1.47,10.19,10.19,0,0,0-.82-1.26c-.06-.06-.12-.11-.18-.18s-.11-.1-.14-.1a1.67,1.67,0,0,0-.27.14.88.88,0,0,1-.31.14,1.53,1.53,0,0,1-1.37-.55,3.37,3.37,0,0,1-.43-1.48h-.66a1.15,1.15,0,0,1,.2-.67,1.09,1.09,0,0,0,.19-.66l0-.12-.29.14-.29.14a.2.2,0,0,0-.1,0l-.1,0a1.68,1.68,0,0,0-.31-.82,6.78,6.78,0,0,0-.76-1,8.64,8.64,0,0,0-.9-.84,1.36,1.36,0,0,0-.72-.35,1.51,1.51,0,0,0-.19-.74,6.86,6.86,0,0,0-.45-.7l-.51-.68a3.73,3.73,0,0,1-.41-.68,9.4,9.4,0,0,1-.64-2.31c-.12-.8-.22-1.58-.29-2.34a6.11,6.11,0,0,1-1.17.39,4.57,4.57,0,0,1-1.17.2h-.32a.64.64,0,0,1-.29-.16.7.7,0,0,0-.29-.15A2.27,2.27,0,0,0,145.8,9a2.21,2.21,0,0,1-1.11.33,5.32,5.32,0,0,1,.15-1.27,2.85,2.85,0,0,1,.59-1.11,3.33,3.33,0,0,1,1,.31,5,5,0,0,1,.86.55.73.73,0,0,1,.51-.47,2.76,2.76,0,0,1,.82-.12,6.33,6.33,0,0,1,.86.06,5,5,0,0,0,.66.06,1.62,1.62,0,0,1,.1-.56c.06-.2,0-.34-.3-.41a1.33,1.33,0,0,0,.45-.43,4.44,4.44,0,0,0,.24-.49c.06-.17.13-.34.19-.53a2.71,2.71,0,0,1,.33-.58,9,9,0,0,1,2.25-2.17,5.56,5.56,0,0,1,3.09-.8v4.1a10.43,10.43,0,0,0-.93.9A1.71,1.71,0,0,0,155,7.49V7.8c0,.1.07.34.14.72a3.09,3.09,0,0,0,.17.72c.11-.1.21-.07.32.1a2.28,2.28,0,0,1,.25.66c.07.28.12.54.16.8s.06.42.06.47a2.19,2.19,0,0,0,.83-.16,2.58,2.58,0,0,1,.88-.15.89.89,0,0,1-.12.47,3,3,0,0,1-.25.37c-.09.11-.17.23-.25.35a.71.71,0,0,0-.12.41v.15a2.26,2.26,0,0,0,.31.24,4.76,4.76,0,0,1,.47.35l.45.37.29.25a5.07,5.07,0,0,0,1.56,1.15l1,.39a2,2,0,0,1,.77.63,6.67,6.67,0,0,1,.82,1.85.49.49,0,0,0,.28.27,2,2,0,0,0,.48.18l.47.1.26,0s.07,0,.13-.13.11-.14.14-.14l.08-.08a1.13,1.13,0,0,0,.13.65,1,1,0,0,0,.32.27c.11.07.22.13.31.2s.13.2.13.4a.63.63,0,0,1-.25.57,1.73,1.73,0,0,1-.72.25l.31,2.34L165,23c.09.07.13.12.13.18a.24.24,0,0,1,0,.11.5.5,0,0,1,0,.16.86.86,0,0,1-.15.31,1.17,1.17,0,0,0-.16.27s.05.08.16.16.15.13.15.16,0,.05,0,.15v.24a1.88,1.88,0,0,1-.13.72c-.1.22-.19.44-.3.66s-.21.45-.31.68a2.36,2.36,0,0,0-.19.7.29.29,0,0,0-.2-.07.13.13,0,0,0-.12.07c0,.06-.07.21-.13.45a1.29,1.29,0,0,1-.18.45,1.25,1.25,0,0,1-.41.18,4.88,4.88,0,0,0-.64.23,1.05,1.05,0,0,0-.47.37.58.58,0,0,0,.08.63l-2.11,2.34-.39,0a3.35,3.35,0,0,1-1.5-.27c-.35-.18-.52-.58-.52-1.21C157.64,30.56,157.64,30.39,157.66,30.17ZM145.94,10.76c0,.19-.07.28-.2.28s-.23-.09-.23-.28.07-.31.23-.31S145.94,10.56,145.94,10.76Zm3.74-6.14.23,0a1.6,1.6,0,0,1-.25.51,2.06,2.06,0,0,0-.23.31,1.25,1.25,0,0,0-.16.37,2.36,2.36,0,0,0-.06.6h-.1a.16.16,0,0,0-.09,0l-.32-.16a1.64,1.64,0,0,1-.27-.16h-.15a.94.94,0,0,0-.51.26,2.1,2.1,0,0,1-.51.33,0,0,0,0,1,0,0V6.55a1.23,1.23,0,0,1,.24-.7,2.74,2.74,0,0,1,.56-.62,2.72,2.72,0,0,1,.72-.45,1.73,1.73,0,0,1,.71-.18Zm.21,20.71a.42.42,0,0,0,0-.14,2.86,2.86,0,0,1,.12-.54l.16-.59.66-.11,1-.18,1-.18.64-.11h.63a6.63,6.63,0,0,0,.21,1,7.78,7.78,0,0,0,.47,1.33,4.9,4.9,0,0,0,.7,1.13,1.2,1.2,0,0,0,.92.49l.37.37.29.29v3.47s0,.07-.1.14a.59.59,0,0,1-.17.13.22.22,0,0,1-.16,0c-.1,0-.16,0-.16,0a.85.85,0,0,1-.31-.13,1.09,1.09,0,0,0-.27-.14.5.5,0,0,0-.16,0l-.15,0-.29.29-.3.29c-.62-.49-1.24-1-1.85-1.38a11.83,11.83,0,0,1-1.64-1.38,6.57,6.57,0,0,1-1.17-1.66,5.05,5.05,0,0,1-.45-2.24A1.24,1.24,0,0,1,149.89,25.33Zm1.35,5a.21.21,0,0,1-.12.16c-.1,0-.15,0-.15-.16s.05-.18.15-.15A.14.14,0,0,1,151.24,30.3ZM153,20l.23,0a1.16,1.16,0,0,1-.39.46,1,1,0,0,1-.51.12h-.15c-.06,0-.1,0-.12,0-.05-.28,0-.45.19-.5a1.68,1.68,0,0,1,.51-.08A1.25,1.25,0,0,1,153,20Zm.74.29q0,.27-.24.27c-.13,0-.19-.09-.19-.27s.06-.27.19-.27S153.7,20.1,153.7,20.28Zm.82-.7c-.06,0-.1,0-.12-.16s0-.12.15-.12.19,0,.16.12S154.59,19.58,154.52,19.58Zm0,11.19c0,.18.07.27.23.27s.2-.09.2-.27-.07-.31-.2-.31S154.48,30.56,154.48,30.77Zm2.8-7.88c0,.21-.07.31-.23.31s-.19-.1-.19-.31.06-.31.19-.31S157.28,22.69,157.28,22.89Zm1.45-16.81h-.16q-.07.09-.45.45l-.45.45a.3.3,0,0,1-.19.12c0-.11,0-.33,0-.67a3.72,3.72,0,0,0-.08-.62l-.31-.31V5.26c0-.15,0-.4,0-.76s.06-.73.1-1.15.07-.8.09-1.15.06-.6.08-.76h.9a6.61,6.61,0,0,1,2.11.33,16.66,16.66,0,0,0,2.06.57,2,2,0,0,0,.24.72c.18.43.39.92.62,1.48s.45,1.12.64,1.68a4.19,4.19,0,0,1,.3,1.23.92.92,0,0,1-.41.74,3.22,3.22,0,0,1-1,.49,7.6,7.6,0,0,1-1.17.25,8.71,8.71,0,0,1-1,.08.7.7,0,0,1-.57-.37,5.52,5.52,0,0,1-.47-.88l-.4-1a4.54,4.54,0,0,0-.36-.71Zm-1.6,13.65c0,.19.08.28.23.28s.24-.09.24-.28-.08-.31-.24-.31S157.13,19.53,157.13,19.73Zm.68-12.2a.5.5,0,0,1,.49-.39v.23c0,.11,0,.17,0,.2a2.77,2.77,0,0,0-.14.41c-.06.22-.11.37-.13.44a.44.44,0,0,1-.32-.31A2,2,0,0,1,157.81,7.53Zm.76,4.37v.35a.63.63,0,0,1-.58-.35Zm.27,17.35c-.1,0-.18.08-.25.23a1.29,1.29,0,0,0-.1.35h3.08l-.35-.58Zm1.72-15c0,.19-.08.28-.23.28s-.2-.09-.2-.28.07-.27.2-.27S160.56,14.05,160.56,14.23ZM160.64.9v.27L160.33.9ZM161,16.26c0,.18.08.28.23.28a.25.25,0,0,0,.28-.28c0-.2-.09-.31-.28-.31S161,16.06,161,16.26Zm3.35,3.63c-.13,0-.17,0-.11.12s.06.15.11.15.13-.05.16-.15S164.47,19.89,164.34,19.89ZM165.12,5V5.5a2.55,2.55,0,0,1-.46-.16.4.4,0,0,1-.28-.39Zm.24,15.91c0,.21-.08.32-.24.32s-.23-.11-.23-.32.08-.31.23-.31S165.36,20.66,165.36,20.86Zm.58-.58c0,.18-.08.27-.23.27s-.2-.09-.2-.27.07-.27.2-.27S165.94,20.1,165.94,20.28Z"/></g></g></svg>