<svg xmlns="http://www.w3.org/2000/svg" viewBox="0 0 106.37 20.7"><defs><style>.cls-1{fill:#2a4c9c;}</style></defs><g id="Capa_2" data-name="Capa 2"><g id="Capa_9" data-name="Capa 9"><path class="cls-1" d="M0,16.4s0-.17.09-.36.07-.31.08-.37l.4-.08.62-.11.6-.1.41-.08h.15l.15,0a2.1,2.1,0,0,0,.31,1.18,7.6,7.6,0,0,0,.7.91,8.49,8.49,0,0,1,.7.91,2.06,2.06,0,0,1,.31,1.15,1.36,1.36,0,0,1,0,.18c0,.08,0,.17,0,.26s0,.18,0,.25,0,.12,0,.14l-.35.37c0-.06-.13-.12-.34-.18L3,20.23a7.64,7.64,0,0,1-1-.37,3.39,3.39,0,0,1-1-.65,3.14,3.14,0,0,1-.72-1.07A4.15,4.15,0,0,1,0,16.5Zm4.75,3.7V20a2.35,2.35,0,0,1,0-.26.84.84,0,0,1,.06-.24c0-.07.08-.1.13-.1H7.1a.41.41,0,0,1,.05-.19.37.37,0,0,0,0-.16.22.22,0,0,0-.08-.15.7.7,0,0,0-.32-.13H6.49l-.59.09L5.3,19a1,1,0,0,0-.35.13.17.17,0,0,0,0-.26.3.3,0,0,1-.15-.28A.67.67,0,0,1,5,18.11l.58-.53a4.77,4.77,0,0,0,.57-.68,1.49,1.49,0,0,0,.26-.9,2,2,0,0,0-.15-.77,5.13,5.13,0,0,0-.37-.79,7.84,7.84,0,0,0-.48-.74c-.16-.23-.32-.44-.47-.62.17-.09.23-.15.2-.18a.42.42,0,0,1-.05-.25,2.59,2.59,0,0,1-1.39-.57,9.2,9.2,0,0,1-1.55-1.41A10.31,10.31,0,0,1,.9,8.94,3.28,3.28,0,0,1,.38,7.38V4.25A2.21,2.21,0,0,1,.74,3a3.61,3.61,0,0,1,.9-.93,4.24,4.24,0,0,1,1.18-.6,4.1,4.1,0,0,1,1.23-.22V3.83A.52.52,0,0,0,3.71,4a3.76,3.76,0,0,0-.36.41,3.15,3.15,0,0,0-.3.48,1,1,0,0,0-.13.36A3,3,0,0,0,3.3,6.69a13.27,13.27,0,0,0,.75,1.23V8.1l.46.51c.24.26.51.53.81.8a7.21,7.21,0,0,0,.87.7c.27.19.48.27.61.22l-.2.17a.7.7,0,0,0,.39.26.55.55,0,0,1,.36.29,5.26,5.26,0,0,0,.36.65c.14.22.28.43.4.65a5.08,5.08,0,0,1,.33.66,2,2,0,0,1,.13.72c.2,0,.33,0,.37.11a.66.66,0,0,1,.06.31,2.58,2.58,0,0,0,.05.43,1,1,0,0,0,.33.52v.17l-.11.09-.1.09v.1a.24.24,0,0,0,.1.21.25.25,0,0,1,.11.24s-.05.14-.13.36-.18.47-.3.74l-.33.75a3.8,3.8,0,0,1-.17.38.79.79,0,0,1-.34.18,2.26,2.26,0,0,0-.39.15.55.55,0,0,0-.25.27.71.71,0,0,0,0,.5L6.25,20.62h-.7a2.34,2.34,0,0,1-.38,0,.73.73,0,0,1-.29-.15A.42.42,0,0,1,4.75,20.1ZM.88,19.52c0,.12-.06.18-.16.18S.6,19.64.6,19.52s0-.17.12-.17A.15.15,0,0,1,.88,19.52Zm2,.28c0,.08,0,.12.1.1a.11.11,0,0,0,0-.2C2.88,19.68,2.85,19.72,2.85,19.8Zm.17.9s0,0-.07-.08,0-.07.07-.07.12,0,.1.07A.1.1,0,0,1,3,20.7Zm.53-.8q0,.18.12.18c.09,0,.13-.06.13-.18s0-.2-.13-.2S3.55,19.77,3.55,19.9Zm.62-2.2q0,.18-.12.18T3.9,17.7c0-.13.05-.2.15-.2S4.17,17.57,4.17,17.7Zm.4-14a.4.4,0,0,0-.17-.15v-2a.16.16,0,0,1,.07-.11.24.24,0,0,1,.13-.06s.09,0,.22,0h.33c.25,0,.47,0,.66,0a3.78,3.78,0,0,1,.57.1c.18.05.38.11.59.19l.75.26-.2.18A1.39,1.39,0,0,1,8,2.59a4.62,4.62,0,0,1,.41.8,4.84,4.84,0,0,1,.27.87,3.31,3.31,0,0,1,.1.76,1,1,0,0,1,0,.28,1.38,1.38,0,0,1-.17.28l-.36.07-.55.11-.55.12a2.23,2.23,0,0,1-.36,0,.24.24,0,0,1-.15,0H6.47c-.13,0-.23-.1-.31-.31S6,5.2,5.9,5a2.49,2.49,0,0,0-.44-.7,1.08,1.08,0,0,0-.86-.33A.22.22,0,0,0,4.57,3.7ZM4.9,19.35c0,.12,0,.17-.13.17s-.12-.05-.12-.17,0-.2.12-.2S4.9,19.22,4.9,19.35Zm0-6.9c0,.08,0,.12.07.1s.1,0,.1-.07a.13.13,0,0,0-.1-.13S4.88,12.37,4.88,12.45Zm.24-4.4A.17.17,0,0,1,5,8s0,0,0,0a.27.27,0,0,1,.13,0,.42.42,0,0,1,.17,0s0,0,0,0S5.22,8.05,5.12,8.05Zm.63,12.4c0,.12,0,.17.13.17s.12-.05.12-.17,0-.2-.12-.2S5.75,20.32,5.75,20.45ZM6.5,1.05S6.44,1,6.42,1s0-.08.1-.08.11,0,.08.08A.11.11,0,0,1,6.5,1.05ZM9,12.35H8.82L9,12Zm-.12,3q0,.18.12.18t.12-.18q0-.18-.12-.18T8.88,15.3Zm.5-11.75v.22A.4.4,0,0,1,9,3.55Z"/><path class="cls-1" d="M14.25,20.25a.57.57,0,0,0-.2.09.48.48,0,0,1-.2.08.22.22,0,0,1-.24-.18,2.59,2.59,0,0,1,0-.41,1.56,1.56,0,0,0-.05-.44.37.37,0,0,0-.22-.29l.17-.18s0-.09,0-.25V18.3a2,2,0,0,0-.13-.88A2.25,2.25,0,0,0,13.1,17a3.16,3.16,0,0,1-.28-.45,2.55,2.55,0,0,1-.12-.94c0-.07,0-.21,0-.43s0-.35,0-.42,0,0,.1-.08l.1-.09v-.2a.39.39,0,0,0-.28.13,1.5,1.5,0,0,0-.15.23,1,1,0,0,1-.15.2.36.36,0,0,1-.27.08s0-.18,0-.41a2.51,2.51,0,0,1,.05-.41.74.74,0,0,1,.09-.12c0-.06.08-.08.11-.08a.19.19,0,0,0,.06.12c0,.05.08.08.11.08a1.27,1.27,0,0,0,.29-.09L13.1,14l.19,0,.18,0V9.45a.92.92,0,0,1-.18-.18l-.19-.19V8.9l.2-.2V8.6a.22.22,0,0,0-.1-.21A.85.85,0,0,0,13,8.3l-.26-.06a.41.41,0,0,1-.18-.12,2.46,2.46,0,0,1-.12-.45,1.31,1.31,0,0,1-.05-.47.13.13,0,0,0-.1,0c-.07,0-.1,0-.1,0a1.26,1.26,0,0,0-.28.09,1.25,1.25,0,0,1-.27.09,1.44,1.44,0,0,1-.29-.09A1.27,1.27,0,0,0,11,7.2s0,0-.1,0h-.1v.42a.43.43,0,0,1-.36-.12.33.33,0,0,0-.29-.12h-.1l-.2.1a.51.51,0,0,0-.17.1H9.5l-.19-.09a1,1,0,0,1-.19-.11A.68.68,0,0,1,9,7.69a.32.32,0,0,1-.29.14c0-.12,0-.26,0-.43a2.63,2.63,0,0,1,.07-.49A1.33,1.33,0,0,1,9,6.49a.46.46,0,0,1,.33-.24l.38.17a1.06,1.06,0,0,0,.27.22,1.06,1.06,0,0,0,.3.16s.08,0,.18-.07a.57.57,0,0,1,.2-.11,4.05,4.05,0,0,1,.8-.17,3.46,3.46,0,0,0,.8-.19,1.5,1.5,0,0,0,.62-.41A1.22,1.22,0,0,0,13.12,5l0-.08s0,0-.09-.09l-.09-.1c0-.21,0-.32.1-.34a.59.59,0,0,1,.23,0,.51.51,0,0,0,.22,0c.07,0,.1-.14.1-.33V1l.78-.09L15,.8l.56-.05H16V5.3h-.33a.23.23,0,0,1,0,.09.08.08,0,0,0,0,.09l.23.19a1.54,1.54,0,0,1,.22.21v3.2l.48-.38h3.22a.16.16,0,0,1,.15.09.43.43,0,0,1,.07.2.74.74,0,0,1,0,.21c0,.07,0,.11,0,.13s0,.34,0,.59a4.54,4.54,0,0,1,0,.74,2.43,2.43,0,0,1-.16.67.71.71,0,0,1-.4.4,1.67,1.67,0,0,1-.39,0l-.69-.12-.72-.16a3.85,3.85,0,0,0-.48-.07.46.46,0,0,0-.18.09l-.19.11a.36.36,0,0,1-.18,0h-.1V9.85L16,10V20.25a.38.38,0,0,1-.11.19,1.85,1.85,0,0,1-.16.18h-.1a.65.65,0,0,1-.48-.2.69.69,0,0,0-.52-.19ZM11.91,5l-.21.21a.72.72,0,0,0-.16.25.59.59,0,0,0,.06.43,1.18,1.18,0,0,0-.29-.17,1.06,1.06,0,0,0-.29,0,.36.36,0,0,0-.31.12.39.39,0,0,1-.31.11.81.81,0,0,1,.16-.48A2,2,0,0,1,11,5a2.73,2.73,0,0,1,.54-.27,1.48,1.48,0,0,1,.51-.1A.45.45,0,0,1,11.91,5ZM11,14.2v.18l-.2-.18Zm.13-.58c0,.12,0,.18-.13.18s-.15-.06-.15-.18.05-.2.15-.2S11.15,13.49,11.15,13.62Zm.27,2.64a.75.75,0,0,0,.19-.17l.18-.21a.28.28,0,0,1,.21-.11.51.51,0,0,0,0-.26s0-.1.19-.18v1.32a.22.22,0,0,1-.1.18,1.26,1.26,0,0,1-.23.13l-.25.13a.35.35,0,0,0-.17.14s-.05.07-.09.18a.41.41,0,0,1-.11.19.3.3,0,0,1-.1,0,.24.24,0,0,1-.1,0,.93.93,0,0,1,0-.13,1,1,0,0,0,0-.14,1.31,1.31,0,0,1,0-.23c0-.09,0-.21.06-.33a2.73,2.73,0,0,0,.06-.34,1.2,1.2,0,0,0,0-.23A.21.21,0,0,0,11.42,16.26Zm-.07-3c0,.12,0,.17-.15.17s-.13-.05-.13-.17,0-.2.13-.2S11.35,13.12,11.35,13.25Zm.2,5.13c0,.11-.05.17-.15.17s-.15-.06-.15-.17.05-.21.15-.21S11.55,18.24,11.55,18.38Zm-.1.53h.15l.17.18s0,0-.1,0-.07,0-.07,0-.07,0-.11-.08l-.09-.1Zm.12-4.51a.43.43,0,0,1,0-.2,2.9,2.9,0,0,1,.09.36c0,.19.07.32.08.39v.17c-.13,0-.2-.1-.2-.22v-.5Zm.53-8.32c0,.11,0,.17-.13.17s-.15-.06-.15-.17,0-.2.15-.2S12.1,5.94,12.1,6.08Zm0,11.15c0,.11,0,.17-.13.17s-.15-.06-.15-.17,0-.21.15-.21S12.1,17.09,12.1,17.23Zm.15,2c-.05,0-.08,0-.1-.1s0-.08.1-.08.12,0,.1.08S12.3,19.2,12.25,19.2Zm.1-5.78v.2h-.2v-.2Zm.12-8.12q0,.18-.12.18T12.2,5.3c0-.13.05-.2.15-.2S12.47,5.17,12.47,5.3Zm.2,12.15a.6.6,0,0,1,.5-.2c0,.13,0,.35,0,.64a1,1,0,0,1-.23.66l-.07.05s0,0-.08,0,0-.1,0-.22a.73.73,0,0,0,0-.23s0-.05-.1-.09l-.1-.1A.86.86,0,0,1,12.67,17.45ZM12.72,7q.45-.07.45-.45Q12.8,6.55,12.72,7Zm.33,6.25c0,.12,0,.17-.13.17s-.15-.05-.15-.17.05-.2.15-.2S13.05,13.12,13.05,13.25Zm-.08,3c0,.12,0,.18.13.18s.15-.06.15-.18-.05-.19-.15-.19S13,16.14,13,16.27Zm.23-.47c0,.08,0,.12.1.1a.11.11,0,0,0,0-.2C13.23,15.68,13.2,15.72,13.2,15.8Zm.15.47q0,.18.12.18t.15-.18c0-.13,0-.19-.15-.19S13.35,16.14,13.35,16.27Zm3-9.92s0,.06-.08.07-.1,0-.1-.07,0-.12.1-.1A.11.11,0,0,1,16.4,6.35Zm0,1.7s0,.06-.08.07-.1,0-.1-.07,0-.12.1-.1A.11.11,0,0,1,16.4,8.05Zm0,4.74c0,.32,0,.67,0,1s0,.68,0,1a6.21,6.21,0,0,1-.05.68c0,.09,0,.05-.05-.11s0-.38,0-.66,0-.59,0-.92,0-.67,0-.95,0-.51,0-.67,0-.19.05-.11A6.23,6.23,0,0,1,16.37,12.79Zm.5-12h.78a.68.68,0,0,0,.17-.09A.48.48,0,0,1,18,.58a.19.19,0,0,1,.12.06.17.17,0,0,1,.06.11.22.22,0,0,1,.2-.19h.27a.75.75,0,0,1,.4.11.67.67,0,0,0,.38.11.34.34,0,0,0,.29-.11A.45.45,0,0,1,20.1.55h.22q.15,0,.15,0a.44.44,0,0,1,.2.08.66.66,0,0,0,.18.09s.07,0,.11-.09.07-.08.09-.08a.77.77,0,0,1,.22-.06l.23,0v.77a3.73,3.73,0,0,1,0,.5,3.65,3.65,0,0,1-.07.46q0,.23-.15.6c0,.08-.1.27-.2.57l-4.73.1L16.5.58A.7.7,0,0,0,16.87.76Zm-.55,16.47a1.61,1.61,0,0,0,.55.33,2.35,2.35,0,0,0,.58.06h.32A.25.25,0,0,0,18,17.4H20.3a.39.39,0,0,0,.09.11l.08.09h.1a.3.3,0,0,0,.27-.1c0-.07.14-.1.31-.1h.27a.73.73,0,0,0-.11.19.59.59,0,0,0-.06.18,1.27,1.27,0,0,0,.09.29,2,2,0,0,1,.08.29s0,.06,0,.14a1.1,1.1,0,0,1,0,.16,2.11,2.11,0,0,1-.09.45c-.06.22-.12.44-.19.66a4.67,4.67,0,0,1-.2.6c-.06.18-.1.26-.12.26H18.2a1,1,0,0,0-.44-.33,1.88,1.88,0,0,0-.51-.06,2,2,0,0,0-.43,0,.54.54,0,0,0-.32.35q0-.16,0-.63c0-.31,0-.64-.06-1s0-.66-.06-1,0-.52,0-.65v-.17ZM16.7,4l-.2.17V4Zm0,3.4-.2.2V7.2Zm0,8.52-.2.18V15.9Zm.52-11a.51.51,0,0,0,0,.09l0,.09a.68.68,0,0,0,.1.2c.07.1.1.16.08.18a1.58,1.58,0,0,1-.15.23l-.23.34a.32.32,0,0,1-.1.11s-.07.07-.07.09h-.2q.12-.33.21-.66c.06-.23.11-.45.16-.67Zm0,2.66c0,.11,0,.17-.15.17S17,7.69,17,7.58s0-.2.12-.2S17.22,7.44,17.22,7.58Zm.1-1.16a1.22,1.22,0,0,1-.25.78V6.42ZM22.17,0V.38A.41.41,0,0,1,22,0Zm2,7.2q0,.18-.15.18T24,7.2c0-.13,0-.2.12-.2S24.22,7.07,24.22,7.2Zm.5.65s0,0-.07-.1,0-.08.1-.08.11,0,.07.08S24.77,7.85,24.72,7.85Z"/><path class="cls-1" d="M23,7.64a1.43,1.43,0,0,1-.62.16.52.52,0,0,1,.3-.54,2,2,0,0,1,.65-.11A.52.52,0,0,1,23,7.64Zm1.58-1.22c-.15.2-.28.36-.38.47a.7.7,0,0,1-.52.16.51.51,0,0,1,.24-.5,1.32,1.32,0,0,1,.59-.13ZM26,19c0-.66,0-1.37.06-2.12s0-1.45.05-2.11,0-1.12,0-1.39c0-.09,0-.36,0-.8s0-.89-.06-1.37,0-.94-.07-1.37,0-.71,0-.8a.93.93,0,0,0-.1-.52l-.21-.25a.87.87,0,0,1-.2-.3,1.29,1.29,0,0,1,0-.63h-.2L25,7.46a.62.62,0,0,0-.19.12.7.7,0,0,1,0-.2c0-.11,0-.17,0-.21A.66.66,0,0,1,25,6.71l.4-.37a5,5,0,0,0,.4-.4A.76.76,0,0,0,26,5.4V5.3s0-.07,0-.18a1.36,1.36,0,0,0-.06-.29l-.06-.29a1.12,1.12,0,0,1,0-.19.57.57,0,0,1,.07-.2c0-.1.08-.16.11-.17V.75S26,.7,26.17.66l.35-.11h.2A.27.27,0,0,1,27,.73a2,2,0,0,1,.12.39,2.75,2.75,0,0,0,.12.4.23.23,0,0,0,.23.18,2.27,2.27,0,0,0,.59-.06.89.89,0,0,0,.35-.18,1.48,1.48,0,0,0,.25-.25A1.37,1.37,0,0,1,29,1V4.73a1.58,1.58,0,0,1,.22.63,2.66,2.66,0,0,1,0,.69l.52.15a3.82,3.82,0,0,1,.67.28,2.55,2.55,0,0,1,.59.4.8.8,0,0,1,.3.5.43.43,0,0,0-.2,0,.42.42,0,0,0-.18,0,.72.72,0,0,0-.17.1.68.68,0,0,1-.2.1.71.71,0,0,1-.21-.18.65.65,0,0,1-.17-.23.62.62,0,0,1-.53.34H29c0,.1,0,.24,0,.41a3.25,3.25,0,0,1,0,.54A2.09,2.09,0,0,1,28.9,9a.43.43,0,0,1-.3.31l.37.56V14.2l.4.75a2.57,2.57,0,0,0-.5.15,3.17,3.17,0,0,0-.45.23l.95.94-.4.38s0,.17,0,.4-.05.52-.08.86,0,.61-.06.82v.12c0,.08,0,.14.07.16l.18.08a.39.39,0,0,1,.17.11.34.34,0,0,1,.08.25.52.52,0,0,0-.4.14,2.79,2.79,0,0,0-.24.31,1.68,1.68,0,0,1-.27.34.79.79,0,0,1-.54.18H26.32l-.18.09a.58.58,0,0,0-.19.11h.2l-.2-.2Q26,20,26,19Zm-.81-13H25l.2-.2Zm.27-.65s0,.06-.07.08-.1,0-.1-.08,0-.12.1-.1A.1.1,0,0,1,25.47,5.4Zm.35,1.43c0,.11.05.17.13.17s.15-.06.15-.17-.05-.21-.15-.21S25.82,6.69,25.82,6.83Zm.5-5.33a.64.64,0,0,0,.2.2s.07-.12.12-.28.07-.25.08-.3V.75a.78.78,0,0,0-.28.29.68.68,0,0,0-.12.38Zm.05,12.12q0,.18.15.18t.15-.18c0-.13-.05-.2-.15-.2S26.37,13.49,26.37,13.62ZM27,9.27q0,.18.15.18t.12-.18c0-.13,0-.19-.12-.19S27,9.14,27,9.27Zm.46,2.9a1,1,0,0,0,.44.12l.52,0a.63.63,0,0,1,.43.17V12.3a1.84,1.84,0,0,1-.09-.19,1,1,0,0,0-.11-.19l-.23,0L28,11.81l-.34-.06a1.11,1.11,0,0,0-.23,0h-.25C27.22,12,27.29,12.11,27.41,12.17Zm1.24-.82c0,.13.05.2.15.2s.12-.07.12-.2,0-.2-.12-.2S28.65,11.22,28.65,11.35Zm1,1.17a1.21,1.21,0,0,1-.27-.65,3.28,3.28,0,0,1,0-.83c0-.29,0-.46,0-.53s0-.31,0-.53a1,1,0,0,1,0-.34l2.08-.58a6.63,6.63,0,0,1,.35-1.24A3.58,3.58,0,0,0,32,6.52a6.33,6.33,0,0,0-.12-1.34,2.05,2.05,0,0,0-.41-.88,1.9,1.9,0,0,0-.77-.55,5.88,5.88,0,0,0-1.17-.35s-.07,0-.11-.08a.19.19,0,0,1-.07-.12V1l.29,0,.46-.06L30.59.8a1.61,1.61,0,0,0,.28-.05.44.44,0,0,0,.2-.1.55.55,0,0,1,.18-.1,2.54,2.54,0,0,1,.86.16,2.65,2.65,0,0,1,.81.45,1.76,1.76,0,0,1,.54.72,1.39,1.39,0,0,1,.06,1l.09-.19a.73.73,0,0,1,.11-.19l.1,0,.08,0,.19.28.23.36a2.4,2.4,0,0,1,.22.37c.05.13.1.23.13.31a5.72,5.72,0,0,1,.13.85c0,.37.07.75.12,1.13s.12.73.19,1a1,1,0,0,0,.31.59,1.31,1.31,0,0,0-.6.71c-.13.34-.27.71-.41,1.12a11.86,11.86,0,0,1-.52,1.25A2.88,2.88,0,0,1,33,11.55v.18a1.14,1.14,0,0,0,.26.6,1.5,1.5,0,0,1,.31.55,2.65,2.65,0,0,1,.13.87,1.45,1.45,0,0,0,.25.83l.11.08q.09.06.09.09A.57.57,0,0,1,34,15a.78.78,0,0,1-.11.17v.21a5.79,5.79,0,0,0,.32.68,2,2,0,0,1,.25.64c.07.32.12.58.17.8a3.27,3.27,0,0,0,.16.6,2.73,2.73,0,0,0,.29.56,7.39,7.39,0,0,0,.51.69.19.19,0,0,1,.07.12.69.69,0,0,0-.43.12,1,1,0,0,0-.29.29,2.73,2.73,0,0,0-.23.38,2,2,0,0,1-.25.41l-.37-.37c-.07.23-.18.35-.35.36h-.5a3.68,3.68,0,0,1-.66-.06.93.93,0,0,1-.57-.33.45.45,0,0,1,0-.29,2.27,2.27,0,0,0,0-.29c-.26-1.2-.56-2.39-.88-3.58s-.61-2.39-.84-3.61Q29.82,12.76,29.61,12.52Zm-.06-8.37v.2l-.18-.2Zm.05,2.68c0,.11,0,.17.15.17s.12-.06.12-.17,0-.21-.12-.21S29.6,6.69,29.6,6.83Zm0,5.29q0,.18.15.18t.12-.18c0-.13,0-.2-.12-.2S29.6,12,29.6,12.12Zm1.9,2.46c0,.11,0,.17.12.17s.15-.06.15-.17-.05-.2-.15-.2S31.5,14.44,31.5,14.58ZM32,14.2s0,.05.08.09l.1.09a.28.28,0,0,0,0-.11.12.12,0,0,0,0-.07l-.09-.11L32,14a.26.26,0,0,0,0,.2Zm.8-10.8c0,.13,0,.2.13.2s.15-.07.15-.2-.05-.2-.15-.2S32.82,3.27,32.82,3.4Zm1,2.65c0,.13,0,.2.13.2s.15-.07.15-.2,0-.2-.15-.2S33.77,5.92,33.77,6.05ZM34.1,1.7l-.2.18V1.7Zm1.5,3V5a.38.38,0,0,1-.38-.22Zm-.18,11.92-.2.2v-.2Z"/><path class="cls-1" d="M44.89,20.12a2.46,2.46,0,0,0-.27.17,1.87,1.87,0,0,1-.28.16.87.87,0,0,1-.37.07v-1l1.28-9.27h-.33s0,0-.08.12a1.55,1.55,0,0,0-.12.31c0,.13-.06.25-.1.38a3.12,3.12,0,0,0-.07.31v1.9c0,.33-.08.74-.14,1.21s-.12,1-.19,1.49-.13,1-.2,1.54-.13,1-.18,1.36l-.15,1a3.85,3.85,0,0,1-.09.41l-.18.17a.45.45,0,0,0,0-.25l-.13-.31-.15-.31a1.43,1.43,0,0,1-.1-.25L41.52,11a.5.5,0,0,0-.05-.17l-.1-.3a2.09,2.09,0,0,0-.11-.3,1,1,0,0,0-.11-.19.75.75,0,0,0-.23-.17.2.2,0,0,0-.13,0l-.15,0a.56.56,0,0,1-.24,0l-.53-.21q-.42-.2-.87-.45a4.29,4.29,0,0,1-.75-.55c-.2-.19-.24-.36-.13-.49l-.18.06-.3.13-.3.12-.17.06a.46.46,0,0,0-.18.34.26.26,0,0,1-.29.24h-.1l.2-.37h-.95a1,1,0,0,1,.19-.4,2.37,2.37,0,0,1,.35-.42,3.45,3.45,0,0,1,.36-.32A1.94,1.94,0,0,0,37,7.4a.33.33,0,0,0,.43,0L37.79,7a1.48,1.48,0,0,1,.51-.38.92.92,0,0,1,.77,0,1.94,1.94,0,0,1,.3-.57l.39-.45a3.87,3.87,0,0,0,.33-.4.77.77,0,0,0,.13-.45,4.85,4.85,0,0,0-.1-1q-.09-.5-.21-1c-.07-.32-.15-.65-.21-1a4.78,4.78,0,0,1-.1-1h2.5a.58.58,0,0,1,.19-.11l.18-.08h.18c0,.26,0,.57.07.91s.09.68.15,1a5.27,5.27,0,0,0,.28,1,2,2,0,0,0,.45.71v.21a.93.93,0,0,1-.09.17.57.57,0,0,0-.09.2.87.87,0,0,0,0,.14c0,.07,0,.15.06.23a1.4,1.4,0,0,1,.06.24.87.87,0,0,1,0,.14V6.83a1.27,1.27,0,0,0,.19.42c.1.18.22.37.33.56s.23.38.33.55a1,1,0,0,1,.15.37h-.2a1.12,1.12,0,0,0,.14.47.42.42,0,0,0,.38.3.51.51,0,0,0,.42-.21,1.53,1.53,0,0,0,.23-.5,2.94,2.94,0,0,0,.1-.58,4.39,4.39,0,0,0,0-.44c0-.1,0-.24,0-.43s0-.31,0-.34a.68.68,0,0,0-.08-.17.52.52,0,0,1-.09-.21,1.84,1.84,0,0,1,.1-.6l.22-.62.25-.63a2.45,2.45,0,0,0,.18-.6c0-.11,0-.33.11-.66s.12-.67.19-1,.12-.71.17-1,.09-.54.1-.68h2.65c0,.19.08.38.13.59a1.35,1.35,0,0,0,.25.54.34.34,0,0,0-.34.15,1.81,1.81,0,0,0-.24.44,2.47,2.47,0,0,0-.13.52c0,.18,0,.32-.07.41v1.5a1,1,0,0,1-.17.29,2.15,2.15,0,0,0-.2.29v.27a.71.71,0,0,0,.1.39.81.81,0,0,1,.1.39v.07l-.1.21L48.7,7a3.28,3.28,0,0,0-.09.44q-.06.36-.09.51a.13.13,0,0,1,0,.06.2.2,0,0,0,0,.07l0,.07s0,0,.08.1.08.08.1.08a.48.48,0,0,1,.1-.24A2.19,2.19,0,0,1,49,7.74c.09-.13.17-.24.26-.35a.87.87,0,0,1,.17-.19l-.2-.2L50,6.83a.78.78,0,0,0,.07.29s0,.08.08.08a.24.24,0,0,0,.13,0,.54.54,0,0,1,.2,0A.3.3,0,0,0,50.44,7c0-.07-.06-.12,0-.15l.19-.21a1.1,1.1,0,0,1,.18-.17,2.17,2.17,0,0,1,0,.47V7.4a4.38,4.38,0,0,1-.08.93,1.44,1.44,0,0,1-.18.47.68.68,0,0,1-.25.21.87.87,0,0,0-.25.15.6.6,0,0,0-.19.28,1.63,1.63,0,0,0-.08.58h-.12v.78h0a3.19,3.19,0,0,0-.13-.89,1,1,0,0,0-.59-.64.82.82,0,0,0-.2.24l-.21.32a1,1,0,0,1-.25.22A.26.26,0,0,1,48,10a.27.27,0,0,0,.24.23.72.72,0,0,0,.33,0,1.26,1.26,0,0,0-.11.37,3.68,3.68,0,0,1-.09.38s0,.12,0,.28a.87.87,0,0,1,0,.29s0,0-.08.11l-.19.18-.19.17-.11.11a2.36,2.36,0,0,0-.18.55c0,.24-.08.48-.11.74l-.06.76q0,.38,0,.6a.33.33,0,0,0,.08.22,1.06,1.06,0,0,0,.15.15l.15.13a.26.26,0,0,1,.07.18.65.65,0,0,0-.68.39,3.29,3.29,0,0,0-.23.83c0,.31-.09.58-.14.84s-.19.39-.42.39a.56.56,0,0,1-.08.14c-.05.07-.06.12,0,.13a.56.56,0,0,0,.27.12,1.49,1.49,0,0,0,.3.06.93.93,0,0,0-.27.54c0,.21-.06.42-.09.63a2.09,2.09,0,0,1-.15.62,1,1,0,0,1-.44.48.35.35,0,0,1-.16-.16c0-.06-.05-.12-.07-.19a.4.4,0,0,0-.13-.16.58.58,0,0,0-.31-.06A.74.74,0,0,0,44.89,20.12ZM36.05,9.27h-.2l.2-.37Zm.32-1.5q0,.18-.15.18t-.12-.18c0-.13,0-.19.12-.19S36.37,7.64,36.37,7.77ZM38.72,8c0,.11.05.17.15.17S39,8.09,39,8s-.05-.21-.15-.21S38.72,7.84,38.72,8ZM39,7.12s.09.08.12.08a.66.66,0,0,0,.18-.09l.2-.11.21-.08L40,6.81l.34-.11.23-.08,0-.07s0-.06-.11-.13l-.25-.21L40,6a.75.75,0,0,1-.15-.13,1.25,1.25,0,0,1-.15.31,1,1,0,0,1-.22.26l.17.17L38.87,7A.19.19,0,0,0,39,7.12Zm.17.48c0,.12.05.17.13.17s.15,0,.15-.17,0-.2-.15-.2S39.12,7.47,39.12,7.6Zm.55-1.9q0,.18.15.18c.09,0,.13-.06.13-.18s0-.2-.13-.2S39.67,5.57,39.67,5.7ZM40,8.17c.09.1.16.16.21.16a.6.6,0,0,0,.3-.06.68.68,0,0,0,.27-.12L40,7.77,39.82,8A.64.64,0,0,0,40,8.17Zm4.08-1.82s-.08,0-.1-.1,0-.08.1-.08.12,0,.1.08S44.12,6.35,44.07,6.35Zm.65,13h.2v-.2Zm.58,1.12v.2l-.18-.2Zm.05-.92c0,.12,0,.17.15.17s.12-.05.12-.17,0-.2-.12-.2S45.35,19.37,45.35,19.5Zm1.8-1.7q0,.18-.15.18c-.08,0-.13-.06-.13-.18s.05-.2.13-.2S47.15,17.67,47.15,17.8Zm.17-1.32c0,.11,0,.17-.12.17s-.15-.06-.15-.17.05-.21.15-.21S47.32,16.34,47.32,16.48Zm1-7.52c0,.18,0,.31,0,.42a.34.34,0,0,0,.34-.23,1.14,1.14,0,0,0,.09-.42s0,0-.1,0A.27.27,0,0,0,48.31,9Zm.54,1.46q0,.18-.15.18c-.09,0-.13-.06-.13-.18s0-.19.13-.19S48.85,10.29,48.85,10.42Zm.8,1.13-.38.1-.37.1h-.23a.84.84,0,0,1,0-.1c0-.05,0-.08,0-.1a1.32,1.32,0,0,1,.09-.19.63.63,0,0,1,.11-.19Zm-.75,2.18v.1l-.09.09c0,.06-.08.08-.11.08v-.17a.51.51,0,0,1,.2-.21Zm.07-.58s0,0-.07-.1,0-.07.1-.07.11,0,.07.07S49,13.15,49,13.15Zm.38-7.73s0,.06-.08.08-.1,0-.1-.1,0-.12.1-.1A.15.15,0,0,1,49.35,5.42Zm.25,1.23c0,.12,0,.18-.13.18s-.15-.06-.15-.18,0-.2.15-.2S49.6,6.52,49.6,6.65Zm0-3.42v.19h-.18V3.23Zm.15,7.94q0,.18-.15.18c-.09,0-.13-.06-.13-.18s0-.19.13-.19S49.8,11,49.8,11.17Zm.37.21c0,.11-.05.17-.15.17s-.12-.06-.12-.17,0-.21.12-.21S50.17,11.24,50.17,11.38ZM50.12,3s0,.08-.1.1S50,3,50,3s0-.12.07-.1S50.12,2.9,50.12,3ZM50,8.73l.58-.58H50Zm.33,1.69c0,.12,0,.18-.13.18s-.15-.06-.15-.18,0-.19.15-.19S50.35,10.29,50.35,10.42Zm-.23-2.75c0,.09,0,.12.1.1a.09.09,0,0,0,.08-.1.09.09,0,0,0-.08-.09C50.16,7.56,50.12,7.59,50.12,7.67Zm.18,2a.19.19,0,0,1-.08.18s0,0-.07,0a.29.29,0,0,1,0-.14.38.38,0,0,1,0-.16s0,0,.07,0A.21.21,0,0,1,50.3,9.67Z"/><path class="cls-1" d="M54.25.88H56c0-.17,0-.26.16-.28a1.52,1.52,0,0,1,.29,0h.29q.21,0,.21.21V5.33a2.11,2.11,0,0,1,.17.61,5,5,0,0,1,0,.61c0,.33,0,.62,0,.86a8.39,8.39,0,0,1-.16.94.48.48,0,0,0,.1.09s.07.07.07.08,0,0,0,.06a.08.08,0,0,1,0,0,.45.45,0,0,1,0,.11.46.46,0,0,1-.07.18,1.93,1.93,0,0,0-.1.19v8.13a2.19,2.19,0,0,1,.18.79c0,.25,0,.53,0,.83s0,.38,0,.57A2.2,2.2,0,0,1,57,20a.89.89,0,0,1-.28.45.81.81,0,0,1-.57.17.67.67,0,0,1-.3-.06,1.23,1.23,0,0,1-.25-.14l-.28-.13a.87.87,0,0,0-.32-.06,2,2,0,0,0-.45,0,.46.46,0,0,0-.3.35Zm.2,1a2.69,2.69,0,0,0,.13.32.75.75,0,0,0,.24.26V2.3s0-.1-.1-.2a1,1,0,0,0-.1-.18l-.1,0Zm3,5.48c.06,0,.1,0,.1.1s0,.08-.1.1-.08,0-.08-.1S57.4,7.38,57.45,7.4Z"/><path class="cls-1" d="M58.8,4.54h.12a.78.78,0,0,1-.24.33.62.62,0,0,1-.31.07h-.2c0-.2,0-.32.13-.36a1,1,0,0,1,.35-.07Zm.45.21c0,.13,0,.2-.13.2S59,4.88,59,4.75s.05-.2.15-.2S59.25,4.62,59.25,4.75Zm.37-2.25c0,.12,0,.17-.12.17s-.15,0-.15-.17,0-.2.15-.2S59.62,2.37,59.62,2.5Zm.2,1.7q0,.18-.15.18t-.12-.18c0-.13,0-.2.12-.2S59.82,4.07,59.82,4.2Zm.63-.4h-.2V3.62Zm2.07,14.37a1.07,1.07,0,0,1,.36-.15,1.05,1.05,0,0,1,.39,0l-.17-.38a1.3,1.3,0,0,1-.33.06,1.89,1.89,0,0,1-.41,0,.86.86,0,0,1-.37-.13.47.47,0,0,1-.22-.29c0-.27,0-.69,0-1.25s0-1.21,0-1.92,0-1.45,0-2.22,0-1.52,0-2.23,0-1.34,0-1.91,0-1,0-1.25A1.4,1.4,0,0,0,61.49,6l-.19-.46a4.89,4.89,0,0,1-.19-.46A1.72,1.72,0,0,1,61,4.55h-.33a.41.41,0,0,0-.22-.38,1.37,1.37,0,0,0,.76-.63,8.49,8.49,0,0,1,.56-.87,5.68,5.68,0,0,1,1.75-1.51A5.7,5.7,0,0,1,64.61.71,4,4,0,0,1,65.72.55V3.42c0,.25.07.41.2.48a2.23,2.23,0,0,0,.43.16,1.34,1.34,0,0,1,.4.19c.11.08.16.25.12.5H64.4V6.27s.07,0,.11.08l.09.1v.2a1,1,0,0,0-.1.18,1.93,1.93,0,0,0-.1.19v.1a.21.21,0,0,0,.1.21c.06,0,.1.11.1.25a3.22,3.22,0,0,1-.1.75,2.8,2.8,0,0,0-.1.77v.17a.45.45,0,0,1,.47-.44.64.64,0,0,1-.07.34,1.37,1.37,0,0,1-.17.23c0,.07-.11.14-.16.22a.6.6,0,0,0-.07.3.55.55,0,0,0,.11.41.49.49,0,0,1,.11.37,2.57,2.57,0,0,1-.11.78,2.39,2.39,0,0,0-.11.82,2.34,2.34,0,0,0,.1.78,2.06,2.06,0,0,1,.1.65v.1s0,.1,0,.21,0,.22-.07.35,0,.24-.07.36,0,.18,0,.2a.57.57,0,0,0,.09.2.84.84,0,0,0,.11.18v.19a2.65,2.65,0,0,0-.1.29c0,.16-.09.26-.1.29v.1a.66.66,0,0,0,.21.5l.45.39a4.28,4.28,0,0,1,.45.4.67.67,0,0,1,.21.49v2.27a.62.62,0,0,1-.06.19.63.63,0,0,1-.11.18h-.2l-.18-.1a1.78,1.78,0,0,1-.2-.1h-.1a.24.24,0,0,0-.21.1c0,.07-.13.1-.26.1h-.18a4.49,4.49,0,0,0-.55-.51l-.56-.47a2.27,2.27,0,0,1-.44-.54,1.42,1.42,0,0,1-.17-.7S62.51,18.29,62.52,18.17ZM61.21,2.39a.34.34,0,0,1,0,.09s0,.1,0,.19a3.08,3.08,0,0,1-.2.47c-.1.19-.16.28-.18.28h-.2L61.2,2.3A.34.34,0,0,0,61.21,2.39Zm.51-.84q0,.18-.15.18t-.12-.18c0-.13,0-.2.12-.2S61.72,1.42,61.72,1.55Zm.5,16.53a.09.09,0,0,1-.07.09c-.07,0-.1,0-.1-.09s0-.12.1-.1S62.22,18,62.22,18.08Zm.73.3c0,.11,0,.17.15.17s.12-.06.12-.17,0-.21-.12-.21S63,18.24,63,18.38ZM63.6.8c0,.12,0,.18-.13.18S63.32.92,63.32.8s0-.2.15-.2S63.6.67,63.6.8Zm1.15,4.9q0,.18-.15.18t-.15-.18c0-.13,0-.2.15-.2S64.75,5.57,64.75,5.7Zm.12,2.35A.08.08,0,0,1,64.8,8c0-.07,0-.1.07-.1s.12,0,.1.1A.1.1,0,0,1,64.87,8.05Zm.35-3.47c0,.11,0,.17.13.17s.15-.06.15-.17,0-.2-.15-.2S65.22,4.44,65.22,4.58Zm.13-.41h.2L65.35,4Zm.47.31c-.08,0-.11,0-.1.07s0,.1.1.1.09,0,.1-.1S65.91,4.48,65.82,4.48Zm2.23,2.35a5.83,5.83,0,0,1-.4-1.08c-.12-.42-.23-.83-.33-1.25a5,5,0,0,0-.27-.88.37.37,0,0,0-.24-.22l-.31-.09a.77.77,0,0,1-.28-.12.4.4,0,0,1-.12-.34V.55a5.3,5.3,0,0,1,1.65.24,9,9,0,0,0,1.57.36l.75,1.52a1.82,1.82,0,0,1,.3.07.91.91,0,0,1,.28.11v.2l-.11.19a.46.46,0,0,0-.09.18s0,.06.1.1.1.09.1.1c0,.24,0,.39,0,.46s0,.3,0,.44a.67.67,0,0,1-.21.43V6.88A1.72,1.72,0,0,0,70,7a6.29,6.29,0,0,0-.63.19c-.23.07-.43.15-.62.22a1.74,1.74,0,0,0-.42.22V7.4a.64.64,0,0,1,.2-.2C68.37,7.25,68.2,7.12,68.05,6.83Zm-.3,11.26a1,1,0,0,0,.47.11.2.2,0,0,1,0,.07.28.28,0,0,0,0,.08.79.79,0,0,0-.12.13l-.08.07a1,1,0,0,1-.29-.1,1,1,0,0,0-.29-.1.68.68,0,0,0-.3,0,.11.11,0,0,0-.07.11.3.3,0,0,0,0,.12.34.34,0,0,1,0,.18.88.88,0,0,1,.5.11l.28.25a1.25,1.25,0,0,0,.3.25.85.85,0,0,0,.55.09l0,.08s0,0,0,.09l-.28.29-.27.29a.9.9,0,0,0-.1.19.89.89,0,0,1-.1.18h-.18l-.2-.11a.5.5,0,0,0-.2-.09l-.17.1a.49.49,0,0,1-.2.1h-.18a.83.83,0,0,1-.2,0,1.44,1.44,0,0,1-.25-.08.78.78,0,0,1-.22-.12.19.19,0,0,1-.1-.15V18.17c0-.05.05-.08.15-.11a2.66,2.66,0,0,1,.35,0L67,18h.26A1,1,0,0,1,67.75,18.09ZM67.82,0V.23h-.2V0ZM68,15.9c0,.13,0,.2-.13.2s-.15-.07-.15-.2,0-.2.15-.2S68,15.77,68,15.9Zm0,3.7c-.09,0-.11,0-.08.07s0,.1.08.1.08,0,.1-.1S68,19.6,67.9,19.6Zm.85-3.12a.6.6,0,0,1-.34-.29,1.14,1.14,0,0,1-.06-.39.43.43,0,0,1,.06-.24.75.75,0,0,1,.15-.16,1.06,1.06,0,0,0,.15-.15.32.32,0,0,0,.06-.2.09.09,0,0,0,0-.05.09.09,0,0,1,0-.05,1.38,1.38,0,0,1-.37.11l-.38.09h-.18V13.62H68.9a1,1,0,0,0,.14.61.9.9,0,0,0,.33.25c.14,0,.28.1.44.14a1,1,0,0,1,.46.33.78.78,0,0,1,.1.3h-.85v.27h.93v1l-.38.17a3,3,0,0,1,.17.55,4,4,0,0,1,0,.53.62.62,0,0,1-.67.65c-.12,0-.19,0-.22-.09s0-.14-.06-.23a2,2,0,0,0,0-.26.27.27,0,0,0-.15-.2s-.06,0-.12-.08l-.24-.11-.25-.11-.14-.07a.48.48,0,0,0-.1-.09A.15.15,0,0,1,68.2,17Zm-.55.17h-.38a.36.36,0,0,1,.38-.23Zm-.15-2c0,.12,0,.17.15.17s.12,0,.12-.17,0-.2-.12-.2S68.05,14.47,68.05,14.6ZM68.47,19s0,.07-.1.1-.07,0-.07-.1,0-.11.07-.1S68.47,19,68.47,19Zm0-3.29c0,.11,0,.17.15.17s.13-.06.13-.17,0-.21-.13-.21S68.42,15.59,68.42,15.73ZM68.75,17H69l-.2-.17Zm.32,1.15q0,.18-.12.18t-.15-.18c0-.13,0-.19.15-.19S69.07,18,69.07,18.17Zm.25.95H69.1a.41.41,0,0,1,.22-.39Zm-.15-2.07q0,.18.15.18t.15-.18c0-.13,0-.2-.15-.2S69.17,16.92,69.17,17.05Zm.51-3.53a1.37,1.37,0,0,1,.47-.1.94.94,0,0,1-.09.43.36.36,0,0,1-.36.17.82.82,0,0,1-.23,0,.29.29,0,0,1-.15-.17A.83.83,0,0,1,69.68,13.52Zm.07-7.82q0,.18.15.18T70,5.7c0-.13,0-.2-.12-.2S69.75,5.57,69.75,5.7Zm.51,8.55a.09.09,0,0,0,0-.05l.1.09s.08.08.08.11a.31.31,0,0,1,0,.08s0,0,0,.1l-.18-.18a.09.09,0,0,0,0-.05.13.13,0,0,1,0-.1Zm.36-.35a.18.18,0,0,1-.17-.07s0-.06,0-.08a.39.39,0,0,1,.15,0,.34.34,0,0,1,.14,0s0,0,0,.08S70.72,13.9,70.62,13.9Zm.35-.45c0,.12,0,.17-.15.17s-.12,0-.12-.17,0-.2.12-.2S71,13.32,71,13.45Z"/><path class="cls-1" d="M75.1.88h1.7c0-.17,0-.26.16-.28a1.52,1.52,0,0,1,.29,0h.29q.21,0,.21.21V5.33a2.11,2.11,0,0,1,.17.61,5,5,0,0,1,0,.61c0,.33,0,.62,0,.86s-.08.56-.16.94a.48.48,0,0,0,.1.09c.05,0,.07.07.07.08s0,0,0,.06l0,0a.45.45,0,0,1,0,.11.46.46,0,0,1-.07.18,1.93,1.93,0,0,0-.1.19v8.13a2.19,2.19,0,0,1,.18.79c0,.25,0,.53,0,.83s0,.38,0,.57a2.2,2.2,0,0,1-.08.58.89.89,0,0,1-.28.45.81.81,0,0,1-.57.17.67.67,0,0,1-.3-.06,1.23,1.23,0,0,1-.25-.14l-.28-.13a.87.87,0,0,0-.32-.06,2,2,0,0,0-.45,0,.46.46,0,0,0-.3.35Zm.2,1a2.69,2.69,0,0,0,.13.32.75.75,0,0,0,.24.26V2.3l-.1-.2a1,1,0,0,0-.1-.18l-.1,0Zm3,5.48c.06,0,.1,0,.1.1s0,.08-.1.1-.08,0-.08-.1S78.25,7.38,78.3,7.4Z"/><path class="cls-1" d="M79,15c0,.11,0,.17-.15.17s-.15-.06-.15-.17,0-.21.15-.21S79,14.84,79,15ZM80.3,6.7a.19.19,0,0,1,.07.13.86.86,0,0,1-.82.47.77.77,0,0,1,.17-.45.56.56,0,0,1,.45-.23S80.25,6.65,80.3,6.7Zm.4.32q0,.18-.15.18c-.09,0-.13-.06-.13-.18s0-.19.13-.19S80.7,6.89,80.7,7ZM82.82,17.8a2,2,0,0,0,0-.32c0-.17,0-.35-.07-.54s0-.37-.06-.54,0-.28,0-.32c0-.24,0-.6,0-1.08s0-1,0-1.64,0-1.24,0-1.91,0-1.3,0-1.91,0-1.16,0-1.64,0-.84,0-1.07H82A.75.75,0,0,1,82,6.5l.13-.23a2,2,0,0,0,.12-.21.55.55,0,0,0,.07-.31.05.05,0,0,1,0,0s0,0,0,0L82,5.85l-.34.21-.34.23-.21.16V6.1a1,1,0,0,0,.74-.25,1.81,1.81,0,0,0,.41-.62,4.11,4.11,0,0,0,.23-.82,8.14,8.14,0,0,1,.18-.81A1.74,1.74,0,0,1,83,3a.75.75,0,0,1,.61-.25,1.55,1.55,0,0,1,.21-1,.84.84,0,0,1,.53-.26c.21,0,.43,0,.66-.05a1,1,0,0,0,.63-.29,1.11,1.11,0,0,0,.22-.3c0-.08.07-.15.1-.2a.26.26,0,0,1,.18-.1,2.2,2.2,0,0,1,.45,0V3.23a4.26,4.26,0,0,0-.49.44.93.93,0,0,0-.29.6s0,0,0,.06a.08.08,0,0,1,0,0l.18.08a.53.53,0,0,1,.19.09V5.3a.55.55,0,0,0,.35.37,5.53,5.53,0,0,0,.65.28,3.43,3.43,0,0,1,.64.28.45.45,0,0,1,.29.39.35.35,0,0,1-.29.36,2.58,2.58,0,0,1-.51.07V6.83H86.1c0-.16,0-.35,0-.58a.81.81,0,0,0-.22-.55,2.56,2.56,0,0,0-.4,1.14,13.4,13.4,0,0,0-.17,1.58c0,.56,0,1.09,0,1.6s0,.91,0,1.18v1.5a5.6,5.6,0,0,0,.2,1.5.52.52,0,0,0,.06.14,1.36,1.36,0,0,1,.13.24l.12.23a.4.4,0,0,1,.07.14v.2a.63.63,0,0,1-.18.46.7.7,0,0,0-.17.47h.35a.29.29,0,0,0-.12.09l-.08.1v.21l.08.08.12.09a.61.61,0,0,0,.18.12l.29.18a1.81,1.81,0,0,0,.29.17l.19.11a.22.22,0,0,0,0,.22.4.4,0,0,0,.19.17,1.19,1.19,0,0,0,.25.13.64.64,0,0,0,.2.05.7.7,0,0,0,.52-.22,2.23,2.23,0,0,0,.38-.53,2.8,2.8,0,0,0,.23-.63,2,2,0,0,0,.09-.52c0-.2,0-.51,0-.94s0-.9,0-1.44,0-1.09,0-1.68,0-1.16,0-1.69,0-1,0-1.44,0-.73,0-.94c0,0,0-.18,0-.39s0-.46,0-.73,0-.53-.07-.77,0-.45-.06-.58a5,5,0,0,0-.12-.71,1.33,1.33,0,0,0-.22-.48,1,1,0,0,0-.37-.3,4.69,4.69,0,0,0-.61-.21c-.1,0-.18-.15-.23-.35a1.28,1.28,0,0,0-.15-.4V.52A5.5,5.5,0,0,1,88.6.77a9.33,9.33,0,0,0,1.6.38v.2a2.51,2.51,0,0,0-.1.27c0,.15-.09.25-.1.28A.46.46,0,0,0,90,2a.46.46,0,0,1,0,.1h.35v.55a3.19,3.19,0,0,0-.57-.16,3.09,3.09,0,0,0-.58,0H88.9c-.12,0-.19.07-.23.2l.38.4h2.1l.17-.4a.33.33,0,0,1,.11.1l.09.1v.2a1,1,0,0,0-.11.18.55.55,0,0,0-.09.19.42.42,0,0,0,.06.14l.14.24c0,.08.09.16.13.24l0,.13a1,1,0,0,1,0,.19c0,.09,0,.19-.06.29a1.59,1.59,0,0,0-.06.3c0,.1,0,.16,0,.17a.66.66,0,0,0,.09.18.57.57,0,0,1,.09.2c0,.15,0,.24,0,.27a3.7,3.7,0,0,1-.11.9,3.39,3.39,0,0,0-.11.91c0,.06,0,.19,0,.38s0,.31,0,.37l.1.08s.08.08.08.11,0,.09,0,.1a.07.07,0,0,1,0,.05.13.13,0,0,0,0,.06.93.93,0,0,1-.09.17.57.57,0,0,0-.09.2,2.36,2.36,0,0,0,0,.24,3.7,3.7,0,0,0,.06.41c0,.15,0,.29.06.42s0,.22,0,.25v.7c0,.32,0,.68,0,1.07s0,.8,0,1.23,0,.85,0,1.25,0,.76,0,1.08,0,.55,0,.7a8.28,8.28,0,0,0,1.23-.09A2.55,2.55,0,0,0,94,15.9v.18l-.09.19a.56.56,0,0,1-.11.21H95.1a1.24,1.24,0,0,1-.48.19l-.46.1a.88.88,0,0,0-.35.17.47.47,0,0,0-.14.39s0,0,0-.08,0-.06,0,0a.65.65,0,0,1,.13.27,1.14,1.14,0,0,1,.07.3H93.4l.37.37H94l.2-.11a.5.5,0,0,1,.18-.08.19.19,0,0,1,.12.07c0,.05.08.09.08.12l-.2.18a.52.52,0,0,1-.25,0h-.35l-.84,0a2.37,2.37,0,0,1-.84-.19l.2-.37h-.75l-.25.34q-.17.24-.39.51c-.14.18-.27.35-.41.51l-.27.34-.34.24c-.19.12-.4.25-.63.37l-.61.35a1.17,1.17,0,0,1-.32.16l-.24,0-.45-.09-.44-.12c-.13,0-.2-.09-.2-.14v-1.7l-.17-.2v2.27h-.2l-.18-.11a.57.57,0,0,0-.2-.09.68.68,0,0,0-.19.08.9.9,0,0,0-.18.12c-.32-.2-.6-.38-.85-.56s-.5-.35-.73-.54l-.7-.56-.75-.61Zm2.88-13c0,.12,0,.17.15.17s.12,0,.12-.17,0-.2-.12-.2S85.7,4.62,85.7,4.75Zm.47,7.2c0,.12,0,.17-.15.17s-.12,0-.12-.17,0-.2.12-.2S86.17,11.82,86.17,12Zm.2-.4c0,.13-.05.2-.15.2s-.15-.07-.15-.2.05-.2.15-.2S86.37,11.42,86.37,11.55Zm0,3.22q0,.18-.15.18t-.15-.18c0-.13.05-.19.15-.19S86.37,14.64,86.37,14.77Zm.1,3c0,.12,0,.18.13.18s.15-.06.15-.18,0-.2-.15-.2S86.47,17.67,86.47,17.8Zm.18-11.53q0,.18.15.18t.12-.18c0-.13,0-.19-.12-.19S86.65,6.14,86.65,6.27Zm.2.18c0,.12,0,.17.12.17s.15,0,.15-.17-.05-.2-.15-.2S86.85,6.32,86.85,6.45Zm1.6.57q0,.18-.15.18c-.09,0-.13-.06-.13-.18s0-.19.13-.19S88.45,6.89,88.45,7Zm.27-3c0,.12,0,.17.15.17S89,4.12,89,4s0-.2-.13-.2S88.72,3.87,88.72,4Zm1.9,6.23c0,.13,0,.19.13.19s.15-.06.15-.19-.05-.21-.15-.21S90.62,10.09,90.62,10.23Zm.7.37v-.18h-.17Zm.28,7.65s-.06,0-.08-.08,0-.09.08-.09.11,0,.1.09S91.65,18.25,91.6,18.25Z"/><path class="cls-1" d="M101.06,19.34c0-.14,0-.22,0-.24s0-.05.1-.09.1-.07.1-.09a.55.55,0,0,0-.09-.19c-.06-.11-.09-.15-.11-.15v-.2a.65.65,0,0,1,.28-.49l.58-.51a4.12,4.12,0,0,0,.59-.65,1.49,1.49,0,0,0,.28-.88,2,2,0,0,0-.25-.94,6,6,0,0,0-.53-.81l-.11-.11s-.07-.07-.09-.07a.68.68,0,0,0-.17.09.57.57,0,0,1-.2.09,1,1,0,0,1-.88-.35,2,2,0,0,1-.27-.95h-.43a.64.64,0,0,1,.13-.42.75.75,0,0,0,.12-.43l0-.07-.19.08-.19.09h-.06l-.06,0a1.13,1.13,0,0,0-.2-.53,4.74,4.74,0,0,0-.49-.64,3.53,3.53,0,0,0-.58-.53.85.85,0,0,0-.46-.23,1,1,0,0,0-.12-.48c-.09-.15-.18-.29-.29-.44l-.33-.44a2.82,2.82,0,0,1-.26-.44,5.74,5.74,0,0,1-.41-1.47c-.08-.52-.14-1-.19-1.5a4.77,4.77,0,0,1-.75.24,2.8,2.8,0,0,1-.75.13h-.2a.47.47,0,0,1-.19-.1.4.4,0,0,0-.18-.1,1.46,1.46,0,0,0-.74.21,1.43,1.43,0,0,1-.71.22,3.12,3.12,0,0,1,.1-.82,1.73,1.73,0,0,1,.37-.71,2,2,0,0,1,.63.2A3.43,3.43,0,0,1,94.4,5a.44.44,0,0,1,.32-.3,1.84,1.84,0,0,1,.53-.08,5.28,5.28,0,0,1,.55,0,2.61,2.61,0,0,0,.42,0,1.13,1.13,0,0,1,.06-.36c0-.13,0-.22-.18-.26a.83.83,0,0,0,.28-.28,1.77,1.77,0,0,0,.15-.31,3.42,3.42,0,0,0,.13-.34,1.47,1.47,0,0,1,.21-.38,5.51,5.51,0,0,1,1.44-1.38,3.59,3.59,0,0,1,2-.51V3.5a5.15,5.15,0,0,0-.6.58,1.06,1.06,0,0,0-.35.72V5c0,.07,0,.22.08.46a2,2,0,0,0,.12.46c.06-.06.13,0,.2.07a1.68,1.68,0,0,1,.16.42c0,.18.07.35.1.51s0,.27,0,.31a1.4,1.4,0,0,0,.53-.11,1.8,1.8,0,0,1,.57-.1.62.62,0,0,1-.08.31,1.88,1.88,0,0,1-.16.23l-.16.23a.45.45,0,0,0-.08.26v.1l.2.15.3.22.29.24.19.16a3.1,3.1,0,0,0,1,.74l.65.25a1.32,1.32,0,0,1,.5.4,4.53,4.53,0,0,1,.52,1.19c0,.07.08.12.18.17a1.17,1.17,0,0,0,.31.12l.3.06.16,0s0,0,.09-.09.07-.09.09-.09l0,0a.77.77,0,0,0,.08.41.67.67,0,0,0,.2.18l.2.12a.3.3,0,0,1,.09.26.42.42,0,0,1-.16.37,1.17,1.17,0,0,1-.46.16l.2,1.5a.39.39,0,0,0,.11.09c.06,0,.09.08.09.11l0,.07a.58.58,0,0,1,0,.1.69.69,0,0,1-.1.21.56.56,0,0,0-.1.17s0,0,.1.1.1.08.1.1,0,0,0,.1v.15a1.14,1.14,0,0,1-.09.46c0,.14-.12.29-.18.43s-.14.28-.2.43a1.72,1.72,0,0,0-.13.45.16.16,0,0,0-.12,0,.08.08,0,0,0-.08,0s0,.13-.09.29a.8.8,0,0,1-.11.29.74.74,0,0,1-.26.11,2.86,2.86,0,0,0-.41.15.62.62,0,0,0-.3.24c-.07.1-.05.23,0,.4l-1.35,1.5-.25,0a2.14,2.14,0,0,1-1-.17c-.22-.12-.33-.37-.33-.78C101.05,19.59,101.05,19.48,101.06,19.34ZM93.55,6.9c0,.12,0,.18-.13.18s-.15-.06-.15-.18,0-.2.15-.2S93.55,6.77,93.55,6.9ZM96,3l.15,0a1,1,0,0,1-.17.32l-.15.2a1.33,1.33,0,0,0-.1.24,1.87,1.87,0,0,0,0,.38h-.13l-.2-.1a.58.58,0,0,1-.17-.1h-.1a.55.55,0,0,0-.33.16,1.21,1.21,0,0,1-.32.21s0,0,0,0v0a.81.81,0,0,1,.15-.45,2,2,0,0,1,.36-.4,2.29,2.29,0,0,1,.47-.29A1.14,1.14,0,0,1,95.8,3Zm.13,13.28a.51.51,0,0,0,0-.09,1.66,1.66,0,0,1,.07-.35l.1-.38.43-.07.63-.11.63-.12.41-.07h.4a5,5,0,0,0,.14.66,4.29,4.29,0,0,0,.3.85,2.81,2.81,0,0,0,.45.73.74.74,0,0,0,.59.31l.23.24.19.18v2.23s0,.05-.06.09a.33.33,0,0,1-.11.08.13.13,0,0,1-.1,0c-.07,0-.1,0-.1,0a.44.44,0,0,1-.2-.08l-.18-.09a.26.26,0,0,0-.2,0l-.19.19-.18.18c-.4-.31-.8-.61-1.19-.88a7.69,7.69,0,0,1-1-.89,4.09,4.09,0,0,1-.75-1.06,3.27,3.27,0,0,1-.29-1.44S96.08,16.28,96.08,16.24ZM97,19.42s0,.07-.08.1-.1,0-.1-.1,0-.11.1-.09A.09.09,0,0,1,97,19.42Zm1.1-6.61.15,0a.75.75,0,0,1-.25.29.67.67,0,0,1-.33.08h-.1a.08.08,0,0,1-.07,0c0-.18,0-.29.12-.32a1.39,1.39,0,0,1,.33,0Zm.47.19c0,.12,0,.17-.15.17s-.12-.05-.12-.17,0-.17.12-.17S98.52,12.88,98.52,13Zm.53-.45s-.06,0-.08-.1,0-.07.1-.07.12,0,.1.07S99.1,12.55,99.05,12.55Zm0,7.18c0,.11,0,.17.15.17s.13-.06.13-.17,0-.21-.13-.21S99,19.59,99,19.73Zm1.8-5.06q0,.21-.15.21t-.12-.21c0-.13,0-.19.12-.19S100.82,14.54,100.82,14.67Zm.93-10.77h-.1s-.13.13-.29.29l-.29.29a.26.26,0,0,1-.12.07c0-.07,0-.21,0-.43a2.14,2.14,0,0,0,0-.39l-.2-.21V3.38c0-.11,0-.27,0-.49s0-.47.06-.74,0-.51.06-.74,0-.39.05-.49h.58a4.24,4.24,0,0,1,1.35.22,11.48,11.48,0,0,0,1.32.36s0,.19.15.46l.4,1c.15.36.29.72.41,1.08a2.62,2.62,0,0,1,.19.78.59.59,0,0,1-.26.48,2.06,2.06,0,0,1-.63.31,4.55,4.55,0,0,1-.75.17,5.64,5.64,0,0,1-.66,0,.44.44,0,0,1-.36-.23,3.26,3.26,0,0,1-.3-.56l-.26-.63a3,3,0,0,0-.23-.45Zm-1,8.75q0,.18.15.18t.15-.18c0-.13,0-.2-.15-.2S100.72,12.52,100.72,12.65Zm.44-7.82a.31.31,0,0,1,.31-.25v.15a.29.29,0,0,1,0,.12,1.35,1.35,0,0,0-.09.26c0,.14-.07.24-.09.29a.19.19,0,0,1-.12-.07c-.05-.06-.08-.1-.08-.13A1.19,1.19,0,0,1,101.16,4.83Zm.49,2.79v.23a.41.41,0,0,1-.38-.23Zm.17,11.13c-.07,0-.12.05-.16.15a.73.73,0,0,0-.06.22h2l-.22-.37Zm1.1-9.63q0,.18-.15.18t-.12-.18c0-.11,0-.17.12-.17S102.92,9,102.92,9.12Zm0-8.54V.75l-.2-.17Zm.23,9.84q0,.18.15.18c.11,0,.17-.06.17-.18s-.06-.19-.17-.19S103.2,10.29,103.2,10.42Zm2.15,2.33c-.09,0-.11,0-.08.08s0,.09.08.09.08,0,.1-.09S105.43,12.75,105.35,12.75Zm.5-9.58v.35a.81.81,0,0,1-.3-.1.25.25,0,0,1-.18-.25ZM106,13.38c0,.13,0,.2-.15.2s-.15-.07-.15-.2,0-.21.15-.21S106,13.24,106,13.38Zm.37-.38c0,.12-.05.17-.15.17s-.12-.05-.12-.17,0-.17.12-.17S106.37,12.88,106.37,13Z"/></g></g></svg>